<?xml version="1.0" encoding="utf-8"?>
<!-- Generator: Adobe Illustrator 23.0.1, SVG Export Plug-In . SVG Version: 6.00 Build 0)  -->
<svg version="1.1" id="Capa_1" xmlns="http://www.w3.org/2000/svg" xmlns:xlink="http://www.w3.org/1999/xlink" x="0px" y="0px"
	 viewBox="0 0 512 512" style="enable-background:new 0 0 512 512;" xml:space="preserve">
<style type="text/css">
	.st0{fill:#5596E6;}
</style>
<g>
	<g>
		<path class="st0" d="M483.7,282c18.5-29.3,28.3-63.1,28.3-98C512,82.5,429.5,0,328,0c-34,0-67.2,9.3-96,27
			c-4.7,2.9-6.2,9-3.3,13.8c2.9,4.7,9,6.2,13.8,3.3C268.1,28.3,297.7,20,328,20c90.4,0,164,73.6,164,164c0,32.8-9.6,64.4-27.9,91.5
			c-2.4,3.6-2.2,8.2,0.3,11.6l11,40.9l-44-11.8c-2.9-0.8-6-0.2-8.4,1.5c-27.8,19.8-60.7,30.3-95,30.3c-19.5,0-38.6-3.4-56.8-10.1
			c-12.8-47.1-50-84.3-97.1-97.1c-6.7-18.2-10.1-37.3-10.1-56.8c0-30.6,8.5-60.5,24.6-86.4c2.9-4.7,1.5-10.9-3.2-13.8
			c-4.7-2.9-10.9-1.5-13.8,3.2c-18,29.1-27.6,62.6-27.6,96.9c0,18,2.6,35.6,7.7,52.7c-4.5-0.4-9.1-0.7-13.7-0.7
			C61.9,236,0,297.9,0,374c0,27.3,7.9,53.5,22.9,76.1l-10.7,39.9c-0.9,3.5,0.1,7.1,2.6,9.7c2.5,2.5,6.2,3.5,9.7,2.6l40.9-11
			C87.2,504.9,112.2,512,138,512c26.3,0,51.9-7.4,73.9-21.5c4.7-3,6-9.1,3.1-13.8c-3-4.7-9.1-6-13.8-3.1
			c-18.9,12-40.7,18.3-63.2,18.3c-23.4,0-46-6.8-65.4-19.8c-2.4-1.6-5.4-2.1-8.1-1.3L36,478.5l7.4-27.7c0.8-2.9,0.2-6-1.5-8.4
			C27.6,422.4,20,398.7,20,374c0-65.1,52.9-118,118-118s118,52.9,118,118c0,13.9-2.4,27.5-7.1,40.4c-1.9,5.2,0.8,10.9,6,12.8
			c5.2,1.9,10.9-0.8,12.8-6c5.5-15.1,8.3-31,8.3-47.3c0-4.6-0.2-9.2-0.7-13.7c17,5.1,34.7,7.7,52.7,7.7c36.9,0,72.3-10.8,102.6-31.3
			l56.2,15.1c3.5,0.9,7.1-0.1,9.7-2.6c2.5-2.5,3.5-6.2,2.6-9.7L483.7,282z"/>
	</g>
</g>
<g>
	<g>
		<path class="st0" d="M379.5,205.3H277.7c-5.5,0-10,4.5-10,10c0,33.6,27.3,60.9,60.9,60.9s60.9-27.3,60.9-60.9
			C389.5,209.8,385.1,205.3,379.5,205.3z M328.6,256.2c-19.1,0-35.2-13.2-39.7-30.9h79.4C363.8,243,347.7,256.2,328.6,256.2z"/>
	</g>
</g>
<g>
	<g>
		<path class="st0" d="M406.5,149.8c-2.9-4.7-9.1-6.2-13.8-3.3l-1.3,0.8c-4.7,2.9-6.2,9.1-3.3,13.8c1.9,3.1,5.2,4.7,8.5,4.7
			c1.8,0,3.6-0.5,5.2-1.5l1.3-0.8C407.9,160.7,409.4,154.5,406.5,149.8z"/>
	</g>
</g>
<g>
	<g>
		<path class="st0" d="M269.1,149.8c-2.9-4.7-9.1-6.2-13.8-3.3l-1.3,0.8c-4.7,2.9-6.2,9.1-3.3,13.8c1.9,3.1,5.2,4.7,8.5,4.7
			c1.8,0,3.6-0.5,5.2-1.5l1.3-0.8C270.5,160.7,272,154.5,269.1,149.8z"/>
	</g>
</g>
<g>
	<g>
		<path class="st0" d="M90.1,366.9c-1.9-1.9-4.4-2.9-7.1-2.9s-5.2,1.1-7.1,2.9c-1.9,1.9-2.9,4.4-2.9,7.1s1.1,5.2,2.9,7.1
			s4.4,2.9,7.1,2.9s5.2-1.1,7.1-2.9s2.9-4.4,2.9-7.1S91.9,368.8,90.1,366.9z"/>
	</g>
</g>
<g>
	<g>
		<path class="st0" d="M145.1,366.9c-1.9-1.9-4.4-2.9-7.1-2.9s-5.2,1.1-7.1,2.9c-1.9,1.9-2.9,4.4-2.9,7.1s1.1,5.2,2.9,7.1
			s4.4,2.9,7.1,2.9s5.2-1.1,7.1-2.9s2.9-4.4,2.9-7.1C148,371.4,146.9,368.8,145.1,366.9z"/>
	</g>
</g>
<g>
	<g>
		<path class="st0" d="M200.1,366.9c-1.9-1.9-4.4-2.9-7.1-2.9s-5.2,1.1-7.1,2.9c-1.9,1.9-2.9,4.4-2.9,7.1s1.1,5.2,2.9,7.1
			s4.4,2.9,7.1,2.9s5.2-1.1,7.1-2.9s2.9-4.4,2.9-7.1S201.9,368.8,200.1,366.9z"/>
	</g>
</g>
<g>
	<g>
		<path class="st0" d="M244.8,447.1c-1.9-1.9-4.4-2.9-7.1-2.9c-2.6,0-5.2,1.1-7.1,2.9s-2.9,4.4-2.9,7.1s1.1,5.2,2.9,7.1
			s4.4,2.9,7.1,2.9c2.6,0,5.2-1.1,7.1-2.9s2.9-4.4,2.9-7.1S246.7,449,244.8,447.1z"/>
	</g>
</g>
<g>
	<g>
		<path class="st0" d="M212.4,53.6c-1.9-1.9-4.4-2.9-7.1-2.9c-2.6,0-5.2,1.1-7.1,2.9c-1.9,1.9-2.9,4.4-2.9,7.1
			c0,2.6,1.1,5.2,2.9,7.1c1.9,1.9,4.4,2.9,7.1,2.9c2.6,0,5.2-1.1,7.1-2.9s2.9-4.4,2.9-7.1C215.3,58,214.2,55.4,212.4,53.6z"/>
	</g>
</g>
</svg>
