<?xml version="1.0" encoding="utf-8"?>
<!-- Generator: Adobe Illustrator 23.0.1, SVG Export Plug-In . SVG Version: 6.00 Build 0)  -->
<svg version="1.1" id="b7c4787f-e4a8-4036-aa60-d215daeece2d"
	 xmlns="http://www.w3.org/2000/svg" xmlns:xlink="http://www.w3.org/1999/xlink" x="0px" y="0px" viewBox="0 0 989.1 610.3"
	 style="enable-background:new 0 0 989.1 610.3;" xml:space="preserve">
<style type="text/css">
	.st0{fill:#F2F2F2;}
	.st1{fill:#3F3D56;}
	.st2{opacity:0.3;fill:#0062FF;enable-background:new    ;}
	.st3{fill:#2F2E41;}
	.st4{fill:#5596E6;}
	.st5{fill:#FFB8B8;}
	.st6{opacity:0.1;enable-background:new    ;}
	.st7{fill:#D0CDE1;}
</style>
<title>goals</title>
<rect x="638.3" y="-167.2" transform="matrix(0.5098 -0.8603 0.8603 0.5098 143.9846 667.0569)" class="st0" width="38" height="748.7"/>
<rect x="498.3" y="-135.2" transform="matrix(0.5098 -0.8603 0.8603 0.5098 47.8249 562.3019)" class="st0" width="38" height="748.7"/>
<rect x="374.3" y="-100.2" transform="matrix(0.5098 -0.8603 0.8603 0.5098 -43.0723 472.7823)" class="st0" width="38" height="748.7"/>
<circle class="st1" cx="569.5" cy="245.8" r="201.7"/>
<path class="st2" d="M569.5,282.6c-19.9,0-35.9-16.1-35.9-35.9s16.1-35.9,35.9-35.9c19.9,0,35.9,16.1,35.9,35.9v0
	C605.4,266.5,589.4,282.6,569.5,282.6z M569.5,212.4c-18.9,0-34.2,15.3-34.2,34.2c0,18.9,15.3,34.2,34.2,34.2
	c18.9,0,34.2-15.3,34.2-34.2v0C603.7,227.8,588.4,212.5,569.5,212.4L569.5,212.4z"/>
<path class="st2" d="M569.5,315c-37.8,0-68.4-30.6-68.4-68.4s30.6-68.4,68.4-68.4s68.4,30.6,68.4,68.4v0
	C637.9,284.4,607.3,315,569.5,315z M569.5,180c-36.8,0-66.6,29.8-66.6,66.6s29.8,66.6,66.6,66.6c36.8,0,66.6-29.8,66.6-66.6
	C636.1,209.8,606.3,180,569.5,180L569.5,180z"/>
<path class="st2" d="M569.5,343.1c-53.3,0-96.5-43.2-96.5-96.5s43.2-96.5,96.5-96.5c53.3,0,96.5,43.2,96.5,96.5
	C665.9,299.9,622.8,343,569.5,343.1z M569.5,151.9c-52.3,0-94.7,42.4-94.7,94.7s42.4,94.7,94.7,94.7s94.7-42.4,94.7-94.7l0,0
	C664.1,194.4,621.8,152,569.5,151.9L569.5,151.9z"/>
<path class="st2" d="M569.5,379.9c-73.5,0-133.3-59.8-133.3-133.3c0-73.5,59.8-133.3,133.3-133.3c73.5,0,133.3,59.8,133.3,133.3
	C702.8,320.1,643,379.9,569.5,379.9z M569.5,115.1c-72.5,0-131.5,59-131.5,131.5c0,72.5,59,131.5,131.5,131.5
	c72.5,0,131.5-59,131.5-131.5C701,174.1,642,115.1,569.5,115.1L569.5,115.1z"/>
<path class="st2" d="M569.5,410.6c-90.4,0-164-73.6-164-164s73.6-164,164-164s164,73.6,164,164S659.9,410.6,569.5,410.6z
	 M569.5,84.4c-89.4,0-162.2,72.8-162.2,162.2c0,89.4,72.8,162.2,162.2,162.2c89.4,0,162.2-72.8,162.2-162.2
	C731.7,157.2,659,84.4,569.5,84.4L569.5,84.4z"/>
<circle class="st2" cx="569.5" cy="245.8" r="16.7"/>
<circle class="st2" cx="612.5" cy="294" r="16.7"/>
<ellipse transform="matrix(0.1602 -0.9871 0.9871 0.1602 133.169 730.4546)" class="st2" cx="495.9" cy="287" rx="16.7" ry="16.7"/>
<circle class="st3" cx="569.5" cy="245.8" r="7.9"/>
<circle class="st3" cx="495.9" cy="287" r="7.9"/>
<circle class="st3" cx="612.5" cy="294.9" r="7.9"/>
<circle class="st4" cx="937.8" cy="157.2" r="7.9"/>
<polygon class="st3" points="569.9,246.2 568.2,246.2 568.2,155.9 916.3,155.9 916.3,157.6 569.9,157.6 "/>
<path class="st3" d="M937.8,180c-12.6,0-22.8-10.2-22.8-22.8c0-12.6,10.2-22.8,22.8-22.8c12.6,0,22.8,10.2,22.8,22.8
	C960.6,169.8,950.4,180,937.8,180z M937.8,136.2c-11.6,0-21,9.4-21,21c0,11.6,9.4,21,21,21c11.6,0,21-9.4,21-21
	C958.8,145.6,949.4,136.2,937.8,136.2L937.8,136.2z"/>
<circle class="st4" cx="885.2" cy="384.3" r="7.9"/>
<path class="st3" d="M885.2,407.1c-12.6,0-22.8-10.2-22.8-22.8s10.2-22.8,22.8-22.8c12.6,0,22.8,10.2,22.8,22.8l0,0
	C907.9,396.9,897.8,407.1,885.2,407.1z M885.2,363.2c-11.6,0-21,9.4-21,21s9.4,21,21,21s21-9.4,21-21
	C906.2,372.7,896.8,363.3,885.2,363.2L885.2,363.2z"/>
<circle class="st4" cx="251.2" cy="194" r="7.9"/>
<path class="st3" d="M251.2,216.8c-12.6,0-22.8-10.2-22.8-22.8s10.2-22.8,22.8-22.8S274,181.4,274,194
	C274,206.6,263.8,216.8,251.2,216.8z M251.2,173c-11.6,0-21,9.4-21,21c0,11.6,9.4,21,21,21c11.6,0,21-9.4,21-21c0,0,0,0,0,0
	C272.3,182.4,262.8,173,251.2,173L251.2,173z"/>
<polygon class="st3" points="496.7,287 495,287 495,198.4 273.1,194.9 273.2,193.1 496.7,196.7 "/>
<polygon class="st3" points="863.2,385.2 611.6,385.2 611.6,294.9 613.4,294.9 613.4,383.4 863.2,383.4 "/>
<rect x="889.5" y="198.4" class="st3" width="96.5" height="6.1"/>
<rect x="889.5" y="215.9" class="st3" width="96.5" height="6.1"/>
<rect x="889.5" y="233.5" class="st3" width="96.5" height="6.1"/>
<rect x="836.9" y="425.5" class="st3" width="96.5" height="6.1"/>
<rect x="836.9" y="443" class="st3" width="96.5" height="6.1"/>
<rect x="836.9" y="460.6" class="st3" width="96.5" height="6.1"/>
<rect x="203" y="236.1" class="st3" width="96.5" height="6.1"/>
<rect x="203" y="253.6" class="st3" width="96.5" height="6.1"/>
<rect x="203" y="271.2" class="st3" width="96.5" height="6.1"/>
<ellipse class="st0" cx="577.4" cy="575.4" rx="192" ry="6.1"/>
<rect y="608.3" class="st3" width="648" height="2"/>
<path class="st5" d="M74,179.2c0,0,9.2,26.1,3.5,30.1s19.1,36.8,19.1,36.8l29.7-8L110,210.7c0,0-2.1-27.5-2.1-31.5
	S74,179.2,74,179.2z"/>
<path class="st6" d="M74,179.2c0,0,9.2,26.1,3.5,30.1s19.1,36.8,19.1,36.8l29.7-8L110,210.7c0,0-2.1-27.5-2.1-31.5
	S74,179.2,74,179.2z"/>
<path class="st3" d="M58.6,365.4c0,0-2.7,33.5,0,50.9s6.7,65.6,6.7,65.6s0,91.1,14.7,92.4s25.5,2.7,26.8-2.7s-6.7-8-2.7-10.7
	s5.4-12.1,0-22.8s0-119.2,0-119.2l25.5,68.3c0,0,2.7,56.3,5.4,64.3s-2.7,22.8,6.7,24.1s20.1-6.7,25.5-9.4s-8-2.7-5.4-4
	s10.7-5.4,8-6.7s-5.4-65.6-5.4-65.6s-7.4-137.3-16.7-142.7s-15.4,3.9-15.4,3.9L58.6,365.4z"/>
<path class="st3" d="M82.7,569v10.7c0,0-12.1,29.1,0,29.1s21.4,3,21.4-1v-36.2L82.7,569z"/>
<path class="st3" d="M161.7,569v10.7c0,0,12.1,29.1,0,29.1s-21.4,3-21.4-1v-36.2L161.7,569z"/>
<circle class="st5" cx="92.7" cy="174.5" r="24.1"/>
<path class="st7" d="M85.4,219.4c0,0,6.7,20.1,17.4,16.1l10.7-4L132.3,360c0,0-14.7,21.4-36.2,8S85.4,219.4,85.4,219.4z"/>
<path class="st1" d="M104.1,215.4l6-12.7c0,0,35.5,16.7,40.9,22.1s5.4,13.4,5.4,13.4l-9.4,33.5c0,0,2.7,73.7,2.7,76.4
	c0,2.7,9.4,17.4,2.7,12.1s-8-10.7-13.4-2.7c-5.4,8-17.4,17.4-17.4,17.4L104.1,215.4z"/>
<path class="st5" d="M151,311.8l-4,37.5c0,0-24.1,21.4-18.8,22.8c5.4,1.3,8-4,8-4s9.4,9.4,14.7,4s18.8-56.3,18.8-56.3L151,311.8z"/>
<path class="st3" d="M93.3,140.4c-5.3-0.2-11.1-0.3-15.6,2.6c-2.1,1.4-3.9,3.2-5.4,5.3c-4.4,5.5-8.2,12.5-6.6,19.4l1.9-0.7
	c0,1.8-0.4,3.7-1.2,5.3c0.3-0.8,1.2,0.5,0.9,1.3l-2.1,6.8c3.4-1,7,0.9,8.1,4.3c0.1,0.2,0.1,0.4,0.2,0.6c0.2-7.9,1.1-17.1,7.5-21.7
	c3.3-2.3,7.4-3.1,11.3-3.7c3.7-0.6,7.5-1.1,11,0.1s6.5,4.8,5.7,8.4c1.6-0.6,3.4,0.6,4.2,2.1c0.7,1.6,1,3.3,0.9,5
	c1.7,1.2,3.7-1.2,4.4-3.2c1.6-4.7,3.1-9.6,2.2-14.5s-4.8-9.5-9.8-9.5c0.6-0.7,0.9-1.5,0.9-2.4l-4.1-0.3c1-0.1,2-0.6,2.7-1.4
	C108.8,145.8,95.9,140.5,93.3,140.4z"/>
<path class="st1" d="M92.1,211.3c0,0-10.9-10.7-14.8-10s-9.3,10-9.3,10s-32.2,10.7-30.8,21.4s16.1,63,16.1,63s12.1,63,1.3,69.7
	c-10.7,6.7,50.9,24.1,52.2,16.1s4-88.4,0-100.5C102.8,268.9,92.1,211.3,92.1,211.3z"/>
<path class="st5" d="M49.2,323.9l18.8,8c0,0,36.2,5.4,36.2-9.4c0-14.7-36.2-6.7-36.2-6.7L55.9,312L49.2,323.9z"/>
<path class="st1" d="M139,232.8h16.6c0,0,11.6,50.9,12.9,56.3s4,30.8,2.7,30.8s-28.1-5.4-28.1-1.3L139,232.8z"/>
<path class="st1" d="M53.2,224.7l-16.1,4l-12.1,71c0,0-4,18.8,2.7,20.1c6.7,1.3,25.5,12.1,25.5,12.1s2.7-20.1,8-20.1l-13.4-10.7
	l8-46.9L53.2,224.7z"/>
<path class="st1" d="M509,569.3h-26v-26h26V569.3z M485,567.3h22v-22h-22V567.3z"/>
<circle class="st4" cx="525" cy="559.3" r="10"/>
</svg>
