<?xml version="1.0" encoding="utf-8"?>
<!-- Generator: Adobe Illustrator 23.0.1, SVG Export Plug-In . SVG Version: 6.00 Build 0)  -->
<svg version="1.1" id="Layer_1" xmlns="http://www.w3.org/2000/svg" xmlns:xlink="http://www.w3.org/1999/xlink" x="0px" y="0px"
	 viewBox="0 0 512 512" style="enable-background:new 0 0 512 512;" xml:space="preserve">
<style type="text/css">
	.st0{fill:#5596E6;}
	.st1{fill:#41D6C3;}
	.st2{fill:#D4E1F4;}
</style>
<title>cart location map</title>
<path class="st0" d="M250.5,434.3c0-21.2-17.2-38.5-38.5-38.5s-38.5,17.2-38.5,38.5s17.2,38.5,38.5,38.5c0,0,0,0,0,0
	C233.2,472.8,250.5,455.6,250.5,434.3z M185.5,434.3c0-14.6,11.9-26.5,26.5-26.5s26.5,11.9,26.5,26.5c0,14.6-11.9,26.5-26.5,26.5
	C197.4,460.8,185.6,449,185.5,434.3z"/>
<path class="st0" d="M358.2,472.8c21.2,0,38.5-17.2,38.5-38.5s-17.2-38.5-38.5-38.5c-21.2,0-38.5,17.2-38.5,38.5
	C319.7,455.6,336.9,472.8,358.2,472.8z M358.2,407.9c14.6,0,26.5,11.9,26.5,26.5s-11.9,26.5-26.5,26.5c-14.6,0-26.5-11.9-26.5-26.5
	C331.7,419.7,343.6,407.9,358.2,407.9z"/>
<path class="st0" d="M456,143.8H342v12h105.6l-36.9,106.6c-4.1,11.9-15.3,19.9-27.9,19.9h-217l-20-126.5H264v-12H143.8l-4.1-25.6
	c-3.1-20.2-20.6-35.1-41-35H56c-3.3,0-6,2.7-6,6s2.7,6,6,6h42.7c14.5-0.1,26.9,10.5,29.2,24.9l33.8,213.5c3.1,20.2,20.6,35.1,41,35
	h208.9c3.3,0,6-2.7,6-6s-2.7-6-6-6H202.7c-14.5,0.1-26.9-10.5-29.2-24.9l-5.9-37.5h215.2c17.7,0,33.4-11.2,39.2-27.9l39.7-114.6
	c1.1-3.1-0.6-6.5-3.7-7.6C457.3,143.9,456.7,143.8,456,143.8z"/>
<path class="st1" d="M349.6,57.6c-25.7-24.5-67.5-24.5-93.1,0c-22.2,20.8-25.8,54.6-8.5,79.6l50.1,72.4c1.9,2.7,5.6,3.4,8.3,1.5
	c0.6-0.4,1.1-0.9,1.5-1.5l50.1-72.4C375.3,112.2,371.7,78.4,349.6,57.6z M348.2,130.4L303,195.6l-45.2-65.3
	c-13.9-20.1-11-47.4,6.9-64.1c21.6-20.1,55-20.1,76.6,0C359.1,83,362.1,110.3,348.2,130.4L348.2,130.4z"/>
<path class="st1" d="M303,66c-19.9,0-36.1,16.2-36.1,36.1c0,19.9,16.2,36.1,36.1,36.1c19.9,0,36.1-16.2,36.1-36.1
	C339.1,82.2,322.9,66.1,303,66z M303,126.2c-13.3,0-24.1-10.8-24.1-24.1c0-13.3,10.8-24.1,24.1-24.1c13.3,0,24.1,10.8,24.1,24.1
	C327.1,115.4,316.3,126.2,303,126.2z"/>
<path class="st2" d="M277.8,130.4c-13.9-20.1-11-47.4,6.9-64.1c7.8-7.4,17.7-12.4,28.3-14.2c-3.3-0.6-6.6-0.9-10-0.9
	c-14.2-0.1-27.9,5.3-38.3,15.1c-17.9,16.7-20.8,44-6.9,64.1l45.2,65.3l10-14.5L277.8,130.4z"/>
<polygon class="st2" points="145.7,155.8 165.7,282.3 185.7,282.3 165.7,155.8 "/>
</svg>
