<?xml version="1.0" encoding="utf-8"?>
<!-- Generator: Adobe Illustrator 23.0.1, SVG Export Plug-In . SVG Version: 6.00 Build 0)  -->
<svg version="1.1" id="Layer_1" xmlns="http://www.w3.org/2000/svg" xmlns:xlink="http://www.w3.org/1999/xlink" x="0px" y="0px"
	 viewBox="0 0 883 711.9" style="enable-background:new 0 0 883 711.9;" xml:space="preserve">
<style type="text/css">
	.st0{fill:#F2F2F2;}
	.st1{opacity:0.5;}
	.st2{fill:url(#SVGID_1_);}
	.st3{opacity:2.000000e-02;enable-background:new    ;}
	.st4{fill:url(#SVGID_2_);}
	.st5{fill:#FCCC63;}
	.st6{fill:#5596E6;}
	.st7{fill:#0062FF;}
	.st8{fill:#498CCE;}
	.st9{fill:#FFFFFF;}
	.st10{opacity:0.2;}
	.st11{fill:url(#SVGID_3_);}
	.st12{fill:url(#SVGID_4_);}
	.st13{fill:#CA7070;}
	.st14{fill:#00695C;}
	.st15{opacity:0.2;fill:#FFFFFF;enable-background:new    ;}
	.st16{fill:#263238;}
	.st17{fill:#FF5252;}
	.st18{fill:#F6B9AD;}
	.st19{fill:none;stroke:#B3B3B3;stroke-miterlimit:10;}
	.st20{opacity:5.000000e-02;enable-background:new    ;}
	.st21{fill:url(#SVGID_5_);}
	.st22{fill:#41D6C3;}
	.st23{fill:url(#SVGID_6_);}
</style>
<title>air support</title>
<path class="st0" d="M646.3,24.9h180.9c5.5,0,10,4.5,10,10v1.8c0,5.5-4.5,10-10,10H646.3c-5.5,0-10-4.5-10-10v-1.8
	C636.3,29.4,640.8,24.9,646.3,24.9z"/>
<path class="st0" d="M691.3,43.4h180.9c5.5,0,10,4.5,10,10v1.8c0,5.5-4.5,10-10,10H691.3c-5.5,0-10-4.5-10-10v-1.8
	C681.3,47.8,685.8,43.4,691.3,43.4z"/>
<path class="st0" d="M615,59.5h180.9c5.5,0,10,4.5,10,10v1.8c0,5.5-4.5,10-10,10H615c-5.5,0-10-4.5-10-10v-1.8
	C605,63.9,609.5,59.5,615,59.5z"/>
<path class="st0" d="M302.4,273.2h180.9c5.5,0,10,4.5,10,10v1.8c0,5.5-4.5,10-10,10H302.4c-5.5,0-10-4.5-10-10v-1.8
	C292.5,277.6,296.9,273.2,302.4,273.2z"/>
<path class="st0" d="M347.4,291.7h180.9c5.5,0,10,4.5,10,10v1.8c0,5.5-4.5,10-10,10H347.4c-5.5,0-10-4.5-10-10v-1.8
	C337.5,296.1,341.9,291.7,347.4,291.7z"/>
<path class="st0" d="M271.1,307.7H452c5.5,0,10,4.5,10,10v1.8c0,5.5-4.5,10-10,10H271.1c-5.5,0-10-4.5-10-10v-1.8
	C261.1,312.2,265.6,307.7,271.1,307.7z"/>
<g class="st1">
	
		<linearGradient id="SVGID_1_" gradientUnits="userSpaceOnUse" x1="599.96" y1="-91.53" x2="599.96" y2="81.539" gradientTransform="matrix(1 0 0 -1 -158.5 617.93)">
		<stop  offset="0" style="stop-color:#808080;stop-opacity:0.25"/>
		<stop  offset="0.54" style="stop-color:#808080;stop-opacity:0.12"/>
		<stop  offset="1" style="stop-color:#808080;stop-opacity:0.1"/>
	</linearGradient>
	<path class="st2" d="M852.5,686.1c-4.8,0-115.7,48.2-244.3-78.7c-69.8-68.9-138.2-76.3-186.1-68.6c-29.5,4.7-56.3,19.1-77.6,39.9
		c-17.1,16.8-58.6,39.7-155.7,33.5C39.3,602.6,0,709.5,0,709.5h883C883,709.5,857.3,686.1,852.5,686.1z"/>
</g>
<path class="st0" d="M0,711.9c0,0,39.4-106.9,188.8-97.2c97.1,6.3,138.6-16.7,155.7-33.5c21.3-20.9,48.1-35.2,77.6-39.9
	c47.9-7.7,116.3-0.3,186.1,68.6c128.5,127,239.4,78.7,244.3,78.7s30.5,23.3,30.5,23.3H0z"/>
<path class="st3" d="M0,711.9c0,0,39.4-106.9,188.8-97.2c97.1,6.3,138.6-16.7,155.7-33.5c21.3-20.9,48.1-35.2,77.6-39.9
	c47.9-7.7,116.3-0.3,186.1,68.6c128.5,127,239.4,78.7,244.3,78.7s30.5,23.3,30.5,23.3H0z"/>
<path class="st0" d="M101.5,123.7h180.9c5.5,0,10,4.5,10,10v1.8c0,5.5-4.5,10-10,10H101.5c-5.5,0-10-4.5-10-10v-1.8
	C91.6,128.2,96,123.7,101.5,123.7z"/>
<path class="st0" d="M146.6,142.2h180.9c5.5,0,10,4.5,10,10v1.8c0,5.5-4.5,10-10,10H146.6c-5.5,0-10-4.5-10-10v-1.8
	C136.6,146.7,141,142.2,146.6,142.2z"/>
<path class="st0" d="M70.2,158.3h180.9c5.5,0,10,4.5,10,10v1.8c0,5.5-4.5,10-10,10H70.2c-5.5,0-10-4.5-10-10v-1.8
	C60.3,162.7,64.7,158.3,70.2,158.3z"/>
<g class="st1">
	
		<linearGradient id="SVGID_2_" gradientUnits="userSpaceOnUse" x1="199.26" y1="549.7" x2="199.26" y2="712" gradientTransform="matrix(1 0 0 -1 0 712)">
		<stop  offset="0" style="stop-color:#808080;stop-opacity:0.25"/>
		<stop  offset="0.54" style="stop-color:#808080;stop-opacity:0.12"/>
		<stop  offset="1" style="stop-color:#808080;stop-opacity:0.1"/>
	</linearGradient>
	<circle class="st4" cx="199.3" cy="81.2" r="81.2"/>
</g>
<circle class="st5" cx="199.3" cy="81.2" r="72.3"/>
<rect x="161" y="590.6" class="st6" width="62.9" height="46.7"/>
<path class="st7" d="M155.5,588.7l35.1-35.2c1.1-1.1,2.8-1.1,3.9,0c0,0,0,0,0,0l34.9,34.9c1.1,1.1,1.1,2.8,0,3.9
	c-0.5,0.5-1.2,0.8-1.9,0.8l-70,0.3c-1.5,0-2.8-1.2-2.8-2.7C154.7,590,155,589.3,155.5,588.7z"/>
<path class="st8" d="M155.5,588.7l35.1-35.2c1.1-1.1,2.8-1.1,3.9,0c0,0,0,0,0,0l34.9,34.9c1.1,1.1,1.1,2.8,0,3.9
	c-0.5,0.5-1.2,0.8-1.9,0.8l-70,0.3c-1.5,0-2.8-1.2-2.8-2.7C154.7,590,155,589.3,155.5,588.7z"/>
<path class="st9" d="M191.6,616.3h1.3c3.9,0,7.1,3.2,7.1,7.1v14l0,0h-15.5l0,0v-14C184.5,619.5,187.7,616.3,191.6,616.3z"/>
<circle class="st9" cx="192.6" cy="562.2" r="3.9"/>
<rect x="165.9" y="596.6" class="st9" width="14.8" height="11.2"/>
<rect x="172.6" y="596.6" class="st6" width="1.4" height="11.2"/>
<rect x="205.3" y="596.6" class="st9" width="14.8" height="11.2"/>
<rect x="211.9" y="596.6" class="st6" width="1.4" height="11.2"/>
<g class="st10">
	
		<linearGradient id="SVGID_3_" gradientUnits="userSpaceOnUse" x1="3239.0288" y1="76.74" x2="3239.0288" y2="76.78" gradientTransform="matrix(-1 0 0 -1 3691.5 617.93)">
		<stop  offset="0" style="stop-color:#808080;stop-opacity:0.25"/>
		<stop  offset="0.54" style="stop-color:#808080;stop-opacity:0.12"/>
		<stop  offset="1" style="stop-color:#808080;stop-opacity:0.1"/>
	</linearGradient>
	<path class="st11" d="M452.5,541.1L452.5,541.1C452.4,541.1,452.5,541.1,452.5,541.1z"/>
</g>
<g class="st10">
	
		<linearGradient id="SVGID_4_" gradientUnits="userSpaceOnUse" x1="3233.7307" y1="47.7" x2="3233.7307" y2="77.57" gradientTransform="matrix(-1 0 0 -1 3691.5 617.93)">
		<stop  offset="0" style="stop-color:#808080;stop-opacity:0.25"/>
		<stop  offset="0.54" style="stop-color:#808080;stop-opacity:0.12"/>
		<stop  offset="1" style="stop-color:#808080;stop-opacity:0.1"/>
	</linearGradient>
	<path class="st12" d="M454,570.2h0.1c0.1,0,0.1-0.1,0.1-0.1c0,0,0-0.1,0-0.1v-0.1c-0.1-0.2-0.3-0.6-0.5-0.8l-0.1-0.2
		c0-0.1,0-0.1,0-0.2c0,0,0-0.1,0-0.1l2.2-7.1l0,0l0-0.2c0,0,2.8,1.2,3.5,3.5c0.4,1.1,0.4,2.4,0.1,3.5l0,0l0,0l0,0.1h0v1.3h3
		c0.2-0.1-0.1-0.4-0.3-0.6l-0.1-0.1l-0.2-0.2l0,0c-0.1-0.1-0.1-0.1-0.1-0.2l0-0.1v-0.1h-0.1v-0.1c0.8-3.5-0.4-7.2-3.1-9.7l0,0
		c0.7-2.2,0.7-4.5,0-6.7c0.3-0.2,5.7-4.1,5.7-9.2c0-0.3,0-0.5,0-0.8c0,0,0.5-0.4,0-1.1v-0.1l0,0l0,0l0,0l0,0l0,0l0,0l0,0l0,0l0,0
		l0,0l0,0l0,0l0,0h0h-0.3c-0.2,0-0.4,0.1-0.6,0.2c0,0-0.3,1,0,1.3h-0.1c0,0-3.2,7-5.4,8l-0.2-0.1v-0.9c0,0,0-0.1,0-0.1l0,0
		c0,0,0-0.1,0-0.1c0.2-0.1,0.5-0.3,0.7-0.5l0,0c0.1-0.1,0.1-0.2,0.2-0.2l0,0l0.1-0.1l0,0l0.1-0.1l0,0l0.1-0.1l0,0
		c0-0.1,0.1-0.2,0.1-0.3l0,0v-0.1l0,0v-0.2l0,0c0,0,0-0.1,0-0.1l0,0c0,0,0-0.1,0-0.2c0-0.3-0.1-0.6-0.2-0.8c0-0.1,0-0.1-0.1-0.2
		l0-0.1l-0.1-0.1c0.1-0.1,0.1-0.1,0.2-0.2c0.1-0.1,0.3-0.1,0.5-0.1h0.4h0.1c0.1,0,0.1-0.1,0.2-0.1c0.1-0.1,0.2-0.1,0.3-0.1h-0.6
		h-0.1h-0.1H459h-0.1h-0.1h-0.1h-0.1h-0.1l0,0l-0.2-0.1c0.1,0,0.2,0.1,0.3,0.1h0.3h0.1l0,0l0,0l0,0l0,0l0,0l0,0l0,0l0,0l0.1,0l0,0
		l0,0l0,0l0,0l0,0l0,0l0,0v-0.1h-0.1H459l0,0c-0.1,0-0.3,0-0.4,0h-0.3l0,0h-0.1l0,0l-0.1,0l0,0c0.3,0.1,0.7-0.1,0.8-0.4
		s-0.1-0.7-0.4-0.8l0.1-0.1c0.1-0.1,0.2-0.2,0.2-0.4c0-0.1,0-0.1,0-0.2l-0.1,0.1h-0.1c-0.2,0.1-0.4,0.2-0.7,0.2h-0.1
		c-0.2-0.1-0.4-0.1-0.6-0.2l-0.2-0.1h0H457h-0.1h-0.1h-0.5c-0.7,0-1.5,0.3-2,0.8c-0.1,0.1-0.2,0.3-0.3,0.4c-0.1-0.7,0.1-1.5,0.4-2.1
		h-0.1l0,0h-0.2l-0.1,0.2c0-0.2,0.1-0.5,0.3-0.7h-0.1c0.3-0.3,0.3-0.8,0-1.1c-0.5-0.7-1.3-0.2-1.3-0.2c-0.1,0.2-0.1,0.5-0.1,0.7
		l-0.1-0.1c-0.2,0.5-1.9,6.7,1,10.7c0,0.1,0,0.2,0,0.3v6.7l-2,9.2l0,0l0,0l0,0l-0.4,1.7L454,570.2L454,570.2z M454.5,548.5
		c0.2,0.1,0.3,0.2,0.5,0.3c0,0.1,0,0.1,0,0.2v0.9l-0.2,0.1C454.7,549.6,454.6,549.1,454.5,548.5L454.5,548.5z"/>
</g>
<path class="st13" d="M464.2,542.9c0,0,0.5-0.4,0-1.2s-1.5-0.2-1.5-0.2s-0.3,1.1,0,1.4S464.2,542.9,464.2,542.9z"/>
<path class="st14" d="M458.8,572h2.4c0,0.2,0.1,0.5,0.2,0.6c0.3,0.4,1,0.8,0.7,1h-3.3V572z"/>
<path class="st15" d="M461.2,572.6c-0.2-0.2-0.2-0.4-0.2-0.6h0.2c0,0.2,0.1,0.5,0.2,0.6c0.3,0.4,1,0.8,0.7,1h-0.2
	C462.2,573.5,461.5,573,461.2,572.6z"/>
<path class="st14" d="M450.2,571.5l2.3,0.4c-0.1,0.3,0,0.5,0.1,0.8c0.3,0.5,0.8,1.2,0.5,1.3l-3.3-0.5L450.2,571.5z"/>
<path class="st14" d="M451.3,541.8c0,0-2.6,8.1,1.7,12.6l1.3-1c0,0-2.5-8.8-1.1-10.9C450.7,541.7,451.3,541.8,451.3,541.8z"/>
<path class="st13" d="M453.1,542.5c0,0,0.5-0.4,0-1.2s-1.5-0.2-1.5-0.2s-0.3,1.1,0,1.4S453.1,542.5,453.1,542.5z"/>
<path class="st15" d="M452.4,572.7c-0.1-0.2-0.2-0.5-0.1-0.8l-2.1-0.3l0,0l2.3,0.4c-0.1,0.3,0,0.5,0.1,0.8c0.3,0.5,0.8,1.2,0.5,1.3
	h-0.1C453.2,573.8,452.6,573.2,452.4,572.7z"/>
<path class="st13" d="M455.3,553h-0.2c-0.6,0-1.1-0.5-1.1-1.1v-1.4c0-0.6,0.5-1.1,1.1-1.1h0.2c0.6,0,1.1,0.5,1.1,1.1v1.4
	C456.5,552.5,456,553,455.3,553z"/>
<path class="st15" d="M454.1,553.9c0,0-2.5-8.7-1.2-10.9h0.2l0,0h0.1c-1.4,2.1,1.1,10.9,1.1,10.9l-1.3,1l-0.1-0.1L454.1,553.9z"/>
<circle class="st13" cx="455.2" cy="547.9" r="2.7"/>
<path class="st15" d="M456.2,551.8v-1.2c0-0.1,0-0.2,0-0.3c1.3-0.7,1.9-2.3,1.2-3.6c-0.4-0.9-1.3-1.4-2.3-1.5h0.2
	c1.5,0,2.7,1.2,2.7,2.7c0,1-0.6,1.9-1.5,2.4c0,0.1,0,0.2,0,0.3v1.2c0,0.7-0.5,1.2-1.2,1.2h-0.2C455.7,552.9,456.2,552.4,456.2,551.8
	z"/>
<path class="st14" d="M452.5,561.4c0,0,5.2,0.6,5.4,0c0.8-2.4,0.8-5,0-7.4c0-1.5-1.2-2.7-2.7-2.7l0,0l0,0c-1.5,0-2.7,1.2-2.7,2.7
	l0,0V561.4z"/>
<path class="st16" d="M452.5,561.4l-2.3,10.8h2.3l2.4-8c0,0,3,1.3,3.8,3.9c0.5,1.3,0.5,2.8,0,4.1h2.5v-0.1c0.9-3.9-0.5-8-3.4-10.7
	l0,0"/>
<path class="st15" d="M457.5,561.4c0.8-2.4,0.8-5,0-7.4c0-1.4-1.1-2.6-2.5-2.7h0.2c1.5,0,2.7,1.2,2.7,2.7l0,0c0.8,2.4,0.8,5,0,7.4
	c-0.1,0.2-0.8,0.3-1.7,0.3C456.9,561.6,457.5,561.6,457.5,561.4z"/>
<path class="st14" d="M457.9,553.9c0,0,7-4.9,6.3-11.1h-1.6c0,0-3.8,8.1-6.1,8.9S457.9,553.9,457.9,553.9z"/>
<g class="st10">
	<path class="st9" d="M454.8,564.3l-2.4,7.9h-0.3l2.4-8L454.8,564.3z"/>
	<path class="st9" d="M457.5,561.4h0.3c3,2.7,4.3,6.8,3.4,10.7v0.1h-0.3v-0.1C461.8,568.2,460.5,564.1,457.5,561.4z"/>
</g>
<path class="st15" d="M463.9,542.9h0.3c0.7,6.2-6.3,11.1-6.3,11.1l-0.2-0.1C458.5,553.3,464.5,548.7,463.9,542.9z"/>
<path class="st16" d="M457.3,546.7c-0.1,0.3-0.3,0.7-0.3,1.1c-0.1,0.8-0.6,1.5-1.2,1.9c-0.4,0.2-0.8,0.3-1.2,0.3
	c-0.6,0.1-1.3-0.1-1.8-0.5c-0.3-0.3-0.5-0.7-0.5-1.1c-0.3-1.2,0.1-2.5,1-3.4c0.9-0.9,2.3-1.2,3.5-0.7c0.2,0.1,0.4,0.2,0.7,0.2
	c0.4,0.1,0.7,0,1-0.3c0.1,0.3-0.1,0.7-0.4,0.8c-0.1,0-0.1,0-0.2,0c0.4,0.2,0.9,0.2,1.3,0.1c-0.2,0.5-0.8,0.8-1.4,0.5
	c0.5,0.2,1,0.3,1.6,0.3c-0.1,0-0.3,0.2-0.5,0.3c-0.2,0-0.3,0-0.5,0C457.9,546.1,457.5,546.3,457.3,546.7z"/>
<g class="st10">
	<path class="st9" d="M457.7,544.9c0.2,0.1,0.4,0.1,0.6,0.2c-0.3,0-0.6,0-0.8-0.2c0.3,0,0.6-0.3,0.6-0.6c0,0,0,0,0-0.1l0.1-0.1
		c0.1,0.3-0.1,0.7-0.4,0.8C457.8,544.9,457.8,544.9,457.7,544.9z"/>
	<path class="st9" d="M457.2,544.5c-0.2-0.1-0.4-0.1-0.7-0.2c-0.3-0.1-0.7-0.2-1-0.2c0.4,0,0.8,0.1,1.2,0.2c0.2,0.1,0.4,0.2,0.7,0.2
		h0.1C457.4,544.5,457.3,544.5,457.2,544.5z"/>
	<path class="st9" d="M458.5,546.1c0.1,0,0.4-0.3,0.5-0.3c-0.5,0-1.1-0.1-1.6-0.3c0.1,0,0.2,0.1,0.3,0.1c0.4,0.2,0.9,0.3,1.4,0.2
		c-0.1,0-0.3,0.2-0.5,0.3c-0.1,0-0.2,0-0.4,0L458.5,546.1z"/>
	<path class="st9" d="M454.4,550c0.4,0,0.8-0.1,1.2-0.3c0.7-0.4,1.1-1.1,1.2-1.9c0.1-0.4,0.2-0.7,0.3-1.1c0.2-0.3,0.5-0.5,0.8-0.6
		h0.2c-0.4,0-0.7,0.2-0.8,0.6c-0.1,0.3-0.3,0.7-0.3,1.1c-0.1,0.8-0.6,1.5-1.2,1.9c-0.4,0.2-0.8,0.3-1.2,0.3H454.4z"/>
	<path class="st9" d="M457.9,545.6c0.4,0,0.7-0.2,0.9-0.6l0.2-0.1C458.8,545.4,458.4,545.7,457.9,545.6z"/>
</g>
<path class="st15" d="M464,542.9c0,0,0.5-0.4,0-1.2c-0.1-0.2-0.4-0.4-0.7-0.4c0.3,0,0.6,0.1,0.8,0.4c0.5,0.8,0,1.2,0,1.2
	c-0.3,0.1-0.7,0.1-1,0.1C463.4,543,463.7,542.9,464,542.9z"/>
<path class="st17" d="M475.9,533.1c0,0-2.6,8.1,1.7,12.6l1.3-1c0,0-2.5-8.8-1.1-10.9C475.3,533,475.9,533.1,475.9,533.1z"/>
<path class="st18" d="M477.7,533.9c0,0,0.5-0.4,0-1.2s-1.5-0.2-1.5-0.2s-0.3,1.1,0,1.4S477.7,533.9,477.7,533.9z"/>
<path class="st18" d="M479.9,544.3h-0.2c-0.6,0-1.1-0.5-1.1-1.1v-1.4c0-0.6,0.5-1.1,1.1-1.1h0.2c0.6,0,1.1,0.5,1.1,1.1v1.4
	C481.1,543.8,480.5,544.3,479.9,544.3z"/>
<path class="st15" d="M478.7,545.3c0,0-2.5-8.7-1.2-10.9h0.2l0,0h0.1c-1.4,2.1,1.1,10.9,1.1,10.9l-1.3,1l-0.1-0.1L478.7,545.3z"/>
<circle class="st18" cx="479.8" cy="539.3" r="2.7"/>
<path class="st15" d="M480.7,543.1v-1.2c0-0.1,0-0.2,0-0.3c1.3-0.7,1.9-2.3,1.2-3.6c-0.4-0.9-1.3-1.4-2.3-1.5h0.2
	c1.5,0,2.7,1.2,2.7,2.7c0,1-0.6,1.9-1.5,2.4c0,0.1,0,0.2,0,0.3v1.2c0,0.7-0.5,1.2-1.2,1.2h-0.2C480.3,544.2,480.8,543.7,480.7,543.1
	z"/>
<path class="st17" d="M477,552.7c0,0,5.2,0.6,5.4,0c0.6-1.9-1-4-0.2-5c0.5-0.7,0.6-1.6,0.2-2.4c0-1.5-1.2-2.7-2.7-2.7l0,0l0,0
	c-1.5,0-2.7,1.2-2.7,2.7l0,0V552.7z"/>
<path class="st15" d="M482.2,547.8c0.5-0.7,0.6-1.6,0.2-2.4c0-1.5-1.2-2.7-2.7-2.7l0,0h-0.2c1.4,0.1,2.5,1.3,2.5,2.7
	c0.4,0.8,0.3,1.7-0.2,2.4c-0.8,1,0.8,3.1,0.2,5c-0.1,0.2-0.6,0.3-1.3,0.3c0.9,0,1.6,0,1.7-0.3C483.1,550.8,481.4,548.8,482.2,547.8z
	"/>
<path class="st18" d="M481.3,552.6L481.3,552.6c2,3.2,2.8,7,2.2,10.7v0.1h-1.6c0.3-1.3,0.3-2.7,0-4.1c-0.3-1.6-1.2-3-2.5-3.9l-1.6,8
	h-1.5l1.5-10.8H481.3z"/>
<path class="st18" d="M490.5,537c0,0,0.6-0.3,0.4-1.2s-1.4-0.6-1.4-0.6s-0.7,1-0.4,1.3S490.5,537,490.5,537z"/>
<path class="st17" d="M481.3,545.8c0,0,8.1-2.6,9.2-8.7l-1.5-0.5c0,0-6,6.7-8.5,6.7S481.3,545.8,481.3,545.8z"/>
<path class="st15" d="M490.2,537l0.3,0.1c-1.2,6.1-9.2,8.7-9.2,8.7l-0.1-0.1C482,545.4,489.1,542.7,490.2,537z"/>
<g class="st10">
	<path class="st9" d="M479.1,555.3l-1.6,8h0.3l1.5-7.8C479.3,555.5,479.2,555.4,479.1,555.3z"/>
	<path class="st9" d="M481.3,552.6H481c2,3.2,2.8,7,2.2,10.7v0.1h0.3v-0.1C484.1,559.5,483.3,555.7,481.3,552.6z"/>
</g>
<path class="st15" d="M490.3,536.9c0,0,0.6-0.3,0.4-1.2c-0.1-0.3-0.3-0.5-0.5-0.6c0.3,0.1,0.6,0.3,0.7,0.6c0.3,0.9-0.4,1.2-0.4,1.2
	c-0.3,0-0.7-0.1-1-0.2C489.8,536.9,490,536.9,490.3,536.9z"/>
<path class="st16" d="M477,552.4l-3.3,6.9c1.9,0.1,3.8,0.3,5.7,0.7c3.6,0.7,5.4-1,5.4-1l-2.3-6.6H477z"/>
<path class="st17" d="M477.9,563.3c0,0,1.7,0.3,1.4,1h-3.1l0.2-1H477.9z"/>
<path class="st17" d="M483.4,563.3c0,0,1.7,0.3,1.4,1h-3.1l0.2-1H483.4z"/>
<path class="st5" d="M482.2,537c0,0-4.2,5.9-2.3,8.3l-7.4-0.2C472.5,545.2,474.6,531.9,482.2,537z"/>
<path class="st15" d="M482.2,537c-0.9-0.6-1.8-1-2.9-1.2c0.7,0.2,1.4,0.6,2,1c0,0-4.2,5.9-2.3,8.3l-6.5-0.2v0.2l7.4,0.2
	C478.1,542.9,482.2,537,482.2,537z"/>
<path class="st15" d="M482.5,552.4H482l2.3,6.6c-1,0.8-2.2,1.2-3.4,1.2c1.4,0.1,2.9-0.3,4-1.2L482.5,552.4z"/>
<path class="st15" d="M477.9,563.3h-0.3c0,0,1.7,0.3,1.4,1h0.3C479.6,563.7,477.9,563.3,477.9,563.3z"/>
<path class="st15" d="M483.4,563.3h-0.3c0,0,1.7,0.3,1.4,1h0.3C485.2,563.7,483.4,563.3,483.4,563.3z"/>
<polyline class="st19" points="725.5,400.9 715.9,347.1 746.4,345.6 746.4,400.9 767.3,400.9 788.2,341.5 "/>
<path class="st8" d="M731.9,395.3h29c15.1,0,27.3,12.2,27.3,27.3v4.9c0,15.1-12.2,27.3-27.3,27.3h-29c-15.1,0-27.3-12.2-27.3-27.3
	v-4.9C704.6,407.5,716.9,395.3,731.9,395.3z"/>
<path class="st20" d="M759.3,395.3h-24.1c-16.4,0-29.7,13.3-29.7,29.7l0,0c0,0.7,0,1.3,0.1,2c1.1-15.6,14-27.7,29.7-27.7h24.1
	c15.6,0.1,28.6,12.1,29.7,27.7c0-0.7,0.1-1.3,0.1-2l0,0C789,408.6,775.7,395.3,759.3,395.3z"/>
<linearGradient id="SVGID_5_" gradientUnits="userSpaceOnUse" x1="902.255" y1="172.6038" x2="902.255" y2="211.3925" gradientTransform="matrix(1 2.268926e-03 2.268926e-03 -1 -158.865 616.1744)">
	<stop  offset="0" style="stop-color:#000000;stop-opacity:0.12"/>
	<stop  offset="0.55" style="stop-color:#000000;stop-opacity:9.000000e-02"/>
	<stop  offset="1" style="stop-color:#000000;stop-opacity:2.000000e-02"/>
</linearGradient>
<polygon class="st21" points="765.7,413 757.8,406.8 738.7,431 728.4,423 722,431.2 736.9,442.6 736.9,442.6 740.6,445.6 "/>
<polygon class="st22" points="765.1,412.9 757.9,407.4 739,432.1 728.4,424 723,431.2 737.1,442 737.1,442 740.7,444.7 "/>
<linearGradient id="SVGID_6_" gradientUnits="userSpaceOnUse" x1="910.625" y1="259.22" x2="910.625" y2="507.86" gradientTransform="matrix(1 0 0 -1 -158.5 617.93)">
	<stop  offset="0" style="stop-color:#808080;stop-opacity:0.25"/>
	<stop  offset="0.54" style="stop-color:#808080;stop-opacity:0.12"/>
	<stop  offset="1" style="stop-color:#808080;stop-opacity:0.1"/>
</linearGradient>
<path class="st23" d="M873.2,234.4c0,68.7-57.4,124.3-118.4,124.3S631.1,303,631.1,234.4s62.6-124.3,123.7-124.3
	S873.2,165.7,873.2,234.4z"/>
<path class="st6" d="M867.5,234.4c0,65.4-54.7,118.5-112.9,118.5s-117.9-53-117.9-118.5s59.7-118.5,117.9-118.5
	S867.5,168.9,867.5,234.4z"/>
<rect x="736.5" y="357" class="st8" width="26.2" height="9.1"/>
<g class="st10">
	<path d="M754.6,115.5c-1.4,0-2.8,0-4.2,0.1c56.6,2.4,108.7,54.5,108.7,118.4s-52.1,115.9-108.7,118.4c1.4,0.1,2.8,0.1,4.2,0.1
		c58.2,0,112.9-53,112.9-118.5S812.8,115.5,754.6,115.5z"/>
</g>
<g class="st10">
	<path class="st9" d="M643.4,234.4c0-64.5,58-117,115.4-118.5c-0.8,0-1.7,0-2.5,0c-58.2,0-117.9,53-117.9,118.5
		s59.7,118.5,117.9,118.5c0.8,0,1.7,0,2.5,0C701.4,351.4,643.4,298.9,643.4,234.4z"/>
</g>
<rect x="713.3" y="336.3" class="st8" width="75.3" height="24.5"/>
<path class="st15" d="M713.3,124.5c0,0-89.4,102.2,0,219.7l29.5-0.1c0,0-81.5-97.1-3.7-227l-14.5,3.3L713.3,124.5z"/>
<path class="st15" d="M791,122.9c0,0,89.4,103.7,0,221.3l-29.5-0.1c0,0,81.5-98,3.7-227.9l14.5,2.9L791,122.9z"/>
</svg>
