<?xml version="1.0" encoding="utf-8"?>
<!-- Generator: Adobe Illustrator 23.0.1, SVG Export Plug-In . SVG Version: 6.00 Build 0)  -->
<svg version="1.1" id="a11d453a-83a5-491b-94b4-3bbd3d308a29"
	 xmlns="http://www.w3.org/2000/svg" xmlns:xlink="http://www.w3.org/1999/xlink" x="0px" y="0px" viewBox="0 0 860.3 771.9"
	 style="enable-background:new 0 0 860.3 771.9;" xml:space="preserve">
<style type="text/css">
	.st0{fill:#F2F2F2;}
	.st1{fill:#41D6C3;}
	.st2{fill:none;stroke:#3F3D56;stroke-miterlimit:10;}
	.st3{fill:#0062FF;}
	.st4{fill:#3C81C6;}
	.st5{fill:#FF6584;}
	.st6{opacity:0.1;enable-background:new    ;}
	.st7{fill:#FBBEBE;}
	.st8{fill:#2F2E41;}
	.st9{fill:#5596E6;}
</style>
<title>super woman</title>
<ellipse class="st0" cx="449.8" cy="728.9" rx="283" ry="43"/>
<path class="st1" d="M627.6,576.7c10.8,3.9,22.7-1.6,26.7-12.4c3.9-10.8-1.6-22.7-12.4-26.7c-3.7-1.3-7.6-1.6-11.5-0.8l0.5,10.7
	l-5.1-9.2c-5,2.3-8.8,6.6-10.7,11.7c-0.7,1.8-1.1,3.7-1.2,5.6C613.3,565,618.8,573.5,627.6,576.7z"/>
<path class="st2" d="M652.7,701c-1.8-9.1,6-17.2,13.6-22.4s16.6-10.4,19.2-19.3c3.8-12.8-7.4-24.5-16.1-34.6
	c-6.5-7.5-12-15.7-16.5-24.6c-1.8-3.5-3.5-7.2-4-11.2c-0.7-5.7,1.1-11.3,3-16.7c6.1-18,12.7-35.9,19.6-53.7"/>
<path class="st2" d="M628.4,574c10.8,3.9,22.7-1.6,26.7-12.4c3.9-10.8-1.6-22.7-12.4-26.7c-3.7-1.3-7.6-1.6-11.5-0.8l0.5,10.7
	l-5.1-9.2c-5,2.3-8.8,6.6-10.7,11.7c-0.7,1.8-1.1,3.7-1.2,5.6C614.1,562.2,619.7,570.8,628.4,574z"/>
<path class="st1" d="M650.1,514.7c2.4-6.7,8.1-11.6,15-13.2l1.7,10.2L670,501c11.5,0.2,20.7,9.6,20.5,21.1
	c-0.2,11.5-9.6,20.7-21.1,20.5c-11.5-0.2-20.7-9.6-20.5-21.1C648.9,519.2,649.3,516.9,650.1,514.7L650.1,514.7z"/>
<path class="st2" d="M651.3,511.1c2.4-6.7,8.1-11.6,15-13.2l1.7,10.2l3.2-10.7c11.5,0.2,20.7,9.6,20.5,21.1
	c-0.2,11.5-9.6,20.7-21.1,20.5c-11.5-0.2-20.7-9.6-20.5-21.1C650.1,515.5,650.5,513.2,651.3,511.1z"/>
<path class="st1" d="M665.7,624.8c10.8,3.9,22.7-1.7,26.7-12.5c3.3-9.1-0.1-19.3-8.2-24.6l-2.4,8.2l-1.7-10.3c0,0,0,0-0.1,0
	c-10.8-3.9-22.7,1.6-26.7,12.4C649.3,608.9,654.9,620.8,665.7,624.8C665.7,624.8,665.7,624.8,665.7,624.8L665.7,624.8z"/>
<path class="st2" d="M666.7,621c10.8,3.9,22.7-1.7,26.7-12.5c3.3-9.1-0.1-19.3-8.2-24.6l-2.4,8.2l-1.7-10.3c0,0,0,0-0.1,0
	c-10.8-3.9-22.7,1.7-26.7,12.5S655.9,617.1,666.7,621L666.7,621z"/>
<path class="st1" d="M644,659.3c2,11.3,12.8,18.9,24.1,16.9c11.3-2,18.9-12.8,16.9-24.1c-2-11.3-12.8-18.9-24.1-16.9
	c-5.1,0.9-9.7,3.7-12.9,7.8l9.3,14l-12.7-7.4C643.7,652.7,643.5,656.1,644,659.3z"/>
<path class="st2" d="M644.9,656.6c2,11.3,12.8,18.9,24.1,16.9s18.9-12.8,16.9-24.1c-2-11.3-12.8-18.9-24.1-16.9
	c-5.1,0.9-9.7,3.7-12.9,7.8l9.3,14l-12.7-7.4C644.5,650,644.3,653.3,644.9,656.6z"/>
<path class="st0" d="M586.8,113.8c1.6-31.1,27.3-55.4,58.4-55.4c1.8,0,3.5,0.1,5.3,0.2C672,21.6,719.6,9,756.7,30.5
	c11.6,6.8,21.3,16.4,28.1,28.1c1.5-0.1,2.9-0.2,4.4-0.2c31.1,0,56.8,24.4,58.4,55.4"/>
<path class="st2" d="M598.9,109.3c1.6-31.1,27.3-55.4,58.4-55.4c1.8,0,3.5,0.1,5.3,0.2C684.2,17.1,731.7,4.5,768.8,26
	c11.6,6.8,21.3,16.4,28.1,28.1c1.5-0.1,2.9-0.2,4.4-0.2c31.1,0,56.8,24.4,58.4,55.4"/>
<path class="st0" d="M161.8,391.8c1.6-31.1,27.3-55.4,58.4-55.4c1.8,0,3.5,0.1,5.3,0.2c21.6-37.1,69.1-49.7,106.2-28.1
	c11.6,6.8,21.3,16.4,28.1,28.1c1.5-0.1,2.9-0.2,4.4-0.2c31.1,0,56.8,24.4,58.4,55.4"/>
<path class="st2" d="M173.9,387.3c1.6-31.1,27.3-55.4,58.4-55.4c1.8,0,3.5,0.1,5.3,0.2c21.6-37.1,69.1-49.7,106.2-28.1
	c11.6,6.8,21.3,16.4,28.1,28.1c1.5-0.1,2.9-0.2,4.4-0.2c31.1,0,56.8,24.4,58.4,55.4"/>
<path class="st0" d="M37.8,98.8c1.6-31.1,27.3-55.4,58.4-55.4c1.8,0,3.5,0.1,5.3,0.2C123,6.6,170.6-6,207.7,15.5
	c11.6,6.8,21.3,16.4,28.1,28.1c1.5-0.1,2.9-0.2,4.4-0.2c31.1,0,56.8,24.4,58.4,55.4"/>
<path class="st2" d="M49.9,94.3c1.6-31.1,27.3-55.4,58.4-55.4c1.8,0,3.5,0.1,5.3,0.2C135.2,2.1,182.7-10.5,219.8,11
	c11.6,6.8,21.3,16.4,28.1,28.1c1.5-0.1,2.9-0.2,4.4-0.2c31.1,0,56.8,24.4,58.4,55.4"/>
<path class="st3" d="M295.1,217.5c0,0,105.1,52.2,124,44.9c18.8-7.2,25.4-71.8,25.4-71.8l-77.6-14.5L295.1,217.5z"/>
<path class="st4" d="M295.1,217.5c0,0,105.1,52.2,124,44.9c18.8-7.2,25.4-71.8,25.4-71.8l-77.6-14.5L295.1,217.5z"/>
<rect x="444" y="139.5" class="st5" width="68.9" height="60.2"/>
<rect x="444" y="139.5" class="st6" width="68.9" height="60.2"/>
<path class="st7" d="M381.3,395.8c0,0-2.9,63.1,16.7,61.6s0-59.4,0-59.4L381.3,395.8z"/>
<path class="st7" d="M461.8,148.6c0,0,4.3,27.5-3.6,31.2s-13,6.5-13,6.5l18.1,12.3l33.3,2.2l8.7-6.5l8-7.2c0,0-13-2.9-13-9.4
	s-0.7-26.1-0.7-26.1L461.8,148.6z"/>
<path class="st6" d="M461.8,148.6c0,0,4.3,27.5-3.6,31.2s-13,6.5-13,6.5l18.1,12.3l33.3,2.2l8.7-6.5l8-7.2c0,0-13-2.9-13-9.4
	s-0.7-26.1-0.7-26.1L461.8,148.6z"/>
<path class="st7" d="M416.1,406.7c0,0-21,67.4-21,116.7c0,0-34.8,78.3-33.3,116.7l-8.7,52.9l12.3,4.3l9.4-8c0,0,2.9-28.3,12.3-42
	s31.2-79,31.2-79s58-121.8,55.8-139.2S416.1,406.7,416.1,406.7z"/>
<path class="st7" d="M544.4,391.5c0,0,13.8,6.5-5.8,122.5c0,0,10.9,76.8,1.4,118.9l-1.4,42h-15.2l-2.9-4.3c0,0-0.7-37.7-5.8-47.8
	s-9.4-68.9-9.4-68.9s-23.2-119.6-18.1-129.8S544.4,391.5,544.4,391.5z"/>
<path class="st8" d="M350.9,680.7c0,0,5.1,11.6,14.5,8.7s11.6-2.9,11.6-2.9s-6.5,33.3-4.3,49.3s-1.4,26.1-15.9,26.1
	S340,744.5,340,744.5l6.5-41.3L350.9,680.7z"/>
<path class="st8" d="M517.6,662.6c0,0,5.1,10.1,13,8s10.9-5.8,10.9-5.8s-0.7,22.5,2.2,32.6s9.4,39.1-5.8,40.6
	c-8.6,1-16.8-3.7-20.3-11.6V662.6z"/>
<ellipse transform="matrix(0.1735 -0.9848 0.9848 0.1735 264.3536 586.1011)" class="st7" cx="481.4" cy="135.6" rx="31.9" ry="31.9"/>
<path class="st8" d="M540.1,192.8c0,0-25.3-9.9-34.4-8.6c-7.9,6.7-18.3,9.9-28.7,8.6c-17.4-2.2-24.2-10.5-24.2-10.5
	s-46.8,10.5-43.9,14.9s15.9,75.4,15.9,75.4s8.7,61.6-1.4,82.6s-15.2,55.8-10.9,58.7s52.9,15.9,58.7,19.6s8-8.7,11.6-6.5
	s11.6,5.8,16.7,2.9s54.4-29,52.9-34.1s-20.3-66.7-26.8-79s-1.4-38.4,2.2-43.5s10.9-10.9,12.3-25.4
	C541.5,233.4,540.1,192.8,540.1,192.8z"/>
<path class="st8" d="M410.5,194.9c0,0-5.9,4.4-8.1,13.8s-5.1,84.8-5.1,84.8s-26.8,103.7-21,105.8s22.5,6.5,24.6,4.3
	s26.8-89.9,24.6-99.3s2.9-37,2.9-37L410.5,194.9z"/>
<path class="st7" d="M544.4,329.8c0,0-39.1-19.6-43.5-6.5s41.3,26.8,41.3,26.8s15.9-5.8,15.9-9.4S544.4,329.8,544.4,329.8z"/>
<path class="st8" d="M532.1,195.7l8-2.9c0,0,4.3-2.9,9.4,8c5.1,10.9,60.2,74.7,50,95s-43.5,61.6-44.9,58.7s-18.1-24.6-15.2-26.8
	s36.2-31.9,31.9-36.2s-22.5-41.3-32.6-42.8S532.1,195.7,532.1,195.7z"/>
<path class="st9" d="M446.2,134.5c0,0-110.5-44.4-206.2-87.2c0,0-50-12.3-76.1,10.9c0,0,21.7-2.9,21.7,9.4c0,0,18.8,24.6-39.9,29
	c-40.9,3-57.2,27.5-63.3,42.1c-4.8,11.7-13.2,21.6-24,28.2c-14.1,8.4-34.6,14.7-58.5,3.7c0,0,1.4,2.1,3.9,5.6
	c46,62.2,217.5,116.3,278,68.1c37.4-29.8,96.7-67.4,139.2-48.4c66.7,29.7,79,16.7,79,16.7l2.9-8c0,0-64.5-17.4-66-39.9
	S446.2,134.5,446.2,134.5z"/>
<path class="st9" d="M510.7,140.3c0,0,15.6,6.2,18.5,26.5c0,0,16.7,32.6-2.2,40.6s-22.5,5.8-22.5,5.8v-3.6c0,0,20.3-12.3,15.9-21.7
	S510.7,140.3,510.7,140.3z"/>
<path class="st9" d="M482.8,232.7c0,0,5.1-13,3.6-13s5.9-8,8.7-5.1s7.9,11.6,2.1,13.8S482.8,232.7,482.8,232.7z"/>
<path class="st9" d="M518.5,225c0,0-13.3-4.5-13.2-3.1s-8.3-5.6-5.5-8.5s11.3-8.4,13.7-2.7S518.5,225,518.5,225z"/>
<path class="st3" d="M497.3,205.1c0,0,6.6-3.7,10.6,2.1s-4.8,16-10.6,16s-5.8-12.3-5.8-12.3L497.3,205.1z"/>
<path class="st4" d="M497.3,205.1c0,0,6.6-3.7,10.6,2.1s-4.8,16-10.6,16s-5.8-12.3-5.8-12.3L497.3,205.1z"/>
<path class="st5" d="M453.7,83.5c-3.8,3.2-7.4,6.7-9.8,11c-1.2,2.4-2.3,5-3.1,7.6c-2.9,8.4-10.2,17-7.1,25.4
	c0.9,2.4,2.3,4.9,1.5,7.3c-0.7,2.2-2.9,3.4-4.4,5c-3.4,3.5-3.9,8.8-4.1,13.6c-0.4,8.9,4.5,19.4,10.4,26c1.3,1.3,2.5,2.6,3.6,4
	c1.5,2.3,1.9,5.1,1.1,7.8l8.6-1.8c0.3,3.2,0.4,6.4,0.3,9.6c4.2,0.5,8.2-2.1,9.5-6.1c0.5,2.3,1.3,4.5,2.4,6.5
	c2.5-3.2,4.5-6.7,5.7-10.6c1.6-4.9,2-10.2,1-15.3c-0.9-3.7-2.2-7.4-3.7-10.9c-3-7.7-5.5-15.6-8-23.5c-1.3-4.1-2.6-8.3-2.2-12.6
	l3.1-0.3c0-1.7,0.4-3.4,1-4.9c1.8,0.4,3.5,1,5.1,1.9l3.5-8.9c2.3,2.4,5.7,3.5,8.9,4.5l12.1,3.8l0.1-2.4c5.1,4.5,11,8.2,17.3,10.8
	c-0.7-0.9-1-2-0.9-3.1c3,5.4,1.8,12-0.1,17.9s-4.3,11.8-3.6,17.9c0.6,4.6,2.9,8.9,2.5,13.5c-0.2,2.3-1.1,4.4-1.4,6.6
	c-0.7,5.4,2.2,10.5,4.9,15.1l5.3-7.3c1.9-2.7,3.9-5.4,6.7-7.2c2.8-1.9,6.3-2.7,8.7-5c4.4-4.1,3.8-11.2,2.4-17
	c-0.8-3.1-1.7-6.3-1.4-9.5c0.5-5.4,4.2-9.9,6.3-14.9c3.1-7.4,2.5-15.8-1.4-22.7c-2.6-4.5-6.6-8.1-9.1-12.7c-2.5-4.6-3.4-10-6.8-13.9
	c-1.6-1.8-3.6-3.3-5.7-4.5c-9.6-5.8-20.4-9.3-31.5-10.3C470.7,73,461.8,76.8,453.7,83.5z"/>
</svg>
