<?xml version="1.0" encoding="utf-8"?>
<!-- Generator: Adobe Illustrator 23.0.1, SVG Export Plug-In . SVG Version: 6.00 Build 0)  -->
<svg version="1.1" id="a3538d95-de03-4652-af87-43a4974fb51a"
	 xmlns="http://www.w3.org/2000/svg" xmlns:xlink="http://www.w3.org/1999/xlink" x="0px" y="0px" viewBox="0 0 926.6 820.1"
	 style="enable-background:new 0 0 926.6 820.1;" xml:space="preserve">
<style type="text/css">
	.st0{fill:#3F3D56;}
	.st1{fill:#F2F2F2;}
	.st2{fill:#5596E6;}
	.st3{fill:#FFFFFF;}
	.st4{fill:#2F2E41;}
	.st5{fill:#9F616A;}
	.st6{fill:#D0CDE1;}
</style>
<title>updates</title>
<path class="st0" d="M626.8,600l0-2c4,0,8-0.1,12-0.2l0.1,2C634.8,599.9,630.8,600,626.8,600z M614.7,599.8c-4-0.2-8.1-0.4-12.1-0.7
	l0.2-2c4,0.3,8,0.6,12,0.7L614.7,599.8z M650.9,599l-0.2-2c4-0.3,8-0.7,11.9-1.2l0.2,2C658.9,598.3,654.9,598.7,650.9,599z
	 M590.6,597.9c-4-0.5-8-1-12-1.7l0.3-2c3.9,0.6,7.9,1.2,11.9,1.7L590.6,597.9z M674.9,596.1l-0.3-2c3.9-0.6,7.9-1.4,11.8-2.2l0.4,2
	C682.8,594.8,678.8,595.5,674.9,596.1z M566.8,594c-3.9-0.8-7.9-1.7-11.8-2.6l0.5-1.9c3.9,0.9,7.8,1.8,11.7,2.6L566.8,594z
	 M698.5,591.3l-0.5-1.9c3.9-1,7.8-2,11.6-3.1l0.6,1.9C706.4,589.3,702.4,590.4,698.5,591.3z M543.3,588.3c-3.9-1.1-7.7-2.3-11.5-3.6
	l0.6-1.9c3.8,1.3,7.6,2.5,11.5,3.6L543.3,588.3z M721.7,584.6l-0.6-1.9c3.8-1.3,7.6-2.6,11.3-4l0.7,1.9
	C729.4,582,725.5,583.3,721.7,584.6z M520.4,580.6c-3.8-1.4-7.5-2.9-11.2-4.5l0.8-1.8c3.7,1.6,7.4,3.1,11.2,4.5L520.4,580.6z
	 M744.3,576l-0.8-1.8c3.7-1.6,7.3-3.2,10.9-4.9l0.9,1.8C751.7,572.8,748,574.5,744.3,576z M498.1,571.2c-3.6-1.7-7.3-3.5-10.8-5.4
	l0.9-1.8c3.5,1.9,7.1,3.7,10.8,5.4L498.1,571.2z M766.1,565.7l-0.9-1.8c3.5-1.9,7.1-3.8,10.5-5.8l1,1.7
	C773.2,561.9,769.6,563.8,766.1,565.7z M476.7,559.9c-3.5-2-7-4.1-10.3-6.3l1.1-1.7c3.4,2.1,6.8,4.2,10.3,6.2L476.7,559.9z
	 M786.9,553.6l-1.1-1.7c3.4-2.1,6.7-4.3,10-6.6l1.1,1.6C793.7,549.2,790.3,551.5,786.9,553.6z M456.2,547c-3.3-2.3-6.6-4.7-9.8-7.1
	l1.2-1.6c3.2,2.4,6.5,4.8,9.7,7L456.2,547z M806.8,539.9l-1.2-1.6c3.2-2.4,6.3-4.9,9.4-7.4l1.3,1.5C813.2,535,810,537.5,806.8,539.9
	z M436.9,532.4c-3.1-2.5-6.2-5.2-9.2-7.8l1.3-1.5c3,2.6,6.1,5.3,9.1,7.8L436.9,532.4z M825.5,524.6l-1.3-1.5c3-2.6,5.9-5.4,8.8-8.1
	l1.4,1.4C831.5,519.2,828.5,522,825.5,524.6z M418.8,516.4c-2.9-2.8-5.8-5.6-8.5-8.5l1.4-1.4c2.8,2.9,5.6,5.7,8.5,8.5L418.8,516.4z
	 M842.9,507.9l-1.4-1.4c2.8-2.9,5.5-5.8,8.1-8.8l1.5,1.3C848.4,502,845.7,505,842.9,507.9z M402.1,499c-2.7-3-5.3-6.1-7.8-9.2
	l1.5-1.3c2.5,3.1,5.1,6.1,7.8,9.1L402.1,499z M858.9,489.8l-1.5-1.3c2.5-3.1,5-6.3,7.4-9.4l1.6,1.2
	C864,483.5,861.5,486.7,858.9,489.8z M386.8,480.3c-2.4-3.2-4.8-6.5-7.1-9.8l1.6-1.1c2.3,3.3,4.6,6.5,7,9.7L386.8,480.3z
	 M873.5,470.5l-1.6-1.1c2.3-3.3,4.5-6.7,6.6-10l1.7,1.1C878,463.8,875.8,467.2,873.5,470.5z M373.1,460.5c-2.1-3.4-4.2-6.8-6.3-10.3
	l1.7-1c2,3.4,4.1,6.9,6.2,10.2L373.1,460.5z M886.4,450.1l-1.7-1c2-3.5,4-7,5.8-10.5l1.8,0.9C890.4,443,888.4,446.6,886.4,450.1z
	 M361,439.6c-1.9-3.5-3.7-7.2-5.4-10.8l1.8-0.9c1.7,3.6,3.5,7.2,5.4,10.7L361,439.6z M897.7,428.7l-1.8-0.9c1.7-3.6,3.4-7.3,4.9-11
	l1.8,0.8C901.1,421.3,899.4,425,897.7,428.7z M350.6,417.9c-1.6-3.7-3.1-7.4-4.5-11.2l1.9-0.7c1.4,3.7,2.9,7.4,4.5,11.1L350.6,417.9
	z M907.2,406.4l-1.9-0.7c1.4-3.7,2.8-7.6,4-11.3l1.9,0.6C910,398.8,908.6,402.6,907.2,406.4z M342.1,395.3
	c-1.3-3.8-2.5-7.7-3.6-11.5l1.9-0.6c1.1,3.8,2.3,7.7,3.6,11.5L342.1,395.3z M914.8,383.5l-1.9-0.6c1.1-3.8,2.1-7.7,3.1-11.6l1.9,0.5
	C917,375.7,916,379.6,914.8,383.5z M335.3,372.1c-1-3.9-1.9-7.9-2.7-11.8l2-0.4c0.8,3.9,1.7,7.8,2.6,11.7L335.3,372.1z M920.6,360
	l-2-0.4c0.8-3.9,1.5-7.9,2.1-11.8l2,0.3C922.1,352.1,921.4,356.1,920.6,360z M330.5,348.4c-0.6-3.9-1.2-8-1.7-12l2-0.2
	c0.5,4,1,8,1.7,11.9L330.5,348.4z M924.4,336.1l-2-0.2c0.5-4,0.9-8,1.2-11.9l2,0.2C925.3,328.1,924.9,332.2,924.4,336.1L924.4,336.1
	z M327.6,324.5c-0.3-4-0.6-8.1-0.7-12.1l2-0.1c0.2,4,0.4,8,0.7,12L327.6,324.5z M926.4,312.1l-2-0.1c0.2-4,0.2-8,0.2-12l0-0.7h2
	l0,0.7C926.6,304,926.5,308.1,926.4,312.1z M328.6,300.3h-2l0-0.3c0-3.9,0.1-7.9,0.2-11.7l2,0.1c-0.1,3.9-0.2,7.8-0.2,11.7
	L328.6,300.3z M924.3,287.3c-0.2-4-0.4-8-0.7-12l2-0.2c0.3,4,0.6,8.1,0.7,12.1L924.3,287.3z M329.5,276.4l-2-0.2c0.3-4,0.7-8,1.2-12
	l2,0.2C330.2,268.4,329.8,272.4,329.5,276.4z M922.4,263.4c-0.5-3.9-1.1-7.9-1.7-11.9l2-0.3c0.6,4,1.2,8,1.7,12L922.4,263.4z
	 M332.4,252.5l-2-0.3c0.6-4,1.4-8,2.2-11.9l2,0.4C333.7,244.6,333,248.6,332.4,252.5z M918.5,239.8c-0.8-3.9-1.7-7.8-2.7-11.7
	l1.9-0.5c1,3.9,1.9,7.8,2.7,11.8L918.5,239.8z M337.1,229l-1.9-0.5c1-3.9,2-7.8,3.1-11.7l1.9,0.6C339.1,221.2,338.1,225.1,337.1,229
	z M912.7,216.5c-1.1-3.8-2.3-7.7-3.6-11.4l1.9-0.6c1.3,3.8,2.5,7.7,3.6,11.5L912.7,216.5z M343.7,206l-1.9-0.6
	c1.3-3.8,2.6-7.6,4.1-11.4l1.9,0.7C346.4,198.4,345,202.2,343.7,206z M905.1,193.7c-1.4-3.7-2.9-7.5-4.5-11.1l1.8-0.8
	c1.6,3.7,3.1,7.4,4.5,11.2L905.1,193.7z M352.3,183.5l-1.8-0.8c1.6-3.7,3.2-7.4,5-11l1.8,0.9C355.5,176.1,353.8,179.8,352.3,183.5z
	 M895.7,171.7c-1.7-3.6-3.5-7.2-5.4-10.7l1.8-0.9c1.9,3.5,3.7,7.2,5.4,10.8L895.7,171.7z M362.5,161.7l-1.8-0.9
	c1.9-3.6,3.8-7.1,5.8-10.6l1.7,1C366.4,154.7,364.4,158.2,362.5,161.7z M884.5,150.6c-2-3.4-4.1-6.9-6.2-10.2l1.7-1.1
	c2.1,3.4,4.3,6.8,6.3,10.3L884.5,150.6z M374.6,140.9l-1.7-1.1c2.1-3.4,4.4-6.8,6.7-10.1l1.6,1.1
	C378.9,134.2,376.7,137.6,374.6,140.9L374.6,140.9z M871.6,130.3c-2.3-3.3-4.6-6.5-7-9.7l1.6-1.2c2.4,3.2,4.8,6.5,7.1,9.8
	L871.6,130.3z M388.2,121.2l-1.6-1.2c2.4-3.2,4.9-6.4,7.5-9.5l1.5,1.3C393.1,114.8,390.6,118,388.2,121.2L388.2,121.2z M857.2,111.2
	c-2.5-3.1-5.1-6.1-7.8-9.1l1.5-1.3c2.7,3,5.3,6.1,7.8,9.2L857.2,111.2z M403.4,102.6l-1.5-1.3c2.7-3,5.4-6,8.2-8.9l1.4,1.4
	C408.8,96.6,406,99.6,403.4,102.6L403.4,102.6z M841.2,93.3c-2.8-2.9-5.6-5.7-8.5-8.5l1.4-1.4c2.9,2.8,5.8,5.6,8.6,8.5L841.2,93.3z
	 M420,85.3l-1.4-1.4c2.9-2.8,5.9-5.5,8.9-8.2l1.3,1.5C425.8,79.8,422.9,82.5,420,85.3L420,85.3z M823.9,76.7c-3-2.6-6.1-5.3-9.2-7.8
	l1.3-1.6c3.1,2.5,6.2,5.2,9.2,7.8L823.9,76.7z M437.9,69.3l-1.3-1.5c3.1-2.5,6.3-5.1,9.5-7.5l1.2,1.6
	C444.2,64.3,441,66.8,437.9,69.3L437.9,69.3z M805.3,61.5c-3.2-2.4-6.5-4.8-9.7-7l1.1-1.6c3.3,2.3,6.6,4.7,9.8,7.1L805.3,61.5z
	 M457.1,54.9l-1.1-1.6c3.3-2.3,6.7-4.5,10.1-6.7l1.1,1.7C463.7,50.4,460.3,52.6,457.1,54.9z M785.5,47.9c-3.4-2.1-6.8-4.2-10.3-6.2
	l1-1.7c3.5,2,7,4.1,10.4,6.3L785.5,47.9z M477.3,42l-1-1.7c3.5-2,7-4,10.5-5.8l0.9,1.8C484.3,38.1,480.7,40,477.3,42z M764.7,35.9
	c-3.5-1.9-7.2-3.7-10.8-5.4l0.9-1.8c3.6,1.7,7.3,3.5,10.8,5.4L764.7,35.9z M498.5,30.9l-0.9-1.8c3.6-1.7,7.3-3.4,11-5l0.8,1.8
	C505.7,27.5,502.1,29.2,498.5,30.9L498.5,30.9z M743,25.6c-3.7-1.6-7.4-3.1-11.2-4.5l0.7-1.9c3.8,1.4,7.5,2.9,11.2,4.5L743,25.6z
	 M520.5,21.5l-0.7-1.9c3.7-1.4,7.6-2.8,11.4-4.1l0.6,1.9C528,18.7,524.2,20,520.5,21.5z M720.5,17.1c-3.8-1.3-7.6-2.4-11.5-3.5
	l0.6-1.9c3.9,1.1,7.7,2.3,11.5,3.6L720.5,17.1z M543.2,13.8l-0.6-1.9c3.8-1.1,7.8-2.2,11.7-3.1l0.5,1.9
	C550.9,11.7,547,12.7,543.2,13.8z M697.4,10.5c-3.9-0.9-7.8-1.8-11.7-2.6l0.4-2c3.9,0.8,7.9,1.7,11.8,2.6L697.4,10.5z M566.5,8.1
	l-0.4-2C570,5.3,574,4.6,578,3.9l0.3,2C574.4,6.5,570.4,7.3,566.5,8.1z M673.9,5.7C670,5.1,666,4.6,662,4.1l0.2-2c4,0.5,8,1,12,1.7
	L673.9,5.7z M590.2,4.2l-0.2-2c4-0.5,8-0.9,12-1.2l0.2,2C598.2,3.3,594.1,3.7,590.2,4.2z M650.1,2.9c-4-0.3-8-0.5-12-0.7l0.1-2
	c4,0.2,8.1,0.4,12.1,0.7L650.1,2.9z M614.1,2.3l-0.1-2c4-0.2,8.1-0.3,12.1-0.3l0,2C622.1,2,618.1,2.1,614.1,2.3z"/>
<rect x="65.4" y="175.2" class="st1" width="513.1" height="631.1"/>
<rect x="65.4" y="140.5" class="st2" width="513.1" height="70.3"/>
<rect x="18.3" y="639.4" class="st0" width="632" height="162.7"/>
<circle class="st2" cx="93.9" cy="720.5" r="44.3"/>
<rect x="186.7" y="683.2" class="st3" width="183.2" height="13"/>
<rect x="186.7" y="714.4" class="st3" width="403.7" height="13"/>
<rect x="186.7" y="745.7" class="st3" width="403.7" height="13"/>
<circle class="st2" cx="137" cy="313.3" r="44.3"/>
<rect x="216.9" y="282" class="st3" width="151.7" height="13"/>
<rect x="216.9" y="313.3" class="st3" width="334.2" height="13"/>
<rect x="216.9" y="344.5" class="st3" width="334.2" height="13"/>
<circle class="st2" cx="137" cy="516.7" r="44.3"/>
<rect x="216.9" y="485.5" class="st3" width="151.7" height="13"/>
<rect x="216.9" y="516.7" class="st3" width="334.2" height="13"/>
<rect x="216.9" y="548" class="st3" width="334.2" height="13"/>
<rect x="78.4" y="154.4" class="st3" width="66" height="9.5"/>
<rect x="78.4" y="170.9" class="st3" width="66" height="9.5"/>
<rect x="78.4" y="187.4" class="st3" width="66" height="9.5"/>
<rect x="57.7" y="509.3" class="st0" width="2" height="135.2"/>
<ellipse transform="matrix(2.172371e-02 -0.9998 0.9998 2.172371e-02 -451.7066 556.9036)" class="st0" cx="58.7" cy="509.3" rx="19.1" ry="19.1"/>
<path class="st0" d="M58.7,592.6c0,0-2.7-58.7-58.7-51.9"/>
<path class="st4" d="M675.1,381.3l-22.8,43c0,0-165,31.6-144,80.8s44.8,121.1,57.1,119.4s79.9-40.4,82.5-51.8s-60.6-65-60.6-65
	l104.5-20.2c0,0,14.9,70.2-4.4,118.5s-30.7,179.1-17.6,180.8s46.5,12.3,61.5,2.6s21.9-221.2,21.9-221.2s31.6-138.7,12.3-154.5
	S675.1,381.3,675.1,381.3z"/>
<path class="st4" d="M711,765.5c0,0-20.2-10.6-24.4-2.1c0,0,3.2,25.5-9.6,28.7s-18,25.5,0,27.6s29.7-4.2,36.1-4.2s0-22.3,0-22.3
	L711,765.5z"/>
<path class="st4" d="M614.8,589.3c0,0-22-6.1-24.3,3.1c0,0,8.5,24.2-3.3,30s-12.3,28.7,5.8,27s28.2-10.4,34.4-11.8
	s-4.7-21.8-4.7-21.8L614.8,589.3z"/>
<path class="st5" d="M723.8,229.8c0,0,0.9,32.5-5.3,35.1s34.2,18.4,34.2,18.4l7-12.3c0,0-7.9-43.9-6.1-47.4S723.8,229.8,723.8,229.8
	z"/>
<circle class="st4" cx="738.5" cy="183.4" r="53.8"/>
<circle class="st4" cx="742.2" cy="133" r="22.3"/>
<path class="st4" d="M712.5,120.9c0-11.4,8.6-21,20-22.2c-0.8-0.1-1.5-0.1-2.3-0.1c-12.3,0-22.3,10-22.3,22.3
	c0,12.3,10,22.3,22.3,22.3c0.8,0,1.5,0,2.3-0.1C721.1,141.9,712.5,132.3,712.5,120.9z"/>
<circle class="st5" cx="737" cy="209.6" r="36.9"/>
<path class="st6" d="M762.9,257.5c0,0-31.6,9.7-47.4,0s-53.6,18.4-59.7,30.7s22.8,24.6,22.8,24.6s-8.3,23.7-6.6,35.6
	c1.8,12.3-1.3,37.3-1.3,37.3s77.6,51.1,94.8,28.1c2.6-3.5,24.6-86,24.6-86l30.7-30.7c0,0-19.3-28.1-30.7-30.7
	S762.9,257.5,762.9,257.5z"/>
<path class="st5" d="M550.9,437.9c0,0-59.7,30.7-47.4,39.5s62.3-34.2,62.3-34.2L550.9,437.9z"/>
<path class="st5" d="M785.3,415.9c0,0-26.6-17.9-30.8-9s29.1,29.2,36.1,21.3S785.3,415.9,785.3,415.9z"/>
<path class="st6" d="M805.1,287.3l15.8,9.7c0,0,53.6,73.7,35.1,90.4s-65.8,50-65.8,50s-15.8-22.8-10.5-23.7s47.4-36,47.4-36
	l-36.9-68.5L805.1,287.3z"/>
<path class="st6" d="M666.3,283.8l-11.4,4.4l-29.8,53.6l-79,95.7c0,0,10.5,16.7,19.3,13.2s74.6-77.3,74.6-77.3l43-66.7L666.3,283.8z
	"/>
<ellipse class="st4" cx="738.5" cy="165.8" rx="37.1" ry="22.3"/>
</svg>
