<?xml version="1.0" encoding="utf-8"?>
<!-- Generator: Adobe Illustrator 23.0.1, SVG Export Plug-In . SVG Version: 6.00 Build 0)  -->
<svg version="1.1" id="fbf61bc7-949a-4ad5-bdf9-42522344582c"
	 xmlns="http://www.w3.org/2000/svg" xmlns:xlink="http://www.w3.org/1999/xlink" x="0px" y="0px" viewBox="0 0 1035.5 627.6"
	 style="enable-background:new 0 0 1035.5 627.6;" xml:space="preserve">
<style type="text/css">
	.st0{fill:#F2F2F2;}
	.st1{fill:#5596E6;}
	.st2{fill:none;stroke:#3F3D56;stroke-width:2;stroke-miterlimit:10;}
	.st3{fill:#2F2E41;}
	.st4{fill:#9F616A;}
	.st5{fill:#3F3D56;}
	.st6{fill:#0062FF;}
	.st7{fill:#FFB9B9;}
	.st8{fill:#41D6C3;}
	.st9{fill:#575A89;}
	.st10{opacity:0.1;enable-background:new    ;}
</style>
<title>spread_love</title>
<path class="st0" d="M687,214.6L336.2,0l-53.4,87.3c30.6,19.9,39.2,60.7,19.4,91.3c-19.1,29.4-57.9,38.7-88.3,21.3l-17.3,28.3h147.9
	v179.1l360.3,220.4l75.4-123.3H687V214.6z"/>
<ellipse class="st1" cx="514.4" cy="470.3" rx="63.5" ry="9.8"/>
<path class="st1" d="M516.5,383.3l64-73.2c19.7-20.1,19.3-52.4-0.8-72.1c-20.1-19.7-52.4-19.3-72.1,0.8
	c-20.1-19.7-52.4-19.3-72.1,0.8c-19.7,20.1-19.3,52.4,0.8,72.1l71.2,71.6"/>
<rect x="1" y="227.1" class="st2" width="345.5" height="313.3"/>
<rect x="689" y="190.1" class="st2" width="345.5" height="313.3"/>
<circle class="st1" cx="249.5" cy="144.3" r="43"/>
<path class="st2" d="M351.5,378.3c0,0,54-19,77,7s87-15,87-15"/>
<path class="st2" d="M790.5,385.3c0,0-10-24-78-2s-164,21-188-13l64-73.2c19.7-20.1,19.3-52.4-0.8-72.1
	c-20.1-19.7-52.4-19.3-72.1,0.8c-20.1-19.7-52.4-19.3-72.1,0.8c-19.7,20.1-19.3,52.4,0.8,72.1l71.2,71.6"/>
<ellipse class="st2" cx="522.5" cy="462.1" rx="63.5" ry="9.8"/>
<ellipse class="st1" cx="515.8" cy="531.2" rx="50" ry="7.7"/>
<ellipse class="st1" cx="515.8" cy="590.1" rx="33.8" ry="5.2"/>
<ellipse class="st2" cx="522.5" cy="524.3" rx="50" ry="7.7"/>
<ellipse class="st2" cx="522.5" cy="584.9" rx="33.8" ry="5.2"/>
<circle class="st3" cx="202.6" cy="357.5" r="33.3"/>
<path class="st4" d="M186.7,374.3c0,0-10.8,24-13.9,24.8s25.5,14.7,25.5,14.7s5.4-29.4,7.7-30.9S186.7,374.3,186.7,374.3z"/>
<circle class="st4" cx="203" cy="369.6" r="22.4"/>
<path class="st3" d="M221.8,540.4h-95.4c3.2-11.6,6.6-23.1,8.5-29.5c1-3.2,1.6-5.1,1.6-5.1s71.9,15.5,73.5,16.3
	c0.9,0.9,1.6,1.9,2.3,3C214.5,528.4,218.1,534,221.8,540.4z"/>
<path class="st4" d="M103.2,321.7L80,286.1c0,0,5.7-37.3-2-30.4s-10.2,35.1-10.2,35.1l26.9,40.9L103.2,321.7z"/>
<path class="st4" d="M313.6,386.7l20.9-1.5c0,0,24.8-26.3,26.3-17.8s-20.1,27.1-20.1,27.1l-28.6,3.1L313.6,386.7z"/>
<path class="st5" d="M161.2,394.4v-7.7c0,0-20.1-13.2-19.3-15.5s-1.5-3.9-1.5-3.9s-2.3-3.1-2.3-3.9s-3.1-1.5-3.1-1.5l-19.3-22.4
	c0,0-10.8-21.7-13.2-20.9s-14.7,5.4-13.2,8.5s44.9,69.6,44.9,69.6s2.3,14.7,6.2,14.7S161.2,394.4,161.2,394.4z"/>
<path class="st5" d="M213,403.7c0,0,17-0.8,17.8,0s11.6,0,11.6,0s29.4-7,31.7-9.3s41-12.4,42.5-7.7s5.4,13.9,1.5,15.5
	S209.9,430,209.9,430L213,403.7z"/>
<circle class="st3" cx="191" cy="322.5" r="13.8"/>
<path class="st3" d="M172.6,315c0-7,5.3-13,12.3-13.7c-0.5,0-1-0.1-1.4-0.1c-7.6,0-13.8,6.2-13.8,13.8c0,7.6,6.2,13.8,13.8,13.8
	c0,0,0,0,0,0c0.5,0,1,0,1.4-0.1C177.9,328,172.6,322.1,172.6,315z"/>
<ellipse class="st3" cx="206.5" cy="350.4" rx="22.9" ry="13.8"/>
<path class="st5" d="M180.1,386.3c0,0-7,5.4-8.5,6.2s-10.8-7-12.4-7s-21.7,23.2-21.7,23.2s3.7,4.3,0,26.3
	c-1.4,8.2-4.2,43.5-4.2,48.2s-15.2,16-1.2,26.1c13.9,10.1,80.5,20.9,81.2,14.7c0.8-6.2-7.7-22.4-3.9-30.2s3.9-36.4,3.9-36.4
	l4.6-30.2l3.9-24c0,0-18.2-5-19.7-5S193.7,409.1,180.1,386.3z"/>
<rect x="861.8" y="312.7" transform="matrix(0.9992 -3.874900e-02 3.874900e-02 0.9992 -11.8576 33.9451)" class="st6" width="15.8" height="20.4"/>
<path class="st7" d="M805.9,383.7c0,0-21.9-10.5-21.6-1.4c0.4,9,22.1,15,22.1,15L805.9,383.7z"/>
<path class="st3" d="M907.8,503.4h-104c2.2-10.2,6.3-22.5,9.5-31.3c2.6-7,4.5-11.9,4.5-11.9c11.8-13.3,29-13.7,45-10.4
	c1.9,0.4,3.8,0.8,5.7,1.3c0.2,0,0.4,0.1,0.7,0.2c3.8,1,7.4,2.1,10.9,3.2c6,1.9,11.3,3.9,15.7,5.2c2.2,0.7,4.4,1.2,6.7,1.6
	c0.5,0.1,1,0.1,1.5,0.1c1.7-0.1,2.9,1.8,3.7,5C909.4,473.7,909,488.1,907.8,503.4z"/>
<path class="st7" d="M887.3,293.3c0,0,12.1,18.8,16.8,23.1s-8.5,13.9-8.5,13.9l-23.7,3.2c0,0,0.3-21.5-0.9-23.7
	S887.3,293.3,887.3,293.3z"/>
<path class="st8" d="M866.7,317.9c0,0,4.9,8.9,9.4,8.7s27.9-10.1,28.9-13.6s7.7,24.6,7.7,24.6l-57.2,100.7l-14-9.7l6.8-59.2
	l5.6-31.9L866.7,317.9z"/>
<path class="st9" d="M907.2,408.1c-2.4,4.6-3.6,9.7-3.5,14.9c0,0.2,0,0.5,0,0.7c0.5,10.5,4.4,22.6,5.8,31.4c1,6.3,0.7,10.9-3,12
	c-9,2.6,1.3,4.5-33.4,16s-40.7,1.6-40.8-0.7s4.9-19.4,3.7-20.5s-16.4,14.2-21,12.1s-0.5-13.6-0.5-13.6s10.4-24.2,10.2-29.8
	s15.7-32.3,15.7-32.3l10.9-70.6c0,0,4.2-9.2,9.8-10.6c3.5-0.7,7.2-0.1,10.3,1.9l-9.4,20.7l-9.9,36.6l1.7,13.5
	c0,0,11.5-24.2,19.1-33.6s23.7-31.5,23.7-31.5s3.8-12.7,0.9-16.5c-2.8-3.8,11.9-4.4,18.1,11.2c3.3,8.3,8.7,20.6,12.1,32.1
	c3,10.2,4.4,19.7,1.5,25.1C924.5,384.9,913,395.9,907.2,408.1z"/>
<path class="st10" d="M929,376.6c-4.6,8.3-16,19.2-21.9,31.4c-1.5-5.5-3.4-11.2-3.4-11.2s-7.1-38.2,14-48.1c3.5-0.3,7,0.6,9.8,2.7
	C930.6,361.7,932,371.2,929,376.6z"/>
<path class="st9" d="M845.1,374.2l-17.9,5.2l-24.9,1l-2.6,21.6l40.9,2.9C840.7,405,850.9,376.3,845.1,374.2z"/>
<path class="st7" d="M874.4,446.9c0,0-24,4-18.5,11.2s26.7-0.4,26.7-0.4L874.4,446.9z"/>
<path class="st10" d="M903.7,423.6c0.5,10.5,4.4,22.6,5.8,31.4c-7.6,7.2-14.9,13.6-17.6,13.7c-5.7,0.2-14.7-0.6-18.1,0.7
	s-5.3-20.2-5.3-20.2s2-6.9,10.9-10.6C885.4,436,896.9,429.2,903.7,423.6z"/>
<path class="st9" d="M917.5,342c0,0,19.1-3,18.1,28.7s2,52-5.7,58s-32.7,33-38.3,33.2s-14.7-0.6-18.1,0.7s-5.3-20.2-5.3-20.2
	s2-6.9,10.9-10.6s29.9-17,29.7-21.5s-5.3-20.2-5.3-20.2S896.4,351.8,917.5,342z"/>
<circle class="st7" cx="870.4" cy="296.2" r="24.9"/>
<path class="st3" d="M853.7,260.5c-0.6,0.5-1.3,0.9-2.1,1.1c-0.8,0.1-1.6-0.4-1.7-1.2c-0.4,1.2-1.3,2.3-2.4,3
	c-1.2,0.6-3,0.1-3.1-1.2c-0.2,1-0.6,1.9-1.3,2.7c-0.7,0.8-1.9,0.8-2.7,0.1c0.5,2.8,0.2,5.6,0.4,8.5s0.9,5.8,3,7.7
	c3.1,2.7,7.8,2,11.9,1.5c0.6-0.1,1.3-0.1,1.9,0.1c1.5,0.7,1.5,2.8,1.5,4.5c0.3,6,4.8,11,10.8,11.8c1.6,0.3,3.3-0.2,4.6-1.1
	c1.2-1,1.8-2.6,3.1-3.3c2.2-1.2,4.8,0.6,6.4,2.5s3.1,4.3,5.6,4.6c3.2,0.5,5.7-2.8,6.9-5.9c3.4-8.6,3.1-18.2-0.7-26.7
	C889,254.2,865.9,251.9,853.7,260.5z"/>
</svg>
