<?xml version="1.0" encoding="utf-8"?>
<!-- Generator: Adobe Illustrator 23.0.1, SVG Export Plug-In . SVG Version: 6.00 Build 0)  -->
<svg version="1.1" id="a74b504d-8f27-42fa-9c2d-377300434abb"
	 xmlns="http://www.w3.org/2000/svg" xmlns:xlink="http://www.w3.org/1999/xlink" x="0px" y="0px" viewBox="0 0 1123 672.4"
	 style="enable-background:new 0 0 1123 672.4;" xml:space="preserve">
<style type="text/css">
	.st0{fill:#F2F2F2;}
	.st1{fill:#3F3D56;}
	.st2{opacity:0.1;enable-background:new    ;}
	.st3{fill:#575A89;}
	.st4{fill:#FFCC66;}
	.st5{fill:#FF6584;}
	.st6{fill:#5596E6;}
	.st7{fill:#2F2E41;}
	.st8{fill:#FFB9B9;}
</style>
<title>city girl</title>
<path class="st0" d="M923.6,77c-129-99.5-308.6-103.5-439.5-6.6c-69.2,51.2-122.9,129.6-113.1,249c3.5,42.2,13.1,76.8,27.1,105.2
	C454.8,539.5,687.9,535,700.9,535c8.4,0,16.8,0.2,25.2,0.6c29.4,1.3,58.6,5,87.4,11.1c41.1,8.6,93.3,12.9,140-3.4
	c7.9-2.7,15.6-6.1,23.1-10c25.7-13.6,54.4-26.7,71.2-59c12.6-24.3,21.8-54.7,26.2-92.6C1090.1,243.5,1009.6,143.3,923.6,77z"/>
<ellipse class="st1" cx="726.6" cy="537.2" rx="369" ry="34.6"/>
<ellipse class="st2" cx="708.6" cy="537.2" rx="343.2" ry="16.3"/>
<polygon class="st3" points="898.4,73.3 898.4,112.2 847.8,112.2 847.8,536 953.4,536 953.4,128.3 953.4,112.2 953.4,73.3 "/>
<polygon class="st3" points="619.8,334.4 619.8,267.6 555.3,267.6 555.3,334.4 531.1,334.4 531.1,536.7 643.3,536.7 643.3,334.4 "/>
<rect x="543.6" y="442.9" class="st1" width="87.3" height="94.6"/>
<rect x="543.6" y="442.9" class="st2" width="13.9" height="94.6"/>
<polygon class="st1" points="810.5,52.1 810.5,74.8 681.4,74.8 681.4,52.1 643.3,52.1 643.3,537.5 847.8,537.5 847.8,52.1 "/>
<rect x="810.5" y="52.1" class="st2" width="28.6" height="22.7"/>
<rect x="643.3" y="52.1" class="st2" width="28.6" height="485.4"/>
<polygon class="st1" points="497.4,190.7 497.4,172.3 478.3,172.3 478.3,190.7 443.9,190.7 443.9,537.5 531.1,537.5 531.1,190.7 "/>
<rect x="478.3" y="172.3" class="st2" width="10.3" height="18.3"/>
<rect x="443.9" y="190.7" class="st2" width="10.3" height="346.8"/>
<rect x="810.5" y="239" class="st2" width="28.6" height="298.4"/>
<rect x="504.7" y="190.7" class="st2" width="26.4" height="63.8"/>
<rect x="674.8" y="113.7" class="st4" width="41.1" height="17.6"/>
<rect x="762.1" y="294.8" class="st4" width="41.1" height="17.6"/>
<rect x="674.8" y="421.6" class="st4" width="41.1" height="17.6"/>
<rect x="467.3" y="269.8" class="st4" width="41.1" height="17.6"/>
<rect x="567" y="453.1" class="st4" width="41.1" height="17.6"/>
<rect x="552.4" y="349.8" class="st2" width="70.4" height="29.3"/>
<rect x="860.3" y="145.9" class="st2" width="70.4" height="29.3"/>
<rect x="860.3" y="208.2" class="st2" width="70.4" height="29.3"/>
<rect x="860.3" y="270.6" class="st2" width="70.4" height="29.3"/>
<rect x="860.3" y="332.9" class="st2" width="70.4" height="29.3"/>
<rect x="860.3" y="395.2" class="st2" width="70.4" height="29.3"/>
<rect x="860.3" y="457.5" class="st2" width="70.4" height="29.3"/>
<polygon class="st1" points="977.6,278.6 977.6,198.7 926.3,198.7 926.3,278.6 908,278.6 908,537.5 995.2,537.5 995.2,278.6 "/>
<rect x="926.3" y="198.7" class="st2" width="16.1" height="79.9"/>
<rect x="908" y="278.6" class="st2" width="16.1" height="258.8"/>
<rect x="952" y="408.4" class="st2" width="43.3" height="25.7"/>
<rect x="953.4" y="370.3" class="st5" width="41.1" height="17.6"/>
<path class="st6" d="M1123,388.1c0,65.3-38.8,88.1-86.7,88.1s-86.7-22.8-86.7-88.1s86.7-148.4,86.7-148.4S1123,322.7,1123,388.1z"/>
<polygon class="st1" points="1033.1,466.2 1034,411.5 1071,343.9 1034.1,402.9 1034.5,378.4 1060,329.4 1034.6,371.9 1034.6,371.9 
	1035.4,327.6 1062.6,288.7 1035.5,320.7 1035.9,239.6 1033.1,346.9 1033.3,342.5 1005.6,300.1 1032.9,351 1030.3,400.4 
	1030.2,399.1 998.2,354.4 1030.1,403.7 1029.8,409.9 1029.7,410 1029.8,410.5 1023.2,535.8 1032,535.8 1033,471.1 1064.8,421.9 "/>
<path class="st6" d="M487.3,388.8c0,65.3-38.8,88.1-86.7,88.1s-86.7-22.8-86.7-88.1s86.7-148.4,86.7-148.4S487.3,323.4,487.3,388.8z
	"/>
<polygon class="st1" points="397.4,466.9 398.3,412.2 435.3,344.6 398.5,403.6 398.9,379.1 424.3,330.1 399,372.6 399,372.6 
	399.7,328.4 427,289.4 399.8,321.4 400.2,240.3 397.4,347.7 397.7,343.2 369.9,300.8 397.2,351.7 394.6,401.1 394.6,399.8 
	362.6,355.1 394.5,404.4 394.1,410.6 394.1,410.7 394.1,411.2 387.5,536.5 396.3,536.5 397.4,471.8 429.2,422.6 "/>
<ellipse class="st1" cx="207" cy="644.4" rx="207" ry="28"/>
<ellipse class="st2" cx="207" cy="644.4" rx="162" ry="21.9"/>
<circle class="st7" cx="177.7" cy="201.8" r="44"/>
<circle class="st8" cx="189.7" cy="216.6" r="24.6"/>
<path class="st8" d="M176,229.5c0,0,6.3,15-3.3,19.2s-5.8,28.8-5.8,28.8l37.5-7.9c0,0,0-10.4-7.5-15c-7.5-4.6,10-25,10-25H176z"/>
<polygon class="st8" points="163.9,340.4 165.1,354.2 221.4,363.8 216,338.4 "/>
<path class="st8" d="M163,451l2.1,58.4c0,0-10,23.8-2.1,67.6s2.1,55.9,2.1,55.9l28.4,3.8l-1.7-16.3l-6.7-14.2l2.9-80.9
	c0,0,12.9-30,13.3-35.9s-0.8-48.4-0.8-48.4L163,451z"/>
<path class="st2" d="M163,451l2.1,58.4c0,0-10,23.8-2.1,67.6s2.1,55.9,2.1,55.9l28.4,3.8l-1.7-16.3l-6.7-14.2l2.9-80.9
	c0,0,12.9-30,13.3-35.9s-0.8-48.4-0.8-48.4L163,451z"/>
<path class="st7" d="M171.8,612.8c0,0,0-5.4-2.5-5.8s-5.8-1.7-5.8,0s-0.4,13.3-1.3,15s-2.5,7.9-1.3,10.4c0,0-3.8,9.6-0.8,10.4
	s19.6,0.8,19.6,0.8l0.8-4.6c0,0,37.1,11.7,45.1,1.3c0,0,3.8-7.5-2.9-9.2c0,0-15,0.4-20.4-5.8s-15.9-20.9-15.9-20.9s-8.3,1.3-7.5,6.7
	v1.7H171.8z"/>
<path class="st8" d="M186,452.2c0,0,4.2,29.2,18.8,50.5c0,0,7.5,17.5,6.3,22.9s-1.3,35,11.3,61.3l11.7,38.4l5.8,13.8l10,4.2
	l16.3,1.3l-9.2-19.2l-4.6-10c0,0-8.3-17.1-8.3-32.1s-5.4-50.5-5.4-50.5s0-80.1-8.8-85.1S186,452.2,186,452.2z"/>
<path class="st7" d="M167.2,350l-4.2-0.8V368c0,0-1.7,14.6-5.4,17.5s-18.4,60.5-13.3,63.8s72.2,20.9,88.4,2.9l-11.3-54.6
	c0,0,0.8-37.5,0-37.5S167.2,350,167.2,350z"/>
<path class="st6" d="M206.8,265.8c0,0-20.9-14.2-41.7,4.2c0,0-7.5,30.9-8.8,38.4c-1.3,7.5-9.2,38.4-3.3,41.3c5.8,2.9,5.8-7.1,20.9-5
	c15,2.1,47.1,1.3,47.1-1.3c0-2.5-7.5-22.5-4.6-25.9c2.9-3.3,7.9-19.2,2.9-27.1C214.4,282.5,206.8,265.8,206.8,265.8z"/>
<path class="st8" d="M179.7,350l41.7,19.6c0,0,16.7,21.3,20.4,9.2c3.8-12.1-12.5-20.9-12.5-20.9l-27.9-15.9l-21.7,7.1L179.7,350z"/>
<path class="st2" d="M182.6,269.9c0,0-23.8,73.4-2.1,85.1s25-10.4,25-10.4s-14.6-9.2-10-20.4c4.6-11.3,8.8-54.2,8.8-54.2
	L182.6,269.9z"/>
<path class="st6" d="M181.4,267.4c0,0-23.8,73.4-2.1,85.1c21.7,11.7,25-10.4,25-10.4s-14.6-9.2-10-20.4c4.6-11.3,8.8-54.2,8.8-54.2
	H181.4z"/>
<path class="st7" d="M238.7,621.4c0,0-0.4-5.7-3.1-5.9s-6.2-1.3-6.1,0.5s0.6,14-0.2,15.8s-2,8.5-0.5,11c0,0-3.2,10.3-0.1,11
	s20.6-0.6,20.6-0.6l0.5-4.9c0,0,39.8,9.4,47.3-2.2c0,0,3.4-8.2-3.8-9.4c0,0-15.7,1.6-21.9-4.5s-18.2-20.6-18.2-20.6s-8.6,2-7.3,7.6
	l0.1,1.7L238.7,621.4z"/>
<ellipse class="st7" cx="189.7" cy="200.6" rx="29.7" ry="15.8"/>
<ellipse class="st8" cx="165" cy="220.7" rx="4.2" ry="6.6"/>
<circle class="st7" cx="150.7" cy="157.8" r="20.8"/>
</svg>
