<?xml version="1.0" encoding="utf-8"?>
<!-- Generator: Adobe Illustrator 23.0.1, SVG Export Plug-In . SVG Version: 6.00 Build 0)  -->
<svg version="1.1" id="b9950e65-c983-427f-969f-411e60d4718f"
	 xmlns="http://www.w3.org/2000/svg" xmlns:xlink="http://www.w3.org/1999/xlink" x="0px" y="0px" viewBox="0 0 733.5 729"
	 style="enable-background:new 0 0 733.5 729;" xml:space="preserve">
<style type="text/css">
	.st0{fill:url(#SVGID_1_);}
	.st1{fill:#ECEFF1;}
	.st2{fill:url(#SVGID_2_);}
	.st3{fill:#5596E6;}
	.st4{fill:#0062FF;}
	.st5{fill:#4B8FD1;}
	.st6{fill:url(#SVGID_3_);}
	.st7{fill:#FFCC80;}
	.st8{fill:url(#SVGID_4_);}
	.st9{fill:#FAF8E4;}
	.st10{opacity:0.6;}
	.st11{fill:#41D6C3;}
	.st12{fill:url(#SVGID_5_);}
	.st13{fill:url(#SVGID_6_);}
	.st14{fill:#FFFFFF;}
	.st15{fill:url(#SVGID_7_);}
	.st16{opacity:0.2;enable-background:new    ;}
	.st17{fill:url(#SVGID_8_);}
	.st18{fill:#3D80B7;}
	.st19{fill:url(#SVGID_9_);}
</style>
<title>mail box</title>
<linearGradient id="SVGID_1_" gradientUnits="userSpaceOnUse" x1="383.47" y1="-0.97" x2="383.47" y2="327.08" gradientTransform="matrix(1 0 0 -1 0 728)">
	<stop  offset="0" style="stop-color:#808080;stop-opacity:0.25"/>
	<stop  offset="0.54" style="stop-color:#808080;stop-opacity:0.12"/>
	<stop  offset="1" style="stop-color:#808080;stop-opacity:0.1"/>
</linearGradient>
<rect x="346.3" y="400.9" class="st0" width="74.4" height="328"/>
<rect x="353.1" y="400.9" class="st1" width="62.7" height="322.2"/>
<linearGradient id="SVGID_2_" gradientUnits="userSpaceOnUse" x1="238.3" y1="366.18" x2="838.21" y2="366.18" gradientTransform="matrix(1 0 0 -1 -185.78 644.69)">
	<stop  offset="0" style="stop-color:#808080;stop-opacity:0.25"/>
	<stop  offset="0.54" style="stop-color:#808080;stop-opacity:0.12"/>
	<stop  offset="1" style="stop-color:#808080;stop-opacity:0.1"/>
</linearGradient>
<path class="st2" d="M593.8,145.3H258.6c-11.5,0.3-22.9,2.8-33.4,7.4c-34.1,15.1-53.9,38.8-59.5,91.4v121.4l-88.8-0.9
	c-17.9,0-24.4,28.1-24.4,47.1h599.9V207.6C652.4,173.2,626.2,145.3,593.8,145.3z"/>
<path class="st3" d="M270.9,158.1h332.1c22.5,0,40.7,18.2,40.7,40.7v202.2l0,0H270.9l0,0V158.1L270.9,158.1z"/>
<path class="st4" d="M263,158.1L263,158.1c49.8,0,90.1,40.3,90.1,90.1v108.7c0,24.4-19.7,44.1-44.1,44.1h0h-92
	c-24.4,0-44.1-19.7-44.1-44.1V248.1C172.9,198.4,213.2,158.1,263,158.1z"/>
<path class="st5" d="M263,158.1L263,158.1c49.8,0,90.1,40.3,90.1,90.1v108.7c0,24.4-19.7,44.1-44.1,44.1h0h-92
	c-24.4,0-44.1-19.7-44.1-44.1V248.1C172.9,198.4,213.2,158.1,263,158.1z"/>
<linearGradient id="SVGID_3_" gradientUnits="userSpaceOnUse" x1="465.73" y1="478.87" x2="465.73" y2="602.25" gradientTransform="matrix(1 0 0 -1 0 728)">
	<stop  offset="0" style="stop-color:#808080;stop-opacity:0.25"/>
	<stop  offset="0.54" style="stop-color:#808080;stop-opacity:0.12"/>
	<stop  offset="1" style="stop-color:#808080;stop-opacity:0.1"/>
</linearGradient>
<polygon class="st6" points="502.9,125.8 456.4,125.8 428.5,125.8 428.5,181.1 428.5,249.1 462.3,249.1 462.3,181.1 502.9,181.1 "/>
<polygon class="st7" points="497.1,125.8 457.9,125.8 434.4,125.8 434.4,176.7 434.4,239.3 457.9,239.3 457.9,176.7 497.1,176.7 "/>
<linearGradient id="SVGID_4_" gradientUnits="userSpaceOnUse" x1="511.2423" y1="330.5977" x2="511.2423" y2="407.2776" gradientTransform="matrix(-0.9927 -0.1208 0.1208 -0.9927 693.8528 678.028)">
	<stop  offset="0" style="stop-color:#808080;stop-opacity:0.25"/>
	<stop  offset="0.54" style="stop-color:#808080;stop-opacity:0.12"/>
	<stop  offset="1" style="stop-color:#808080;stop-opacity:0.1"/>
</linearGradient>
<polygon class="st8" points="164.4,280.5 173.6,204.4 297.5,219.5 288.2,295.6 "/>
<rect x="194.7" y="189" transform="matrix(0.1208 -0.9927 0.9927 0.1208 -44.8821 447.9236)" class="st9" width="71.6" height="120.5"/>
<g class="st10">
	
		<rect x="180.7" y="211.5" transform="matrix(0.1208 -0.9927 0.9927 0.1208 -53.6672 377.6472)" class="st11" width="11.4" height="15.3"/>
	
		<rect x="215.5" y="219.5" transform="matrix(0.1208 -0.9927 0.9927 0.1208 -56.0904 434.6561)" class="st4" width="3.7" height="58.9"/>
	
		<rect x="223" y="237" transform="matrix(0.1208 -0.9927 0.9927 0.1208 -59.4646 449.8337)" class="st4" width="2.5" height="42.9"/>
</g>
<linearGradient id="SVGID_5_" gradientUnits="userSpaceOnUse" x1="459.1223" y1="320.0677" x2="459.1223" y2="396.7477" gradientTransform="matrix(-0.9927 -0.1208 0.1208 -0.9927 693.8527 678.0211)">
	<stop  offset="0" style="stop-color:#808080;stop-opacity:0.25"/>
	<stop  offset="0.54" style="stop-color:#808080;stop-opacity:0.12"/>
	<stop  offset="1" style="stop-color:#808080;stop-opacity:0.1"/>
</linearGradient>
<polygon class="st12" points="214.8,297.3 224.1,221.2 348,236.2 338.7,312.4 "/>
<rect x="245.1" y="205.8" transform="matrix(0.1208 -0.9927 0.9927 0.1208 -17.1452 512.7487)" class="st9" width="71.6" height="120.5"/>
<g class="st10">
	
		<rect x="231.2" y="228.2" transform="matrix(0.1208 -0.9927 0.9927 0.1208 -25.9252 442.482)" class="st11" width="11.4" height="15.3"/>
	
		<rect x="266" y="236.3" transform="matrix(0.1208 -0.9927 0.9927 0.1208 -28.3484 499.4909)" class="st4" width="3.7" height="58.9"/>
	
		<rect x="273.5" y="253.8" transform="matrix(0.1208 -0.9927 0.9927 0.1208 -31.7389 514.6478)" class="st4" width="2.5" height="42.9"/>
</g>
<linearGradient id="SVGID_6_" gradientUnits="userSpaceOnUse" x1="542.5173" y1="272.7576" x2="542.5173" y2="376.6976" gradientTransform="matrix(-0.9927 -0.1208 0.1208 -0.9927 693.8448 678.0301)">
	<stop  offset="0" style="stop-color:#808080;stop-opacity:0.25"/>
	<stop  offset="0.54" style="stop-color:#808080;stop-opacity:0.12"/>
	<stop  offset="1" style="stop-color:#808080;stop-opacity:0.1"/>
</linearGradient>
<polygon class="st13" points="104.3,331.5 116.9,228.3 284.8,248.8 272.2,351.9 "/>
<rect x="145.4" y="207.4" transform="matrix(0.1208 -0.9927 0.9927 0.1208 -116.5789 446.6561)" class="st14" width="97" height="163.4"/>
<g class="st10">
	
		<rect x="126.4" y="237.8" transform="matrix(0.1208 -0.9927 0.9927 0.1208 -128.4925 351.4014)" class="st11" width="15.4" height="20.8"/>
	
		<rect x="173.6" y="248.8" transform="matrix(0.1208 -0.9927 0.9927 0.1208 -131.7948 428.6715)" class="st11" width="5" height="79.8"/>
	
		<rect x="183.8" y="272.5" transform="matrix(0.1208 -0.9927 0.9927 0.1208 -136.3531 449.241)" class="st11" width="3.3" height="58.2"/>
</g>
<linearGradient id="SVGID_7_" gradientUnits="userSpaceOnUse" x1="471.8674" y1="258.4876" x2="471.8674" y2="362.4276" gradientTransform="matrix(-0.9927 -0.1208 0.1208 -0.9927 693.8463 678.0233)">
	<stop  offset="0" style="stop-color:#808080;stop-opacity:0.25"/>
	<stop  offset="0.54" style="stop-color:#808080;stop-opacity:0.12"/>
	<stop  offset="1" style="stop-color:#808080;stop-opacity:0.1"/>
</linearGradient>
<polygon class="st15" points="172.7,354.2 185.3,251 353.2,271.5 340.6,374.6 "/>
<rect x="213.8" y="230.2" transform="matrix(0.1208 -0.9927 0.9927 0.1208 -78.9926 534.5229)" class="st14" width="97" height="163.4"/>
<g class="st10">
	
		<rect x="194.9" y="260.6" transform="matrix(0.1208 -0.9927 0.9927 0.1208 -90.8968 439.2718)" class="st11" width="15.4" height="20.8"/>
	
		<rect x="242" y="271.5" transform="matrix(0.1208 -0.9927 0.9927 0.1208 -94.199 516.5419)" class="st11" width="5" height="79.8"/>
	
		<rect x="252.2" y="295.2" transform="matrix(0.1208 -0.9927 0.9927 0.1208 -98.7583 537.1101)" class="st11" width="3.3" height="58.2"/>
</g>
<path class="st16" d="M262,159L262,159c-11.8,0-23.5,2.3-34.4,6.8c4.2-0.6,8.5-0.9,12.8-0.9l0,0c49.8,0,90.1,40.3,90.1,90.1v143
	h21.5V249.1C352.1,199.4,311.8,159,262,159z"/>
<path class="st4" d="M94.6,369.6h258.5l0,0v31.3l0,0H63.3l0,0l0,0C63.3,383.6,77.3,369.6,94.6,369.6z"/>
<path class="st3" d="M94.6,369.6h258.5l0,0v31.3l0,0H63.3l0,0l0,0C63.3,383.6,77.3,369.6,94.6,369.6z"/>
<linearGradient id="SVGID_8_" gradientUnits="userSpaceOnUse" x1="733.2596" y1="404.6237" x2="733.2596" y2="463.9817" gradientTransform="matrix(-0.65 0.76 -0.76 -0.65 1497.12 -225.48)">
	<stop  offset="0" style="stop-color:#808080;stop-opacity:0.25"/>
	<stop  offset="0.54" style="stop-color:#808080;stop-opacity:0.12"/>
	<stop  offset="1" style="stop-color:#808080;stop-opacity:0.1"/>
</linearGradient>
<polygon class="st17" points="657.4,70.6 654.4,72 654.7,71.4 654.5,71.5 654.8,71.2 694.9,0 715.3,17.5 732.9,33.7 727.8,36.2 
	733.5,46.2 "/>
<polygon class="st4" points="713.3,19.3 729.3,34.2 656.6,70.3 695.3,20.7 "/>
<polygon class="st18" points="713.3,19.3 729.3,34.2 656.6,70.3 695.3,20.7 "/>
<polygon class="st3" points="694.6,3.3 656.6,70.3 713.3,19.3 "/>
<polygon class="st3" points="729.8,45.7 656.7,69.8 717.8,24.2 "/>
<linearGradient id="SVGID_9_" gradientUnits="userSpaceOnUse" x1="260.1436" y1="29.3321" x2="260.1436" y2="116.2748" gradientTransform="matrix(0.8447 0.5352 0.5352 -0.8447 -193.1957 -4.8159)">
	<stop  offset="0" style="stop-color:#808080;stop-opacity:0.25"/>
	<stop  offset="0.54" style="stop-color:#808080;stop-opacity:0.12"/>
	<stop  offset="1" style="stop-color:#808080;stop-opacity:0.1"/>
</linearGradient>
<polygon class="st19" points="121.7,87 126.4,87.7 125.7,87 126.1,87 125.5,86.8 38.6,4.4 17.5,37.7 0,68 8.1,69.3 4.5,85.7 "/>
<polygon class="st4" points="21.2,39.4 5.2,67.2 122.6,86.3 47,33.6 "/>
<polygon class="st18" points="21.2,39.4 5.2,67.2 122.6,86.3 47,33.6 "/>
<polygon class="st3" points="40.5,9 122.6,86.3 21.2,39.4 "/>
<polygon class="st3" points="9.5,83.5 122.3,85.7 17,48.3 "/>
</svg>
