<?xml version="1.0" encoding="utf-8"?>
<!-- Generator: Adobe Illustrator 23.0.1, SVG Export Plug-In . SVG Version: 6.00 Build 0)  -->
<svg version="1.1" id="a8897f4c-2937-4134-8b3a-fee1040aeff6"
	 xmlns="http://www.w3.org/2000/svg" xmlns:xlink="http://www.w3.org/1999/xlink" x="0px" y="0px" viewBox="0 0 1066.1 824.2"
	 style="enable-background:new 0 0 1066.1 824.2;" xml:space="preserve">
<style type="text/css">
	.st0{fill:#F2F2F2;}
	.st1{fill:#2F2E41;}
	.st2{fill:#FFB8B8;}
	.st3{opacity:0.2;enable-background:new    ;}
	.st4{fill:#3F3D56;}
	.st5{fill:#41D6C3;}
	.st6{fill:#A0616A;}
	.st7{fill:#D0CDE1;}
	.st8{opacity:0.1;enable-background:new    ;}
</style>
<title>people</title>
<polygon class="st0" points="962.6,394.7 946.7,466.1 933.8,524.1 923.5,570.3 910.6,628.2 868.5,817.5 346.9,576.5 308.6,558.8 
	260,536.3 221.7,518.6 175.6,497.3 201.7,459.2 223.5,427.6 251,387.6 272.7,356 517.4,0 776.5,229.8 822.7,270.7 859.5,303.4 
	905.7,344.3 "/>
<path class="st1" d="M204.4,604.8c-34.9-19.4-56.6-46-64.5-78.9c-5.9-24.4-4.2-51.9,5-81.7c6.9-22,17.1-42.7,30.4-61.5
	c70.6-100,77-165.1,69.9-202.2c-7.8-40.6-33-57.5-33.3-57.7l1.1-1.7c0.3,0.2,26.2,17.4,34.1,58.9c4.6,23.9,2.4,51.1-6.4,81
	c-11,37.1-32.5,78.5-63.8,122.8c-13.2,18.6-23.4,39.2-30.2,60.9c-15.2,48.9-17.3,116,58.6,158.3L204.4,604.8z"/>
<path class="st1" d="M221.1,604.8c34.9-19.4,56.6-46,64.5-78.9c5.9-24.4,4.2-51.9-5-81.7c-6.9-22-17.1-42.7-30.4-61.5
	c-70.6-100-77-165.1-69.9-202.2c7.8-40.6,33-57.5,33.3-57.7l-1.1-1.7c-0.3,0.2-26.2,17.4-34.1,58.9c-4.6,23.9-2.4,51.1,6.4,81
	c11,37.1,32.5,78.5,63.8,122.8c13.2,18.6,23.4,39.2,30.2,60.9c15.2,48.9,17.3,116-58.6,158.3L221.1,604.8z"/>
<path class="st1" d="M981.4,520.8c-34.9-19.4-56.6-46-64.5-78.9c-5.9-24.4-4.2-51.9,5-81.7c6.9-22,17.1-42.7,30.4-61.5
	c70.6-100,77-165.1,69.9-202.2c-7.8-40.6-33-57.5-33.3-57.7l1.1-1.7c0.3,0.2,26.2,17.4,34.1,58.9c4.6,23.9,2.4,51.1-6.4,81
	c-11,37.1-32.5,78.5-63.8,122.8c-13.2,18.6-23.4,39.2-30.2,60.9c-15.2,48.9-17.3,116,58.6,158.3L981.4,520.8z"/>
<path class="st1" d="M998.1,520.8c34.9-19.4,56.6-46,64.5-78.9c5.9-24.4,4.2-51.9-5-81.7c-6.9-22-17.1-42.7-30.4-61.5
	c-70.6-100-77-165.1-69.9-202.2c7.8-40.6,33-57.5,33.3-57.7l-1.1-1.7c-0.3,0.2-26.2,17.4-34.1,58.9c-4.6,23.9-2.4,51.1,6.4,81
	c11,37.1,32.5,78.5,63.8,122.8c13.2,18.6,23.4,39.2,30.2,60.9c15.2,48.9,17.3,116-58.6,158.3L998.1,520.8z"/>
<path class="st1" d="M467.8,299.9c-26.2-44.3-78.1-46.3-78.1-46.3s-50.5-6.5-82.9,61c-30.2,62.9-71.9,123.6-6.7,138.3l11.8-36.6
	l7.3,39.4c9.3,0.7,18.6,0.8,27.9,0.5c69.8-2.3,136.3,0.7,134.2-24.4C478.4,398.4,493,342.6,467.8,299.9z"/>
<path class="st2" d="M360.2,392.6c9,20,14.7,43.8,18.1,70.2l72.5-4.5c-16.7-23.6-22.2-50.7-15.9-81.6L360.2,392.6z"/>
<path class="st3" d="M360.2,392.6c9,20,14.7,43.8,18.1,70.2l72.5-4.5c-16.7-23.6-22.2-50.7-15.9-81.6L360.2,392.6z"/>
<path class="st2" d="M23.9,772.9c0,0-37.5,20.1-18.5,37.3s44.2-22.7,44.2-22.7L23.9,772.9z"/>
<polygon class="st1" points="482.6,714.3 482,741.8 480.8,801.1 480.8,801.1 480.4,818.3 240.4,818.3 250.2,764.2 250.2,764.1 
	258.9,715.7 262.8,694 262.8,693.9 459.9,666.8 "/>
<path class="st4" d="M482.6,714.3l-0.6,27.5c-69.7-1.8-177.8-18.6-223.1-26.1l3.9-21.7l197.1-27.2L482.6,714.3z"/>
<circle class="st2" cx="395.4" cy="355.2" r="56.6"/>
<path class="st5" d="M504.1,744.9c0,0,6.8,61.2-34,56.6l-6.8-61.2l-36.2-36.2l-102-2.3l-74.8,70.2c0,0-2.3-72.5,6.8-79.3
	s29.5-22.7,29.5-22.7v-11.3l-61.2-124.6c0,0,36.2-74.8,65.7-77l38.5-2.3c0,0,13.6-6.8,13.6-9.1s-2.3-20.4,9.1-15.9
	c0,0,1-23.2,13-16.2c0,0,37.6,29.5,75.7,1.3c0,0,17.8-3.3,15.5,5.8s0,15.9,4.5,15.9s24.9,6.8,24.9,11.3c0,1,1.5,10.4,3.8,24.5v0
	c8.4,51.5,27.9,165.8,27.9,165.8S538.1,667.9,504.1,744.9z"/>
<path class="st5" d="M241.3,522.9l-15.9,11.3L80.4,720l-77,61.2c0,0,43-6.8,34,29.5l265.1-151.8L241.3,522.9z"/>
<path class="st4" d="M489.8,472.6L489.8,472.6c-3,17.7-101.2,14-114.8,14s-24.9-2.3-38.5-11.3s-6.8-20.4-6.8-20.4
	s11.6-8.8,11.6-11.1s-2.3-20.4,9.1-15.9c0,0,1-23.2,13-16.2c0,0,39.6,31.5,77.8,3.3c0,0,17.8-3.3,15.5,5.8s0,15.9,4.5,15.9
	s24.9,6.8,24.9,11.3C486,449.1,487.5,458.5,489.8,472.6z"/>
<path class="st2" d="M478.1,388.1c0,0-18.1-38.5-36.2-20.4s20.4,45.3,20.4,45.3L478.1,388.1z"/>
<path class="st5" d="M478.1,379c0,0-28,35.4-36.6,38.1c0,0,25.3,100.1,57,127.3l18.1,92.9c0,0,77-31.7,58.9-83.8
	c-0.2-0.5-0.4-1-0.5-1.6c-15.1-43.4-36-84.6-62.1-122.4L478.1,379z"/>
<polygon class="st3" points="463.1,483.9 518.8,637.3 498.4,544.4 "/>
<polygon class="st1" points="456.2,295.7 405,268.8 334.3,279.8 319.6,344.5 356.1,343.1 366.2,319.3 366.2,342.7 383.1,342 
	392.8,304.2 398.9,344.5 458.7,343.2 "/>
<path class="st6" d="M940.1,644.3L969.2,748c0,0-6,91.8,22,73.9c28.6-18.4,18-95.8,18-95.8l-16.8-93L940.1,644.3z"/>
<path class="st7" d="M955.7,353.5l24,24v114.4c0,0,14.1,21.2,11.3,26.8s-5.6,5.6-2.8,9.9s5.6,7.1,2.8,9.9s-2.8,9.9,0,12.7
	s8.5,7.1,4.2,11.3s-9.9,1.4-4.2,16.9s15.5,19.8,12.7,25.4s-2.8,19.8-2.8,19.8l-60.7,8.5l-12.7-159.5L955.7,353.5z"/>
<polygon class="st4" points="1003.7,623.2 933.1,626 935.9,655.6 998,644.3 "/>
<polygon class="st6" points="809.5,206 801.1,290.7 887.2,303.4 893.5,254.7 899.9,206 "/>
<polygon class="st8" points="809.5,205.5 801.1,290.2 887.2,302.9 893.5,254.2 899.9,205.5 "/>
<path class="st6" d="M622.5,609l48,103.1c0,0,8.5,48,21.2,49.4s25.4-49.4,25.4-49.4l-16.9-26.8L680.4,609L622.5,609z"/>
<path class="st1" d="M951.1,819.3H679.7c2.2-34,3.5-55,3.5-55l3.6-5.7l17.5-27.5l12.5-19.6l4.4-6.8l1.6-2.5l17.1-3.1l176.3-32.2
	c2.9,13.1,7,25.8,12.3,38.1c1.2,2.7,2.5,5.5,3.9,8.2c4.4,8.7,9.8,16.8,16.3,22.9c1.5,1.4,2.5,5,3.2,10.7
	C953.5,760.6,953,786.2,951.1,819.3z"/>
<circle class="st6" cx="856.8" cy="165.8" r="67.8"/>
<path class="st7" d="M705.8,304.1l-9.9-5.6c0,0-43.8,29.6-57.9,96c-14.1,66.4-24,83.3-24,83.3s-14.1,2.8-4.2,12.7s9.9,8.5,1.4,14.1
	s-14.1-5.6-8.5,5.6c5.6,11.3,12.7,8.5,7.1,15.5s-15.5,7.1-9.9,12.7c5.6,5.6-5.6,18.4,1.4,24s9.9,7.1,9.9,16.9
	c0,5.8,0.9,11.5,2.8,16.9h73.4c0,0-14.1-26.8-9.9-32.5c4.2-5.6,5.6-11.3,2.8-14.1c-2.8-2.8-11.3,2.8-2.8-4.2
	c8.5-7.1,11.3-2.8,8.5-11.3s-8.5-4.2-2.8-8.5c5.6-4.2,9.9-2.8,7.1-7.1s-8.5-4.2-2.8-7.1c5.6-2.8,9.9,0,8.5-7.1s-2.8-4.2,0-7.1
	c2.8-2.8,32.5-98.8,32.5-101.6S705.8,304.1,705.8,304.1z"/>
<polygon class="st4" points="691.7,590.7 602.7,596.3 625.3,617.5 687.4,618.9 "/>
<path class="st4" d="M717.1,696.6l-18.4,33.9c0,0,55.1,7.1,74.8,14.1s70.6,16.9,70.6,16.9l12.7-49.4L717.1,696.6z"/>
<polygon class="st4" points="878,712.1 893.5,758.7 955.7,746 948.6,702.2 "/>
<path class="st7" d="M903.4,256.1c0,0-4.2-2.8-14.1,2.8s-42.4,8.5-57.9-8.5c-15.5-16.9-26.8-31.1-31.1-28.2s-7.1,35.3-7.1,35.3
	l-14.1,11.3l-83.3,29.6L703,489l12.7,43.8c0,0-9.9,33.9,2.8,53.6c12.7,19.8-7.1,26.8-7.1,26.8s-4.2,5.6-1.4,19.8
	c2.8,14.1-2.8,66.4-2.8,66.4s120,53.6,245.6,7.1l-14.1-53.6l-7.1-120c0,0,7.1-19.8,5.6-28.2c-1.4-8.5,42.4-127.1,42.4-127.1
	s-7.1-59.3-43.8-72c-36.7-12.7-42.4-25.4-42.4-25.4S910.5,261.8,903.4,256.1z"/>
<path class="st1" d="M788.6,174.4c0,0-7-10.6-4.3-21.9c1.6-6.5,2.3-13.1,1.9-19.8c0,0,5.7-18.4,11.4-28.7s3-14.6,20.8-17.9
	c17.9-3.2,10.6-26.5,57.6-1.4c3.2,4.5,8.9,6.7,14.3,5.4c9.7-1.9,13.3,11.6,13.3,11.6s6.5-3.8,8.9,1.6s19.8-3.2,19.8,33.3
	S912.6,206,912.6,206s1.4-61.5-30.8-67.7s-66.9-24.4-75.2-1.1S788.6,174.4,788.6,174.4z"/>
<ellipse class="st6" cx="913.3" cy="180.6" rx="6.4" ry="8.5"/>
</svg>
