<?xml version="1.0" encoding="utf-8"?>
<!-- Generator: Adobe Illustrator 23.0.1, SVG Export Plug-In . SVG Version: 6.00 Build 0)  -->
<svg version="1.1" id="ab914baa-e043-4629-9a8e-c3988d23d2a0"
	 xmlns="http://www.w3.org/2000/svg" xmlns:xlink="http://www.w3.org/1999/xlink" x="0px" y="0px" viewBox="0 0 943.1 710"
	 style="enable-background:new 0 0 943.1 710;" xml:space="preserve">
<style type="text/css">
	.st0{fill:#2F2E41;}
	.st1{fill:#F2F2F2;}
	.st2{fill:#3F3D56;}
	.st3{fill:#FF6584;}
	.st4{fill:#5596E6;}
	.st5{fill:#0062FF;}
	.st6{fill:#4284C6;}
	.st7{fill:#FBBEBE;}
	.st8{opacity:0.1;enable-background:new    ;}
	.st9{fill:#F1F1F1;}
</style>
<title>chasing_love</title>
<path class="st0" d="M804.8,71.4c-7.1,20.9-17.9,39.9-39.9,39.9S726.2,93.4,725,71.4c-1.6-28.1,17.4-40,39.9-39.9
	C791.5,31.6,813.2,46.6,804.8,71.4z"/>
<rect x="725" y="68.2" class="st0" width="78.7" height="99.7"/>
<polygon class="st1" points="595.4,372.8 315.9,372.8 244.3,709.6 667,709.6 "/>
<path class="st2" d="M667,335.9c0,6.1-39.3,11.3-95.2,13.5c-15.5,0.6-32.3,1-49.8,1.1c-3.4,0-6.7,0-10.2,0
	c-85.7,0-155.1-6.6-155.1-14.7s69.5-14.7,155.1-14.7S667,327.8,667,335.9z"/>
<rect x="125.9" y="521.6" transform="matrix(0.208 -0.9781 0.9781 0.208 -260.3459 724.1447)" class="st2" width="382.1" height="2.4"/>
<rect x="705.5" y="331.8" transform="matrix(0.9782 -0.2078 0.2078 0.9782 -93.2138 158.249)" class="st2" width="2.4" height="382.1"/>
<rect y="707.3" class="st0" width="943.1" height="2.4"/>
<path class="st3" d="M485.3,337l-5-1.6c-17.9-6-29.7-9.9-33.9-19.3c-3.4-7.4-0.2-16.1,7.1-19.5c0.1-0.1,0.3-0.1,0.4-0.2
	c4.3-1.9,9.2-1.8,13.4,0.3c1.3-4.5,4.5-8.2,8.8-10.2c7.4-3.4,16.1-0.1,19.5,7.3c0.1,0.1,0.1,0.3,0.2,0.4c4.2,9.4-0.8,20.8-8.4,38.1
	L485.3,337z"/>
<path class="st3" d="M571.8,349.5c-15.5,0.6-32.3,1-49.8,1.1c1.6-2.4,3.8-4.2,6.4-5.4c4.3-1.9,9.2-1.8,13.4,0.3
	c1.3-4.5,4.5-8.2,8.8-10.2c7.4-3.4,16.1-0.1,19.5,7.3c0.1,0.1,0.1,0.3,0.2,0.4C571.2,345,571.7,347.2,571.8,349.5z"/>
<path class="st3" d="M488.9,181.8l-2.1-1.6c-7.3-5.6-12.2-9.3-12.6-14.3c-0.4-4,2.5-7.5,6.4-7.9c0.1,0,0.1,0,0.2,0
	c2.3-0.2,4.6,0.6,6.2,2.3c1.3-1.9,3.4-3.1,5.7-3.3c4-0.4,7.5,2.5,7.9,6.5c0,0.1,0,0.1,0,0.2c0.4,5-3.7,9.5-9.9,16.3L488.9,181.8z"/>
<path class="st3" d="M520.7,98.8l-2.1-1.6c-7.3-5.6-12.2-9.3-12.6-14.3c-0.4-4,2.5-7.5,6.4-7.9c0.1,0,0.1,0,0.2,0
	c2.3-0.2,4.6,0.6,6.2,2.3c1.3-1.9,3.4-3.1,5.7-3.3c4-0.4,7.5,2.5,7.9,6.5c0,0.1,0,0.1,0,0.2c0.4,5-3.7,9.5-9.9,16.3L520.7,98.8z"/>
<path class="st3" d="M528.1,250.7l-0.8-4.3c-2.6-15.6-4.4-25.8,0.9-32.6c4.1-5.4,11.8-6.5,17.2-2.4c0.1,0.1,0.2,0.1,0.3,0.2
	c3.1,2.4,4.9,6.1,5.1,10c3.8-0.8,7.8,0.1,11,2.5c5.4,4.1,6.4,11.8,2.3,17.2c-0.1,0.1-0.1,0.2-0.2,0.3c-5.3,6.8-15.6,7.6-31.4,8.8
	L528.1,250.7z"/>
<path class="st0" d="M155,709.1l-2.2-1.1c28.2-54.5,13.1-125.3-4.5-175.1c-12-33.5-27.2-65.7-45.5-96.1l2.1-1.3
	c18.4,30.6,33.8,63,45.8,96.6C168.4,582.3,183.6,653.8,155,709.1z"/>
<rect x="125.1" y="478.3" transform="matrix(0.1798 -0.9837 0.9837 0.1798 -332.8914 559.7273)" class="st0" width="88.2" height="2.4"/>
<rect x="109.3" y="494.5" transform="matrix(0.7321 -0.6812 0.6812 0.7321 -348.1908 223.9068)" class="st0" width="2.4" height="120.1"/>
<rect x="162.5" y="634.6" transform="matrix(0.5858 -0.8104 0.8104 0.5858 -433.338 423.7157)" class="st0" width="70.9" height="2.4"/>
<circle class="st4" cx="183.2" cy="400.7" r="12.2"/>
<circle class="st2" cx="50.1" cy="494.7" r="12.2"/>
<circle class="st2" cx="103.8" cy="507" r="12.2"/>
<circle class="st4" cx="79.4" cy="554.6" r="12.2"/>
<circle class="st2" cx="232.1" cy="585.1" r="12.2"/>
<circle class="st2" cx="191.8" cy="598.6" r="12.2"/>
<circle class="st2" cx="219.9" cy="637.7" r="12.2"/>
<circle class="st2" cx="91.6" cy="415.3" r="12.2"/>
<path class="st5" d="M806.1,142.6h6.7c0,0,16.4,20.8,8.9,49.1s-1.5,33.5-1.5,33.5s9.7,30.6-0.7,76.8s9.7,58.7,9.7,58.7l-18.6-37.2
	l-10.4-98.2L806.1,142.6z"/>
<path class="st6" d="M806.1,142.6h6.7c0,0,16.4,20.8,8.9,49.1s-1.5,33.5-1.5,33.5s9.7,30.6-0.7,76.8s9.7,58.7,9.7,58.7l-18.6-37.2
	l-10.4-98.2L806.1,142.6z"/>
<path class="st7" d="M782.6,106.5c0,0-6,23.8-3,23.8s13.4,12.7,13.4,12.7l6.7,24.6l-5.2,17.9l-17.9-3.7l-22.3-24.6l-6.7-6.7l-6-21.6
	c0,0,7.4-8.9,2.2-16.4S782.6,106.5,782.6,106.5z"/>
<path class="st8" d="M782.6,106.5c0,0-6,23.8-3,23.8s13.4,12.7,13.4,12.7l6.7,24.6l-5.2,17.9l-17.9-3.7l-22.3-24.6l-6.7-6.7l-6-21.6
	c0,0,7.4-8.9,2.2-16.4S782.6,106.5,782.6,106.5z"/>
<path class="st7" d="M602.5,172.7l-16.4-26.8c0,0-17.7-39.1-30.3-25s19.2,42.8,19.2,42.8l16.4,21.6L602.5,172.7z"/>
<path class="st7" d="M819.8,405.6l-11.9,87.1c0,0,1.5,6.7-13.4,31.3s-55.1,78.1-55.1,78.1l-11.9-22.3c0,0,14.1-70.7,38.7-85.6
	l-3-107.2L819.8,405.6z"/>
<path class="st8" d="M819.8,405.6l-11.9,87.1c0,0,1.5,6.7-13.4,31.3s-55.1,78.1-55.1,78.1l-11.9-22.3c0,0,14.1-70.7,38.7-85.6
	l-3-107.2L819.8,405.6z"/>
<path class="st0" d="M727.5,570.8l16.4,31.3c0,0-13.4,38-8.2,41.7s11.9,37.2-2.2,33.5s-25.3-18.6-25.3-20.8s8.2-33.5,3.7-40.9
	s-7.4-9.7-7.4-9.7l-11.2,18.6l-3.7-2.2l18.6-31.3c0,0,2.2-6,11.2-9.7L727.5,570.8z"/>
<path class="st8" d="M727.5,570.8l16.4,31.3c0,0-13.4,38-8.2,41.7s11.9,37.2-2.2,33.5s-25.3-18.6-25.3-20.8s8.2-33.5,3.7-40.9
	s-7.4-9.7-7.4-9.7l-11.2,18.6l-3.7-2.2l18.6-31.3c0,0,2.2-6,11.2-9.7L727.5,570.8z"/>
<path class="st7" d="M763.4,393.3c0,0,5.8,82.3-6.9,103.9v107.2l-17.1,2.2c0,0-29-58-16.4-113.9S704.5,387,704.5,387L763.4,393.3z"
	/>
<circle class="st7" cx="759.2" cy="93.4" r="31.3"/>
<path class="st4" d="M790.8,175.7l-31.3-39.4l-17.9-11.9l-7.4,9.7l-20.8,6c0,0-13.4,3-27.5,19.3s-39.4,26-39.4,26l-20.8-3.7
	c0,0-24.6-11.2-24.6-14.1s-21.6,20.1-16.4,29s16.4,20.1,22.3,26s8.2,23.1,44.7,17.9s49.9-23.1,49.9-23.1s6.7,34.2,26,40.9
	s82.6,11.2,82.6,11.2l13.4-44.7c0,0,14.9-19.3-5.2-47.6c0,0-0.4-15.8-2.5-26.3c-0.8-4.1-1.9-7.4-3.4-8.6
	c-5.2-4.5-32.7-11.9-32.7-11.9s4.5,14.9,6.7,15.6S793.8,171.9,790.8,175.7z"/>
<path class="st0" d="M690.7,397.8c37.5-2.6,59.3,3.5,69,8.2c1.8,0.8,3.5,1.9,5.1,3.1c0.7,0.6,1.1,1.1,1.1,1.4c0,2.2,51.3,6.7,70,2.2
	S823.2,312.2,815,304s-3.8-38.1-3.8-38.1s-16.3-3.5-20.8-2s-27.5-2.2-35.7-6.7s-18.6-1.5-25.3-3c-3-0.7-4.5,0.5-5.3,1.9
	c-1.2,2.2-2.9,4-5.1,5.1c-15.8,9.1-28.5,72-38,106.8C670.6,406,690.7,397.8,690.7,397.8z"/>
<path class="st0" d="M759.5,597.6l3,16.4c0,0,15.6,22.3,11.2,40.9c0,0,3.7,24.6,17.1,31.3s2.2,22.3-10.4,21.6s-24.6,0.7-26-3
	s-10.4-40.2-10.4-40.2l-2.4,42.7L734,708l2.4-49.4c0,0-6-11.2,2.2-29.8l-2.1-28.6C736.6,600.3,757.3,605.1,759.5,597.6z"/>
<path class="st8" d="M759.7,406c1.8,0.8,3.5,1.9,5.1,3.1c0.4-7,2.7-49.6-0.1-48.9L759.7,406z"/>
<path class="st0" d="M746.2,50.4c0,0-0.3-1.9-13.9,3.1s-21.7,42.5-14.9,64.5c2.7,8.9,0.5,15.3-3.1,19.7c-13.6,16.8-8.2,42,11.6,50.6
	c0.6,0.2,1.1,0.5,1.7,0.7l8.5,5.1c0,0-10.8-14.2-5.4-32.3c4.7-15.5,5.3-31.9,1.7-47.7c-0.6-2.7-1.3-5.4-2.1-8.2
	c-6.8-23.7-3.5-21,20.2-44.6c0,0,13.5,10.2,25.4,15.2s22,10.2,13.5,27.1s-28.8,32.2-15.2,54.2s15.2,13.5,13.5,22l0,0l-1.7,8.5
	l10.2-10.2l-6.8,13.5c0,0,22,0,28.8-16.9l3.4,3.4c0,0,13.5-23.7-11.8-45.7c0,0-8.5-5.1,3.4-22s2.7-53.3-12.5-60.1
	S746.2,50.4,746.2,50.4z"/>
<circle class="st0" cx="764.9" cy="24.1" r="15.7"/>
<path class="st0" d="M746,15.7c0-8.1,6.1-14.9,14.2-15.7c-0.5-0.1-1-0.1-1.6-0.1c-8.7,0-15.7,7.1-15.7,15.7s7.1,15.7,15.7,15.7
	c0.5,0,1.1,0,1.6-0.1C752.1,30.6,746,23.8,746,15.7z"/>
<path class="st3" d="M561,133l-2.1-1.6c-7.3-5.6-12.2-9.3-12.6-14.3c-0.4-4,2.5-7.5,6.4-7.9c0.1,0,0.1,0,0.2,0
	c2.3-0.2,4.6,0.6,6.2,2.3c1.3-1.9,3.4-3.1,5.7-3.3c4-0.4,7.5,2.5,7.9,6.5c0,0.1,0,0.1,0,0.2c0.4,5-3.7,9.5-9.9,16.3L561,133z"/>
<circle class="st9" cx="901.7" cy="494" r="18"/>
<circle class="st9" cx="400.8" cy="106.7" r="18"/>
<circle class="st9" cx="226.1" cy="310.7" r="18"/>
</svg>
