<?xml version="1.0" encoding="utf-8"?>
<!-- Generator: Adobe Illustrator 23.0.1, SVG Export Plug-In . SVG Version: 6.00 Build 0)  -->
<svg version="1.1" id="Calque_1" xmlns="http://www.w3.org/2000/svg" xmlns:xlink="http://www.w3.org/1999/xlink" x="0px" y="0px"
	 viewBox="0 0 800 800" style="enable-background:new 0 0 800 800;" xml:space="preserve">
<style type="text/css">
	.st0{clip-path:url(#SVGID_2_);}
	.st1{fill:#38C6AE;}
	.st2{fill:#28AF9C;}
	.st3{fill:none;}
	.st4{fill:#E77F28;}
	.st5{clip-path:url(#SVGID_4_);fill:#28AF9C;}
	.st6{clip-path:url(#SVGID_6_);fill:#28AF9C;}
	.st7{fill:#D6305B;}
	.st8{fill:#D1305A;}
	.st9{clip-path:url(#SVGID_8_);}
</style>
<g id="background">
</g>
<g>
	<g>
		<g>
			<g>
				<g>
					<g>
						<defs>
							<rect id="SVGID_1_" x="-3.1" width="803.1" height="800"/>
						</defs>
						<clipPath id="SVGID_2_">
							<use xlink:href="#SVGID_1_"  style="overflow:visible;"/>
						</clipPath>
						<g class="st0">
							<g>
								<g>
									<g>
										<g>
											<rect x="549.2" y="340.7" class="st1" width="17" height="94.8"/>
											<path class="st1" d="M561.6,335.3c-1.5,1.3-3.9,1.6-5.7,0.9c-0.7-0.2-1.6-0.2-2.3-0.6c-2.7,1.9-4.2,5-4.2,5h17
												C566.2,340.7,564.6,337.2,561.6,335.3z"/>
											<path class="st2" d="M561.6,335.3c-1.1-0.7-2.4-1.2-3.8-1.2c-1.6,0-3.1,0.6-4.3,1.5c0.7,0.4,1.6,0.4,2.3,0.6
												C557.7,336.8,560.1,336.6,561.6,335.3z"/>
											<g>
												<polygon class="st2" points="566.2,350.3 549.2,356.6 549.2,350 566.2,343.7 												"/>
												<polygon class="st2" points="566.2,364.8 549.2,371 549.2,364.4 566.2,358.2 												"/>
												<polygon class="st2" points="566.2,379.3 549.2,385.5 549.2,378.9 566.2,372.6 												"/>
												<polygon class="st2" points="566.2,393.7 549.2,400 549.2,393.4 566.2,387.1 												"/>
												<polygon class="st2" points="566.2,408.2 549.2,414.4 549.2,407.8 566.2,401.6 												"/>
												<polygon class="st2" points="566.2,422.6 549.2,428.9 549.2,422.3 566.2,416 												"/>
											</g>
											<g>
												<g>
													<path class="st2" d="M558.2,329.2c1.8-0.8,4.9-3.1,6.2-4.9c10.4-13.4-2.1-29.4-4-32c-1.6-2.1-4.7-4.7-5.2-5
														c0.8,3.1,0.9,5.6-0.4,9c-2.3,6-7.6,12.4-6.3,19.9c0.9,5.2,5.1,11.6,9.4,12.7L558.2,329.2z"/>
												</g>
												<g>
													<path class="st1" d="M558.2,329.2c1.2-0.4,2.9-1.6,3.5-2.9c3.2-7,0.5-11.5-0.5-13.2c-1-1.8-3.8-5.9-3.8-6.7
														c0,1.1-2.1,4.7-3.8,9.9s-1.2,7.6,0.5,10.1C555.2,327.7,556.4,328.6,558.2,329.2z"/>
												</g>
											</g>
											<g>
												<path class="st1" d="M558.2,329.2c0.9-0.3,5.5-3.9,2.3-9.4c-0.8-1.3-3-4.8-3-4.8s-1.7,3.3-3,7
													C553.2,325.8,556.7,328.7,558.2,329.2z"/>
											</g>
											<g>
												<rect x="557" y="332.6" class="st1" width="2" height="2.7"/>
												<path class="st1" d="M559,332.8h-2c0-0.6,0-1.1,0.1-1.7c0.1-1.7,0.2-3.6-0.5-7.5l1.9-0.7c0.8,4.4,0.7,6.6,0.6,8.4
													C559,331.9,559,332.4,559,332.8z"/>
											</g>
											<rect x="624" y="340.7" class="st1" width="17" height="94.8"/>
											<path class="st1" d="M636.2,335.3c-1.5,1.3-3.9,1.6-5.7,0.9c-0.7-0.2-1.6-0.2-2.3-0.6c-2.7,1.9-4.2,5-4.2,5h17
												C641,340.7,639.2,337.2,636.2,335.3z"/>
											<path class="st2" d="M636.2,335.3c-1.1-0.7-2.4-1.2-3.8-1.2c-1.6,0-3.1,0.6-4.3,1.5c0.7,0.4,1.6,0.4,2.3,0.6
												C632.4,336.8,634.7,336.6,636.2,335.3z"/>
											<polygon class="st2" points="641,350.3 624,356.6 624,350 641,343.7 											"/>
											<polygon class="st2" points="641,364.8 624,371 624,364.4 641,358.2 											"/>
											<polygon class="st2" points="641,379.3 624,385.5 624,378.9 641,372.6 											"/>
											<polygon class="st2" points="641,393.7 624,400 624,393.4 641,387.1 											"/>
											<polygon class="st2" points="641,408.2 624,414.4 624,407.8 641,401.6 											"/>
											<polygon class="st2" points="641,422.6 624,428.9 624,422.3 641,416 											"/>
											<g>
												<g>
													<path class="st2" d="M633,329.2c1.8-0.8,4.9-3.1,6.2-4.9c10.4-13.4-2.1-29.4-4-32c-1.6-2.1-4.7-4.7-5.2-5
														c0.8,3.1,0.9,5.6-0.4,9c-2.3,6-7.6,12.4-6.3,19.9c0.9,5.2,5.1,11.6,9.4,12.7L633,329.2z"/>
												</g>
												<g>
													<path class="st1" d="M633,329.2c1.2-0.4,2.9-1.6,3.5-2.9c3.2-7,0.5-11.5-0.5-13.2c-1-1.8-3.8-5.9-3.8-6.7
														c0,1.1-2.1,4.7-3.8,9.9c-1.7,5.2-1.2,7.6,0.5,10.1C630,327.7,631,328.6,633,329.2z"/>
												</g>
											</g>
											<g>
												<path class="st1" d="M632.9,329.2c0.9-0.3,5.5-3.9,2.3-9.4c-0.8-1.3-3-4.8-3-4.8s-1.7,3.3-3,7
													C627.9,325.8,631.4,328.7,632.9,329.2z"/>
											</g>
											<g>
												<rect x="631.6" y="332.6" class="st1" width="2" height="2.7"/>
												<path class="st1" d="M633.6,332.8h-2c0-0.6,0-1.1,0.1-1.7c0.1-1.7,0.2-3.6-0.5-7.5l1.9-0.7c0.8,4.4,0.7,6.6,0.6,8.4
													C633.7,331.9,633.6,332.4,633.6,332.8z"/>
											</g>
											<rect x="698.6" y="340.7" class="st1" width="17" height="94.8"/>
											<path class="st1" d="M710.9,335.3c-1.5,1.3-3.9,1.6-5.7,0.9c-0.7-0.2-1.6-0.2-2.3-0.6c-2.7,1.9-4.2,5-4.2,5h17
												C715.6,340.7,713.9,337.2,710.9,335.3z"/>
											<path class="st2" d="M710.9,335.3c-1.1-0.7-2.4-1.2-3.8-1.2c-1.6,0-3.1,0.6-4.3,1.5c0.7,0.4,1.6,0.4,2.3,0.6
												C707,336.8,709.4,336.6,710.9,335.3z"/>
											<polygon class="st2" points="715.6,350.3 698.6,356.6 698.6,350 715.6,343.7 											"/>
											<polygon class="st2" points="715.6,364.8 698.6,371 698.6,364.4 715.6,358.2 											"/>
											<polygon class="st2" points="715.6,379.3 698.6,385.5 698.6,378.9 715.6,372.6 											"/>
											<polygon class="st2" points="715.6,393.7 698.6,400 698.6,393.4 715.6,387.1 											"/>
											<polygon class="st2" points="715.6,408.2 698.6,414.4 698.6,407.8 715.6,401.6 											"/>
											<polygon class="st2" points="715.6,422.6 698.6,428.9 698.6,422.3 715.6,416 											"/>
											<g>
												<g>
													<path class="st2" d="M707.6,329.2c1.8-0.8,4.9-3.1,6.2-4.9c10.4-13.4-2.1-29.4-4-32c-1.6-2.1-4.7-4.7-5.2-5
														c0.8,3.1,0.9,5.6-0.4,9c-2.3,6-7.6,12.4-6.3,19.9c0.9,5.2,5.1,11.6,9.4,12.7L707.6,329.2z"/>
												</g>
												<g>
													<path class="st1" d="M707.6,329.2c1.2-0.4,2.9-1.6,3.5-2.9c3.2-7,0.5-11.5-0.5-13.2c-1-1.8-3.8-5.9-3.8-6.7
														c0,1.1-2.1,4.7-3.8,9.9s-1.2,7.6,0.5,10.1C704.6,327.7,705.7,328.6,707.6,329.2z"/>
												</g>
											</g>
											<g>
												<path class="st1" d="M707.6,329.2c0.9-0.3,5.5-3.9,2.3-9.4c-0.8-1.3-3-4.8-3-4.8s-1.7,3.3-3,7
													C702.6,325.8,706,328.7,707.6,329.2z"/>
											</g>
											<g>
												<rect x="706.2" y="332.6" class="st1" width="2" height="2.7"/>
												<path class="st1" d="M708.2,332.8h-2c0-0.6,0-1.1,0.1-1.7c0.1-1.7,0.2-3.6-0.5-7.5l1.9-0.7c0.8,4.4,0.7,6.6,0.6,8.4
													C708.2,331.9,708.2,332.4,708.2,332.8z"/>
											</g>
										</g>
									</g>
								</g>
								<g>
									<g>
										<g>
											<line class="st3" x1="722.2" y1="435.5" x2="705.1" y2="435.5"/>
											<g>
												<line class="st3" x1="705.1" y1="400" x2="705.1" y2="393.4"/>
												<line class="st3" x1="705.1" y1="414.4" x2="705.1" y2="407.8"/>
												<line class="st3" x1="705.1" y1="428.9" x2="705.1" y2="422.3"/>
											</g>
										</g>
									</g>
								</g>
								<g>
									<g>
										<g>
											<g>
												<g>
													<line class="st3" x1="642.5" y1="435.5" x2="625.6" y2="435.5"/>
												</g>
											</g>
										</g>
									</g>
									<g>
										<line class="st3" x1="625.6" y1="401" x2="625.6" y2="394.4"/>
										<path class="st4" d="M642.5,394.8"/>
										<line class="st3" x1="642.5" y1="401.9" x2="642.5" y2="408.5"/>
										<line class="st3" x1="625.6" y1="414.6" x2="625.6" y2="408.1"/>
										<line class="st3" x1="642.5" y1="416.2" x2="642.5" y2="422.8"/>
										<line class="st3" x1="625.6" y1="428.9" x2="625.6" y2="422.4"/>
									</g>
								</g>
							</g>
							<g>
								<path class="st1" d="M773.9,573.1c0,6-4.9,10.9-10.9,10.9H503.4c-6,0-10.9-4.9-10.9-10.9V441c0-6,4.9-10.9,10.9-10.9H763
									c6,0,10.9,4.9,10.9,10.9V573.1z"/>
								<rect x="492.4" y="505.8" class="st2" width="281.5" height="12.9"/>
								<g>
									<g>
										<g>
											<g>
												<g>
													<defs>
														<path id="SVGID_3_" d="M773.9,573.1c0,6-4.9,10.9-10.9,10.9H503.4c-6,0-10.9-4.9-10.9-10.9V441
															c0-6,4.9-10.9,10.9-10.9H763c6,0,10.9,4.9,10.9,10.9V573.1z"/>
													</defs>
													<clipPath id="SVGID_4_">
														<use xlink:href="#SVGID_3_"  style="overflow:visible;"/>
													</clipPath>
													<path class="st5" d="M452.7,368.1v73.1c0,22,17.9,39.9,39.9,39.9c15.4,0,28.8-8.8,35.4-21.6
														c6.6,12.8,20,21.6,35.4,21.6s28.8-8.8,35.4-21.6c6.6,12.8,20,21.6,35.4,21.6s28.8-8.8,35.4-21.6
														c6.6,12.8,20,21.6,35.4,21.6s28.8-8.8,35.4-21.6c6.6,12.8,20,21.6,35.4,21.6c22,0,39.9-17.9,39.9-39.9v-73.1H452.7z"/>
												</g>
											</g>
											<g>
												<path class="st2" d="M534.1,419.9c0,8.2-6.6,14.8-14.8,14.8s-14.8-6.6-14.8-14.8s6.6-14.8,14.8-14.8
													S534.1,411.7,534.1,419.9z"/>
												<circle class="st2" cx="595.1" cy="419.9" r="14.8"/>
												<circle class="st2" cx="670.9" cy="419.9" r="14.8"/>
												<circle class="st2" cx="746.7" cy="419.9" r="14.8"/>
											</g>
										</g>
										<g>
											<g>
												<path class="st1" d="M845.9,742.8c0,8.9-7.2,16.1-16.1,16.1H428.9c-8.9,0-16.1-7.2-16.1-16.1v-167
													c0-8.9,7.2-16.1,16.1-16.1h400.8c8.9,0,16.1,7.2,16.1,16.1L845.9,742.8L845.9,742.8z"/>
												<g>
													<g>
														<g>
															<g>
																<g>
																	<defs>
																		<path id="SVGID_5_" d="M845.9,742.8c0,8.9-7.2,16.1-16.1,16.1H428.9c-8.9,0-16.1-7.2-16.1-16.1v-167
																			c0-8.9,7.2-16.1,16.1-16.1h400.8c8.9,0,16.1,7.2,16.1,16.1L845.9,742.8L845.9,742.8z"/>
																	</defs>
																	<clipPath id="SVGID_6_">
																		<use xlink:href="#SVGID_5_"  style="overflow:visible;"/>
																	</clipPath>
																	<path class="st6" d="M882.2,507.7H380.5v77.9l0,0c0,0.2,0,0.3,0,0.5c0,25.5,20.6,46.1,46.1,46.1
																		c17.8,0,33.3-10.1,40.9-24.9c7.7,14.8,23.1,24.9,40.9,24.9s33.3-10.1,40.9-24.9c7.7,14.8,23.1,24.9,40.9,24.9
																		s33.3-10.1,40.9-24.9c7.7,14.8,23.1,24.9,41,24.9c17.8,0,33.3-10.1,40.9-24.9c7.7,14.8,23.1,24.9,40.9,24.9
																		c17.8,0,33.3-10.1,40.9-24.9c7.7,14.8,23.1,24.9,41,24.9c25.5,0,46.1-20.6,46.1-46.1c0-0.2,0-0.3,0-0.5l0,0v-77.9
																		L882.2,507.7L882.2,507.7z"/>
																</g>
															</g>
														</g>
														<g>
															<circle class="st2" cx="441.6" cy="550.8" r="14.8"/>
															<path class="st2" d="M527.9,550.8c0,8.2-6.6,14.8-14.8,14.8s-14.8-6.6-14.8-14.8s6.6-14.8,14.8-14.8
																C521.2,536,527.9,542.7,527.9,550.8z"/>
															<circle class="st2" cx="588.9" cy="550.8" r="14.8"/>
															<circle class="st2" cx="664.7" cy="550.8" r="14.8"/>
															<circle class="st2" cx="740.5" cy="550.8" r="14.8"/>
															<circle class="st7" cx="816.2" cy="550.8" r="14.8"/>
														</g>
													</g>
													<g id="object">
														<g>
															<path class="st1" d="M922.4,921.8c0,12.7-10.3,23-23,23H359.2c-12.7,0-23-10.3-23-23V732.2c0-12.7,10.3-23,23-23
																h540.2c12.7,0,23,10.3,23,23V921.8z"/>
															<rect x="336.2" y="884.2" class="st8" width="586.3" height="16.6"/>
															<rect x="336.2" y="846.2" class="st8" width="586.3" height="16.6"/>
															<g>
																<g>
																	<g>
																		<g>
																			<g>
																				<defs>
																					<path id="SVGID_7_" d="M922.4,921.8c0,12.7-10.3,23-23,23H359.2c-12.7,0-23-10.3-23-23V732.2
																						c0-12.7,10.3-23,23-23h540.2c12.7,0,23,10.3,23,23V921.8z"/>
																				</defs>
																				<clipPath id="SVGID_8_">
																					<use xlink:href="#SVGID_7_"  style="overflow:visible;"/>
																				</clipPath>
																				<g class="st9">
																					<path class="st2" d="M336.2,717.7c-6.2,9-9.8,19.9-9.8,31.7c0,30.9,25,55.9,55.9,55.9
																						c21.6,0,40.3-12.3,49.6-30.2c9.3,17.9,28,30.2,49.6,30.2s40.3-12.3,49.6-30.2c9.3,17.9,28,30.2,49.6,30.2
																						s40.3-12.3,49.6-30.2c9.3,17.9,28,30.2,49.6,30.2s40.3-12.3,49.6-30.2c9.3,17.9,28,30.2,49.6,30.2
																						s40.3-12.3,49.6-30.2c9.3,17.9,28,30.2,49.6,30.2c30.8,0,55.9-25,55.9-55.9v-77.9h-598L336.2,717.7
																						L336.2,717.7z"/>
																				</g>
																			</g>
																		</g>
																	</g>
																	<g>
																		<circle class="st2" cx="364.2" cy="701.2" r="14.8"/>
																		<path class="st2" d="M450.6,701.2c0,8.2-6.6,14.8-14.8,14.8s-14.8-6.6-14.8-14.8s6.6-14.8,14.8-14.8
																			S450.6,693.1,450.6,701.2z"/>
																		<circle class="st2" cx="511.6" cy="701.2" r="14.8"/>
																		<circle class="st2" cx="587.4" cy="701.2" r="14.8"/>
																		<circle class="st2" cx="663.2" cy="701.2" r="14.8"/>
																		<circle class="st2" cx="739" cy="701.2" r="14.8"/>
																		<circle class="st7" cx="814.7" cy="701.2" r="14.8"/>
																		<circle class="st7" cx="890.6" cy="701.2" r="14.8"/>
																	</g>
																</g>
															</g>
														</g>
													</g>
												</g>
											</g>
										</g>
									</g>
								</g>
							</g>
						</g>
					</g>
				</g>
			</g>
		</g>
	</g>
</g>
</svg>
