<?xml version="1.0" encoding="utf-8"?>
<!-- Generator: Adobe Illustrator 23.0.1, SVG Export Plug-In . SVG Version: 6.00 Build 0)  -->
<svg version="1.1" id="Calque_1" xmlns="http://www.w3.org/2000/svg" xmlns:xlink="http://www.w3.org/1999/xlink" x="0px" y="0px"
	 viewBox="0 0 800 800" style="enable-background:new 0 0 800 800;" xml:space="preserve">
<style type="text/css">
	.st0{fill:#E6E7E9;}
	.st1{fill:#FFFFFF;}
	.st2{fill:#9E9E9E;}
	.st3{fill:#B8B9BB;}
	.st4{fill:#FEFCFE;}
	.st5{fill:#20262B;}
	.st6{fill:#2F363E;}
	.st7{fill:#32649B;}
	.st8{fill:#255784;}
	.st9{fill:#1D4D72;}
	.st10{fill:#D6D6D6;}
	.st11{opacity:0.38;fill:#FFFFFF;enable-background:new    ;}
	.st12{opacity:0.51;fill:#FFFFFF;enable-background:new    ;}
</style>
<g id="background">
</g>
<g>
	<path class="st0" d="M-5066.2,671.5c0,21.4-1.6,42.5-4.6,63.1c-30.5,210-211.3,371.2-429.7,371.2c-6.3,0-12.5-0.2-18.8-0.4
		c-231.2-9.8-415.6-200.3-415.6-433.8c0-239.9,194.5-434.3,434.3-434.3C-5260.6,237.3-5066.2,431.6-5066.2,671.5z"/>
	<path class="st1" d="M-5500.4,224.8c-246.3,0-446.8,200.4-446.8,446.7c0,240.1,187.7,436.2,427.5,446.3c4.6,0.2,9.3,0.3,13.9,0.3
		l-12.7-12.8l-13.1-13.2c-220.2-15.9-390.8-198.3-390.8-420.6c0-232.6,189.2-421.8,421.9-421.8c232.6,0,421.8,189.2,421.8,421.8
		c0,16.8-1,33.9-3.1,50.7l11.1,11.1l10.9,10.9c0.5-2.6,0.8-5.1,1.2-7.8c3.2-21.5,4.7-43.3,4.7-64.9
		C-5053.7,425.2-5254.1,224.8-5500.4,224.8z"/>
	<path class="st2" d="M-5059.7,744.2c-34.9,213.7-223.1,374-440.7,374c-1.8,0-3.6,0-5.3-0.1l-12.7-12.8l-13.1-13.2
		c4.2,0.3,8.5,0.6,12.9,0.7c6.1,0.2,12.1,0.4,18.3,0.4c208.1,0,387.4-155,417.4-360.6c0.5-3.5,1-7.1,1.3-10.5l11.1,11.1
		L-5059.7,744.2z"/>
	<path class="st3" d="M-5081.7,722.2c-0.3,3.5-0.8,7.1-1.3,10.5c-30,205.6-209.3,360.6-417.4,360.6c-6.1,0-12.2-0.2-18.3-0.4
		c-4.3-0.2-8.6-0.4-12.9-0.7l-382.2-385.9l617.3-198.3L-5081.7,722.2z"/>
	<path class="st4" d="M-5900,706.3h150.7c0.2,0,0.4-0.2,0.4-0.4v-61.3c0-3.2-2.6-5.9-5.9-5.9h-144.4c-18.8,0-34.2,15.4-34.2,34.2
		l0,0C-5933.4,691.3-5918.4,706.3-5900,706.3z"/>
	<circle class="st4" cx="-5500.5" cy="671.5" r="260.2"/>
	<path class="st5" d="M-5285.8,671.5c0,118.6-96.1,214.7-214.6,214.7c-67.3,0-127.3-31-166.7-79.4c-30.1-36.9-48.1-84-48.1-135.3
		c0-118.6,96.1-214.7,214.7-214.7c83.5,0,155.9,47.7,191.3,117.4C-5294.2,603.4-5285.8,636.5-5285.8,671.5z"/>
	<path class="st6" d="M-5285.8,671.5c0,118.6-96.1,214.7-214.6,214.7c-67.3,0-127.3-31-166.7-79.4c-14.9-29.2-23.3-62.3-23.3-97.3
		c0-118.5,96.1-214.7,214.6-214.7c67.3,0,127.3,31,166.7,79.4C-5294.2,603.4-5285.8,636.5-5285.8,671.5z"/>
</g>
<g>
	<path class="st7" d="M800.1,800H311.4l-31.2-24.7c-13.9-11-16.3-31.2-5.2-45.1l370.5-467.9c11-13.9,31.2-16.3,45.1-5.2l109.5,86.7
		v116.9c0.3,0.5,0.3,1.1,0,1.6V800L800.1,800z"/>
	<path class="st8" d="M772.2,800H469.9l317.2-400.5c3.2-4,8.4-5.4,13-4v65.2c0.3,0.5,0.3,1.1,0,1.6v302.5L772.2,800z"/>
	<path class="st8" d="M413.3,587l123.6-156.1c2.8-3.6,8-4.2,11.5-1.3l109.8,87c3.6,2.8,4.2,8,1.3,11.5L535.9,684.2
		c-2.8,3.6-8,4.2-11.5,1.3l-109.8-87C411.1,595.7,410.5,590.5,413.3,587z"/>
	<g>
		<path class="st9" d="M787.4,752l-7.8-6.1c-2.6-2.1-3.1-5.9-1-8.5l14.8-18.7c1.6-2,4.3-2.7,6.6-2v29l-4.2,5.3
			C793.8,753.7,790,754.1,787.4,752z"/>
		<path class="st9" d="M752.8,770.2l16.7-21.1c1.5-1.9,4.4-2.3,6.3-0.7l10.1,8c1.9,1.5,2.3,4.4,0.7,6.3l-16.7,21.1
			c-1.5,1.9-4.4,2.3-6.3,0.7l-10.1-8C751.5,774.9,751.2,772.1,752.8,770.2z"/>
		<path class="st9" d="M757.1,800h-28l14.4-18.2c2.1-2.6,5.9-3,8.5-1l7.8,6.1c2.6,2.1,3,5.9,1,8.5L757.1,800z"/>
		<path class="st9" d="M800.1,537.9l-2.2-1.7c-0.6-0.5-0.7-1.3-0.2-1.9l2.4-3.1V537.9L800.1,537.9z"/>
		<path class="st9" d="M755.5,526.8l18.5-23.4c0.5-0.6,1.3-0.7,1.9-0.2l23.4,18.5c0.6,0.5,0.7,1.3,0.2,1.9L781,547
			c-0.5,0.6-1.3,0.7-1.9,0.2l-23.4-18.5C755.2,528.2,755.1,527.4,755.5,526.8z"/>
		<path class="st9" d="M800.1,451.5l-22.4-17.8c-0.6-0.5-0.7-1.4-0.2-2l18.4-23.3c0.5-0.6,1.4-0.7,2-0.2l2.2,1.8V451.5z"/>
		<path class="st9" d="M779.6,485.9l-26.5-21c-0.6-0.5-0.7-1.4-0.2-2l18.4-23.3c0.5-0.6,1.4-0.7,2-0.2l26.5,21
			c0.1,0.1,0.2,0.2,0.3,0.3c0.3,0.5,0.3,1.1,0,1.6c0,0,0,0.1-0.1,0.1l-18.4,23.3C781.1,486.3,780.2,486.4,779.6,485.9z"/>
		<path class="st9" d="M728.9,493l18.4-23.3c0.5-0.6,1.4-0.7,2-0.2l26.5,21c0.6,0.5,0.7,1.4,0.2,2l-18.4,23.3
			c-0.5,0.6-1.4,0.7-2,0.2l-26.5-21C728.5,494.5,728.4,493.6,728.9,493z"/>
		<path class="st9" d="M698.8,531l24.3-30.7c0.6-0.7,1.6-0.8,2.3-0.3l26.2,20.8c0.7,0.6,0.8,1.6,0.3,2.3l-24.3,30.7
			c-0.6,0.7-1.6,0.8-2.3,0.3l-26.2-20.8C698.4,532.7,698.3,531.7,698.8,531z"/>
		<path class="st9" d="M549.2,719.9l24.3-30.7c0.6-0.7,1.6-0.8,2.3-0.3l26.2,20.8c0.7,0.6,0.8,1.6,0.3,2.3L578,742.7
			c-0.6,0.7-1.6,0.8-2.3,0.3l-26.2-20.8C548.8,721.7,548.7,720.6,549.2,719.9z"/>
		<path class="st9" d="M524.6,751l18.2-22.9c0.5-0.6,1.4-0.7,2-0.2l26.5,21c0.6,0.5,0.7,1.4,0.2,2l-18.2,22.9
			c-0.5,0.6-1.4,0.7-2,0.2l-26.5-21C524.2,752.5,524.1,751.7,524.6,751z"/>
		<path class="st9" d="M579.6,681.6l112.2-141.7c1.2-1.5,3.3-1.7,4.8-0.6l23.4,18.5c1.5,1.2,1.7,3.3,0.6,4.8L608.4,704.3
			c-1.2,1.5-3.3,1.7-4.8,0.6l-23.4-18.5C578.7,685.2,578.4,683.1,579.6,681.6z"/>
		<path class="st9" d="M731.4,557.2l18.5-23.4c0.5-0.6,1.3-0.7,1.9-0.2l23.4,18.5c0.6,0.5,0.7,1.3,0.2,1.9l-18.5,23.4
			c-0.5,0.6-1.3,0.7-1.9,0.2l-23.4-18.5C731.1,558.6,731,557.8,731.4,557.2z"/>
		<path class="st9" d="M707.4,587.6l18.5-23.4c0.5-0.6,1.3-0.7,1.9-0.2l23.4,18.5c0.6,0.5,0.7,1.3,0.2,1.9l-18.5,23.4
			c-0.5,0.6-1.3,0.7-1.9,0.2l-23.4-18.5C707,589,706.9,588.2,707.4,587.6z"/>
		<path class="st9" d="M683.3,618l18.5-23.4c0.5-0.6,1.3-0.7,1.9-0.2l23.4,18.5c0.6,0.5,0.7,1.3,0.2,1.9l-18.5,23.4
			c-0.5,0.6-1.3,0.7-1.9,0.2l-23.4-18.5C682.9,619.4,682.8,618.6,683.3,618z"/>
		<path class="st9" d="M659.2,648.4l18.5-23.4c0.5-0.6,1.3-0.7,1.9-0.2l23.4,18.5c0.6,0.5,0.7,1.3,0.2,1.9l-18.5,23.4
			c-0.5,0.6-1.3,0.7-1.9,0.2l-23.4-18.5C658.9,649.8,658.8,649,659.2,648.4z"/>
		<path class="st9" d="M635.2,678.8l18.5-23.4c0.5-0.6,1.3-0.7,1.9-0.2l23.4,18.5c0.6,0.5,0.7,1.3,0.2,1.9L660.7,699
			c-0.5,0.6-1.3,0.7-1.9,0.2l-23.4-18.5C634.8,680.2,634.7,679.4,635.2,678.8z"/>
		<path class="st9" d="M611.1,709.2l18.5-23.4c0.5-0.6,1.3-0.7,1.9-0.2l23.4,18.5c0.6,0.5,0.7,1.3,0.2,1.9l-18.5,23.4
			c-0.5,0.6-1.3,0.7-1.9,0.2l-23.4-18.5C610.7,710.6,610.6,709.8,611.1,709.2z"/>
		<path class="st9" d="M587,739.6l18.5-23.4c0.5-0.6,1.3-0.7,1.9-0.2l23.4,18.5c0.6,0.5,0.7,1.3,0.2,1.9l-18.5,23.4
			c-0.5,0.6-1.3,0.7-1.9,0.2l-23.4-18.5C586.7,741,586.6,740.1,587,739.6z"/>
		<path class="st9" d="M563,770l18.5-23.4c0.5-0.6,1.3-0.7,1.9-0.2l23.4,18.5c0.6,0.5,0.7,1.3,0.2,1.9l-18.5,23.4
			c-0.5,0.6-1.3,0.7-1.9,0.2l-23.4-18.5C562.6,771.4,562.5,770.5,563,770z"/>
		<path class="st9" d="M502.4,778.1l14.1-17.8c1.8-2.3,5.1-2.6,7.3-0.9l6.6,5.2c2.3,1.8,2.6,5.1,0.9,7.3l-14.1,17.8
			c-1.8,2.3-5.1,2.6-7.3,0.9l-6.6-5.2C501,783.7,500.6,780.4,502.4,778.1z"/>
		<path class="st9" d="M508.3,800h-23.2l7.3-9.2c1.8-2.3,5.1-2.6,7.3-0.9l6.6,5.2C507.8,796.4,508.5,798.2,508.3,800z"/>
		<path class="st9" d="M797,585.4l-23.4-18.5c-0.6-0.5-0.7-1.3-0.2-1.9l18.5-23.4c0.5-0.6,1.3-0.7,1.9-0.2l6.3,5v37.3l-1.2,1.5
			C798.4,585.8,797.6,585.9,797,585.4z"/>
		<path class="st9" d="M749.1,595.7l18.5-23.4c0.5-0.6,1.3-0.7,1.9-0.2l23.4,18.5c0.6,0.5,0.7,1.3,0.2,1.9l-18.5,23.4
			c-0.5,0.6-1.3,0.7-1.9,0.2l-23.4-18.6C748.7,597.1,748.6,596.2,749.1,595.7z"/>
		<path class="st9" d="M724.8,626.3l18.5-23.4c0.5-0.6,1.3-0.7,1.9-0.2l23.4,18.5c0.6,0.5,0.7,1.3,0.2,1.9l-18.5,23.4
			c-0.5,0.6-1.3,0.7-1.9,0.2L725,628.2C724.4,627.8,724.3,626.9,724.8,626.3z"/>
		<path class="st9" d="M700.6,656.8l18.5-23.4c0.5-0.6,1.3-0.7,1.9-0.2l23.4,18.5c0.6,0.5,0.7,1.3,0.2,1.9L726.1,677
			c-0.5,0.6-1.3,0.7-1.9,0.2l-23.4-18.5C700.3,658.3,700.2,657.4,700.6,656.8z"/>
		<path class="st9" d="M676.3,687.5l18.5-23.4c0.5-0.6,1.3-0.7,1.9-0.2l23.4,18.5c0.6,0.5,0.7,1.3,0.2,1.9l-18.5,23.4
			c-0.5,0.6-1.3,0.7-1.9,0.2l-23.4-18.5C676,688.9,675.9,688.1,676.3,687.5z"/>
		<path class="st9" d="M653.1,716.9l18.5-23.4c0.5-0.6,1.3-0.7,1.9-0.2l23.4,18.5c0.6,0.5,0.7,1.3,0.2,1.9l-18.5,23.4
			c-0.5,0.6-1.3,0.7-1.9,0.2l-23.4-18.5C652.7,718.3,652.6,717.5,653.1,716.9z"/>
		<path class="st9" d="M629,747.3l18.5-23.4c0.5-0.6,1.3-0.7,1.9-0.2l23.4,18.5c0.6,0.5,0.7,1.3,0.2,1.9l-18.5,23.4
			c-0.5,0.6-1.3,0.7-1.9,0.2l-23.4-18.5C628.7,748.7,628.6,747.8,629,747.3z"/>
		<path class="st9" d="M604.9,777.7l18.5-23.4c0.5-0.6,1.3-0.7,1.9-0.2l23.4,18.5c0.6,0.5,0.7,1.3,0.2,1.9l-18.5,23.4
			c-0.5,0.6-1.3,0.7-1.9,0.2l-23.4-18.5C604.6,779.1,604.5,778.2,604.9,777.7z"/>
		<path class="st9" d="M621.3,800h-34l12.3-15.5c0.5-0.6,1.3-0.7,1.9-0.2L621.3,800z"/>
		<path class="st9" d="M580.7,800h-41.5l18.5-23.3c0.5-0.6,1.3-0.7,1.9-0.2L583,795c0.6,0.5,0.7,1.3,0.2,1.9L580.7,800z"/>
		<path class="st9" d="M800.1,514.7L780.2,499c-0.9-0.7-1.1-2.1-0.4-3l20.2-25.5L800.1,514.7L800.1,514.7z"/>
		<path class="st9" d="M800.1,625.9l-15.4-12.2c-0.6-0.5-0.7-1.3-0.2-1.9l15.7-19.8L800.1,625.9L800.1,625.9z"/>
		<path class="st9" d="M783.9,662.7l-23.4-18.5c-0.6-0.5-0.7-1.3-0.2-1.9l18.5-23.4c0.5-0.6,1.3-0.7,1.9-0.2l19.4,15.4v10.4
			l-14.3,18.1C785.3,663,784.5,663.1,783.9,662.7z"/>
		<path class="st9" d="M736.1,672.8l18.5-23.4c0.5-0.6,1.3-0.7,1.9-0.2l23.4,18.5c0.6,0.5,0.7,1.3,0.2,1.9L761.6,693
			c-0.5,0.6-1.3,0.7-1.9,0.2l-23.4-18.5C735.7,674.2,735.6,673.4,736.1,672.8z"/>
		<path class="st9" d="M712.1,703.1l18.5-23.4c0.5-0.6,1.3-0.7,1.9-0.2l23.4,18.5c0.6,0.5,0.7,1.3,0.2,1.9l-18.5,23.4
			c-0.5,0.6-1.3,0.7-1.9,0.2L712.3,705C711.7,704.5,711.6,703.7,712.1,703.1z"/>
		<path class="st9" d="M688.6,732.8l18.5-23.4c0.5-0.6,1.3-0.7,1.9-0.2l23.4,18.5c0.6,0.5,0.7,1.3,0.2,1.9L714.1,753
			c-0.5,0.6-1.3,0.7-1.9,0.2l-23.4-18.5C688.2,734.2,688.1,733.3,688.6,732.8z"/>
		<path class="st9" d="M664.2,763.5l18.5-23.4c0.5-0.6,1.3-0.7,1.9-0.2l23.4,18.5c0.6,0.5,0.7,1.3,0.2,1.9l-18.5,23.4
			c-0.5,0.6-1.3,0.7-1.9,0.2l-23.4-18.5C663.8,765,663.7,764.1,664.2,763.5z"/>
		<path class="st9" d="M676.9,800h-31.2l-5.3-4.2c-0.6-0.5-0.7-1.3-0.2-1.9l18.5-23.4c0.5-0.6,1.3-0.7,1.9-0.2l23.4,18.5
			c0.6,0.5,0.7,1.3,0.2,1.9L676.9,800z"/>
		<path class="st9" d="M800.1,700l-22-17.4c-0.6-0.5-0.7-1.3-0.2-1.9l18.5-23.4c0.5-0.6,1.3-0.7,1.9-0.2l1.8,1.4V700L800.1,700z"/>
		<path class="st9" d="M754.3,710.4l18.5-23.4c0.5-0.6,1.3-0.7,1.9-0.2l23.4,18.5c0.6,0.5,0.7,1.3,0.2,1.9l-18.5,23.4
			c-0.5,0.6-1.3,0.7-1.9,0.2l-23.4-18.5C754,711.9,753.9,711,754.3,710.4z"/>
		<path class="st9" d="M729.9,741.3l18.5-23.4c0.5-0.6,1.3-0.7,1.9-0.2l23.4,18.5c0.6,0.5,0.7,1.3,0.2,1.9l-18.5,23.4
			c-0.5,0.6-1.3,0.7-1.9,0.2l-23.4-18.5C729.5,742.8,729.4,741.9,729.9,741.3z"/>
		<path class="st9" d="M706.1,771.4l18.5-23.4c0.5-0.6,1.3-0.7,1.9-0.2l23.4,18.5c0.6,0.5,0.7,1.3,0.2,1.9l-18.5,23.4
			c-0.5,0.6-1.3,0.7-1.9,0.2l-23.4-18.5C705.7,772.8,705.6,771.9,706.1,771.4z"/>
		<path class="st9" d="M724.9,800h-41.5l16.8-21.2c0.5-0.6,1.3-0.7,1.9-0.2l23.4,18.5c0.6,0.5,0.7,1.3,0.2,1.9L724.9,800z"/>
	</g>
</g>
<g>
	<path class="st10" d="M-4208.4,1729.7c1.8-3.3,12.7-0.8,24.3,5.6c11.6,6.4,19.6,14.2,17.8,17.5c-1.8,3.3-12.7,0.8-24.3-5.6
		C-4202.3,1740.9-4210.2,1733-4208.4,1729.7z"/>
	<path class="st6" d="M-4134.2,1729.2l-578-105.6c-10.8-2-21.9-1.9-32.6,0.3l-207.9,41.7c-9.2,1.8-16.9,8.6-19,17.8
		c-1.9,8.1,0.3,18.7,17.3,24c6.5,2,16,1,22.5-0.9l175.1-51.5c14.1-4.1,29-4.5,43.3-1.3l561.7,126.5L-4134.2,1729.2z"/>
	<path class="st6" d="M-4923.5,1439.5l513.7,285.1c9.6,5.3,18.1,12.4,25.1,20.9l134.2,164.1c5.9,7.3,7.6,17.4,3.4,25.8
		c-3.7,7.5-12.1,14.3-28.6,7.6c-6.3-2.5-13-9.4-16.9-15l-102.7-151c-8.3-12.1-19.6-21.9-32.7-28.5l-514.4-258.6L-4923.5,1439.5z"/>
	<path class="st6" d="M-4178.3,1788.8c5.5-5.2,24,2.2,29.9-2.6c10.4-8.4,15.8-43,14.9-53c-1.4-16-21.8-3.5-59.7-38.5
		c-104.3-96.3-287.8-105.8-287.8-105.8c-10.2-9.5-26.3-18.5-44.1-24.9c-17.7-6.7-35.8-10.4-49.8-9.9c0,0-145.5-112.2-287.4-107.1
		c-51.6,1.9-58.9-20.9-70.4-9.7c-7.1,7-25.6,36.8-23.1,49.9c1.4,7.5,20.2,14,21,21.5c4.9,44.8-44,116.6,36.6,178.5
		c80.6,62,195.9,71.4,249.9,13.9c41.1-48.4,59.3-100.2,99.6-86c1.4,0.4,2.9,0.9,4,1.3s2.5,1,3.9,1.6c39.8,15.5,19.9,66.7,19.6,130.1
		c3.5,78.8,97.2,146.7,198.8,152.1C-4220.8,1905.9-4211.2,1819.6-4178.3,1788.8z M-4813.2,1707c-11.2-4.1-22.1-8.7-32.5-13.8
		c-9.3-4.6-18.2-9.6-26.3-15.2c-3.8-2.6-7.5-5.4-11-8.2c-13.2-10.9-23.6-23.6-29.6-38.5c-3.6-8.9-5.1-19.2-5.3-29.8
		c-0.2-20.2,4.8-42,11.1-59.1c9.6-26,19.3-45.7,43.8-58.5c21-11,47.1-10.3,74.1-4.4c17.9,3.9,36.1,10,53.7,16.5
		c8.1,3,16.4,6.4,24.6,10.1c4,1.8,8.1,3.7,12.1,5.7c8.3,4.1,16.5,8.6,24.3,13.4c31.5,19.3,57.4,43.9,62.8,72.1
		c2.1,10.9-14.4,38.7-21,50.7C-4665,1707-4738.3,1734.7-4813.2,1707z M-4399.6,1860.3c-12.7-4.7-24.3-10.6-34.8-17.4
		c-8.4-5.5-16.1-11.6-23-18.2c-2.9-2.8-5.7-5.6-8.3-8.6c-18-20.1-29.5-44.1-33.8-69.3c-2.8-16.2-2.6-33,0.9-49.5
		c2.8-13.5,8.4-45.4,17.1-52.3c24.2-19.3,63.6-20,102.9-12.5c19.8,3.8,39.6,9.6,57.4,16.2c7.5,2.8,15.1,5.7,22.5,8.8
		c4.3,1.8,8.6,3.6,12.8,5.6c8.7,4,17.1,8.3,25,13c20.4,12.3,37,27.3,44.8,46.7c10.3,25.7,4.8,47-4.9,73.1
		c-9.7,26.2-28.9,58.7-53.6,71.5C-4309.7,1885.7-4355.6,1876.6-4399.6,1860.3z"/>
	<path class="st11" d="M-4611.3,1597.1c-8.7-45.6-70.8-81.7-123.8-101.3c-44.1-16.3-92.8-30.4-127.8-12.1
		c-24.5,12.8-34.2,32.5-43.8,58.5c-9.7,26.1-16.2,63.2-5.9,89c14.7,36.5,55.3,59.5,99.3,75.7c75,27.8,148.2,0,180.9-59.1
		C-4625.6,1635.8-4609.2,1608-4611.3,1597.1z"/>
	<path class="st11" d="M-4221.1,1796c9.7-26.1,15.2-47.4,4.9-73.1c-14.7-36.7-60.9-57.8-105.1-74.2c-53.1-19.7-123.9-32.8-160.3-3.8
		c-8.7,6.9-14.3,38.8-17.1,52.3c-13.7,66.3,23.9,135.2,99.1,163c44.1,16.3,89.9,25.3,124.9,7.2
		C-4250,1854.7-4230.8,1822.2-4221.1,1796z"/>
	<path class="st12" d="M-4882.9,1669.8c-13.2-10.9-23.6-23.6-29.6-38.5c-3.6-8.9-5.1-19.2-5.3-29.8l129-122.1
		c17.9,3.9,36.1,10,53.7,16.5c8.1,3,16.4,6.4,24.6,10.1L-4882.9,1669.8z"/>
	<path class="st12" d="M-4845.7,1693.2c-9.3-4.6-18.2-9.6-26.3-15.2l173.6-166.4c8.3,4.1,16.5,8.6,24.3,13.4L-4845.7,1693.2z"/>
	<path class="st12" d="M-4465.7,1816.2c-18-20.1-29.5-44.1-33.8-69.3l120.8-114.3c19.8,3.8,39.6,9.6,57.4,16.2
		c7.5,2.8,15.1,5.7,22.5,8.8L-4465.7,1816.2z"/>
	<path class="st12" d="M-4434.4,1843c-8.4-5.5-16.1-11.6-23-18.2l171.4-161.6c8.7,4,17.1,8.3,25,13L-4434.4,1843z"/>
</g>
</svg>
