<?xml version="1.0" encoding="utf-8"?>
<!-- Generator: Adobe Illustrator 23.0.1, SVG Export Plug-In . SVG Version: 6.00 Build 0)  -->
<svg version="1.1" id="Layer_1" xmlns="http://www.w3.org/2000/svg" xmlns:xlink="http://www.w3.org/1999/xlink" x="0px" y="0px"
	 viewBox="0 0 499.6 285.7" style="enable-background:new 0 0 499.6 285.7;" xml:space="preserve">
<style type="text/css">
	.st0{fill:#2D6FA5;}
	.st1{fill:#4589CE;}
</style>
<g>
	<polygon class="st0" points="490.6,187.2 490.6,220.2 480.8,220.2 480.8,233.2 466.6,233.2 466.6,240.9 459.6,240.9 459.6,211.1 
		455.2,211.1 455.2,207.3 439.5,207.3 439.5,211.1 433,211.1 433,196.3 424.9,196.3 424.9,191.4 416.3,190.5 416.3,183.7 
		405.7,184.9 405.7,189.4 393.2,188.1 393.2,196.3 385,196.3 385,209 374.9,209 374.9,240.9 362.4,240.9 362.4,229.3 343.6,229.3 
		343.6,220.3 339,220.9 339,215.9 328.4,217.2 328.4,222.1 323.9,222.7 323.9,229.3 314.4,229.3 314.4,236.3 300.5,236.3 
		300.5,231.6 263.6,231.6 263.6,224.2 254.1,224.2 254.1,217.4 249.6,216.8 249.6,211.6 239,210.3 239,215.5 234.4,214.9 
		234.4,224.2 215.6,224.2 215.6,236.3 203.1,236.3 203.1,203 193,203 193,189.9 184.8,189.9 184.8,181.3 172.3,182.6 172.3,178 
		161.7,176.7 161.7,183.8 153.1,184.7 153.1,189.9 145,189.9 145,205.2 138.5,205.2 138.5,201.3 122.8,201.3 122.8,205.2 
		118.4,205.2 118.4,236.3 111.4,236.3 111.4,228.3 97.2,228.3 97.2,214.8 87.4,214.8 87.4,180.3 63.4,176.7 63.4,214.8 54.7,214.8 
		54.7,203 44.9,203 44.9,198 34.2,196.7 34.2,203 30.7,203 30.7,214.4 22.9,214.4 22.9,205.2 0,205.2 0,285.7 276.4,285.7 
		301.6,285.7 499.6,285.7 499.6,185.9 	"/>
	<path class="st1" d="M499.6,218.4v-1.5c-10.6-4.2-17.9-7.9-20.5-9.2c-0.3-0.7-1-1.3-1.9-1.5l-4.2-0.7c-0.2-0.2-0.5-0.2-0.8-0.1
		l-14.4-2.4c-1.5-0.3-2.9,0.9-2.9,2.5v0.6c-28,21.1-53.7,26.9-73.5,26.8c-0.4-0.1-0.7-0.1-1.1-0.2c-18.5-3.1-31.5-10.8-36-13.7
		c-0.1-0.9-0.7-1.6-1.6-1.7l-14.8-2.5c-0.5-0.1-1,0.1-1.4,0.3c-0.1,0-0.1,0-0.2,0.1c-8.6,6.7-16.9,11.4-24.7,14.6v-5h-22.9v7.9h-7.8
		v-9.8h-3.5v-5.5l-10.7,1.1v4.4h-9.9v4.4c-0.1-0.1-0.3-0.2-0.4-0.2V222c0-0.9-0.6-1.6-1.5-1.7l-6.7-1.1v-18.9l-18.6,2.4v-61.6H215
		V123h-5.4v-14.2h-2.3v-7.3l-4.7-4.7H202V81.7h-1V68.6h-1.7v13.1h-1v14.9h-0.6l-4.7,4.7v7.3h-2.3v14.2h-5.4v18.1h-4.6v83.8H179v-3.4
		h-15.7v3.4h-6.4v-13.2h-8.2V207l-8.6-0.8v-6.1l-10.7,1.1v4l-12.5-1.2v7.4h-8.2v11.3H98.5v28.7H86V241H67.1v-8l-4.5,0.5V229
		L52,230.2v4.5l-4.5,0.5v5.9H38v6.3H1.1v4.1H0v34.2h499.6V260l-4.2-0.3V257l-10-0.7v2.7l-4.2-0.3v4.8h-1.8v-14.8l20.3-0.2v-10h-1.6
		V230c0.5,0.1,1,0.3,1.6,0.4v-1.5c-0.5-0.1-1.1-0.3-1.6-0.4v-3.4c0.5,0.1,1,0.3,1.6,0.4V224c-0.5-0.1-1-0.3-1.6-0.4v-2.2
		c0.5,0.2,1,0.4,1.6,0.5v-1.5c-0.5-0.2-1-0.4-1.6-0.6v-2.1C498.5,218,499.1,218.2,499.6,218.4z M241.6,228.2
		c0.2-0.1,0.4-0.1,0.6-0.1c1.1,0,2.1,1,2.2,2.2c-1-0.4-1.9-0.8-2.8-1.2C241.6,229.1,241.6,228.2,241.6,228.2z M244.4,232.9h-2.8
		v-2.1c0.9,0.5,1.8,0.9,2.8,1.4V232.9z M246.8,231.3c-0.1,0-0.3-0.1-0.4-0.1v-0.8c0.1,0.1,0.3,0.2,0.4,0.3V231.3z M246.8,229.5
		c-0.1-0.1-0.3-0.2-0.4-0.3v-1.1c0.1,0.1,0.3,0.2,0.4,0.2V229.5z M317.2,222.7c0.9-0.5,1.7-1.1,2.6-1.7v2.6
		c-0.9,0.6-1.7,1.1-2.6,1.6V222.7z M317.2,226.3c0.9-0.5,1.7-1.1,2.6-1.6v2.8c-0.9,0.4-1.7,0.9-2.6,1.3V226.3z M317.2,229.8
		c0.9-0.4,1.7-0.8,2.6-1.3v2.4c-0.9,0.5-1.7,0.9-2.6,1.3V229.8z M317.2,233.4c0.9-0.4,1.7-0.9,2.6-1.3v11.8l-2.6,0.1V233.4z
		 M314.2,224.5c0.9-0.5,1.7-1,2.6-1.5v2.6c-0.9,0.5-1.7,1-2.6,1.5V224.5z M314.2,228.1c0.9-0.5,1.7-1,2.6-1.5v2.4
		c-0.9,0.4-1.7,0.8-2.6,1.2V228.1z M314.2,231.2c0.9-0.4,1.7-0.8,2.6-1.2v2.5c-0.9,0.4-1.7,0.8-2.6,1.2V231.2z M314.2,234.8
		c0.9-0.4,1.7-0.8,2.6-1.2V244l-2.6,0.1V234.8z M311.1,226.2c0.9-0.5,1.7-0.9,2.6-1.4v2.5c-0.9,0.5-1.7,1-2.6,1.4V226.2z
		 M311.1,229.8c0.9-0.4,1.7-0.9,2.6-1.4v2c-0.9,0.4-1.7,0.7-2.6,1.1V229.8z M311.1,232.5c0.9-0.3,1.7-0.7,2.6-1v2.5
		c-0.9,0.4-1.7,0.7-2.6,1.1V232.5z M311.1,236.1c0.9-0.3,1.7-0.7,2.6-1.1v9.1l-2.6,0.1V236.1z M308.1,227.8c0.9-0.4,1.7-0.9,2.6-1.3
		v2.5c-0.9,0.4-1.7,0.9-2.6,1.3V227.8z M308.1,231.3c0.9-0.4,1.7-0.8,2.6-1.3v1.6c-0.9,0.3-1.7,0.6-2.6,0.9V231.3z M308.1,233.6
		c0.9-0.3,1.7-0.6,2.6-0.9v2.6c-0.9,0.3-1.7,0.7-2.6,1V233.6z M308.1,237.3c0.9-0.3,1.7-0.6,2.6-1v7.9l-2.6,0.1V237.3z M305.1,229.2
		c0.9-0.4,1.7-0.8,2.6-1.2v2.4c-0.9,0.4-1.7,0.8-2.6,1.2V229.2z M305.1,232.7c0.9-0.4,1.7-0.8,2.6-1.2v1.2c-0.9,0.3-1.7,0.6-2.6,0.8
		V232.7z M305.1,234.6c0.9-0.3,1.7-0.5,2.6-0.8v2.6c-0.9,0.3-1.7,0.6-2.6,0.9V234.6z M305.1,238.3c0.9-0.3,1.7-0.6,2.6-0.9v6.8
		l-2.6,0.1V238.3z M302,230.5c0.9-0.4,1.7-0.7,2.6-1.1v2.4c-0.9,0.4-1.7,0.7-2.6,1V230.5z M302,233.9c0.9-0.3,1.7-0.7,2.6-1v0.8
		c-0.9,0.3-1.7,0.5-2.6,0.7V233.9z M302,235.5c0.9-0.2,1.7-0.5,2.6-0.7v2.7c-0.9,0.3-1.7,0.5-2.6,0.7V235.5z M302,239.2
		c0.9-0.2,1.7-0.5,2.6-0.7v5.9l-2.6,0.1V239.2z M320.1,258.7H312v-6.1h-9.3v-2.2l17.4-0.2V258.7z M322.8,239.2l-2.6-0.2v-7.1
		c0.9-0.5,1.7-0.9,2.6-1.4V239.2z M322.8,229.3c-0.9,0.5-1.7,1-2.6,1.5v-2.4c0.9-0.4,1.7-0.9,2.6-1.4V229.3z M322.8,225.8
		c-0.9,0.5-1.7,0.9-2.6,1.4v-2.8c0.9-0.6,1.7-1.1,2.6-1.7V225.8z M322.8,221.5c-0.9,0.6-1.7,1.2-2.6,1.8v-2.6
		c0.9-0.6,1.7-1.2,2.6-1.8V221.5z M325.7,239.4l-2.4-0.2v-9.1c0.8-0.5,1.6-1,2.4-1.5V239.4z M325.7,227.5c-0.8,0.5-1.6,1-2.4,1.5
		v-2.3c0.8-0.5,1.6-0.9,2.4-1.4V227.5z M325.7,224.1c-0.8,0.5-1.6,1-2.4,1.4v-3.3c0.8-0.6,1.6-1.2,2.4-1.8V224.1z M325.7,219.3
		c-0.8,0.6-1.6,1.2-2.4,1.8v-2.6c0.8-0.6,1.6-1.2,2.4-1.8V219.3z M334.1,240.1l-4.9-0.4v-11.9c0-0.8,0.3-1.5,0.7-2
		c0.3-0.2,0.6-0.4,0.9-0.6c0.2-0.1,0.5-0.1,0.8-0.1c1.3,0,2.4,1.2,2.4,2.8v12.2H334.1z M342.1,240.8l-4.9-0.4v-11.8
		c0-1.5,1.1-2.8,2.4-2.8h0.1c0.5,0.3,1.1,0.5,1.6,0.8c0.4,0.5,0.7,1.2,0.7,1.9L342.1,240.8L342.1,240.8z M450.2,211.2
		c0.7-0.5,1.5-1,2.2-1.6v3.4c-0.7,0.5-1.5,1.1-2.2,1.6V211.2z M450.2,216.4c0.7-0.5,1.5-1,2.2-1.5v3.8c-0.7,0.4-1.5,0.8-2.2,1.2
		V216.4z M450.2,221.5c0.7-0.4,1.5-0.8,2.2-1.2v3.6c-0.7,0.4-1.5,0.9-2.2,1.3V221.5z M450.2,226.8c0.7-0.4,1.5-0.8,2.2-1.3V240
		l-2.2,0.1V226.8z M447.4,213c0.7-0.5,1.5-1,2.2-1.5v3.4c-0.7,0.5-1.5,1-2.2,1.5V213z M447.4,218.2c0.7-0.5,1.5-1,2.2-1.5v3.4
		c-0.7,0.4-1.5,0.8-2.2,1.2V218.2z M447.4,222.9c0.7-0.4,1.5-0.8,2.2-1.2v3.7c-0.7,0.4-1.5,0.8-2.2,1.2V222.9z M447.4,228.2
		c0.7-0.4,1.5-0.8,2.2-1.2v13l-2.2,0.1V228.2z M444.7,214.8c0.7-0.5,1.5-1,2.2-1.4v3.4c-0.7,0.5-1.5,1-2.2,1.4V214.8z M444.7,219.9
		c0.7-0.5,1.5-0.9,2.2-1.4v3c-0.7,0.4-1.5,0.7-2.2,1.1V219.9z M444.7,224.2c0.7-0.4,1.5-0.7,2.2-1.1v3.7c-0.7,0.4-1.5,0.8-2.2,1.1
		V224.2z M444.7,229.6c0.7-0.4,1.5-0.8,2.2-1.1v11.7l-2.2,0.1V229.6z M442,216.5c0.7-0.4,1.5-0.9,2.2-1.4v3.4
		c-0.7,0.5-1.5,0.9-2.2,1.4V216.5z M442,221.5c0.7-0.4,1.5-0.9,2.2-1.3v2.6c-0.7,0.4-1.5,0.7-2.2,1V221.5z M442,225.4
		c0.7-0.3,1.5-0.7,2.2-1v3.8c-0.7,0.4-1.5,0.7-2.2,1.1V225.4z M395.9,235.4c0.3,0,0.7,0,1,0C396.6,235.4,396.2,235.5,395.9,235.4
		L395.9,235.4z M393.2,233.6c0.7-0.1,1.5-0.2,2.2-0.3v0.6c-0.8,0-1.5,0-2.2-0.1V233.6z M393.2,235.4c0.7,0,1.5,0,2.2,0.1v0.2
		c-0.7,0.1-1.5,0.1-2.2,0.2V235.4z M393.2,237.3c0.7-0.1,1.5-0.1,2.2-0.2v2.5c-0.8,0-1.5-0.1-2.2-0.1V237.3z M393.2,240.9
		c0.7,0,1.5,0.1,2.2,0.1v0.7l-2.2,0.1V240.9z M392.7,233.7v0.2c-0.4,0-0.9,0-1.3-0.1C391.8,233.8,392.3,233.7,392.7,233.7z
		 M390.5,235.2c0.7,0,1.5,0.1,2.2,0.1v0.5c-0.8,0-1.5,0.1-2.2,0.1V235.2z M390.5,237.4c0.7,0,1.5-0.1,2.2-0.1v2.1
		c-0.8,0-1.5-0.1-2.2-0.2V237.4z M390.5,240.7c0.7,0.1,1.5,0.1,2.2,0.2v0.9l-2.2,0.1V240.7z M387.8,235c0.7,0.1,1.5,0.1,2.2,0.2v0.8
		c-0.8,0-1.5,0-2.2,0.1V235z M387.8,237.5c0.7,0,1.5,0,2.2-0.1v1.8c-0.8-0.1-1.5-0.1-2.2-0.2V237.5z M387.8,240.4
		c0.7,0.1,1.5,0.2,2.2,0.2v1.2l-2.2,0.1V240.4z M385.1,234.7c0.7,0.1,1.5,0.2,2.2,0.2v1c-0.8,0-1.5,0-2.2,0V234.7z M385.1,237.5
		c0.5,0,1,0,1.5,0c0.2,0,0.5,0,0.7,0v1.4c-0.8-0.1-1.5-0.2-2.2-0.3V237.5z M385.1,240.1c0.7,0.1,1.5,0.2,2.2,0.3v1.6l-2.2,0.1V240.1
		z M382.4,234.4c0.7,0.1,1.5,0.2,2.2,0.3v1.3c-0.8,0-1.5,0-2.2-0.1V234.4z M382.4,237.4c0.7,0,1.5,0.1,2.2,0.1v1.1
		c-0.8-0.1-1.5-0.2-2.2-0.4V237.4z M382.4,239.6c0.7,0.1,1.5,0.3,2.2,0.4v2l-2.2,0.1V239.6z M379.6,234.2c0.6,0,1.2,0,1.9,0
		c0.1,0,0.2,0,0.4,0.1v1.6c-0.8,0-1.5-0.1-2.2-0.1L379.6,234.2L379.6,234.2z M379.6,237.2c0.7,0.1,1.5,0.1,2.2,0.1v0.7
		c-0.8-0.1-1.5-0.3-2.2-0.4V237.2z M379.6,239.1c0.7,0.2,1.5,0.3,2.2,0.4v2.6l-2.2,0.1V239.1z M376.9,234.1c0.7,0,1.5,0.1,2.2,0.1
		v1.6c-0.8-0.1-1.5-0.1-2.2-0.2V234.1z M376.9,237c0.7,0.1,1.5,0.1,2.2,0.2v0.3c-0.2,0-0.4-0.1-0.7-0.1
		C378,237.3,377.5,237.1,376.9,237L376.9,237z M376.9,238.5c0.4,0.1,0.8,0.2,1.2,0.3c0.3,0.1,0.7,0.1,1,0.2v3.2l-2.2,0.1V238.5z
		 M374.2,233.9c0.7,0.1,1.5,0.1,2.2,0.2v1.4c-0.8-0.1-1.5-0.2-2.2-0.3V233.9z M374.2,237.8c0.7,0.2,1.5,0.4,2.2,0.6v3.9l-2.2,0.1
		V237.8z M371.5,233.7c0.7,0.1,1.5,0.1,2.2,0.2v1.3c-0.8-0.1-1.5-0.2-2.2-0.3V233.7z M371.5,237c0.7,0.2,1.5,0.4,2.2,0.7v4.7
		l-2.2,0.1V237z M368.8,231.4c0.7,0.2,1.5,0.4,2.2,0.6v0.1c-0.8-0.1-1.5-0.2-2.2-0.3V231.4z M368.8,233.3c0.7,0.1,1.5,0.2,2.2,0.3
		v1.2c-0.8-0.1-1.5-0.3-2.2-0.4V233.3z M368.8,236.1c0.7,0.2,1.5,0.5,2.2,0.7v5.6l-2.2,0.1V236.1z M366.1,230.6
		c0.7,0.2,1.5,0.5,2.2,0.7v0.6c-0.8-0.1-1.5-0.2-2.2-0.3V230.6z M366.1,232.9c0.7,0.1,1.5,0.2,2.2,0.3v1c-0.3-0.1-0.5-0.1-0.8-0.2
		c-0.5-0.2-1-0.4-1.4-0.5V232.9L366.1,232.9z M366.1,235.3c0.3,0.1,0.7,0.1,1,0.2c0.4,0.1,0.8,0.3,1.2,0.4v6.5l-2.2,0.1V235.3z
		 M363.4,229.7c0.7,0.3,1.5,0.5,2.2,0.8v1h-0.1c-0.7-0.1-1.4-0.3-2.1-0.4V229.7z M363.4,232.5c0.6,0.1,1.2,0.2,1.8,0.3
		c0.1,0,0.3,0,0.4,0.1v0.6C364.8,233.1,364.1,232.8,363.4,232.5L363.4,232.5z M363.4,234.7c0.7,0.2,1.4,0.3,2.1,0.5
		c0.1,0,0.1,0,0.2,0v7.4l-2.2,0.1v-8H363.4z M360.7,228.7c0.7,0.3,1.5,0.6,2.2,0.8v1.4c-0.8-0.1-1.5-0.3-2.2-0.5V228.7z M360.7,234
		c0.7,0.2,1.5,0.4,2.2,0.6v8.1l-2.2,0.1V234z M357.9,227.6c0.7,0.3,1.5,0.6,2.2,0.9v1.9c-0.8-0.2-1.5-0.3-2.2-0.5V227.6z
		 M357.9,233.2c0.7,0.2,1.5,0.4,2.2,0.6v8.9l-2.2,0.1V233.2z M355.2,226.4c0.7,0.3,1.5,0.7,2.2,1v2.3c-0.2-0.1-0.4-0.1-0.6-0.2
		c-0.5-0.3-1.1-0.6-1.6-0.8C355.2,228.7,355.2,226.4,355.2,226.4z M355.2,230.6c0.4,0.1,0.7,0.2,1.1,0.3c0.4,0.2,0.8,0.4,1.1,0.6
		v0.1c-0.8-0.2-1.5-0.5-2.2-0.7C355.2,230.9,355.2,230.6,355.2,230.6z M355.2,232.4c0.7,0.2,1.5,0.5,2.2,0.7v9.7l-2.2,0.1V232.4z
		 M352.5,225.1c0.7,0.4,1.5,0.7,2.2,1.1v2.2c-0.8-0.4-1.5-0.8-2.2-1.2V225.1z M352.5,229.8c0.7,0.2,1.5,0.4,2.2,0.7v0.2
		c-0.8-0.3-1.5-0.5-2.2-0.8V229.8z M352.5,231.4c0.7,0.3,1.5,0.5,2.2,0.8v10.7l-2.2,0.1V231.4z M349.8,223.7
		c0.7,0.4,1.4,0.8,2.2,1.1v2c-0.8-0.5-1.5-0.9-2.2-1.4V223.7z M352,229.6L352,229.6c-0.4-0.1-0.8-0.2-1.2-0.4
		C351.3,229.4,351.7,229.5,352,229.6z M349.8,227.2c0.2,0.1,0.4,0.2,0.6,0.4c-0.2-0.1-0.4-0.1-0.6-0.2V227.2z M349.8,230.4
		c0.7,0.3,1.5,0.6,2.2,0.9V243l-2.2,0.1V230.4z M347.1,222.2c0.7,0.4,1.4,0.8,2.2,1.2v1.8c-0.8-0.5-1.6-1-2.2-1.5
		C347.1,223.7,347.1,222.2,347.1,222.2z M347.1,225.5c0.7,0.5,1.4,0.9,2.2,1.4v0.3c-0.8-0.3-1.5-0.5-2.2-0.8
		C347.1,226.4,347.1,225.5,347.1,225.5z M347.1,229.3c0.7,0.3,1.5,0.6,2.2,0.9v12.9l-2.2,0.1V229.3z M344.3,220.6
		c0.6,0.4,1.4,0.9,2.3,1.4v1.5c-0.9-0.6-1.6-1.2-2.3-1.6C344.3,221.9,344.3,220.6,344.3,220.6z M344.3,223.6c0.7,0.5,1.4,1,2.3,1.6
		v1.1c-0.8-0.3-1.5-0.6-2.3-0.9C344.3,225.4,344.3,223.6,344.3,223.6z M344.3,228c0.7,0.3,1.5,0.7,2.3,1v14.1l-2.3,0.1
		C344.3,243.2,344.3,228,344.3,228z M396.9,253.7h-6.1v-2.1H376v2.1h-4.1v16.1h-6.6v-4.2H352v-7h-7.7V250l52.5-0.5v4.2L396.9,253.7
		L396.9,253.7z M398.2,241.6l-2.2,0.1V241c0.7,0,1.5,0,2.2,0V241.6z M398.2,239.6c-0.8,0-1.5,0-2.2,0V237c0.7-0.1,1.5-0.2,2.2-0.2
		V239.6z M398.2,234c-0.8,0-1.5,0-2.2,0v-0.7c0.7-0.1,1.5-0.2,2.2-0.3V234z M400.9,241.5l-2.2,0.1v-0.5c0.7,0,1.5,0,2.2,0V241.5z
		 M400.9,239.6c-0.8,0-1.5,0-2.2,0v-2.9c0.7-0.1,1.5-0.2,2.2-0.3V239.6z M400.9,233.9c-0.8,0-1.5,0.1-2.2,0.1v-1
		c0.7-0.1,1.5-0.2,2.2-0.4V233.9z M403.6,241.4l-2.2,0.1V241c0.7,0,1.5-0.1,2.2-0.1V241.4z M403.6,239.5c-0.8,0-1.5,0.1-2.2,0.1
		v-3.2c0.7-0.1,1.5-0.2,2.2-0.4V239.5z M403.6,233.7c-0.8,0.1-1.5,0.1-2.2,0.1v-1.4c0.7-0.1,1.5-0.3,2.2-0.4V233.7z M406.3,241.4
		l-2.2,0.1V241c0.7,0,1.5-0.1,2.2-0.2V241.4z M406.3,239.3c-0.8,0.1-1.5,0.1-2.2,0.2V236c0.7-0.1,1.5-0.3,2.2-0.4V239.3z
		 M406.3,233.5c-0.8,0.1-1.5,0.1-2.2,0.2v-1.8c0.7-0.2,1.5-0.3,2.2-0.5V233.5z M409,241.3l-2.2,0.1v-0.6c0.7-0.1,1.5-0.1,2.2-0.2
		V241.3z M409,239c-0.8,0.1-1.5,0.2-2.2,0.2v-3.8c0.2,0,0.4-0.1,0.6-0.1c0.5-0.1,1.1-0.2,1.6-0.4V239z M409,233.2
		c-0.8,0.1-1.5,0.2-2.2,0.2v-2.2h0.1c0.7-0.2,1.4-0.4,2.1-0.5V233.2z M411.7,241.2l-2.2,0.1v-0.8c0.7-0.1,1.5-0.2,2.2-0.3V241.2z
		 M411.7,238.6c-0.8,0.1-1.5,0.2-2.2,0.3v-4.1c0.4-0.1,0.8-0.2,1.3-0.3c0.3,0,0.6-0.1,1-0.1L411.7,238.6L411.7,238.6z M411.7,232.7
		c-0.5,0.1-1,0.3-1.4,0.4c-0.3,0-0.5,0.1-0.8,0.1v-2.6c0.7-0.2,1.5-0.4,2.2-0.6L411.7,232.7L411.7,232.7z M412.6,241.2h-0.4v-1.1
		c0.1,0,0.3,0,0.4-0.1V241.2z M414.4,238.2c-0.8,0.1-1.5,0.2-2.2,0.4v-4.3c0.7-0.1,1.5-0.2,2.2-0.4V238.2z M414.4,231.9
		c-0.7,0.2-1.5,0.4-2.2,0.6v-2.8c0.7-0.2,1.5-0.4,2.2-0.7V231.9z M417.1,237.7c-0.7,0.2-1.5,0.3-2.2,0.4v-4.3
		c0.7-0.1,1.5-0.3,2.2-0.4V237.7z M417.1,231.1c-0.7,0.2-1.5,0.5-2.2,0.7V229c0.7-0.2,1.5-0.5,2.2-0.7V231.1z M419.8,239.4l-2.2-0.2
		v-0.1c0.4-0.1,0.9-0.2,1.3-0.3c0.3-0.1,0.6-0.1,1-0.2L419.8,239.4L419.8,239.4z M419.8,237.1c-0.7,0.2-1.5,0.3-2.2,0.5v-4.3
		c0.7-0.2,1.5-0.3,2.2-0.5V237.1z M419.8,230.2c-0.7,0.3-1.5,0.5-2.2,0.8v-2.9c0.7-0.3,1.5-0.5,2.2-0.8V230.2z M422.6,239.6
		l-2.2-0.2v-0.9c0.7-0.2,1.5-0.4,2.2-0.5V239.6z M422.6,236.4c-0.7,0.2-1.5,0.4-2.2,0.6v-4.2c0.5-0.1,0.9-0.2,1.4-0.3
		c0.3-0.1,0.5-0.1,0.8-0.2V236.4L422.6,236.4z M422.6,229.2c-0.7,0.3-1.5,0.6-2.2,0.8v-3c0.7-0.3,1.5-0.6,2.2-0.9V229.2z
		 M425.3,240.8l-2.2,0.1v-3c0.7-0.2,1.5-0.4,2.2-0.6V240.8z M425.3,235.7c-0.7,0.2-1.5,0.4-2.2,0.6v-4.2c0.7-0.2,1.5-0.4,2.2-0.6
		V235.7z M425.3,230c-0.5,0.1-1,0.3-1.5,0.4c0.5-0.2,1-0.4,1.5-0.6V230z M425.3,228.2c-0.7,0.3-1.5,0.6-2.2,0.9v-3
		c0.7-0.3,1.5-0.6,2.2-0.9V228.2z M428,240.7l-2.2,0.1v-3.7c0.7-0.2,1.5-0.4,2.2-0.7V240.7z M428,234.9c-0.7,0.2-1.5,0.5-2.2,0.7
		v-4.2c0.7-0.2,1.5-0.4,2.2-0.7V234.9z M428,229.2c-0.7,0.2-1.5,0.5-2.2,0.7v-0.2c0.7-0.3,1.5-0.6,2.2-0.9V229.2z M428,227
		c-0.7,0.3-1.5,0.6-2.2,0.9v-3.1c0.7-0.3,1.5-0.7,2.2-1V227z M430.7,240.6l-2.2,0.1v-4.4c0.7-0.2,1.5-0.5,2.2-0.7V240.6z M430.7,234
		c-0.7,0.3-1.5,0.5-2.2,0.7v-4.1c0.7-0.2,1.5-0.5,2.2-0.7V234z M430.7,228.3c-0.7,0.3-1.5,0.5-2.2,0.7v-0.6c0.7-0.3,1.5-0.7,2.2-1
		V228.3z M430.7,225.8c-0.7,0.3-1.5,0.7-2.2,1v-3.2c0.7-0.3,1.5-0.7,2.2-1.1V225.8z M433.4,240.6l-2.2,0.1v-5.2
		c0.7-0.3,1.5-0.5,2.2-0.8V240.6z M433.4,233c-0.7,0.3-1.5,0.6-2.2,0.8v-4.1c0.7-0.3,1.5-0.5,2.2-0.8V233z M433.4,227.3
		c-0.7,0.3-1.5,0.5-2.2,0.8v-0.9c0.7-0.3,1.5-0.7,2.2-1.1V227.3z M433.4,224.5c-0.7,0.4-1.5,0.7-2.2,1.1v-3.2
		c0.7-0.4,1.5-0.7,2.2-1.1V224.5z M436.1,240.5l-2.2,0.1v-6.2c0.7-0.3,1.5-0.6,2.2-0.9V240.5z M436.1,231.9
		c-0.7,0.3-1.5,0.6-2.2,0.9v-4.1c0.7-0.3,1.5-0.6,2.2-0.8V231.9z M436.1,226.3c-0.7,0.3-1.5,0.6-2.2,0.8v-1.3
		c0.7-0.4,1.5-0.7,2.2-1.1V226.3z M436.1,223.1c-0.7,0.4-1.5,0.8-2.2,1.1V221c0.7-0.4,1.5-0.8,2.2-1.2V223.1z M438.8,240.4l-2.2,0.1
		v-7.1c0.7-0.3,1.5-0.6,2.2-0.9V240.4z M438.8,230.8c-0.7,0.3-1.5,0.6-2.2,0.9v-4c0.7-0.3,1.5-0.6,2.2-0.9V230.8z M438.8,225.2
		c-0.7,0.3-1.5,0.6-2.2,0.9v-1.6c0.7-0.4,1.5-0.8,2.2-1.2V225.2z M438.8,221.7c-0.7,0.4-1.5,0.8-2.2,1.2v-3.3
		c0.7-0.4,1.5-0.8,2.2-1.2V221.7z M441.5,240.3l-2.2,0.1v-8.2c0.7-0.3,1.5-0.7,2.2-1V240.3z M441.5,229.5c-0.7,0.3-1.5,0.7-2.2,1
		v-3.9c0.7-0.3,1.5-0.6,2.2-1V229.5z M441.5,224c-0.7,0.3-1.5,0.7-2.2,1v-2c0.7-0.4,1.5-0.8,2.2-1.3V224z M441.5,220.1
		c-0.7,0.4-1.5,0.9-2.2,1.3v-3.3c0.7-0.4,1.5-0.9,2.2-1.3V220.1z M442,230.9c0.7-0.3,1.5-0.7,2.2-1.1v10.4l-2.2,0.1V230.9z
		 M454.9,269.9h-3.4v-17.3H442v-3.5l12.9-0.1V269.9z M454.9,239.9l-2.1,0.1v-14.8c0.7-0.4,1.4-0.8,2.1-1.2V239.9z M454.9,222.3
		c-0.7,0.4-1.4,0.8-2.1,1.3V220c0.7-0.4,1.4-0.8,2.1-1.2V222.3z M454.9,217.1c-0.7,0.4-1.4,0.8-2.1,1.2v-3.8c0.7-0.5,1.4-1,2.1-1.5
		V217.1z M454.9,211.2c-0.7,0.5-1.4,1-2.1,1.5v-3.4c0.7-0.5,1.4-1,2.1-1.5V211.2z M461.4,216.8c0.3,0.2,0.7,0.3,1,0.5
		c-0.9,0.7-1.9,1.3-2.8,1.9C459.8,218.2,460.5,217.3,461.4,216.8z M465.9,239.6l-6.3,0.2v-18.7c1.5-1,3-2,4.4-3.1
		c0.5,0.2,1.1,0.5,1.7,0.7c0.2,0.4,0.2,0.9,0.2,1.4V239.6L465.9,239.6z M476.3,239.3l-6.3,0.2v-18.4c0-0.2,0-0.4,0-0.5
		c1.9,0.8,4,1.6,6.3,2.5V239.3z M476.3,221.5c-2.1-0.8-4.1-1.6-5.9-2.3c0.5-1,1.5-1.7,2.6-1.7c0.6,0.2,1.3,0.4,1.9,0.6
		c0.8,0.7,1.4,1.7,1.4,3V221.5L476.3,221.5z M482.4,239.1l-3.1,0.1v-15.1c1,0.4,2,0.7,3.1,1.1V239.1z M482.4,223.7
		c-1.1-0.4-2.1-0.7-3.1-1.1v-3.1c1,0.3,2,0.6,3.1,1V223.7z M482.4,219c-1.1-0.3-2.1-0.7-3.1-1v-3.8c1,0.4,2,0.8,3.1,1.3V219z
		 M482.4,213.9c-1.1-0.4-2.1-0.9-3.1-1.3v-3.3c0.8,0.4,1.8,0.9,3.1,1.5V213.9z M485.4,239l-2.6,0.1v-13.7c0.8,0.3,1.7,0.6,2.6,0.9
		V239z M485.4,224.7c-0.9-0.3-1.7-0.6-2.6-0.9v-3.2c0.8,0.3,1.7,0.5,2.6,0.8V224.7z M485.4,219.9c-0.9-0.3-1.7-0.5-2.6-0.8v-3.5
		c0.8,0.3,1.7,0.7,2.6,1V219.9z M485.4,215.2c-0.9-0.3-1.7-0.7-2.6-1v-3c0.8,0.4,1.6,0.8,2.6,1.2V215.2z M488.4,238.9l-2.6,0.1
		v-12.6c0.8,0.3,1.7,0.5,2.6,0.8V238.9z M488.4,225.7c-0.9-0.3-1.7-0.5-2.6-0.8v-3.3c0.8,0.3,1.7,0.5,2.6,0.8V225.7z M488.4,220.8
		c-0.9-0.3-1.7-0.5-2.6-0.8v-3.2c0.8,0.3,1.7,0.7,2.6,1V220.8z M488.4,216.3c-0.9-0.3-1.7-0.7-2.6-1v-2.8c0.8,0.4,1.7,0.8,2.6,1.2
		V216.3z M491.5,238.8l-2.6,0.1v-11.6c0.8,0.3,1.7,0.5,2.6,0.8V238.8z M491.5,226.6c-0.9-0.3-1.7-0.5-2.6-0.8v-3.4
		c0.8,0.2,1.7,0.5,2.6,0.7V226.6z M491.5,221.7c-0.9-0.3-1.7-0.5-2.6-0.7v-3c0.8,0.3,1.7,0.6,2.6,1V221.7z M491.5,217.5
		c-0.9-0.3-1.7-0.6-2.6-1v-2.6c0.8,0.4,1.7,0.7,2.6,1.1V217.5z M494.5,238.7l-2.6,0.1v-10.6c0.4,0.1,0.7,0.2,1.1,0.3
		c0.5,0.1,1,0.3,1.5,0.4V238.7z M494.5,227.5c-0.4-0.1-0.7-0.2-1.1-0.3c-0.5-0.1-1-0.3-1.5-0.4v-3.4c0.8,0.2,1.7,0.5,2.6,0.7V227.5z
		 M494.5,222.6c-0.9-0.2-1.7-0.5-2.6-0.7v-2.7c0.8,0.3,1.7,0.6,2.6,0.9V222.6z M494.5,218.6c-0.9-0.3-1.7-0.6-2.6-0.9v-2.4
		c0.8,0.4,1.7,0.7,2.6,1.1V218.6z M497.5,238.7l-2.6,0.1v-9.6c0.8,0.2,1.7,0.5,2.6,0.7V238.7z M497.5,228.4
		c-0.9-0.2-1.7-0.5-2.6-0.7v-3.4c0.8,0.2,1.7,0.5,2.6,0.7V228.4z M497.5,223.5c-0.9-0.2-1.7-0.5-2.6-0.7v-2.4
		c0.8,0.3,1.7,0.6,2.6,0.9V223.5z M497.5,219.7c-0.9-0.3-1.7-0.6-2.6-0.9v-2.2c0.8,0.3,1.7,0.7,2.6,1.1V219.7z"/>
</g>
</svg>
