<?xml version="1.0" encoding="utf-8"?>
<!-- Generator: Adobe Illustrator 23.0.1, SVG Export Plug-In . SVG Version: 6.00 Build 0)  -->
<svg version="1.1" id="Calque_1" xmlns="http://www.w3.org/2000/svg" xmlns:xlink="http://www.w3.org/1999/xlink" x="0px" y="0px"
	 viewBox="0 0 612 612" style="enable-background:new 0 0 612 612;" xml:space="preserve">
<style type="text/css">
	.st0{fill:#D4E1F4;}
	.st1{fill:#5596E6;}
	.st2{fill:#41D6C3;}
</style>
<g>
	<path class="st0" d="M206.9,483.5c-35.8-35.8-55.5-84.1-55.5-135.8s19.7-100,55.6-135.9L324.5,94.3L306,76L170.1,211.8
		c-35.8,35.8-55.6,84.1-55.6,135.9s19.7,100,55.5,135.8c36.6,35.7,85.7,55.6,136.9,55.6c6.2,0,12.3-0.3,18.4-0.9
		C280.8,534,239,514.7,206.9,483.5L206.9,483.5z"/>
	<path class="st1" d="M159.8,494c39.4,38.4,92.2,59.8,147.2,59.8c54.5,0.3,106.8-21.3,145.3-59.9c38.6-38.6,59.9-90.6,59.9-146.3
		S490.9,240,452.3,201.4L311.2,60.3c-2.9-2.9-7.5-2.9-10.4,0L159.7,201.4C121.1,240,99.9,292,99.9,347.7S121.1,455.4,159.8,494
		L159.8,494z M170.1,211.8L306,76l135.9,135.9c35.8,35.8,55.6,84.1,55.6,135.9s-19.7,100-55.6,135.9
		c-35.7,35.8-84.3,55.8-134.9,55.6c-51.1,0-100.2-19.9-136.9-55.6c-35.8-35.8-55.5-84.1-55.5-135.8S134.3,247.6,170.1,211.8
		L170.1,211.8z"/>
	<path class="st2" d="M355.2,486.6c0.9,0,1.9-0.2,2.8-0.5c44.4-17.9,76-58,83-105.4c0.6-4-2.1-7.8-6.1-8.4s-7.8,2.1-8.4,6.1v0.1
		c-6.2,42.2-34.4,78-74,94c-3.8,1.5-5.6,5.8-4.1,9.6C349.5,484.8,352.2,486.6,355.2,486.6L355.2,486.6z"/>
</g>
</svg>
