<?xml version="1.0" encoding="utf-8"?>
<!-- Generator: Adobe Illustrator 23.0.1, SVG Export Plug-In . SVG Version: 6.00 Build 0)  -->
<svg version="1.1" id="Calque_1" xmlns="http://www.w3.org/2000/svg" xmlns:xlink="http://www.w3.org/1999/xlink" x="0px" y="0px"
	 viewBox="0 0 612 612" style="enable-background:new 0 0 612 612;" xml:space="preserve">
<style type="text/css">
	.st0{fill:#D4E1F4;}
	.st1{fill:#5596E6;}
	.st2{fill:#41D6C3;}
</style>
<g>
	<g>
		<path class="st0" d="M111.5,62.6h22.7v171h-22.7V62.6z"/>
		<path class="st0" d="M134.3,288.5v-41.3h-22.7v41.3c0,25.4,20.6,46,46,46h22.7C154.9,334.7,134.3,314,134.3,288.5z"/>
		<path class="st0" d="M227.1,334.7h-22.7c32.9,0,59.6,26.7,59.7,59.7v74.4h22.7v-74.4C286.7,361.3,260,334.7,227.1,334.7z"/>
		<path class="st0" d="M286.8,507.5v-25.1H264v25.1c0,23,18.7,41.7,41.7,41.8h0.1c3.8,0,7.7-0.5,11.4-1.6
			C299.2,542.5,286.8,526.2,286.8,507.5L286.8,507.5z"/>
	</g>
	<path class="st1" d="M422.3,369c-3.8,0-6.8,3.1-6.8,6.8v25.8c0,3.8,3.1,6.8,6.8,6.8c3.8,0,6.8-3.1,6.8-6.8v-25.8
		C429.1,372,426.1,369,422.3,369L422.3,369z"/>
	<path class="st1" d="M472.5,378.7c-3.8,0-6.8,3.1-6.8,6.8V447c0,3.8,3.1,6.8,6.8,6.8s6.8-3.1,6.8-6.8v-61.4
		C479.3,381.8,476.3,378.7,472.5,378.7z"/>
	<path class="st2" d="M507.3,158.8c-3.8,0-6.8,3.1-6.8,6.8c0,5.8-4.7,10.5-10.5,10.5s-10.5-4.7-10.5-10.5v-34.7
		c0.1-14-11.2-25.4-25.1-25.5c-14-0.1-25.4,11.2-25.5,25.1c0,0.1,0,0.2,0,0.3v147.3c0.1,7.2-5.7,13.1-12.9,13.2
		c-7.2,0.1-13.1-5.7-13.2-12.9c0-0.1,0-0.2,0-0.2v-172c0-13.9-11.2-25.1-25.1-25.1s-25.1,11.2-25.1,25.1l0,0V122
		c0,6.3-5.1,11.5-11.5,11.5h-1.2c-6.3,0-11.5-5.1-11.5-11.5V55.8c0-3.8-3.1-6.8-6.8-6.8c-3.8,0-6.8,3.1-6.8,6.8V122
		c0,13.9,11.2,25.1,25.1,25.1h1.2c13.9,0,25.1-11.3,25.1-25.1v-15.8c0-6.3,5.1-11.5,11.5-11.5c6.3,0,11.5,5.1,11.5,11.5l0,0v172
		c-0.1,14.7,11.8,26.8,26.5,26.9s26.8-11.8,26.9-26.5c0-0.1,0-0.2,0-0.3V130.9c-0.1-6.4,5.1-11.7,11.5-11.8s11.7,5.1,11.8,11.5
		c0,0.1,0,0.2,0,0.2v34.7c0,13.3,10.8,24.1,24.1,24.1c13.3,0,24.1-10.8,24.1-24.1C514.1,161.9,511.1,158.8,507.3,158.8z"/>
	<path class="st1" d="M507.3,49.1H261.7c-2.6,0-5,1.5-6.1,3.9l-34.9,72.2l-24.5-71.4c-0.9-2.8-3.5-4.6-6.5-4.6h-85
		c-3.8,0-6.8,3.1-6.8,6.8v232.8c0,32.9,26.7,59.6,59.7,59.7h46.8c25.4,0,46,20.6,46,46v113.1c0,30.6,24.8,55.3,55.4,55.4h0.1
		c30.6,0,55.3-24.8,55.4-55.3l0.2-113.4c0.1-25.4,20.7-45.8,46-45.9h46.9c32.9,0,59.6-26.7,59.7-59.7V55.8
		C514.1,52.1,511.1,49.1,507.3,49.1L507.3,49.1L507.3,49.1z M305.8,549.3L305.8,549.3c-23.1-0.1-41.8-18.8-41.8-41.8v-25.1h83.6
		v25.2C347.6,530.5,328.9,549.3,305.8,549.3L305.8,549.3z M500.5,288.5c0,25.4-20.6,46-46,46h-46.9c-32.9,0.1-59.5,26.6-59.7,59.5
		l-0.1,74.5H264v-74.4c0-32.9-26.7-59.6-59.7-59.7h-46.8c-25.4,0-46-20.6-46-46v-41.3h278.8v-13.6H111.5v-171H126c0,0.1,0,0.2,0,0.3
		v90.6c0,3.8,3.1,6.8,6.8,6.8c3.8,0,6.8-3.1,6.8-6.8l0,0V62.9c0-0.1,0-0.2,0-0.3h45.1l28.3,82.5c1.2,3.6,5.1,5.5,8.7,4.2
		c1.7-0.6,3.1-1.8,3.9-3.5l40.2-83.3h234.5v171h-59v13.6h59v41.4H500.5z"/>
</g>
</svg>
