<?xml version="1.0" encoding="utf-8"?>
<!-- Generator: Adobe Illustrator 23.0.1, SVG Export Plug-In . SVG Version: 6.00 Build 0)  -->
<svg version="1.1" id="Calque_1" xmlns="http://www.w3.org/2000/svg" xmlns:xlink="http://www.w3.org/1999/xlink" x="0px" y="0px"
	 viewBox="0 0 612 612" style="enable-background:new 0 0 612 612;" xml:space="preserve">
<style type="text/css">
	.st0{fill:#D4E1F4;}
	.st1{fill:#5596E6;}
	.st2{fill:#41D6C3;}
</style>
<g>
	<path class="st0" d="M387.3,384.1l-12.2-12.2l-10.2,43.9l15.8-3.7L387.3,384.1z"/>
	<path class="st0" d="M393.6,369.7l96.8-96.6l29.5,29.5L478.2,261l-96.8,96.6l41.8,41.8L393.6,369.7z"/>
	<path class="st0" d="M500.7,262.9l11.4-11.3c1.7-1.7,4.5-1.7,6.2,0l-12.2-12.2c-1.7-1.7-4.5-1.7-6.2,0l-11.4,11.3l41.6,41.6
		L500.7,262.9z"/>
	<g>
		<path class="st1" d="M116.7,562.3h260.1c0.3,0,0.7,0,1-0.1c1,0,2,0.1,3.1,0.1c36,0,65.1-29.2,65.2-65.2V394.2c0-4-3.3-7.3-7.3-7.3
			s-7.3,3.3-7.3,7.3v102.9c0,27.9-22.6,50.5-50.5,50.5s-50.5-22.6-50.5-50.5v-37.4c0-4-3.3-7.3-7.3-7.3H137.4l2-355
			c0.2-18.4,15.2-33.3,33.6-33.1h273.3c-9.5,9.4-14.9,22.3-14.9,35.7v190c0,4,3.3,7.3,7.3,7.3s7.3-3.3,7.3-7.3l0,0V175.9h78.7
			c4,0,7.3-3.3,7.3-7.3V100c0-27.8-22.5-50.3-50.3-50.3H173c-26.6,0-48.3,21.4-48.3,47.7l-2,355H62c-4,0-7.3,3.3-7.3,7.3v37.4
			c0,34.1,26.4,62.5,60.5,65C115.6,562.2,116.2,562.3,116.7,562.3L116.7,562.3z M517.4,100v61.3H446V100c0-19.7,16-35.7,35.7-35.7
			S517.4,80.3,517.4,100L517.4,100z M69.3,497.1V467h246.5v30.1c0,19.6,8.9,38.2,24.1,50.5h-220C91.9,547.6,69.3,525,69.3,497.1z"/>
		<path class="st1" d="M195.6,149.8h79.3c4,0,7.3-3.3,7.3-7.3s-3.3-7.3-7.3-7.3h-79.3c-4,0-7.3,3.3-7.3,7.3
			C188.3,146.5,191.5,149.8,195.6,149.8z"/>
		<path class="st1" d="M367.1,196.6H195.6c-4,0-7.3,3.3-7.3,7.3s3.3,7.3,7.3,7.3h171.5c4,0,7.3-3.3,7.3-7.3S371.1,196.6,367.1,196.6
			z"/>
		<path class="st1" d="M367.1,257.9H195.6c-4,0-7.3,3.3-7.3,7.3s3.3,7.3,7.3,7.3h171.5c4,0,7.3-3.3,7.3-7.3
			C374.4,261.2,371.1,257.9,367.1,257.9z"/>
		<path class="st1" d="M374.4,326.4c0-4-3.3-7.3-7.3-7.3H195.6c-4,0-7.3,3.3-7.3,7.3s3.3,7.3,7.3,7.3h171.5
			C371.1,333.7,374.4,330.5,374.4,326.4z"/>
		<path class="st1" d="M195.6,380.4c-4,0-7.3,3.3-7.3,7.3s3.3,7.3,7.3,7.3h128.9c4,0,7.3-3.3,7.3-7.3s-3.3-7.3-7.3-7.3H195.6z"/>
	</g>
	<path class="st2" d="M516.4,229c-7.4-7.4-19.4-7.4-26.8,0L366.9,351.4c-1.7,1.7-3,3.9-3.5,6.3L348.1,424c-0.9,3.9,1.5,7.9,5.5,8.8
		c1.1,0.3,2.2,0.3,3.3,0l66.2-15.3c2.4-0.6,4.6-1.8,6.3-3.5l122.4-122.6c7.4-7.4,7.4-19.4,0-26.8L516.4,229z M375.1,371.9l33.8,33.8
		L365,415.9L375.1,371.9z M423.2,399.4l-41.8-41.8l96.8-96.6l41.6,41.6L423.2,399.4z M541.5,280.9l-11.3,11.4l-41.6-41.6l11.4-11.3
		c1.7-1.7,4.5-1.7,6.2,0l35.4,35.4C543.2,276.4,543.2,279.2,541.5,280.9z"/>
</g>
</svg>
