<?xml version="1.0" encoding="utf-8"?>
<!-- Generator: Adobe Illustrator 23.0.1, SVG Export Plug-In . SVG Version: 6.00 Build 0)  -->
<svg version="1.1" id="Calque_1" xmlns="http://www.w3.org/2000/svg" xmlns:xlink="http://www.w3.org/1999/xlink" x="0px" y="0px"
	 viewBox="0 0 612 612" style="enable-background:new 0 0 612 612;" xml:space="preserve">
<style type="text/css">
	.st0{fill:#D4E1F4;}
	.st1{fill:#5596E6;}
	.st2{fill:#41D6C3;}
</style>
<g>
	<path class="st0" d="M89.7,139.2c-11.3-26.5,0.9-57.1,27.4-68.5c6.5-2.8,13.5-4.2,20.5-4.2h322.6V53.7H112
		c-28.8,0-52.2,23.4-52.1,52.2c0,25,17.7,46.5,42.3,51.2c0.1,0,0.2,0,0.3,0.1C96.9,152.1,92.6,146,89.7,139.2L89.7,139.2z"/>
	<path class="st1" d="M489.7,98h-14V46c0-4.3-3.4-7.7-7.7-7.7H112c-37.3,0-67.6,30.2-67.6,67.5c0,32.4,23,60.2,54.8,66.3
		c3,0.6,5.1,3.3,5.1,6.3v52.9c0,16.1,13.1,29.2,29.2,29.2s29.2-13.1,29.2-29.2v-32.9c0-7.6,6.2-13.8,13.8-13.8h0.3
		c7.6,0,13.8,6.2,13.8,13.8v103.8c0,16.1,13.1,29.2,29.2,29.2h0.2c16.1,0,29.2-13.1,29.2-29.2V179.9c0-3.6,2.9-6.5,6.5-6.5H468
		c4.3,0,7.7-3.4,7.7-7.7v-52.2h14c34.5,0,62.5,28,62.5,62.5s-28,62.5-62.5,62.5H310.1c-4.3,0-7.7,3.4-7.7,7.7v96.3
		c0,4.3,3.4,7.7,7.7,7.7c4.3,0,7.7-3.4,7.7-7.7v-88.6h171.9c43,0,77.9-34.9,77.9-77.9S532.7,98,489.7,98L489.7,98z M460.3,158H255.5
		c-12.1,0-21.9,9.8-21.9,21.9v122.5c0,7.6-6.2,13.8-13.8,13.8h-0.2c-7.6,0-13.8-6.2-13.8-13.8V198.6c0-16.1-13.1-29.2-29.2-29.2
		h-0.3c-16.1,0-29.2,13.1-29.2,29.2v32.9c0,7.6-6.2,13.8-13.8,13.8c-7.6,0-13.8-6.2-13.8-13.8v-52.9c0-10.4-7.3-19.4-17.6-21.5
		c-28.3-5.5-46.8-32.8-41.3-61.1c4.7-24.5,26.2-42.3,51.2-42.3h348.3V158H460.3z"/>
	<path class="st2" d="M273.4,573.7h73.3c4.3,0,7.7-3.4,7.7-7.7V343.8c0-4.3-3.4-7.7-7.7-7.7h-73.3c-4.3,0-7.7,3.4-7.7,7.7V566
		C265.7,570.3,269.2,573.7,273.4,573.7z M339,519.9h-57.9v-23.1H339V519.9z M339,481.4h-57.9v-23.1H339V481.4z M281.1,558.3v-23.1
		H339v23.1H281.1z M339,351.5v91.4h-57.9v-91.4L339,351.5L339,351.5z"/>
</g>
</svg>
