<?xml version="1.0" encoding="utf-8"?>
<!-- Generator: Adobe Illustrator 23.0.1, SVG Export Plug-In . SVG Version: 6.00 Build 0)  -->
<svg version="1.1" id="Calque_1" xmlns="http://www.w3.org/2000/svg" xmlns:xlink="http://www.w3.org/1999/xlink" x="0px" y="0px"
	 viewBox="0 0 612 612" style="enable-background:new 0 0 612 612;" xml:space="preserve">
<style type="text/css">
	.st0{fill:#D4E1F4;}
	.st1{fill:#5596E6;}
	.st2{fill:#41D6C3;}
</style>
<g>
	<path class="st0" d="M211.2,556.1V244.6h-24v311.5c0,9.3,7.5,16.8,16.8,16.8h24C218.7,572.9,211.2,565.4,211.2,556.1z"/>
	<path class="st1" d="M424.1,384.5c-4,0-7.2,3.2-7.2,7.2v88.9c0,4,3.2,7.2,7.2,7.2s7.2-3.2,7.2-7.2v-88.9
		C431.3,387.7,428,384.5,424.1,384.5z"/>
	<path class="st1" d="M424.1,328.9c-4,0-7.2,3.2-7.2,7.2v19.7c0,4,3.2,7.2,7.2,7.2s7.2-3.2,7.2-7.2v-19.7
		C431.3,332.1,428,328.9,424.1,328.9z"/>
	<g>
		<path class="st2" d="M374.3,63c-5.3-13.1-15-23.1-28.9-29.9c-9.9-4.7-20.6-7.5-31.5-8.3c-11.1-0.8-14.2,0.8-16.1,4
			c-1.4,2.4-1.3,5.4,0.2,7.7c0.5,0.8,1.1,1.5,1.8,2.2c2.1,2.4,6.1,6.8,5.8,11.5c-0.3,4.4-3.4,9.7-6.5,14.8c-1.9,3.1-3.6,6.2-5.2,9.5
			c-5,11.1-4.1,23.9,2.4,33.3c9.5,14,27.1,16.6,38.7,16.6c1.3,0,2.6,0,3.7-0.1c13.7-0.5,26.2-7.8,33.3-19.5
			C379.8,92.6,380.6,77.3,374.3,63z M359.9,97.3c-4.7,7.6-12.8,12.3-21.8,12.6c-14.3,0.7-24.9-3-29.9-10.2
			c-3.7-5.4-4.1-12.8-1.1-19.5c1.3-2.7,2.7-5.4,4.3-7.9c3.7-6.3,8-13.4,8.5-21.3c0.2-3.9-0.5-7.7-2.1-11.3
			c13.6,2,35.1,8.7,43.1,28.7c0,0.1,0.1,0.1,0.1,0.2C365.4,78.6,365,89.1,359.9,97.3L359.9,97.3z"/>
		<path class="st2" d="M335.9,130.5c-0.3,0-0.6-0.1-0.9-0.1h-0.2c-8.5-0.9-17,1.6-23.6,7c-7,5.7-11.4,14-12,23.1l-5,76.5l14.4,0.9
			l5-76.4c0.4-5.1,2.8-9.7,6.7-12.9c3.7-3,8.5-4.4,13.2-3.8c0.3,0,0.6,0.1,0.9,0.1h0.1c9.1,1.4,15.4,9.9,14,19
			c0,0.2-0.1,0.5-0.1,0.7l-20,71l13.9,3.9l20-71.2c0-0.1,0.1-0.3,0.1-0.4c3.6-16.8-7.2-33.3-24-36.8
			C337.6,130.7,336.7,130.6,335.9,130.5L335.9,130.5z"/>
		<path class="st2" d="M473.5,72.5c-9.4-6-12.9-6-16-4.1c-2.4,1.5-3.7,4.2-3.4,6.9c0.1,0.9,0.3,1.9,0.5,2.8
			c0.8,3.1,2.1,8.8-0.3,12.8c-2.3,3.7-7.6,6.9-12.7,10c-3.1,1.8-6.2,3.8-9,6c-9.6,7.4-14.9,19.1-13.6,30.5
			c2,18.7,19.4,29.7,29.7,34.6c5.6,2.7,11.8,4.1,18.1,4.2c7.2,0,14.3-1.9,20.5-5.6c12.6-7.3,20.5-20.4,21.7-35.9
			c1.5-14-2.3-27.5-11.4-40C490.9,85.9,482.8,78.4,473.5,72.5L473.5,72.5z M494.4,133.2c0,0.1,0,0.2,0,0.2
			c-0.8,10.8-6.1,19.8-14.5,24.7c-7.7,4.5-17.2,4.8-25.2,0.9c-13-6.2-20.6-14.4-21.5-23.1c-0.7-6.5,2.4-13.2,8.2-17.7
			c2.4-1.8,4.9-3.5,7.6-5c6.3-3.8,13.4-8.1,17.5-14.8c2-3.3,3.2-7.1,3.5-10.9C481.1,95.8,496.8,111.8,494.4,133.2L494.4,133.2z"/>
		<path class="st2" d="M443.1,176c-0.2-0.2-0.5-0.3-0.8-0.5l-0.1-0.1c-7-4.8-15.8-6.6-24.1-5c-8.9,1.7-16.6,7-21.5,14.7
			c-2.3,3.7-4.3,6.9-6,9.7c-10.2,16.4-12.4,19.8-23.1,39.7l12.7,6.8c10.5-19.5,12.3-22.4,22.6-38.9c1.8-2.8,3.7-6,6-9.6
			c2.7-4.3,7.1-7.3,12-8.2c4.7-0.9,9.6,0.1,13.5,2.8c0.2,0.2,0.5,0.3,0.8,0.5h0.1c7.4,5.5,8.9,15.9,3.4,23.3
			c-0.2,0.3-0.4,0.5-0.6,0.8c-9,10.9-13.4,16.6-17.4,22l11.5,8.6c3.9-5.2,8.2-10.8,17-21.4c11.1-13.1,9.4-32.7-3.8-43.8
			C444.5,177,443.8,176.5,443.1,176L443.1,176z"/>
		<path class="st2" d="M235.6,111.1c-17.2,0-31.2,14-31.2,31.2v96h14.4v-64.8h33.6v64.8h14.4v-96
			C266.8,125.1,252.8,111.1,235.6,111.1z M218.8,159.1v-16.8c0-9.3,7.5-16.8,16.8-16.8s16.8,7.5,16.8,16.8v16.8H218.8z"/>
	</g>
	<path class="st1" d="M475.2,556.1V237.4c0-4-3.2-7.2-7.2-7.2H180c-4,0-7.2,3.2-7.2,7.2v77.8h-19.4c-48.9,0-88.6,39.7-88.6,88.6
		s39.7,88.6,88.6,88.6h19.4v63.8c0,17.2,14,31.2,31.2,31.2h240C461.2,587.3,475.2,573.4,475.2,556.1L475.2,556.1z M153.3,477.9
		c-41,0-74.2-33.2-74.2-74.2s33.2-74.2,74.2-74.2h19.4v148.3h-19.4V477.9z M187.2,556.1V244.6h273.6v311.5c0,9.3-7.5,16.8-16.8,16.8
		H204C194.7,572.9,187.2,565.4,187.2,556.1L187.2,556.1z"/>
</g>
</svg>
