<?xml version="1.0" encoding="utf-8"?>
<!-- Generator: Adobe Illustrator 23.0.1, SVG Export Plug-In . SVG Version: 6.00 Build 0)  -->
<svg version="1.1" id="f921693e-33a8-40f4-b606-3710578972cc"
	 xmlns="http://www.w3.org/2000/svg" xmlns:xlink="http://www.w3.org/1999/xlink" x="0px" y="0px" viewBox="0 0 859.4 767.8"
	 style="enable-background:new 0 0 859.4 767.8;" xml:space="preserve">
<style type="text/css">
	.st0{fill:#3F3D56;}
	.st1{opacity:4.000000e-02;fill:#0062FF;enable-background:new    ;}
	.st2{opacity:0.7;}
	.st3{fill:url(#SVGID_1_);}
	.st4{fill:#41D6C3;}
	.st5{opacity:0.5;fill:#4D8AF0;enable-background:new    ;}
	.st6{opacity:0.5;fill:#F55F44;enable-background:new    ;}
	.st7{opacity:0.5;fill:#47E6B1;enable-background:new    ;}
	.st8{opacity:0.5;}
	.st9{fill:#47E6B1;}
	.st10{fill:#0062FF;}
	.st11{fill:#FFB9B9;}
	.st12{fill:#5596E6;}
	.st13{fill:#575A89;}
	.st14{opacity:0.1;enable-background:new    ;}
	.st15{fill:#2F2E41;}
</style>
<title>Security on</title>
<path class="st0" d="M431.9,91.6L219.8,222.1c0,0,0,269.2,212.1,416C644,491.3,644,222.1,644,222.1L431.9,91.6z"/>
<path class="st1" d="M433.1,91.6l-3.6,2.2v541.8c1.2,0.9,2.4,1.7,3.6,2.5c212.1-146.8,212.1-416,212.1-416L433.1,91.6z"/>
<g class="st2">
	
		<linearGradient id="SVGID_1_" gradientUnits="userSpaceOnUse" x1="363.8485" y1="394.3596" x2="490.0515" y2="394.3596" gradientTransform="matrix(1 0 0 -1 0 768)">
		<stop  offset="0" style="stop-color:#808080;stop-opacity:0.25"/>
		<stop  offset="0.5351" style="stop-color:#808080;stop-opacity:0.12"/>
		<stop  offset="1" style="stop-color:#808080;stop-opacity:0.1"/>
	</linearGradient>
	<polygon class="st3" points="380.5,356.1 420.5,392.7 470.1,321.2 490.1,337.9 420.5,426.1 363.8,362.7 	"/>
</g>
<polygon class="st4" points="389.9,358.3 422.4,388 468.3,320.4 484.5,334 422.4,415 376.4,363.7 "/>
<path class="st5" d="M165.3,48c-1.7-0.7-2.6-2.7-2-4.4c0-0.1,0.1-0.3,0.1-0.4l0,0c0.1-1-0.7-1.9-1.7-2c-0.6,0-1.2,0.2-1.6,0.7l0,0
	c-0.1,0.1-0.2,0.2-0.2,0.4c-0.7,1.7-2.7,2.6-4.4,2c-0.1,0-0.3-0.1-0.4-0.1l0,0c-1-0.1-1.9,0.7-2,1.7c0,0.6,0.2,1.2,0.7,1.6l0,0
	c0.1,0.1,0.2,0.2,0.4,0.2c1.7,0.7,2.6,2.7,2,4.4c0,0.1-0.1,0.3-0.1,0.4l0,0c-0.1,1,0.7,1.9,1.7,2c0.6,0,1.2-0.2,1.6-0.7l0,0
	c0.1-0.1,0.2-0.2,0.2-0.4c0.7-1.7,2.7-2.6,4.4-2c0.1,0,0.3,0.1,0.4,0.1l0,0c1,0.1,1.9-0.7,2-1.7c0-0.6-0.2-1.2-0.7-1.6l0,0
	C165.5,48.1,165.4,48,165.3,48z"/>
<path class="st5" d="M19.3,373c-1.7-0.7-2.6-2.7-2-4.4c0-0.1,0.1-0.3,0.1-0.4l0,0c0.1-1-0.7-1.9-1.7-2c-0.6,0-1.2,0.2-1.6,0.7l0,0
	c-0.1,0.1-0.2,0.2-0.2,0.4c-0.7,1.7-2.7,2.6-4.4,2c-0.1,0-0.3-0.1-0.4-0.1l0,0c-1-0.1-1.9,0.7-2,1.7c0,0.6,0.2,1.2,0.7,1.6l0,0
	c0.1,0.1,0.2,0.2,0.4,0.2c1.7,0.7,2.6,2.7,2,4.4c0,0.1-0.1,0.3-0.1,0.4l0,0c-0.1,1,0.7,1.9,1.7,2c0.6,0,1.2-0.2,1.6-0.7l0,0
	c0.1-0.1,0.2-0.2,0.2-0.4c0.7-1.7,2.7-2.6,4.4-2c0.1,0,0.3,0.1,0.4,0.1l0,0c1,0.1,1.9-0.7,2-1.7c0-0.6-0.2-1.2-0.7-1.6l0,0
	C19.5,373.1,19.4,373,19.3,373z"/>
<circle class="st6" cx="748.4" cy="254" r="6"/>
<circle class="st6" cx="121.4" cy="683" r="6"/>
<circle class="st6" cx="850.4" cy="485" r="6"/>
<path class="st5" d="M646.5,143.7c-1.3-0.6-2-2.1-1.6-3.5c0-0.1,0.1-0.2,0.1-0.3l0,0c0-0.8-0.6-1.5-1.4-1.5c-0.5,0-1,0.2-1.2,0.6
	l0,0c-0.1,0.1-0.1,0.2-0.2,0.3c-0.6,1.3-2.1,2-3.5,1.6c-0.1,0-0.2-0.1-0.3-0.1l0,0c-0.8,0-1.5,0.6-1.5,1.4c0,0.5,0.2,1,0.6,1.2l0,0
	c0.1,0.1,0.2,0.1,0.3,0.2c1.3,0.6,2,2.1,1.6,3.5c0,0.1-0.1,0.2-0.1,0.3l0,0c0,0.8,0.6,1.5,1.4,1.5c0.5,0,1-0.2,1.2-0.6l0,0
	c0.1-0.1,0.1-0.2,0.2-0.3c0.6-1.3,2.1-2,3.5-1.6c0.1,0,0.2,0.1,0.3,0.1l0,0c0.8,0,1.5-0.6,1.5-1.4c0-0.5-0.2-1-0.6-1.2l0,0
	C646.7,143.8,646.6,143.7,646.5,143.7z"/>
<path class="st5" d="M804.3,705c-1.7-0.7-2.6-2.7-2-4.4c0-0.1,0.1-0.3,0.1-0.4l0,0c0.1-1-0.7-1.9-1.7-2c-0.6,0-1.2,0.2-1.6,0.7l0,0
	c-0.1,0.1-0.2,0.2-0.2,0.4c-0.7,1.7-2.7,2.6-4.4,2c-0.1,0-0.3-0.1-0.4-0.1l0,0c-1-0.1-1.9,0.7-2,1.7c0,0.6,0.2,1.2,0.7,1.6l0,0
	c0.1,0.1,0.2,0.2,0.4,0.2c1.7,0.7,2.6,2.7,2,4.4c0,0.1-0.1,0.3-0.1,0.4l0,0c-0.1,1,0.7,1.9,1.7,2c0.6,0,1.2-0.2,1.6-0.7l0,0
	c0.1-0.1,0.2-0.2,0.2-0.4c0.7-1.7,2.7-2.6,4.4-2c0.1,0,0.3,0.1,0.4,0.1l0,0c1,0.1,1.9-0.7,2-1.7c0-0.6-0.2-1.2-0.7-1.6l0,0
	C804.5,705.1,804.4,705,804.3,705z"/>
<path class="st5" d="M12.3,183c-1.7-0.7-2.6-2.7-2-4.4c0-0.1,0.1-0.3,0.1-0.4l0,0c0.1-1-0.7-1.9-1.7-2c-0.6,0-1.2,0.2-1.6,0.7l0,0
	c-0.1,0.1-0.2,0.2-0.2,0.4c-0.7,1.7-2.7,2.6-4.4,2c-0.1,0-0.3-0.1-0.4-0.1l0,0c-1-0.1-1.9,0.7-2,1.7c0,0.6,0.2,1.2,0.7,1.6l0,0
	c0.1,0.1,0.2,0.2,0.4,0.2c1.7,0.7,2.6,2.7,2,4.4c0,0.1-0.1,0.3-0.1,0.4l0,0c-0.1,1,0.7,1.9,1.7,2c0.6,0,1.2-0.2,1.6-0.7l0,0
	c0.1-0.1,0.2-0.2,0.2-0.4c0.7-1.7,2.7-2.6,4.4-2c0.1,0,0.3,0.1,0.4,0.1l0,0c1,0.1,1.9-0.7,2-1.7c0-0.6-0.2-1.2-0.7-1.6l0,0
	C12.5,183.1,12.4,183,12.3,183z"/>
<circle class="st7" cx="79.4" cy="284" r="6"/>
<circle class="st7" cx="853.4" cy="332" r="6"/>
<g class="st8">
	<rect x="583.4" class="st9" width="3" height="17"/>
	<rect x="576.4" y="7" class="st9" width="17" height="3"/>
</g>
<g class="st8">
	<rect x="594.4" y="666" class="st9" width="3" height="17"/>
	<rect x="587.4" y="673" class="st9" width="17" height="3"/>
</g>
<g class="st8">
	<rect x="26.4" y="702" class="st9" width="3" height="17"/>
	<rect x="19.4" y="709" class="st9" width="17" height="3"/>
</g>
<g class="st8">
	<rect x="709.4" y="396" class="st9" width="3" height="17"/>
	<rect x="702.4" y="403" class="st9" width="17" height="3"/>
</g>
<polygon class="st7" points="795.6,123 802,128.9 811.2,115.5 814.4,118.2 802,134.3 792.9,124.1 "/>
<rect x="556.6" y="271.6" transform="matrix(0.9992 -3.874900e-02 3.874900e-02 0.9992 -10.5368 22.1181)" class="st10" width="17.5" height="22.5"/>
<path class="st11" d="M494.8,350c0,0-24.2-11.6-23.8-1.6c0.4,10,24.4,16.6,24.4,16.6L494.8,350z"/>
<path class="st12" d="M508.1,434.5c0,0-11.4,28-15.6,48.1s-10.6,47.9-2.4,67.6s31.8,77.5,32,83.8c0.2,6.2-2,12.6,3,12.4
	c5-0.2,32.2-8.7,33.3-12.5c1.1-3.8-9.3-13.4-9.3-13.4l-25.6-80.3l26.7-52.3l19.3,78l3.8,97.4c0,0,18.5-5.7,21.2-0.8
	c0,0,8.3-11.6,9.4-16.6c1.1-5-3.9-101.1-3.9-101.1s17-109.4,3.3-108.9C589.4,436.4,535.6,403.4,508.1,434.5z"/>
<path class="st13" d="M524.8,641.4c0,0-12.7,28-13.9,29.3c-1.2,1.3-9.5,14.1-3.2,13.9c6.2-0.2,21-7.1,31.8-17.5
	c10.8-10.4,25.2-28.5,23.9-29.7c-1.3-1.2-10.2-4.6-10.2-4.6L524.8,641.4z"/>
<path class="st13" d="M575.5,657c0,0-0.8,12.5-3.1,17.6s-2,12.6,4.2,12.3c6.2-0.2,22.4-3.4,22.4-3.4s1-7.5-0.3-8.7
	c-1.3-1.2-6.8-14.7-4.5-18.6C596.5,652.4,575.5,657,575.5,657z"/>
<path class="st11" d="M584.7,250.2c0,0,13.3,20.7,18.5,25.5s-9.4,15.4-9.4,15.4l-26.1,3.5c0,0,0.3-23.8-1-26.2
	C565.3,266,584.7,250.2,584.7,250.2z"/>
<path class="st12" d="M562,277.4c0,0,5.4,9.8,10.4,9.6c5-0.2,30.8-11.2,31.9-15c1.1-3.8,8.6,27.2,8.6,27.2l-63.2,111.2l-15.4-10.7
	l7.5-65.3l6.1-35.2L562,277.4z"/>
<path class="st13" d="M606.6,376.9c-2.5,5.3-4.1,10.8-3.9,16.4c0,0.2,0,0.5,0,0.7c0.6,11.6,4.9,24.9,6.4,34.6
	c1.1,7,0.8,12.1-3.3,13.3c-9.9,2.9,1.4,4.9-36.8,17.7c-38.3,12.7-44.9,1.7-45-0.8c-0.1-2.5,5.4-21.5,4.1-22.7S510,452,504.9,449.6
	c-5.1-2.3-0.6-15-0.6-15s11.5-26.7,11.2-32.9c-0.2-6.2,17.4-35.7,17.4-35.7l12-78c0,0,4.6-10.2,10.8-11.7c6.2-1.5,11.3,2.1,11.3,2.1
	l-10.4,22.9l-10.9,40.4l1.8,14.9c0,0,12.7-26.8,21.1-37.1s26.2-34.8,26.2-34.8s4.2-14,1-18.2c-3.1-4.2,13.1-4.8,20,12.4
	c3.7,9.1,9.6,22.8,13.4,35.4c3.3,11.2,4.9,21.7,1.6,27.7C625.7,351.4,613.1,363.5,606.6,376.9z"/>
<path class="st14" d="M630.8,342.2c-5,9.2-17.7,21.2-24.1,34.7c-1.7-6.1-3.7-12.4-3.7-12.4s-7.9-42.2,15.4-53.1
	c3.9-0.4,7.7,0.7,10.8,3C632.5,325.7,634.1,336.2,630.8,342.2z"/>
<path class="st13" d="M538.1,339.6l-19.8,5.8l-27.5,1.1l-2.8,23.9l45.1,3.3C533.2,373.5,544.5,341.8,538.1,339.6z"/>
<path class="st11" d="M570.4,419.8c0,0-26.5,4.4-20.4,12.4c6,8,29.5-0.4,29.5-0.4L570.4,419.8z"/>
<path class="st14" d="M602.8,394.1c0.6,11.6,4.9,24.9,6.4,34.6c-8.4,8-16.4,15-19.5,15.1c-6.2,0.2-16.3-0.6-20,0.8
	c-3.7,1.4-5.9-22.3-5.9-22.3s2.2-7.6,12-11.7C582.5,407.8,595.3,400.3,602.8,394.1z"/>
<path class="st13" d="M618,304c0,0,21.1-3.3,20,31.7c-1.1,35.1,2.2,57.4-6.3,64s-36.1,36.4-42.3,36.7c-6.2,0.2-16.3-0.6-20,0.8
	c-3.7,1.4-5.9-22.3-5.9-22.3s2.2-7.6,12-11.7c9.8-4.1,33-18.8,32.8-23.8c-0.2-5-5.9-22.3-5.9-22.3S594.7,314.9,618,304z"/>
<circle class="st11" cx="566.1" cy="253.5" r="27.5"/>
<path class="st15" d="M547.5,214.1c-0.7,0.6-1.5,1-2.3,1.2c-0.9,0.2-1.7-0.4-1.9-1.3c-0.6,1.3-1.3,2.7-2.6,3.4s-3.3,0.1-3.5-1.3
	c-0.2,1.1-0.7,2.1-1.4,2.9c-0.8,0.8-2.2,1-2.9,0.1c0.6,3.1,0.2,6.2,0.4,9.4s1,6.4,3.4,8.5c3.4,3,8.6,2.3,13.1,1.7
	c0.7-0.1,1.4-0.1,2.1,0.1c1.7,0.7,1.6,3.1,1.6,4.9c0.3,6.7,5.3,12.2,12,13c1.8,0.3,3.6-0.2,5.1-1.2c1.3-1.1,1.9-2.9,3.4-3.7
	c2.4-1.3,5.3,0.6,7,2.7c1.7,2.1,3.5,4.7,6.2,5.1c3.6,0.5,6.3-3.1,7.7-6.5c3.7-9.5,3.5-20.1-0.8-29.5
	C586.6,207.1,561,204.5,547.5,214.1z"/>
</svg>
