<?xml version="1.0" encoding="utf-8"?>
<!-- Generator: Adobe Illustrator 23.0.1, SVG Export Plug-In . SVG Version: 6.00 Build 0)  -->
<svg version="1.1" id="ac370e99-250f-4203-ae2c-c306a69114f3"
	 xmlns="http://www.w3.org/2000/svg" xmlns:xlink="http://www.w3.org/1999/xlink" x="0px" y="0px" viewBox="0 0 1144 698"
	 style="enable-background:new 0 0 1144 698;" xml:space="preserve">
<style type="text/css">
	.st0{fill:#E9F5FF;}
	.st1{opacity:0.2;}
	.st2{fill:#3F3D56;}
	.st3{fill:#41D6C3;}
	.st4{fill:#FFFFFF;}
	.st5{opacity:0.1;enable-background:new    ;}
	.st6{fill:#5596E6;}
	.st7{fill:#6C63FF;}
	.st8{fill:#C2E6FF;}
	.st9{opacity:0.7;fill:none;stroke:#3F3D56;stroke-linecap:round;stroke-miterlimit:10;enable-background:new    ;}
	.st10{opacity:0.1;fill:#6C63FF;enable-background:new    ;}
	.st11{fill:url(#SVGID_1_);}
	.st12{fill:#FBBEBE;}
	.st13{fill:#F86D70;}
	.st14{fill:#30B7A0;}
	.st15{fill:#434175;}
	.st16{fill:#3ACEB8;}
</style>
<title>personal settings</title>
<path class="st0" d="M1144,415.3c0.1,33.1-9,65.6-26.1,93.9c0,34.6-16.1,66-42.3,88.9c-6.6,5.7-13.6,10.8-21.1,15.3
	c-0.3,0.2-0.6,0.4-0.9,0.5c-0.6,0.3-1.1,0.7-1.7,1l-0.5,0.3l0,0c-24.8,13.8-52.7,21-81.1,20.8H217.2c-6,0-11.9-0.2-17.8-0.7
	c-20.9-1.6-41.5-6.4-61.1-14.1c-3.8-1.5-7.6-3.1-11.2-4.9c-1.7-0.8-3.5-1.7-5.2-2.5c-1.1-0.5-2.1-1.1-3.2-1.7
	c-12.3-6.5-23.9-14.3-34.5-23.4c-34-29.2-55.1-69.6-55.1-114.2C10,445.1-0.1,410.8,0,375.8c0-99.1,79.2-179.5,177-179.5
	c3,0,6,0.1,9,0.3c0.4,0,0.9,0,1.3,0.1c16.5-28.1,38.5-53.9,65-76.6C324.5,58.1,430.1,19.1,547.7,19.1c98.8,0,189.2,27.6,258.3,73.1
	c26.2-14.8,55.8-22.6,86-22.5c97.7,0,177,80.4,177,179.5c0,6.3-0.3,12.5-1,18.8C1115.8,301.7,1144.2,356.7,1144,415.3z"/>
<g class="st1">
	<path class="st2" d="M138.4,619.8c0,0.5-0.1,0.9-0.1,1.3c-3.8-1.5-7.6-3.1-11.2-4.9c-2-0.3-3.8-1.1-5.2-2.5
		c-1.1-0.5-2.1-1.1-3.2-1.7c0.2-0.5,0.5-1,0.8-1.5c2.1-3.3,5.2-5.3,8.6-5.2s6.4,2.3,8.3,5.7C137.8,613.8,138.5,616.8,138.4,619.8z"
		/>
	<path class="st2" d="M138.9,602.7c-0.1,3-0.9,5.9-2.5,8.5c-2.1,3.3-5.2,5.3-8.6,5.2l-0.7,0c-2-0.3-3.8-1.1-5.2-2.5
		c-1-0.9-1.8-2-2.4-3.1c-2.8-5.4-2.6-11.9,0.5-17.1c2.1-3.3,5.2-5.3,8.6-5.2s6.4,2.3,8.3,5.7C138.4,596.7,139,599.7,138.9,602.7z"/>
	
		<ellipse transform="matrix(3.158516e-02 -0.9995 0.9995 3.158516e-02 -460.2585 695.4517)" class="st2" cx="128.8" cy="585.2" rx="14" ry="10.7"/>
	
		<ellipse transform="matrix(3.158516e-02 -0.9995 0.9995 3.158516e-02 -442.6279 679.4073)" class="st2" cx="129.3" cy="568.1" rx="14" ry="10.7"/>
	
		<ellipse transform="matrix(2.998651e-02 -0.9996 0.9996 2.998651e-02 -423.6226 663.2563)" class="st2" cx="129.9" cy="549.9" rx="14" ry="10.7"/>
	<path class="st3" d="M93.5,432.5c-1.4-1.9-2.7-3.9-3.8-6l28.3-3.7l-30.4-0.7c-5.5-13-5.4-27.7,0.3-40.6l40.1,22.5l-36.8-28.9
		c14.9-24.1,46.5-31.5,70.6-16.6c24.1,14.9,31.5,46.5,16.6,70.6c-1.3,2.1-2.8,4.2-4.4,6.1c2.2,3,4,6.2,5.6,9.5l-37.1,17.8l39.3-11.8
		c5,16.6,1.3,34.6-9.8,47.9c16.8,22.8,11.9,54.9-10.9,71.7s-54.9,11.9-71.7-10.9c-14-19.1-13.2-45.3,2-63.4
		C77.4,476.9,78.2,450.7,93.5,432.5L93.5,432.5z"/>
	<path class="st3" d="M184,467.1c-0.4,11.5-4.6,22.5-12,31.3c16.8,22.8,11.9,54.9-10.9,71.7s-54.9,11.9-71.7-10.9
		c-14-19.1-13.2-45.3,2-63.4C84.9,487,184.2,461.4,184,467.1z"/>
</g>
<path class="st4" d="M958,138.4v479.2c0,10.2-8.2,18.4-18.4,18.4H204.4c-1.7,0-3.4-0.2-5.1-0.7c-7.9-2.3-13.3-9.5-13.3-17.7V403.8
	c0-1.1,0-2.2,0-3.3V196.6c0.4,0,0.9,0,1.3,0.1c16.5-28.1,38.5-53.9,65-76.6h687.3C949.8,120,958,128.2,958,138.4z"/>
<path class="st2" d="M730.1,182.2H832c9.9,0,18,8,18,18v0c0,9.9-8,18-18,18H730.1c-9.9,0-18-8-18-18v0
	C712.2,190.3,720.2,182.2,730.1,182.2z"/>
<path class="st5" d="M733.1,188.2H829c6.6,0,12,5.4,12,12v0c0,6.6-5.4,12-12,12h-95.9c-6.6,0-12-5.4-12-12v0
	C721.2,193.6,726.5,188.2,733.1,188.2z"/>
<path class="st6" d="M805.4,189.6h22c5.9,0,10.7,4.8,10.7,10.6v0c0,5.9-4.8,10.6-10.7,10.6h-22c-5.9,0-10.7-4.8-10.7-10.6v0
	C794.7,194.3,799.5,189.6,805.4,189.6z"/>
<circle class="st4" cx="816" cy="200.2" r="6.7"/>
<path class="st2" d="M730.1,419.3H832c9.9,0,18,8,18,18v0c0,9.9-8,18-18,18H730.1c-9.9,0-18-8-18-18v0
	C712.2,427.3,720.2,419.3,730.1,419.3z"/>
<path class="st5" d="M733.1,425.3H829c6.6,0,12,5.4,12,12l0,0c0,6.6-5.4,12-12,12h-95.9c-6.6,0-12-5.4-12-12l0,0
	C721.2,430.6,726.5,425.3,733.1,425.3z"/>
<path class="st7" d="M805.4,426.6h22c5.9,0,10.7,4.8,10.7,10.6v0c0,5.9-4.8,10.6-10.7,10.6h-22c-5.9,0-10.7-4.8-10.7-10.6v0
	C794.7,431.4,799.5,426.6,805.4,426.6z"/>
<circle class="st4" cx="816" cy="437.3" r="6.7"/>
<path class="st2" d="M730.1,537.8H832c9.9,0,18,8,18,18v0c0,9.9-8,18-18,18H730.1c-9.9,0-18-8-18-18v0
	C712.2,545.8,720.2,537.8,730.1,537.8z"/>
<path class="st5" d="M733.1,543.8H829c6.6,0,12,5.4,12,12v0c0,6.6-5.4,12-12,12h-95.9c-6.6,0-12-5.4-12-12v0
	C721.2,549.2,726.5,543.8,733.1,543.8z"/>
<path class="st6" d="M805.4,545.1h22c5.9,0,10.7,4.8,10.7,10.7v0c0,5.9-4.8,10.7-10.7,10.7h-22c-5.9,0-10.7-4.8-10.7-10.7v0
	C794.7,549.9,799.5,545.1,805.4,545.1z"/>
<circle class="st4" cx="816" cy="555.8" r="6.7"/>
<path class="st6" d="M304.6,159.6h59.3c5.9,0,10.6,4.8,10.6,10.6v0c0,5.9-4.8,10.6-10.6,10.6h-59.3c-5.9,0-10.6-4.8-10.6-10.6v0
	C294,164.4,298.8,159.6,304.6,159.6z"/>
<path class="st6" d="M304.6,189.6h202.4c5.9,0,10.6,4.8,10.6,10.6v0c0,5.9-4.8,10.6-10.6,10.6H304.6c-5.9,0-10.6-4.8-10.6-10.6v0
	C294,194.3,298.8,189.6,304.6,189.6z"/>
<path class="st6" d="M304.6,219.5h202.4c5.9,0,10.6,4.8,10.6,10.6v0c0,5.9-4.8,10.6-10.6,10.6H304.6c-5.9,0-10.6-4.8-10.6-10.6v0
	C294,224.3,298.8,219.5,304.6,219.5z"/>
<g>
	<path class="st8" d="M304.6,278.1h59.3c5.9,0,10.6,4.8,10.6,10.6v0c0,5.9-4.8,10.6-10.6,10.6h-59.3c-5.9,0-10.6-4.8-10.6-10.6v0
		C294,282.9,298.8,278.1,304.6,278.1z"/>
	<path class="st8" d="M304.6,308.1h145.7c5.9,0,10.6,4.8,10.6,10.6v0c0,5.9-4.8,10.6-10.6,10.6H304.6c-5.9,0-10.6-4.8-10.6-10.6v0
		C294,312.8,298.8,308.1,304.6,308.1z"/>
	<path class="st8" d="M304.6,338h202.4c5.9,0,10.6,4.8,10.6,10.6v0c0,5.9-4.8,10.6-10.6,10.6H304.6c-5.9,0-10.6-4.8-10.6-10.6v0
		C294,342.8,298.8,338,304.6,338z"/>
</g>
<path class="st6" d="M304.6,396.6h59.3c5.9,0,10.6,4.8,10.6,10.6v0c0,5.9-4.8,10.6-10.6,10.6h-59.3c-5.9,0-10.6-4.8-10.6-10.6v0
	C294,401.4,298.8,396.6,304.6,396.6z"/>
<path class="st6" d="M304.6,426.6h202.4c5.9,0,10.6,4.8,10.6,10.6v0c0,5.9-4.8,10.6-10.6,10.6H304.6c-5.9,0-10.6-4.8-10.6-10.6v0
	C294,431.4,298.8,426.6,304.6,426.6z"/>
<path class="st6" d="M304.6,456.6h117.7c5.9,0,10.6,4.8,10.6,10.6v0c0,5.9-4.8,10.6-10.6,10.6H304.6c-5.9,0-10.6-4.8-10.6-10.6v0
	C294,461.3,298.8,456.6,304.6,456.6z"/>
<path class="st6" d="M304.6,515.2h59.3c5.9,0,10.6,4.8,10.6,10.7v0c0,5.9-4.8,10.7-10.6,10.7h-59.3c-5.9,0-10.6-4.8-10.6-10.7v0
	C294,519.9,298.8,515.2,304.6,515.2z"/>
<path class="st6" d="M304.6,545.1h202.4c5.9,0,10.6,4.8,10.6,10.7v0c0,5.9-4.8,10.7-10.6,10.7H304.6c-5.9,0-10.6-4.8-10.6-10.7v0
	C294,549.9,298.8,545.1,304.6,545.1z"/>
<path class="st6" d="M304.6,575.1h158.7c5.9,0,10.6,4.8,10.6,10.7v0c0,5.9-4.8,10.7-10.6,10.7H304.6c-5.9,0-10.6-4.8-10.6-10.7v0
	C294,579.9,298.8,575.1,304.6,575.1z"/>
<line class="st9" x1="260" y1="260" x2="912" y2="260"/>
<line class="st9" x1="260" y1="380.5" x2="912" y2="380.5"/>
<line class="st9" x1="260" y1="501" x2="912" y2="501"/>
<line class="st9" x1="260" y1="624.5" x2="912" y2="624.5"/>
<ellipse class="st10" cx="795" cy="687.5" rx="147.7" ry="10.5"/>
<circle class="st0" cx="70.5" cy="141.2" r="21.6"/>
<circle class="st0" cx="160.7" cy="21.6" r="21.6"/>
<circle class="st0" cx="153.3" cy="103.8" r="36.3"/>
<path class="st2" d="M730.1,300.8H832c9.9,0,18,8,18,18v0c0,9.9-8,18-18,18H730.1c-9.9,0-18-8-18-18v0
	C712.2,308.8,720.2,300.8,730.1,300.8z"/>
<path class="st5" d="M733.1,306.8H829c6.6,0,12,5.4,12,12l0,0c0,6.6-5.4,12-12,12h-95.9c-6.6,0-12-5.4-12-12l0,0
	C721.2,312.1,726.5,306.8,733.1,306.8z"/>
<linearGradient id="SVGID_1_" gradientUnits="userSpaceOnUse" x1="3255.9653" y1="-97.1438" x2="3255.9653" y2="298.6091" gradientTransform="matrix(-1 0 0 -1 4052 597)">
	<stop  offset="0" style="stop-color:#808080;stop-opacity:0.25"/>
	<stop  offset="0.54" style="stop-color:#808080;stop-opacity:0.12"/>
	<stop  offset="1" style="stop-color:#808080;stop-opacity:0.1"/>
</linearGradient>
<path class="st11" d="M725.2,661c1.6-0.2,3.1-0.5,4.7-0.9c-0.2,1.5-0.6,3-1.3,4.4c-1.5,2.9-4.5,4.7-7.3,6.4c-0.8-0.7-2-0.8-2.8-0.2
	c-3.3,2-6,4.8-9.5,6.5c-1.2,0.6-2.5,1.1-3.7,1.8c-2.9,1.8-5.3,4.3-7,7.2c-1,1.5-1.8,3.6-0.8,5.1c0.4,0.5,0.9,1,1.4,1.3
	c1.4,1,3.1,1.5,4.9,1.5c1-0.1,2-0.5,3.1-0.6c1.4-0.2,2.8-0.1,4.2-0.2c2-0.3,4-0.8,5.8-1.5l6.9-2.4c1.9-0.6,3.8-1.4,5.7-2.3
	c1.1-0.6,2.1-1.3,3.2-1.8c1.2-0.6,2.5-1,3.9-1.4l3.9-1.1c0.6-0.2,1.2-0.3,1.8-0.2c0.5,0.1,1,0.4,1.5,0.6c0.8,0.1,1.7,0.1,2.5-0.2
	l4.5-1.3c1-0.2,1.9-0.6,2.7-1.1c2.1-1.5,2.4-4.4,2.4-6.9c0-3.9-0.4-7.7-1.3-11.5c-0.6,0.2-1.1,0.6-1.5,1.1c-0.5-0.7-1-1.3-1.5-1.9
	c-2.1-2.4-3.6-5.3-4.5-8.3c1.6-1.2,3-2.8,4-4.5c-2.4-9.1-4.8-18.4-9.7-26.4c-1.6-2.6-3.4-5.1-5-7.7c-4.7-7.5-5.7-17-11.1-24
	c-1.1-1.5-1.1-3.4,0-4.9c0.6-0.8,1.6-1.6,1.4-2.6c-0.1-0.7-0.9-1.4-0.6-2.1c0.1-0.3,0.5-0.5,0.7-0.8c0.9-0.9,0.8-2.3,0.9-3.6
	c0.2-3.2,2.1-6,3.9-8.6c0.4-0.6,0.9-1.1,1.4-1.6c0.5-0.3,1.1-0.4,1.6-0.7c1.7-1.1,1.6-3.6,2.4-5.5c1.1-2.5,3.8-3.7,5.6-5.7
	c2.3-2.6,2.8-6.1,5.2-8.3c0.2-0.2,0.5-0.4,0.8-0.6c-1,3.8-1.5,7.7-1.4,11.7c-0.2,13.5,3.1,27.5,1.6,41c-1.2,10.7,5.3,21.3,14.5,26.6
	c3.6,1.9,7.4,3.5,11.3,4.8c5.8,2.1,11.5,4.2,17.2,6.6c4,1.7,7.9,3.5,11.8,5.4c4.8,2.3,9.5,5,14,7.8c5.6,3.6,11.1,7.2,15.1,12.5
	c2.4-0.1,4.7-1,6.7-2.5c1.5,1.2,3.4,2.1,4.8,3.4c2,2.1,3.3,4.7,3.8,7.5h-0.6c0.1,1.3,0.1,2.7,0.2,4c0.1,0.3,0,0.7-0.2,1
	c-0.1,0.2-0.3,0.4-0.5,0.5l-3.1,2.1c-2.2,1.5-4.7,3.4-4.8,6.1c-0.1,0.8,0.2,1.6,0.7,2.2c0.8,0.7,1.7,1.1,2.7,1.2
	c5.4,1.1,10.8,2.2,16.3,1.5c2.6-0.3,5.3-1.2,6.9-3.2c1.5-1.8,2-4.3,2.4-6.6c0.7-4,1.2-8.1,1.7-12.2c0.1-2.8,0.7-5.5,1.7-8.1
	c0.1-0.2,0.2-0.4,0.4-0.5c0.2-0.1,0.5,0,0.7-0.1s0.4-0.5,0.5-0.8c1-3.9,1.5-8,1.4-12.1c0-1.1-0.1-2.1-0.5-3.1
	c-0.9-1.7-2.4-2.9-4.3-3.3c-1.8-0.4-3.7-0.6-5.5-0.7c-1.6-0.1-3.1-0.4-4.6-0.8c-0.6-0.2-1.3-0.3-1.9-0.3c-0.7,0.1-1.2,0.7-1.2,1.3
	c0,0.2,0.1,0.5,0.2,0.7l-1.6-0.3c-1.3-0.2-3-0.8-4.9-1.2c0-0.3,0-0.7,0.1-1c0-0.7-0.4-1.4-1.1-1.7l-26.4-14.1l-4.9-2.6
	c-10.8-5.8-22-11.1-32.8-16.9c-0.7,0.2-1.3-0.6-1.5-1.3s-0.4-1.6-1-2c-0.3-0.2-0.8-0.2-1-0.4c-0.2-0.3-0.2-0.6-0.2-0.9
	c0.3-5.3,4.1-10.1,3.4-15.3c-0.3-2.2-1.5-4.4-1-6.6c0.3-1.5,1.4-2.7,2-4.2c1.3-3.2,0-7.1,1.4-10.2c0.9-2.1,1.6-4.3,1.9-6.5
	c0.7-4.5,2-8.9,4-12.9c1-2.1,2.2-4,3.7-5.7c0.8-0.9,1.7-1.6,2.4-2.5c2.3-2.8,3.2-6.4,3.8-10c1.2-6.4,2-13.1,0.5-19.4
	c-0.5-2.2-1.3-4.3-1.2-6.5c0-2.7,1.1-5.7-0.2-7.8c1.3-1.1,2.2-2.6,2.5-4.3c0-0.6,0.1-1.2,0.3-1.8c0.4-0.6,1-1.1,1.7-1.5
	c2.1-1.6,3.1-4.3,2.6-6.9c1.4,0.6,2.8-0.8,3.5-2.1s1.1-3,2.5-3.6c0.9-0.4,2-0.2,3-0.4c1.6-0.4,2.6-2,3.7-3.2
	c2.3-2.5,5.5-3.7,8.5-5.2c8.9-4.5,16.1-11.6,23.2-18.7c3.7-3.4,7-7.2,10-11.3c0.8-1.2,1.5-2.4,2.2-3.6l0.2-0.1l0.1,0.2
	c0.1,0.4,0.2,0.9,0.4,1.3c0.3,1,0.7,2.1,1,3.1c1.1,3,2.3,6.2,4.5,8.5c0.7,0.7,1.4,1.3,2.3,1.8c1.8,1,3.8,1.6,5.9,1.8
	c0.8,0.1,1.6,0.2,2.4,0.2s1.6,0.1,2.4,0.1l16.2,0.4c-5.6-8.1-6-18.5-5.6-28.3c0.9-25.2,5.8-50.6,1.3-75.4c-0.5-3-1.3-6-3.1-8.4
	c-2.4-3.1-6.3-4.7-10.2-5.6s-7.8-1.3-11.4-2.9c-3-1.4-5.8-3.6-9-4.3c-2.4-0.4-4.8-0.4-7.2,0.1c-2.9,0.4-5.8,0.9-8.7,1.5l-0.7,0.1h0
	l-0.5,0.1h-0.1l-0.4,0.1h-0.2l-0.4,0.1l-0.2,0l-0.4,0.1l-0.2,0.1l-0.3,0.1l-0.2,0.1l-0.3,0.1l-0.2,0.1l-0.3,0.1l-0.2,0.1l-0.3,0.1
	l-0.2,0.1l-0.3,0.1L841,322l-0.2,0.1l-0.2,0.2l-0.2,0.2l-0.2,0.2l-0.2,0.2c-0.1,0.1-0.2,0.1-0.2,0.2l-0.2,0.2
	c-0.1,0.1-0.2,0.2-0.2,0.3c0,0-0.1,0.1-0.1,0.2s-0.2,0.3-0.3,0.4v0.1c-0.2,0.4-0.4,0.8-0.5,1.2c-0.1,0.2-0.1,0.4-0.2,0.6
	c-0.1,0.4-0.2,0.9-0.2,1.3c0,0.2,0,0.5,0,0.7c0,0.4,0,0.9,0,1.3c0,0.8,0.1,1.5,0.3,2.2c-11.6,6.8-15.4,21.8-8.6,33.4
	c1.9,3.1,4.4,5.8,7.4,7.9c0,0.4,0.1,0.8,0.1,1.2v0.3c-0.1,1.4-0.2,2.8-0.4,4.2c-4-0.8-8-1.1-12-1.1c-2.4,0-4.8,0.2-7.2,0.4
	c-2.6-3.1-5-6.4-7.2-9.8l-5.3-7.8c-1.8-2.6-3.5-5.2-5-8c-1.3-2.5-2.3-5.2-3.8-7.7c-3-5.1-7.9-9.4-8.5-15.3l-1.4,0.3
	c-0.8-1.3-1.7-2.6-2.1-3.3c-1.9-4.2-3.4-8.5-4.4-13c-0.5-2.3-0.9-4.7-2.1-6.7c-0.9-1.2-1.9-2.4-3.1-3.3c-1.9-1.8-4.2-3.2-6.7-4.2
	c-2.2-0.8-4.7-0.7-6.8,0.4c-0.3-0.2-0.7-0.3-1-0.4c-2.5-1-5.3-0.6-7.6,0.9c-2.1,1.6-3,4.4-3.3,7c-0.6,3.6,0.1,7.4,1.8,10.6
	c2,3.6,5.6,6,8.5,8.8c2.1,2,3.9,4.2,5.4,6.7c0.5,5.4,0.3,10.8-0.4,16.2c-0.4,2.3-1,4.6-1.2,6.9c-0.7,8.4,3.6,16.8,2.1,25
	c-0.5,2.5,0.6,5.1,2.8,6.5c2.2,1.2,4.9,1.4,7.3,2c4.8,1.2,9,4.3,13.9,5.5c2.3,0.5,4.6,0.6,6.8,1.2l0.3,0.1c-1.7,2-3,4.3-3.6,6.8
	c-1,4.2-0.1,8.7-1.1,12.9c-0.8,3.5-2.9,6.5-4.9,9.4c-3.9,5.7-7.8,11.3-11.7,17c-2.6,4-5.5,7.8-8.7,11.4
	c-5.4,5.9-14.7,10.6-17.4,17.6c-0.1-0.2-0.1-0.3-0.2-0.5c-3.9,2.8-5.3,8.2-8.4,11.8c-1.5,1.8-3.4,3.2-5,4.9c-2,2.1-3.9,4.4-5.5,6.9
	c-4.6,6.4-9.2,12.8-12.5,19.9c-1.7,3.7-3,7.6-4.4,11.4c-5.4,15.2-14.2,29.6-17.8,45.3c-0.9,3.8-3.2,7.3-3.6,11.2
	c-0.4,4.2,1.5,8.2,3.5,11.9c3,5.6,6.3,11.1,9,16.9c1.6,3.4,2.9,6.9,4.7,10.2c1.9,3.6,4.3,6.9,6.3,10.5
	C719.8,641,722.6,651.1,725.2,661z M791.3,374.5l-0.5-0.2c-1.8-0.8-3.4-1.9-4.8-3.2c-4.3-4.6-6.2-11.5-7.5-17.7
	c-0.2-0.7-0.3-1.5-0.4-2.2C783.3,358.5,788.2,366.2,791.3,374.5L791.3,374.5z"/>
<path class="st12" d="M771.7,314.4c-0.5-2.3-0.8-4.7-2.1-6.7c-0.9-1.2-1.9-2.3-3.1-3.3c-1.9-1.8-4.2-3.2-6.7-4.2
	c-2.5-0.9-5.3-0.6-7.6,0.9c-2.1,1.6-3,4.3-3.3,7c-0.6,3.6,0.1,7.3,1.8,10.5c2,3.6,5.6,5.9,8.6,8.8c2.2,2.1,4,4.4,5.6,7
	c0.7,1.3,1.6,2.6,2.5,3.7c1,1.1,2.5,1.7,4,1.6c1.2-0.3,2.4-1,3.3-1.9c1.2-1.1,4.5-3,4.6-4.7c0.1-1.4-2.5-4.5-3.1-5.8
	C774.2,323.3,772.7,318.9,771.7,314.4z"/>
<path class="st5" d="M771.7,314.4c-0.5-2.3-0.8-4.7-2.1-6.7c-0.9-1.2-1.9-2.3-3.1-3.3c-1.9-1.8-4.2-3.2-6.7-4.2
	c-2.5-0.9-5.3-0.6-7.6,0.9c-2.1,1.6-3,4.3-3.3,7c-0.6,3.6,0.1,7.3,1.8,10.5c2,3.6,5.6,5.9,8.6,8.8c2.2,2.1,4,4.4,5.6,7
	c0.7,1.3,1.6,2.6,2.5,3.7c1,1.1,2.5,1.7,4,1.6c1.2-0.3,2.4-1,3.3-1.9c1.2-1.1,4.5-3,4.6-4.7c0.1-1.4-2.5-4.5-3.1-5.8
	C774.2,323.3,772.7,318.9,771.7,314.4z"/>
<path class="st13" d="M840.8,380.2c-5.3-1.4-10.7-2.1-16.2-2c-9.1,0.1-18.5,2.3-27.2-0.5c-2.2-0.8-4.4-1.7-6.5-2.8
	c-1.8-0.8-3.4-1.8-4.9-3.2c-4.3-4.6-6.2-11.5-7.5-17.6c-1.2-6.2-1.9-12.4-2-18.7c-2.3,1-4.6,2.1-7.1,1.9s-5-2.1-5-4.6
	c0.4,5.8,0.6,11.7-0.3,17.5c-0.4,2.3-1,4.5-1.2,6.8c-0.7,8.3,3.6,16.6,2.1,24.9c-0.5,2.5,0.6,5.1,2.8,6.4c2.2,1.2,4.9,1.4,7.3,2
	c4.8,1.2,9,4.3,13.9,5.5c2.3,0.5,4.6,0.6,6.8,1.2c3.2,0.9,6.1,2.7,9.4,3.3c2.4,0.4,5,0.1,7.4,0.4c2.2,0.2,4.3,0.7,6.4,0.8
	c5.3,0.1,10.3-2.9,13.8-6.8S838.6,385,840.8,380.2z"/>
<path class="st14" d="M840.8,380.2c-5.3-1.4-10.7-2.1-16.2-2c-9.1,0.1-18.5,2.3-27.2-0.5c-2.2-0.8-4.4-1.7-6.5-2.8
	c-1.8-0.8-3.4-1.8-4.9-3.2c-4.3-4.6-6.2-11.5-7.5-17.6c-1.2-6.2-1.9-12.4-2-18.7c-2.3,1-4.6,2.1-7.1,1.9s-5-2.1-5-4.6
	c0.4,5.8,0.6,11.7-0.3,17.5c-0.4,2.3-1,4.5-1.2,6.8c-0.7,8.3,3.6,16.6,2.1,24.9c-0.5,2.5,0.6,5.1,2.8,6.4c2.2,1.2,4.9,1.4,7.3,2
	c4.8,1.2,9,4.3,13.9,5.5c2.3,0.5,4.6,0.6,6.8,1.2c3.2,0.9,6.1,2.7,9.4,3.3c2.4,0.4,5,0.1,7.4,0.4c2.2,0.2,4.3,0.7,6.4,0.8
	c5.3,0.1,10.3-2.9,13.8-6.8S838.6,385,840.8,380.2z"/>
<path class="st12" d="M855.3,637.7c1.6,0.2,3.2,0.7,4.7,1.5c1.9,1.4,3.3,3.3,4.1,5.5c2.2,5.4,2.6,11.3,2.7,17.1
	c0.1,4.7-0.1,9.5-1.8,13.9c-0.5,1.4-1.3,2.6-2.3,3.6c-0.9,0.7-2,1.3-3.2,1.5c-2.5,0.7-5.4,0.7-7.5-0.9c-2.3-1.8-2.8-4.9-3.3-7.8
	c-0.7-3.8-1.6-7.9-4.4-10.6c-2.1-2-5.2-3-6.7-5.4c-1.8-2.9-0.9-6.7,0.3-10c1-2.8,2.5-8.5,5.5-9.9S852.3,637.1,855.3,637.7z"/>
<path class="st12" d="M747,651.5c0.9,3.1,2.4,6,4.6,8.5c1.3,1.5,2.9,3.3,2.3,5.2c-0.3,0.6-0.7,1.2-1.2,1.7
	c-9.7,9.4-23.2,14-36.6,15.7c-0.2,0.1-0.4,0.1-0.7,0c-0.4-0.2-0.5-0.7-0.5-1.1c-0.2-1.4-0.2-2.8,0-4.2c0.7-3.3,3.5-5.6,6.3-7.4
	s5.9-3.5,7.4-6.5c2-3.7,1.1-8.4,3.5-11.9c1.9-2.8,5.4-4,8.7-4.5c1.2-0.2,3.6-1.4,4.6-0.9S746.7,650.3,747,651.5z"/>
<path class="st3" d="M856.6,637.3c0-0.7,0.5-1.2,1.2-1.3c0.6-0.1,1.3,0,1.9,0.2c1.5,0.4,3,0.7,4.6,0.8c1.9,0.1,3.7,0.3,5.5,0.7
	c1.8,0.4,3.4,1.6,4.3,3.3c0.4,1,0.5,2,0.5,3.1c0,4-0.4,8.1-1.4,12c-0.1,0.3-0.2,0.7-0.5,0.8s-0.5,0-0.7,0.1
	c-0.2,0.1-0.4,0.3-0.4,0.5c-1,2.6-1.5,5.3-1.7,8c-0.4,4-1,8.1-1.7,12.1c-0.4,2.3-0.9,4.8-2.4,6.6c-1.7,2-4.4,2.8-6.9,3.2
	c-5.4,0.7-10.9-0.4-16.3-1.5c-1-0.1-2-0.5-2.8-1.2c-0.5-0.6-0.7-1.4-0.7-2.2c0.1-2.7,2.6-4.6,4.8-6.1l3.1-2.1
	c0.2-0.1,0.4-0.3,0.5-0.5c0.2-0.3,0.2-0.7,0.2-1l-0.2-4c4.2,0.1,8,2.4,9.9,6.1c0.4,0.8,0.8,1.8,1.7,2.2c1.2,0.3,2.4-0.4,2.7-1.6
	c0.3-1.1,0.2-2.3-0.1-3.5c-1.8-9.7-1.4-19.6-2.5-29.4c-0.1-1.1-0.4-2.2-1-3.1C857.7,638.9,856.7,638.2,856.6,637.3z"/>
<path class="st6" d="M756.8,329.4h-22c-5.9,0-10.7-4.8-10.7-10.6v0c0-5.9,4.8-10.6,10.7-10.6h22c5.9,0,10.7,4.8,10.7,10.6v0
	C767.4,324.6,762.7,329.4,756.8,329.4z"/>
<circle class="st4" cx="746.1" cy="318.7" r="6.7"/>
<path class="st3" d="M722.1,674.8c-0.5,0.8-1.2,1.3-1.6,2.1c-0.5,0.8-0.3,1.8,0.3,2.3c0.4,0.2,1,0.2,1.4,0.1
	c9.7-1.2,18.7-5.3,26-11.8c1.2-1,2.3-2.2,3.2-3.5c0.8-1.3,1.6-2.9,3-3.4c0.9,3.8,1.3,7.6,1.3,11.5c0,2.5-0.4,5.4-2.4,6.9
	c-0.8,0.5-1.7,0.9-2.7,1.1l-4.5,1.3c-0.8,0.3-1.7,0.4-2.5,0.2c-0.5-0.1-1-0.5-1.5-0.6c-0.6-0.1-1.2,0-1.8,0.2l-3.9,1.1
	c-1.3,0.3-2.6,0.8-3.9,1.3c-1.1,0.5-2.2,1.2-3.2,1.8c-1.8,0.9-3.7,1.7-5.7,2.3l-6.9,2.4c-1.9,0.7-3.8,1.2-5.8,1.5
	c-1.4,0.1-2.8,0-4.2,0.2c-1,0.2-2,0.6-3.1,0.6c-1.7,0.1-3.4-0.5-4.9-1.4c-0.6-0.3-1-0.7-1.4-1.3c-1-1.5-0.1-3.5,0.8-5.1
	c1.7-2.9,4.1-5.4,7-7.2c1.2-0.7,2.5-1.1,3.7-1.7c3.5-1.7,6.2-4.5,9.5-6.5C721.6,667.7,723.6,672.4,722.1,674.8z"/>
<path class="st12" d="M818.7,397.9c3.6,2.5,7.8,4.1,12.2,4.7c2.3,0.3,4.6,0.4,6.9,0.4c9.6,0,19.2-0.8,28.6-2.4
	c-3.8-4.1-7.6-8.6-9-14c-0.7-2.9-0.9-5.8-0.4-8.8c0.6-3.7,1.5-7.4,2.7-11c-4,0.2-8.1,0.1-12.1-0.3c-2.3-0.2-7.9-2.3-9.9-0.7
	s-0.5,6.7-0.4,9.1c0,0.1,0,0.2,0,0.3c-0.1,3.6-0.9,7.2-2.3,10.6C832,392.2,825.8,397.5,818.7,397.9z"/>
<path class="st5" d="M837.2,374.8c5.8,3.8,13,4.9,19.8,3c0.6-3.7,1.5-7.4,2.7-11c-4,0.2-8.1,0.1-12.1-0.3c-2.3-0.2-7.9-2.3-9.9-0.7
	S837.2,372.5,837.2,374.8z"/>
<circle class="st12" cx="850.4" cy="353.5" r="24.1"/>
<path class="st3" d="M748.1,475.5c0,4,2,7.6,5.4,9.7c1.9,1,3.8,1.7,5.9,2.1c11,2.7,22.3,4.8,33.7,4.2c2.5,0,4.9-0.5,7.1-1.5
	c2.3-1,3.9-3.1,4.4-5.5c0-0.6,0.1-1.2,0.3-1.8c0.4-0.6,1-1.1,1.7-1.5c2.1-1.6,3.1-4.2,2.6-6.8c1.4,0.6,2.8-0.8,3.5-2.1
	s1.2-3,2.5-3.6c0.9-0.4,2-0.2,3-0.4c1.6-0.4,2.6-2,3.7-3.2c2.3-2.4,5.5-3.7,8.5-5.2c8.9-4.5,16.1-11.6,23.2-18.5
	c3.7-3.4,7-7.1,10-11.2c0.8-1.2,1.5-2.4,2.2-3.6c2.1-4.1,4-8.4,5.5-12.7c0.9-2.3,1.8-4.8,1.4-7.3c0-0.2-0.1-0.4-0.1-0.7
	c-0.5-1.6-1.2-3.1-2.2-4.4c-2.5-3.6-5.7-7-9.9-8.1s-8.4,0.2-12.7,1.1c-1.4,0.3-2.9,0.5-4.3,0.7c-4.5,0.3-9-0.9-13.4-2.1l-4.8-1.3
	c-2.4-0.7-3.6-3.5-6-4.1c-1.1-0.2-2.2-0.1-3.3,0.2c-4.9,0.9-9.9,2.1-14.2,4.6c-1,0.6-1.9,1.2-2.8,1.9c-3.1,2.3-5.4,5.7-6.4,9.5
	c-1,4.2-0.1,8.6-1.1,12.8c-0.8,3.4-2.9,6.4-4.9,9.3L775,442.8c-2.6,4-5.5,7.7-8.7,11.3C760,461,748.3,466.2,748.1,475.5z"/>
<path class="st12" d="M779.5,314.4c-0.5-2.3-0.8-4.7-2.1-6.7c-0.9-1.2-1.9-2.3-3.1-3.3c-1.9-1.8-4.2-3.2-6.7-4.2
	c-2.5-0.9-5.3-0.6-7.6,0.9c-2.1,1.6-3,4.3-3.3,7c-0.6,3.6,0.1,7.3,1.8,10.5c2,3.6,5.6,5.9,8.6,8.8c2.2,2.1,4,4.4,5.6,7
	c0.7,1.3,1.6,2.6,2.5,3.7c1,1.1,2.5,1.7,4,1.6c1.2-0.3,2.4-1,3.3-1.9c1.2-1.1,4.5-3,4.6-4.7c0.1-1.4-2.5-4.5-3.1-5.8
	C782,323.3,780.5,318.9,779.5,314.4z"/>
<path class="st15" d="M694.8,593.6c3,5.6,6.3,11,9,16.8c1.6,3.4,2.9,6.8,4.7,10.1c1.9,3.6,4.3,6.9,6.3,10.4
	c5,8.9,7.8,18.9,10.4,28.8c7.2-1.1,14.2-3.5,20.5-7.2c0.4-0.2,0.8-0.5,1.2-0.8c1.7-1.2,3.1-2.8,4.1-4.6c-2.4-9-4.8-18.2-9.7-26.2
	c-1.6-2.6-3.4-5-5-7.6c-4.7-7.5-5.7-16.8-11.1-23.8c-1.1-1.4-1.1-3.4,0-4.8c0.6-0.8,1.6-1.6,1.4-2.6c-0.1-0.7-0.9-1.4-0.6-2.1
	c0.1-0.3,0.5-0.5,0.7-0.8c0.9-0.8,0.8-2.3,0.9-3.5c0.2-3.2,2.1-5.9,3.9-8.5c0.4-0.6,0.9-1.1,1.4-1.5c0.5-0.3,1.1-0.4,1.6-0.7
	c1.7-1.1,1.6-3.6,2.4-5.5c1.1-2.5,3.8-3.7,5.6-5.7c2.3-2.5,2.8-6.1,5.2-8.3c0.2-0.2,0.5-0.4,0.8-0.6c-1,3.8-1.5,7.7-1.4,11.6
	c-0.2,13.4,3.1,27.3,1.6,40.7c-1.2,10.6,5.3,21.1,14.5,26.4c3.6,1.9,7.4,3.5,11.3,4.8c5.8,2,11.6,4.2,17.2,6.5c4,1.7,8,3.5,11.9,5.4
	c4.8,2.3,9.5,4.9,14,7.8c5.6,3.5,11.2,7.1,15.1,12.4c3.8-0.1,7.3-2.4,9.8-5.4s3.9-6.6,5.3-10.1c1.2-3.1,2.5-6.2,2.5-9.5
	c0-0.7-0.4-1.4-1.1-1.7l-26.5-14l-5-2.6c-10.8-5.8-22-11.1-32.9-16.8c-0.7,0.2-1.3-0.6-1.5-1.3s-0.4-1.6-1-1.9
	c-0.3-0.2-0.8-0.2-1-0.4c-0.2-0.3-0.2-0.6-0.2-0.9c0.3-5.2,4.1-10.1,3.4-15.3c-0.3-2.2-1.5-4.4-1-6.6c0.3-1.5,1.4-2.7,2-4.2
	c1.3-3.2,0-7,1.4-10.2c0.9-2.1,1.6-4.2,1.9-6.5c0.7-4.5,2-8.8,4-12.8c1-2.1,2.2-4,3.7-5.6c0.8-0.8,1.7-1.6,2.4-2.5
	c2.3-2.7,3.2-6.4,3.8-9.9c1.2-6.4,2-13,0.5-19.3c-0.5-2.2-1.3-4.3-1.2-6.5c0-2.9,1.3-6.3-0.7-8.4c-0.9-0.8-1.9-1.3-3-1.5
	c-4.7-1.3-9.5-2.2-14.3-2.7l-22.1-2.9c-2.5-0.2-5-0.8-7.3-1.9c-3-1.7-5-4.7-6.2-7.9c-3.9,2.8-5.3,8.1-8.4,11.8
	c-1.5,1.8-3.4,3.2-5,4.9c-2,2.1-3.9,4.4-5.5,6.8c-4.6,6.3-9.3,12.7-12.5,19.8c-1.7,3.7-3,7.5-4.4,11.4
	c-5.4,15.1-14.2,29.4-17.8,44.9c-0.9,3.8-3.2,7.2-3.6,11.1C690.9,586,692.8,590,694.8,593.6z"/>
<path class="st5" d="M810.5,468.5c0.5,1,0.8,2.1,0.8,3.3c-0.5-2.4-3.8-3.8-4.1-6.2c-0.1-1.1,0.1-1.1,0.8-0.5
	C809.1,466,809.6,467.6,810.5,468.5z"/>
<path class="st5" d="M800.3,475.9c0.7,0.6,1.2,1.4,1.5,2.3c0.6,1.2,0.7,2.6,0.3,3.9c-0.5-0.2-0.7-0.8-0.8-1.4
	c-0.2-0.8-0.6-1.6-1-2.3c-0.4-0.6-2.2-2.1-2.2-2.8C798.1,474.6,799.8,475.6,800.3,475.9z"/>
<path class="st5" d="M799.1,394.4c1.6,1.3,3.3,2.5,5.1,3.4c4.8,2.4,10.1,3.7,14.9,6c2.4,1.2,4.7,2.5,6.9,4c4.8,3,9.5,6,14.3,9.1
	c1.1,0.7,2.2,1.5,3.2,2.4c1.7,1.8,1.7,5,3.3,7c1.8,2,4.3,3.2,6.9,3.2c2.6,0,5.2-0.4,7.7-1.3c1.5-0.4,3-1,4.4-1.6
	c1.5-0.6,2.9-1.4,4.2-2.4c2.6-1.9,4.4-4.7,5-7.9c0.2-2.2-0.1-4.4-0.8-6.4c-0.4-1.3-0.9-2.7-1.5-3.9c-0.4-0.7-0.8-1.4-1.2-2
	c-3.3-4.6-9.1-6.8-14.7-7.9c-3-0.6-6-0.9-8.9-1.4c-1.4,0.3-2.9,0.5-4.3,0.7c-4.5,0.3-9-0.9-13.4-2.1l-4.8-1.3
	c-2.4-0.7-3.6-3.5-6-4.1c-1.1-0.2-2.2-0.1-3.3,0.2c-4.9,0.9-9.9,2.1-14.2,4.6C800.9,393,800,393.6,799.1,394.4z"/>
<path class="st16" d="M787.5,330.4c0.6,5.8,5.5,10.1,8.5,15.1c1.5,2.5,2.5,5.1,3.8,7.7c1.5,2.8,3.2,5.4,5,8l5.3,7.8
	c3.2,4.6,6.3,9.2,10.3,13c7,1.2,12.9,6.4,19.5,8.9c5.3,2,11.1,2.3,16.7,3.4s11.4,3.3,14.7,7.9c1.2,1.8,2.2,3.9,2.7,6
	c0.7,2.1,1,4.3,0.8,6.4c-0.6,3.2-2.3,6-5,7.9c-2.6,1.8-5.6,3.2-8.7,4c-2.5,0.9-5.1,1.3-7.7,1.3c-2.7,0-5.2-1.2-6.9-3.2
	c-1.6-2-1.5-5.2-3.3-7c-0.9-0.9-2-1.7-3.2-2.4l-14.3-9c-2.2-1.5-4.5-2.8-6.9-4c-4.8-2.4-10.1-3.6-14.9-6s-9.2-6.4-10.2-11.7
	c-2.9-16.2-14.1-29.8-23.7-43.2c0.3-0.1,0.2-0.8,0.3-1.1c1.4-3.1,3.9-5.7,7-7.1C780.8,331.5,784.2,331.1,787.5,330.4z"/>
<path class="st15" d="M838,330.5c-0.2-1.8,0.2-3.5,1-5.1c1.6-2.6,4.9-3.6,7.9-4.2s5.8-1.1,8.7-1.5c2.4-0.5,4.8-0.5,7.2-0.1
	c3.3,0.7,6,2.9,9,4.3c3.6,1.6,7.6,2,11.4,2.9s7.8,2.4,10.2,5.5c1.8,2.4,2.6,5.4,3.1,8.4c4.6,24.6-0.3,49.9-1.3,74.9
	c-0.4,9.7,0.1,20.2,5.6,28.2l-16.2-0.4c-4.2-0.1-8.6-0.3-11.9-2.9c-2.9-2.3-4.2-5.9-5.5-9.3c-1.1-2.7-1.8-5.5-2.1-8.3
	c-0.3-5.9,3.1-11.7,2-17.4c-0.8-4.3-4-7.8-7.3-10.6s-7.1-5.3-9.8-8.8c-4.8-6.1-5.8-14.5-5.2-22.4c0.4-4.6,1.2-9.3,0.8-13.9
	c-0.2-3.6-1.5-7-3.7-9.8C839.6,336.8,838.2,334.8,838,330.5z"/>
<path class="st5" d="M839,325.4c1.6-2.6,4.8-3.5,7.8-4.1c-1.6,0.6-2.9,1.6-3.8,3c-0.8,1.6-1.2,3.3-1,5.1c0.2,4.4,1.6,6.3,4.2,9.4
	c2.2,2.8,3.5,6.2,3.7,9.8c0.4,4.6-0.4,9.3-0.8,13.9c-0.6,7.8,0.3,16.2,5.2,22.4c2.7,3.5,6.5,5.9,9.8,8.8s6.5,6.3,7.3,10.6
	c1.1,5.8-2.3,11.6-2,17.4c0.3,2.9,1,5.7,2.1,8.3c1.2,3.4,2.6,7.1,5.5,9.3c3.3,2.6,7.7,2.8,11.9,2.9l11.5,0.3
	c0.3,0.4,0.5,0.8,0.8,1.3l-16.2-0.4c-4.2-0.1-8.6-0.3-11.9-2.9c-2.9-2.3-4.2-5.9-5.5-9.3c-1.1-2.7-1.8-5.5-2.1-8.3
	c-0.3-5.9,3.1-11.7,2-17.4c-0.8-4.3-4-7.8-7.3-10.6s-7.1-5.3-9.8-8.8c-4.8-6.1-5.8-14.5-5.2-22.4c0.4-4.6,1.2-9.3,0.8-13.9
	c-0.2-3.6-1.5-7-3.7-9.8c-2.6-3.1-3.9-5-4.2-9.4C837.8,328.7,838.2,326.9,839,325.4z"/>
<path class="st5" d="M717.2,579.2l29.8,72.6c1.7-1.2,3.1-2.8,4.1-4.6c-2.4-9-4.8-18.2-9.7-26.2c-1.6-2.6-3.4-5-5-7.6
	c-4.7-7.5-5.7-16.8-11.1-23.8c-1.1-1.4-1.1-3.4,0-4.8c0.6-0.8,1.6-1.6,1.4-2.6c-0.1-0.7-0.9-1.4-0.6-2.1c0.1-0.3,0.5-0.5,0.7-0.8
	c0.9-0.8,0.8-2.3,0.9-3.5c0.2-3.2,2.1-5.9,3.9-8.5c0.4-0.6,0.9-1.1,1.4-1.5c0.5-0.3,1.1-0.4,1.6-0.7c1.7-1.1,1.6-3.6,2.4-5.5
	c1.1-2.5,3.8-3.7,5.6-5.7c2.3-2.5,2.8-6.1,5.2-8.3l0.2-0.5l-2.3-14L717.2,579.2z"/>
<ellipse class="st3" cx="977" cy="659.3" rx="34" ry="6.5"/>
<ellipse class="st2" cx="977.6" cy="656.6" rx="4" ry="5.2"/>
<ellipse class="st2" cx="977.6" cy="650.3" rx="4" ry="5.2"/>
<ellipse class="st2" cx="977.6" cy="643.9" rx="4" ry="5.2"/>
<ellipse class="st2" cx="977.6" cy="637.6" rx="4" ry="5.2"/>
<ellipse class="st2" cx="977.6" cy="631.3" rx="4" ry="5.2"/>
<ellipse class="st2" cx="977.6" cy="625" rx="4" ry="5.2"/>
<ellipse class="st2" cx="977.6" cy="618.6" rx="4" ry="5.2"/>
<path class="st3" d="M962.8,575.3c-0.5-0.7-1-1.4-1.5-2.2l10.4-1.7l-11.2,0.1c-2.2-4.7-2.3-10.2-0.4-15l15.1,7.8l-13.9-10.2
	c5.2-9.1,16.8-12.2,25.9-7c9.1,5.2,12.2,16.8,7,25.9c-0.5,0.8-1,1.6-1.6,2.4c0.8,1.1,1.6,2.2,2.2,3.5l-13.5,7l14.4-4.8
	c0.7,2,1,4,1,6.1c0,4.2-1.4,8.4-4.1,11.7c6.5,8.2,5,20.1-3.2,26.6s-20.1,5-26.6-3.2c-5.4-6.9-5.4-16.5,0-23.4
	C957.4,591.9,957.4,582.2,962.8,575.3L962.8,575.3z"/>
<path class="st5" d="M996.6,587c0,4.2-1.4,8.4-4.1,11.7c6.5,8.2,5,20.1-3.2,26.6s-20.1,5-26.6-3.2c-5.4-6.9-5.4-16.5,0-23.4
	C960.3,595.5,996.6,584.9,996.6,587z"/>
<ellipse class="st3" cx="1043.2" cy="586.8" rx="22.8" ry="4.4"/>
<ellipse class="st2" cx="1043.6" cy="585" rx="2.7" ry="3.5"/>
<ellipse class="st2" cx="1043.6" cy="580.7" rx="2.7" ry="3.5"/>
<ellipse class="st2" cx="1043.6" cy="576.5" rx="2.7" ry="3.5"/>
<ellipse class="st2" cx="1043.6" cy="572.2" rx="2.7" ry="3.5"/>
<ellipse class="st2" cx="1043.6" cy="568" rx="2.7" ry="3.5"/>
<ellipse class="st2" cx="1043.6" cy="563.7" rx="2.7" ry="3.5"/>
<ellipse class="st2" cx="1043.6" cy="559.5" rx="2.7" ry="3.5"/>
<path class="st3" d="M1033.6,530.4c-0.4-0.5-0.7-0.9-1-1.5l7-1.2l-7.6,0.1c-0.8-1.7-1.2-3.5-1.2-5.3c0-1.6,0.3-3.3,0.9-4.8l10.1,5.3
	l-9.3-6.9c3.5-6.1,11.2-8.3,17.4-4.8s8.3,11.2,4.8,17.4c-0.3,0.6-0.7,1.2-1.1,1.7c0.6,0.7,1.1,1.5,1.4,2.3l-9.1,4.7l9.7-3.3
	c1.4,4.1,0.6,8.6-2.1,12c4.4,5.5,3.4,13.5-2.1,17.9c-5.5,4.4-13.5,3.4-17.9-2.1c-3.7-4.6-3.7-11.2,0-15.8
	C1030,541.5,1030,535,1033.6,530.4L1033.6,530.4z"/>
<path class="st5" d="M1056.3,538.2c0,2.9-1,5.6-2.7,7.9c4.4,5.5,3.4,13.5-2.1,17.9c-5.5,4.4-13.5,3.4-17.9-2.1
	c-3.7-4.6-3.7-11.2,0-15.8C1031.9,543.9,1056.3,536.8,1056.3,538.2z"/>
</svg>
