<?xml version="1.0" encoding="utf-8"?>
<!-- Generator: Adobe Illustrator 23.0.1, SVG Export Plug-In . SVG Version: 6.00 Build 0)  -->
<svg version="1.1" id="a7414020-5bea-4f71-b338-a76fc53f6834"
	 xmlns="http://www.w3.org/2000/svg" xmlns:xlink="http://www.w3.org/1999/xlink" x="0px" y="0px" viewBox="0 0 1081.4 821.1"
	 style="enable-background:new 0 0 1081.4 821.1;" xml:space="preserve">
<style type="text/css">
	.st0{fill:#E9F5FF;}
	.st1{opacity:3.000000e-02;enable-background:new    ;}
	.st2{fill:#FEFEFE;}
	.st3{opacity:0.7;}
	.st4{fill:#FF6584;}
	.st5{opacity:0.1;fill:#6C63FF;enable-background:new    ;}
	.st6{fill:#41D6C3;}
	.st7{fill:#C0E0FF;}
	.st8{fill:#DCEFFF;}
	.st9{fill:url(#SVGID_1_);}
	.st10{fill:#A1616A;}
	.st11{opacity:0.1;enable-background:new    ;}
	.st12{fill:#5A5773;}
	.st13{fill:#605D82;}
	.st14{fill:#4A4347;}
	.st15{opacity:0.1;}
	.st16{fill:#5596E6;}
	.st17{fill:#FFD037;}
	.st18{fill:#A8A8A8;}
	.st19{opacity:0.2;enable-background:new    ;}
	.st20{fill:#F0F4F7;}
</style>
<title>preferences</title>
<path class="st0" d="M1002.8,583.4c-3.4,3-6.8,5.8-10.3,8.6c-0.6,0.5-1.2,1-1.8,1.4c-12.6,9.8-25.8,18.7-39.5,26.7
	c-15.8,9.3-32.2,17.8-48.9,25.8c-25.1,12.1-50.8,23-76.9,32.5l-1.2,0.4c-11.5,4.1-23.2,7.9-35,11.4l-0.2,0.1
	c-8.2,2.4-16.5,4.6-24.8,6.7l-1.1,0.3c-12.3,3-24.7,5.5-37.2,7.5l-2.9,0.5c-9.1,1.4-18.4,2.6-27.6,3.5c-52.1,5-104.9,0.9-156.7-6.1
	c-104.6-14.2-207.8-40.8-302-82.5c-35.9-15.8-70.6-34.1-103.9-54.8c-4.7-2.9-9.4-5.9-14.1-9c-0.7-0.5-1.5-1-2.2-1.5
	C70.5,524.2,29,486.8,9.7,439.6c-21.5-52.7-7.8-119.5,45.6-150.7c18.4-10.7,39.7-16.5,61.2-21.3l2.2-0.5c3.6-0.8,7.3-1.6,10.9-2.3
	c12.7-2.7,25.4-5.4,38.1-8.4l0,0c23.5-5.5,46.6-12.1,68.1-21.8c1.6-0.7,3.2-1.4,4.7-2.2c16.8-8,35.1-19.6,49-33.6
	c11.9-12.1,20.5-25.9,22-40.8l0,0c0.4-4.2,0.2-8.5-0.6-12.6c-1.5-7.9-2.9-15.6-4-23.2c-2-14.2-2.6-27.7,0.1-40.8l0,0
	c2.8-13.3,9.1-26.1,21.1-38.5c1.8-1.9,3.8-3.8,5.9-5.6c9.7-8.5,20.7-15.5,32.5-20.6c1.5-0.7,3-1.3,4.4-1.9
	c33-13.4,72.7-16.1,109.7-14.3c34.6,1.8,69,6.6,102.8,14.3c2.7,0.6,5.4,1.2,8,1.9c28.8,7,57.1,15.7,84.7,26.2
	c81.4,30.6,157.5,74.7,227.9,122.5l3.4,2.3c1.6,1.1,3.3,2.3,4.9,3.4c3.4,2.3,6.7,4.7,10.1,7c2.5,1.7,5,3.5,7.4,5.2l0,0l5.3,3.8
	l3.3,2.4c18,13,35.7,26.5,52.1,40.9l1.8,1.6c20,17.8,38.1,37.1,52.6,58.6C1106.5,381.8,1088.3,508.2,1002.8,583.4z"/>
<path class="st1" d="M992.4,14.8V592c-0.6,0.5-1.2,1-1.8,1.4c-12.6,9.8-25.8,18.7-39.5,26.7H236.7c-35.9-15.8-70.7-34.1-104-54.8
	c-4.7-2.9-9.4-5.9-14.1-9c-0.7-0.5-1.5-1-2.2-1.5v-540L992.4,14.8z"/>
<path class="st2" d="M990.7,16.7v576.8c-12.6,9.8-25.8,18.7-39.5,26.7H236.7c-35.9-15.8-70.7-34.1-104-54.8c-4.7-2.9-9.4-5.9-14.1-9
	V16.7H990.7z"/>
<g class="st3">
	<path class="st4" d="M781.1,233.9c-11.6,0-21,9.4-21,21s9.4,21,21,21s21-9.4,21-21l0,0C802.1,243.3,792.7,233.9,781.1,233.9z
		 M781.1,271.9c-9.4,0-17-7.6-17-17c0-1.9,0.3-3.8,1-5.6l0,0c3.1-8.9,12.7-13.6,21.6-10.5c8.9,3.1,13.6,12.7,10.5,21.6
		C794.8,267.3,788.3,271.9,781.1,271.9L781.1,271.9z"/>
	<path class="st4" d="M787.5,264l2.6-2.6c0.5-0.5,0.5-1.2,0-1.7c0,0,0,0,0,0l-4.8-4.8l4.8-4.8c0.5-0.5,0.5-1.2,0-1.7c0,0,0,0,0,0
		l-2.6-2.6c-0.5-0.5-1.2-0.5-1.7,0c0,0,0,0,0,0l-4.8,4.8l-4.8-4.8c-0.5-0.5-1.2-0.5-1.7,0c0,0,0,0,0,0l-2.6,2.7
		c-0.5,0.5-0.5,1.2,0,1.7c0,0,0,0,0,0l4.8,4.8l-4.8,4.8c-0.5,0.5-0.5,1.2,0,1.7c0,0,0,0,0,0l2.7,2.6c0.5,0.5,1.2,0.5,1.7,0
		c0,0,0,0,0,0l4.8-4.8l4.8,4.8C786.3,264.5,787.1,264.5,787.5,264z"/>
</g>
<path class="st5" d="M739.1,402.9L739.1,402.9c-1-5.5-4.3-10.4-8.9-13.5l0,0c-4.7-3.1-10.5-4.3-16-3.1l-0.6,0.1
	c-1.1,0.3-2.2,0.6-3.3,1.1c-10.7,4.6-15.6,17-11,27.7c2.1,5,6.1,8.9,11.1,11.1l0.6,0.2c10.8,4.2,23-1.1,27.2-11.9
	c1-2.4,1.4-5,1.4-7.7C739.5,405.5,739.4,404.2,739.1,402.9z M735.3,409.4C735.3,409.4,735.3,409.4,735.3,409.4v0.3
	c-1.6,9.3-10.3,15.5-19.6,13.9c-1.5-0.3-2.9-0.7-4.3-1.3c-0.2-0.1-0.4-0.2-0.6-0.3c-1.1-0.6-2.2-1.3-3.1-2.1c-7.2-6-8.1-16.8-2.1-24
	c1.2-1.5,2.7-2.7,4.3-3.7c1.1-0.6,2.2-1.1,3.4-1.5l0.6-0.2c9-2.5,18.4,2.7,21,11.8c0.4,1.5,0.6,3,0.6,4.5
	C735.5,407.7,735.4,408.5,735.3,409.4z"/>
<path class="st5" d="M724.9,415.9l2.7-2.6c0.5-0.5,0.5-1.2,0-1.7c0,0,0,0,0,0l-4.8-4.8l4.8-4.8c0.5-0.5,0.5-1.2,0-1.7c0,0,0,0,0,0
	l-2.7-2.6c-0.5-0.5-1.2-0.5-1.7,0c0,0,0,0,0,0l-4.8,4.8l-4.8-4.8c-0.5-0.5-1.2-0.5-1.7,0c0,0,0,0,0,0l-2.7,2.6
	c-0.5,0.5-0.5,1.2,0,1.7c0,0,0,0,0,0l4.8,4.8l-4.8,4.8c-0.5,0.5-0.5,1.2,0,1.7c0,0,0,0,0,0l2.7,2.6c0.5,0.5,1.2,0.5,1.7,0
	c0,0,0,0,0,0l4.8-4.8l4.8,4.8C723.7,416.4,724.4,416.4,724.9,415.9C724.9,416,724.9,415.9,724.9,415.9z"/>
<path class="st6" d="M677,95.9l-1.9-1.9c-0.4-0.4-1-0.4-1.4,0c0,0,0,0,0,0l-12,11.9l-5.1-5.1c-0.4-0.4-1-0.4-1.4,0c0,0,0,0,0,0
	l-1.9,1.9c-0.4,0.4-0.4,1,0,1.4c0,0,0,0,0,0l7.7,7.8c0.4,0.4,1,0.4,1.4,0c0,0,0,0,0,0L677,97.3C677.4,97,677.4,96.3,677,95.9
	C677,95.9,677,95.9,677,95.9z M677,95.9l-1.9-1.9c-0.4-0.4-1-0.4-1.4,0c0,0,0,0,0,0l-12,11.9l-5.1-5.1c-0.4-0.4-1-0.4-1.4,0
	c0,0,0,0,0,0l-1.9,1.9c-0.4,0.4-0.4,1,0,1.4c0,0,0,0,0,0l7.7,7.8c0.4,0.4,1,0.4,1.4,0c0,0,0,0,0,0L677,97.3
	C677.4,97,677.4,96.3,677,95.9C677,95.9,677,95.9,677,95.9z M677,95.9l-1.9-1.9c-0.4-0.4-1-0.4-1.4,0c0,0,0,0,0,0l-12,11.9l-5.1-5.1
	c-0.4-0.4-1-0.4-1.4,0c0,0,0,0,0,0l-1.9,1.9c-0.4,0.4-0.4,1,0,1.4c0,0,0,0,0,0l7.7,7.8c0.4,0.4,1,0.4,1.4,0c0,0,0,0,0,0L677,97.3
	C677.4,97,677.4,96.3,677,95.9C677,95.9,677,95.9,677,95.9z M677,95.9l-1.9-1.9c-0.4-0.4-1-0.4-1.4,0c0,0,0,0,0,0l-12,11.9l-5.1-5.1
	c-0.4-0.4-1-0.4-1.4,0c0,0,0,0,0,0l-1.9,1.9c-0.4,0.4-0.4,1,0,1.4c0,0,0,0,0,0l7.7,7.8c0.4,0.4,1,0.4,1.4,0c0,0,0,0,0,0L677,97.3
	C677.4,97,677.4,96.3,677,95.9C677,95.9,677,95.9,677,95.9z M665.1,80.8c-11.6,0-21,9.4-21,21s9.4,21,21,21s21-9.4,21-21
	S676.7,80.8,665.1,80.8C665.1,80.8,665.1,80.8,665.1,80.8z M665.1,118.8c-9.4,0-17-7.6-17-17s7.6-17,17-17s17,7.6,17,17
	C682.1,111.1,674.6,118.7,665.1,118.8C665.2,118.8,665.2,118.8,665.1,118.8L665.1,118.8z M677,95.9l-1.9-1.9c-0.4-0.4-1-0.4-1.4,0
	c0,0,0,0,0,0l-12,11.9l-5.1-5.1c-0.4-0.4-1-0.4-1.4,0c0,0,0,0,0,0l-1.9,1.9c-0.4,0.4-0.4,1,0,1.4c0,0,0,0,0,0l7.7,7.8
	c0.4,0.4,1,0.4,1.4,0c0,0,0,0,0,0L677,97.4C677.4,97,677.4,96.4,677,95.9C677.1,95.9,677,95.9,677,95.9L677,95.9z M677,95.9
	l-1.9-1.9c-0.4-0.4-1-0.4-1.4,0c0,0,0,0,0,0l-12,11.9l-5.1-5.1c-0.4-0.4-1-0.4-1.4,0c0,0,0,0,0,0l-1.9,1.9c-0.4,0.4-0.4,1,0,1.4
	c0,0,0,0,0,0l7.7,7.8c0.4,0.4,1,0.4,1.4,0c0,0,0,0,0,0L677,97.4C677.4,97,677.4,96.4,677,95.9C677.1,95.9,677,95.9,677,95.9
	L677,95.9z M677,95.9l-1.9-1.9c-0.4-0.4-1-0.4-1.4,0c0,0,0,0,0,0l-12,11.9l-5.1-5.1c-0.4-0.4-1-0.4-1.4,0c0,0,0,0,0,0l-1.9,1.9
	c-0.4,0.4-0.4,1,0,1.4c0,0,0,0,0,0l7.7,7.8c0.4,0.4,1,0.4,1.4,0c0,0,0,0,0,0L677,97.4C677.4,97,677.4,96.4,677,95.9
	C677.1,95.9,677,95.9,677,95.9L677,95.9z M677,95.9l-1.9-1.9c-0.4-0.4-1-0.4-1.4,0c0,0,0,0,0,0l-12,11.9l-5.1-5.1
	c-0.4-0.4-1-0.4-1.4,0c0,0,0,0,0,0l-1.9,1.9c-0.4,0.4-0.4,1,0,1.4c0,0,0,0,0,0l7.7,7.8c0.4,0.4,1,0.4,1.4,0c0,0,0,0,0,0L677,97.4
	C677.4,97,677.4,96.4,677,95.9C677.1,95.9,677,95.9,677,95.9L677,95.9z M677,95.9l-1.9-1.9c-0.4-0.4-1-0.4-1.4,0c0,0,0,0,0,0
	l-12,11.9l-5.1-5.1c-0.4-0.4-1-0.4-1.4,0c0,0,0,0,0,0l-1.9,1.9c-0.4,0.4-0.4,1,0,1.4c0,0,0,0,0,0l7.7,7.8c0.4,0.4,1,0.4,1.4,0
	c0,0,0,0,0,0L677,97.4C677.4,97,677.4,96.4,677,95.9C677.1,95.9,677,95.9,677,95.9L677,95.9z"/>
<path class="st5" d="M714.2,249l-1.9-1.9c-0.4-0.4-1-0.4-1.4,0c0,0,0,0,0,0l-12,11.9l-5.1-5.1c-0.4-0.4-1-0.4-1.4,0c0,0,0,0,0,0
	l-1.9,1.9c-0.4,0.4-0.4,1,0,1.4c0,0,0,0,0,0l7.7,7.8c0.4,0.4,1,0.4,1.4,0c0,0,0,0,0,0l14.6-14.5C714.6,250.1,714.6,249.5,714.2,249
	C714.2,249.1,714.2,249,714.2,249z M714.2,249l-1.9-1.9c-0.4-0.4-1-0.4-1.4,0c0,0,0,0,0,0l-12,11.9l-5.1-5.1c-0.4-0.4-1-0.4-1.4,0
	c0,0,0,0,0,0l-1.9,1.9c-0.4,0.4-0.4,1,0,1.4c0,0,0,0,0,0l7.7,7.8c0.4,0.4,1,0.4,1.4,0c0,0,0,0,0,0l14.6-14.5
	C714.6,250.1,714.6,249.5,714.2,249C714.2,249.1,714.2,249,714.2,249z M714.2,249l-1.9-1.9c-0.4-0.4-1-0.4-1.4,0c0,0,0,0,0,0
	l-12,11.9l-5.1-5.1c-0.4-0.4-1-0.4-1.4,0c0,0,0,0,0,0l-1.9,1.9c-0.4,0.4-0.4,1,0,1.4c0,0,0,0,0,0l7.7,7.8c0.4,0.4,1,0.4,1.4,0
	c0,0,0,0,0,0l14.6-14.5C714.6,250.1,714.6,249.5,714.2,249C714.2,249.1,714.2,249,714.2,249z M714.2,249l-1.9-1.9
	c-0.4-0.4-1-0.4-1.4,0c0,0,0,0,0,0l-12,11.9l-5.1-5.1c-0.4-0.4-1-0.4-1.4,0c0,0,0,0,0,0l-1.9,1.9c-0.4,0.4-0.4,1,0,1.4c0,0,0,0,0,0
	l7.7,7.8c0.4,0.4,1,0.4,1.4,0c0,0,0,0,0,0l14.6-14.5C714.6,250.1,714.6,249.5,714.2,249C714.2,249.1,714.2,249,714.2,249z
	 M702.3,233.9c-11.6,0-21,9.4-21,21s9.4,21,21,21s21-9.4,21-21l0,0C723.3,243.3,713.9,233.9,702.3,233.9L702.3,233.9z M702.3,271.9
	c-9.4,0-17-7.6-17-17s7.6-17,17-17s17,7.6,17,17l0,0C719.4,264.3,711.8,271.9,702.3,271.9C702.4,271.9,702.4,271.9,702.3,271.9
	L702.3,271.9z M714.2,249.1l-1.9-1.9c-0.4-0.4-1-0.4-1.4,0c0,0,0,0,0,0l-12,11.9l-5.1-5.1c-0.4-0.4-1-0.4-1.4,0c0,0,0,0,0,0
	l-1.9,1.9c-0.4,0.4-0.4,1,0,1.4c0,0,0,0,0,0l7.7,7.8c0.4,0.4,1,0.4,1.4,0c0,0,0,0,0,0l14.6-14.5
	C714.6,250.1,714.6,249.5,714.2,249.1C714.3,249.1,714.2,249.1,714.2,249.1L714.2,249.1z M714.2,249.1l-1.9-1.9
	c-0.4-0.4-1-0.4-1.4,0c0,0,0,0,0,0l-12,11.9l-5.1-5.1c-0.4-0.4-1-0.4-1.4,0c0,0,0,0,0,0l-1.9,1.9c-0.4,0.4-0.4,1,0,1.4c0,0,0,0,0,0
	l7.7,7.8c0.4,0.4,1,0.4,1.4,0c0,0,0,0,0,0l14.6-14.5C714.6,250.1,714.6,249.5,714.2,249.1C714.3,249.1,714.2,249.1,714.2,249.1
	L714.2,249.1z M714.2,249.1l-1.9-1.9c-0.4-0.4-1-0.4-1.4,0c0,0,0,0,0,0l-12,11.9l-5.1-5.1c-0.4-0.4-1-0.4-1.4,0c0,0,0,0,0,0
	l-1.9,1.9c-0.4,0.4-0.4,1,0,1.4c0,0,0,0,0,0l7.7,7.8c0.4,0.4,1,0.4,1.4,0c0,0,0,0,0,0l14.6-14.5
	C714.6,250.1,714.6,249.5,714.2,249.1C714.3,249.1,714.2,249.1,714.2,249.1L714.2,249.1z M714.2,249.1l-1.9-1.9
	c-0.4-0.4-1-0.4-1.4,0c0,0,0,0,0,0l-12,11.9l-5.1-5.1c-0.4-0.4-1-0.4-1.4,0c0,0,0,0,0,0l-1.9,1.9c-0.4,0.4-0.4,1,0,1.4c0,0,0,0,0,0
	l7.7,7.8c0.4,0.4,1,0.4,1.4,0c0,0,0,0,0,0l14.6-14.5C714.6,250.1,714.6,249.5,714.2,249.1C714.3,249.1,714.2,249.1,714.2,249.1
	L714.2,249.1z M714.2,249.1l-1.9-1.9c-0.4-0.4-1-0.4-1.4,0c0,0,0,0,0,0l-12,11.9l-5.1-5.1c-0.4-0.4-1-0.4-1.4,0c0,0,0,0,0,0
	l-1.9,1.9c-0.4,0.4-0.4,1,0,1.4c0,0,0,0,0,0l7.7,7.8c0.4,0.4,1,0.4,1.4,0c0,0,0,0,0,0l14.6-14.5
	C714.6,250.1,714.6,249.5,714.2,249.1C714.3,249.1,714.2,249.1,714.2,249.1L714.2,249.1z"/>
<path class="st6" d="M651.4,402.2l-1.9-1.9c-0.4-0.4-1-0.4-1.4,0c0,0,0,0,0,0l-12,11.9l-5.1-5.1c-0.4-0.4-1-0.4-1.4,0c0,0,0,0,0,0
	l-1.9,1.9c-0.4,0.4-0.4,1,0,1.4c0,0,0,0,0,0l7.7,7.8c0.4,0.4,1,0.4,1.4,0c0,0,0,0,0,0l14.6-14.5
	C651.7,403.2,651.8,402.6,651.4,402.2C651.4,402.2,651.4,402.2,651.4,402.2z M651.4,402.2l-1.9-1.9c-0.4-0.4-1-0.4-1.4,0
	c0,0,0,0,0,0l-12,11.9l-5.1-5.1c-0.4-0.4-1-0.4-1.4,0c0,0,0,0,0,0l-1.9,1.9c-0.4,0.4-0.4,1,0,1.4c0,0,0,0,0,0l7.7,7.8
	c0.4,0.4,1,0.4,1.4,0c0,0,0,0,0,0l14.6-14.5C651.7,403.2,651.8,402.6,651.4,402.2C651.4,402.2,651.4,402.2,651.4,402.2z
	 M651.4,402.2l-1.9-1.9c-0.4-0.4-1-0.4-1.4,0c0,0,0,0,0,0l-12,11.9l-5.1-5.1c-0.4-0.4-1-0.4-1.4,0c0,0,0,0,0,0l-1.9,1.9
	c-0.4,0.4-0.4,1,0,1.4c0,0,0,0,0,0l7.7,7.8c0.4,0.4,1,0.4,1.4,0c0,0,0,0,0,0l14.6-14.5C651.7,403.2,651.8,402.6,651.4,402.2
	C651.4,402.2,651.4,402.2,651.4,402.2z M651.4,402.2l-1.9-1.9c-0.4-0.4-1-0.4-1.4,0c0,0,0,0,0,0l-12,11.9l-5.1-5.1
	c-0.4-0.4-1-0.4-1.4,0c0,0,0,0,0,0l-1.9,1.9c-0.4,0.4-0.4,1,0,1.4c0,0,0,0,0,0l7.7,7.8c0.4,0.4,1,0.4,1.4,0c0,0,0,0,0,0l14.6-14.5
	C651.7,403.2,651.8,402.6,651.4,402.2C651.4,402.2,651.4,402.2,651.4,402.2z M639.5,387.1c-11.6,0-21,9.4-21,21s9.4,21,21,21
	s21-9.4,21-21l0,0C660.5,396.5,651.1,387.1,639.5,387.1L639.5,387.1z M639.5,425.1c-9.4,0-17-7.6-17-17s7.6-17,17-17s17,7.6,17,17
	l0,0c0,9.4-7.5,17-16.9,17C639.5,425.1,639.5,425.1,639.5,425.1L639.5,425.1z M651.4,402.2l-1.9-1.9c-0.4-0.4-1-0.4-1.4,0
	c0,0,0,0,0,0l-12,11.9l-5.1-5.1c-0.4-0.4-1-0.4-1.4,0c0,0,0,0,0,0l-1.9,1.9c-0.4,0.4-0.4,1,0,1.4c0,0,0,0,0,0l7.7,7.8
	c0.4,0.4,1,0.4,1.4,0c0,0,0,0,0,0l14.6-14.5C651.7,403.3,651.8,402.6,651.4,402.2C651.4,402.2,651.4,402.2,651.4,402.2L651.4,402.2z
	 M651.4,402.2l-1.9-1.9c-0.4-0.4-1-0.4-1.4,0c0,0,0,0,0,0l-12,11.9l-5.1-5.1c-0.4-0.4-1-0.4-1.4,0c0,0,0,0,0,0l-1.9,1.9
	c-0.4,0.4-0.4,1,0,1.4c0,0,0,0,0,0l7.7,7.8c0.4,0.4,1,0.4,1.4,0c0,0,0,0,0,0l14.6-14.5C651.7,403.3,651.8,402.6,651.4,402.2
	C651.4,402.2,651.4,402.2,651.4,402.2L651.4,402.2z M651.4,402.2l-1.9-1.9c-0.4-0.4-1-0.4-1.4,0c0,0,0,0,0,0l-12,11.9l-5.1-5.1
	c-0.4-0.4-1-0.4-1.4,0c0,0,0,0,0,0l-1.9,1.9c-0.4,0.4-0.4,1,0,1.4c0,0,0,0,0,0l7.7,7.8c0.4,0.4,1,0.4,1.4,0c0,0,0,0,0,0l14.6-14.5
	C651.7,403.3,651.8,402.6,651.4,402.2C651.4,402.2,651.4,402.2,651.4,402.2L651.4,402.2z M651.4,402.2l-1.9-1.9
	c-0.4-0.4-1-0.4-1.4,0c0,0,0,0,0,0l-12,11.9l-5.1-5.1c-0.4-0.4-1-0.4-1.4,0c0,0,0,0,0,0l-1.9,1.9c-0.4,0.4-0.4,1,0,1.4c0,0,0,0,0,0
	l7.7,7.8c0.4,0.4,1,0.4,1.4,0c0,0,0,0,0,0l14.6-14.5C651.7,403.3,651.8,402.6,651.4,402.2C651.4,402.2,651.4,402.2,651.4,402.2
	L651.4,402.2z M651.4,402.2l-1.9-1.9c-0.4-0.4-1-0.4-1.4,0c0,0,0,0,0,0l-12,11.9l-5.1-5.1c-0.4-0.4-1-0.4-1.4,0c0,0,0,0,0,0
	l-1.9,1.9c-0.4,0.4-0.4,1,0,1.4c0,0,0,0,0,0l7.7,7.8c0.4,0.4,1,0.4,1.4,0c0,0,0,0,0,0l14.6-14.5
	C651.7,403.3,651.8,402.6,651.4,402.2C651.4,402.2,651.4,402.2,651.4,402.2L651.4,402.2z"/>
<path class="st6" d="M611,555.3l-1.9-1.9c-0.4-0.4-1-0.4-1.4,0c0,0,0,0,0,0l-12,11.9l-5.1-5.1c-0.4-0.4-1-0.4-1.4,0c0,0,0,0,0,0
	l-1.9,1.9c-0.4,0.4-0.4,1,0,1.4c0,0,0,0,0,0l7.7,7.8c0.4,0.4,1,0.4,1.4,0c0,0,0,0,0,0l14.6-14.5C611.4,556.4,611.5,555.8,611,555.3
	C611.1,555.3,611.1,555.3,611,555.3z M611,555.3l-1.9-1.9c-0.4-0.4-1-0.4-1.4,0c0,0,0,0,0,0l-12,11.9l-5.1-5.1c-0.4-0.4-1-0.4-1.4,0
	c0,0,0,0,0,0l-1.9,1.9c-0.4,0.4-0.4,1,0,1.4c0,0,0,0,0,0l7.7,7.8c0.4,0.4,1,0.4,1.4,0c0,0,0,0,0,0l14.6-14.5
	C611.4,556.4,611.5,555.8,611,555.3C611.1,555.3,611.1,555.3,611,555.3z M611,555.3l-1.9-1.9c-0.4-0.4-1-0.4-1.4,0c0,0,0,0,0,0
	l-12,11.9l-5.1-5.1c-0.4-0.4-1-0.4-1.4,0c0,0,0,0,0,0l-1.9,1.9c-0.4,0.4-0.4,1,0,1.4c0,0,0,0,0,0l7.7,7.8c0.4,0.4,1,0.4,1.4,0
	c0,0,0,0,0,0l14.6-14.5C611.4,556.4,611.5,555.8,611,555.3C611.1,555.3,611.1,555.3,611,555.3z M611,555.3l-1.9-1.9
	c-0.4-0.4-1-0.4-1.4,0c0,0,0,0,0,0l-12,11.9l-5.1-5.1c-0.4-0.4-1-0.4-1.4,0c0,0,0,0,0,0l-1.9,1.9c-0.4,0.4-0.4,1,0,1.4c0,0,0,0,0,0
	l7.7,7.8c0.4,0.4,1,0.4,1.4,0c0,0,0,0,0,0l14.6-14.5C611.4,556.4,611.5,555.8,611,555.3C611.1,555.3,611.1,555.3,611,555.3z
	 M599.1,540.2c-11.6,0-21,9.4-21,21s9.4,21,21,21s21-9.4,21-21l0,0C620.1,549.6,610.7,540.2,599.1,540.2L599.1,540.2z M599.1,578.2
	c-9.4,0-17-7.6-17-17s7.6-17,17-17s17,7.6,17,17l0,0C616.1,570.6,608.5,578.2,599.1,578.2L599.1,578.2z M611,555.3l-1.9-1.9
	c-0.4-0.4-1-0.4-1.4,0c0,0,0,0,0,0l-12,11.9l-5.1-5.1c-0.4-0.4-1-0.4-1.4,0c0,0,0,0,0,0l-1.9,1.9c-0.4,0.4-0.4,1,0,1.4c0,0,0,0,0,0
	l7.7,7.8c0.4,0.4,1,0.4,1.4,0c0,0,0,0,0,0l14.6-14.5C611.4,556.4,611.5,555.8,611,555.3C611.1,555.4,611.1,555.3,611,555.3
	L611,555.3z M611,555.3l-1.9-1.9c-0.4-0.4-1-0.4-1.4,0c0,0,0,0,0,0l-12,11.9l-5.1-5.1c-0.4-0.4-1-0.4-1.4,0c0,0,0,0,0,0l-1.9,1.9
	c-0.4,0.4-0.4,1,0,1.4c0,0,0,0,0,0l7.7,7.8c0.4,0.4,1,0.4,1.4,0c0,0,0,0,0,0l14.6-14.5C611.4,556.4,611.5,555.8,611,555.3
	C611.1,555.4,611.1,555.3,611,555.3L611,555.3z M611,555.3l-1.9-1.9c-0.4-0.4-1-0.4-1.4,0c0,0,0,0,0,0l-12,11.9l-5.1-5.1
	c-0.4-0.4-1-0.4-1.4,0c0,0,0,0,0,0l-1.9,1.9c-0.4,0.4-0.4,1,0,1.4c0,0,0,0,0,0l7.7,7.8c0.4,0.4,1,0.4,1.4,0c0,0,0,0,0,0l14.6-14.5
	C611.4,556.4,611.5,555.8,611,555.3C611.1,555.4,611.1,555.3,611,555.3L611,555.3z M611,555.3l-1.9-1.9c-0.4-0.4-1-0.4-1.4,0
	c0,0,0,0,0,0l-12,11.9l-5.1-5.1c-0.4-0.4-1-0.4-1.4,0c0,0,0,0,0,0l-1.9,1.9c-0.4,0.4-0.4,1,0,1.4c0,0,0,0,0,0l7.7,7.8
	c0.4,0.4,1,0.4,1.4,0c0,0,0,0,0,0l14.6-14.5C611.4,556.4,611.5,555.8,611,555.3C611.1,555.4,611.1,555.3,611,555.3L611,555.3z
	 M611,555.3l-1.9-1.9c-0.4-0.4-1-0.4-1.4,0c0,0,0,0,0,0l-12,11.9l-5.1-5.1c-0.4-0.4-1-0.4-1.4,0c0,0,0,0,0,0l-1.9,1.9
	c-0.4,0.4-0.4,1,0,1.4c0,0,0,0,0,0l7.7,7.8c0.4,0.4,1,0.4,1.4,0c0,0,0,0,0,0l14.6-14.5C611.4,556.4,611.5,555.8,611,555.3
	C611.1,555.4,611.1,555.3,611,555.3L611,555.3z"/>
<path class="st6" d="M853.8,172.5l-1.9-1.9c-0.4-0.4-1-0.4-1.4,0c0,0,0,0,0,0l-6.2,6.2L842,179l0,0l-0.2,0.2l0,0l-1.2,1.2l0,0
	l-2.1,2.1l-5.1-5.1c-0.4-0.4-1-0.4-1.4,0c0,0,0,0,0,0l-1.9,1.9c-0.4,0.4-0.4,1,0,1.4c0,0,0,0,0,0l7.3,7.3l0.4,0.4
	c0.2,0.2,0.4,0.3,0.6,0.3c0.3,0,0.6-0.1,0.8-0.3l6.1-6l2-2l6.6-6.5C854.3,173.5,854.3,172.9,853.8,172.5
	C853.9,172.5,853.9,172.5,853.8,172.5z M853.8,172.5l-1.9-1.9c-0.4-0.4-1-0.4-1.4,0c0,0,0,0,0,0l-6.2,6.2L842,179l0,0l-0.2,0.2l0,0
	l-1.2,1.2l0,0l-2.1,2.1l-5.1-5.1c-0.4-0.4-1-0.4-1.4,0c0,0,0,0,0,0l-1.9,1.9c-0.4,0.4-0.4,1,0,1.4c0,0,0,0,0,0l7.3,7.3l0.4,0.4
	c0.2,0.2,0.4,0.3,0.6,0.3c0.3,0,0.6-0.1,0.8-0.3l6.1-6l2-2l6.6-6.5C854.3,173.5,854.3,172.9,853.8,172.5
	C853.9,172.5,853.9,172.5,853.8,172.5z M853.8,172.5l-1.9-1.9c-0.4-0.4-1-0.4-1.4,0c0,0,0,0,0,0l-6.2,6.2L842,179l0,0l-0.2,0.2l0,0
	l-1.2,1.2l0,0l-2.1,2.1l-5.1-5.1c-0.4-0.4-1-0.4-1.4,0c0,0,0,0,0,0l-1.9,1.9c-0.4,0.4-0.4,1,0,1.4c0,0,0,0,0,0l7.3,7.3l0.4,0.4
	c0.2,0.2,0.4,0.3,0.6,0.3c0.3,0,0.6-0.1,0.8-0.3l6.1-6l2-2l6.6-6.5C854.3,173.5,854.3,172.9,853.8,172.5
	C853.9,172.5,853.9,172.5,853.8,172.5z M853.8,172.5l-1.9-1.9c-0.4-0.4-1-0.4-1.4,0c0,0,0,0,0,0l-6.2,6.2L842,179l0,0l-0.2,0.2l0,0
	l-1.2,1.2l0,0l-2.1,2.1l-5.1-5.1c-0.4-0.4-1-0.4-1.4,0c0,0,0,0,0,0l-1.9,1.9c-0.4,0.4-0.4,1,0,1.4c0,0,0,0,0,0l7.3,7.3l0.4,0.4
	c0.2,0.2,0.4,0.3,0.6,0.3c0.3,0,0.6-0.1,0.8-0.3l6.1-6l2-2l6.6-6.5C854.3,173.5,854.3,172.9,853.8,172.5
	C853.9,172.5,853.9,172.5,853.8,172.5z M842,157.4c-11.6-0.1-21.1,9.2-21.2,20.8c-0.1,9.1,5.7,17.2,14.3,20.1
	c0.2,0.1,0.4,0.2,0.7,0.2c4.6,1.4,9.5,1.3,14-0.5c1-0.4,2-0.9,3-1.5c10-5.9,13.3-18.8,7.5-28.7C856.4,161.3,849.4,157.3,842,157.4z
	 M849.4,193.6c-0.7,0.3-1.4,0.6-2.2,0.9c-3.2,1-6.6,1.1-9.8,0.2c-0.5-0.1-0.9-0.3-1.3-0.4c-8.8-3.3-13.3-13-10.1-21.8
	c3.3-8.8,13-13.3,21.8-10.1c8.8,3.3,13.3,13,10.1,21.8C856.4,188.3,853.3,191.7,849.4,193.6L849.4,193.6z M853.8,172.5l-1.9-1.9
	c-0.4-0.4-1-0.4-1.4,0c0,0,0,0,0,0l-6.2,6.2L842,179l0,0l-0.2,0.2l0,0l-1.2,1.2l0,0l-2.1,2.1l-5.1-5.1c-0.4-0.4-1-0.4-1.4,0
	c0,0,0,0,0,0l-1.9,1.9c-0.4,0.4-0.4,1,0,1.4c0,0,0,0,0,0l7.3,7.3l0.4,0.4c0.2,0.2,0.4,0.3,0.6,0.3c0.3,0,0.6-0.1,0.8-0.3l6.1-6l2-2
	l6.6-6.5C854.3,173.5,854.3,172.9,853.8,172.5C853.9,172.5,853.9,172.5,853.8,172.5z M853.8,172.5l-1.9-1.9c-0.4-0.4-1-0.4-1.4,0
	c0,0,0,0,0,0l-6.2,6.2L842,179l0,0l-0.2,0.2l0,0l-1.2,1.2l0,0l-2.1,2.1l-5.1-5.1c-0.4-0.4-1-0.4-1.4,0c0,0,0,0,0,0l-1.9,1.9
	c-0.4,0.4-0.4,1,0,1.4c0,0,0,0,0,0l7.3,7.3l0.4,0.4c0.2,0.2,0.4,0.3,0.6,0.3c0.3,0,0.6-0.1,0.8-0.3l6.1-6l2-2l6.6-6.5
	C854.3,173.5,854.3,172.9,853.8,172.5C853.9,172.5,853.9,172.5,853.8,172.5z M853.8,172.5l-1.9-1.9c-0.4-0.4-1-0.4-1.4,0
	c0,0,0,0,0,0l-6.2,6.2L842,179l0,0l-0.2,0.2l0,0l-1.2,1.2l0,0l-2.1,2.1l-5.1-5.1c-0.4-0.4-1-0.4-1.4,0c0,0,0,0,0,0l-1.9,1.9
	c-0.4,0.4-0.4,1,0,1.4c0,0,0,0,0,0l7.3,7.3l0.4,0.4c0.2,0.2,0.4,0.3,0.6,0.3c0.3,0,0.6-0.1,0.8-0.3l6.1-6l2-2l6.6-6.5
	C854.3,173.5,854.3,172.9,853.8,172.5C853.9,172.5,853.9,172.5,853.8,172.5z M853.8,172.5l-1.9-1.9c-0.4-0.4-1-0.4-1.4,0
	c0,0,0,0,0,0l-6.2,6.2L842,179l0,0l-0.2,0.2l0,0l-1.2,1.2l0,0l-2.1,2.1l-5.1-5.1c-0.4-0.4-1-0.4-1.4,0c0,0,0,0,0,0l-1.9,1.9
	c-0.4,0.4-0.4,1,0,1.4c0,0,0,0,0,0l7.3,7.3l0.4,0.4c0.2,0.2,0.4,0.3,0.6,0.3c0.3,0,0.6-0.1,0.8-0.3l6.1-6l2-2l6.6-6.5
	C854.3,173.5,854.3,172.9,853.8,172.5C853.9,172.5,853.9,172.5,853.8,172.5z M853.8,172.5l-1.9-1.9c-0.4-0.4-1-0.4-1.4,0
	c0,0,0,0,0,0l-6.2,6.2L842,179l0,0l-0.2,0.2l0,0l-1.2,1.2l0,0l-2.1,2.1l-5.1-5.1c-0.4-0.4-1-0.4-1.4,0c0,0,0,0,0,0l-1.9,1.9
	c-0.4,0.4-0.4,1,0,1.4c0,0,0,0,0,0l7.3,7.3l0.4,0.4c0.2,0.2,0.4,0.3,0.6,0.3c0.3,0,0.6-0.1,0.8-0.3l6.1-6l2-2l6.6-6.5
	C854.3,173.5,854.3,172.9,853.8,172.5C853.9,172.5,853.9,172.5,853.8,172.5z"/>
<path class="st7" d="M188,81.4h398.3c11.3,0,20.4,9.1,20.4,20.4v0c0,11.3-9.1,20.4-20.4,20.4H188c-11.3,0-20.4-9.1-20.4-20.4v0
	C167.6,90.6,176.7,81.4,188,81.4z"/>
<path class="st7" d="M188,158h576c11.3,0,20.4,9.1,20.4,20.4v0c0,11.3-9.1,20.4-20.4,20.4H188c-11.3,0-20.4-9.1-20.4-20.4v0
	C167.6,167.1,176.7,158,188,158z"/>
<path class="st8" d="M188,234.6h435.8c11.3,0,20.4,9.1,20.4,20.4l0,0c0,11.3-9.1,20.4-20.4,20.4H188c-11.3,0-20.4-9.1-20.4-20.4l0,0
	C167.6,243.7,176.7,234.6,188,234.6z"/>
<path class="st8" d="M188,311.1h576c11.3,0,20.4,9.1,20.4,20.4l0,0c0,11.3-9.1,20.4-20.4,20.4H188c-11.3,0-20.4-9.1-20.4-20.4l0,0
	C167.6,320.3,176.7,311.1,188,311.1z"/>
<path class="st7" d="M188,387.7h374.6c11.3,0,20.4,9.1,20.4,20.4l0,0c0,11.3-9.1,20.4-20.4,20.4H188c-11.3,0-20.4-9.1-20.4-20.4l0,0
	C167.6,396.8,176.7,387.7,188,387.7z"/>
<path class="st8" d="M188,464.3h576c11.3,0,20.4,9.1,20.4,20.4l0,0c0,11.3-9.1,20.4-20.4,20.4H188c-11.3,0-20.4-9.1-20.4-20.4l0,0
	C167.6,473.4,176.7,464.3,188,464.3z"/>
<path class="st8" d="M188,540.9h332.3c11.3,0,20.4,9.1,20.4,20.4l0,0c0,11.3-9.1,20.4-20.4,20.4H188c-11.3,0-20.4-9.1-20.4-20.4l0,0
	C167.6,550,176.7,540.9,188,540.9z"/>
<path class="st5" d="M744.4,80.8c-11.6,0-21,9.4-21,21c0,11.6,9.4,21,21,21s21-9.4,21-21c0,0,0,0,0,0
	C765.4,90.2,756,80.8,744.4,80.8z M744.4,118.8c-9.4,0-17-7.6-17-17s7.6-17,17-17s17,7.6,17,17C761.4,111.1,753.8,118.7,744.4,118.8
	C744.4,118.8,744.4,118.8,744.4,118.8L744.4,118.8z"/>
<path class="st5" d="M750.8,110.9l2.7-2.6c0.5-0.5,0.5-1.2,0-1.7c0,0,0,0,0,0l-4.8-4.8l4.8-4.8c0.5-0.5,0.5-1.2,0-1.7c0,0,0,0,0,0
	l-2.7-2.6c-0.5-0.5-1.2-0.5-1.7,0c0,0,0,0,0,0l-4.8,4.8l-4.8-4.8c-0.5-0.5-1.2-0.5-1.7,0c0,0,0,0,0,0l-2.6,2.6
	c-0.5,0.5-0.5,1.2,0,1.7c0,0,0,0,0,0l4.8,4.8l-4.8,4.8c-0.5,0.5-0.5,1.2,0,1.7c0,0,0,0,0,0l2.6,2.6c0.5,0.5,1.2,0.5,1.7,0
	c0,0,0,0,0,0l4.8-4.8l4.8,4.8C749.6,111.3,750.4,111.3,750.8,110.9C750.8,110.9,750.8,110.9,750.8,110.9z"/>
<path class="st5" d="M920.7,157.4c-11.6,0-21,9.4-21,21c0,11.6,9.4,21,21,21s21-9.4,21-21l0,0c0-11.6-9.3-21-20.9-21
	C920.8,157.3,920.7,157.3,920.7,157.4z M920.7,195.4c-9.4,0-17-7.6-17-17s7.6-17,17-17c9.4,0,17,7.6,17,17c0,3.1-0.8,6.1-2.4,8.8
	C932.2,192.2,926.6,195.3,920.7,195.4L920.7,195.4z"/>
<path class="st5" d="M927.1,187.5l2.7-2.6c0.5-0.5,0.5-1.2,0-1.7c0,0,0,0,0,0l-4.8-4.8l4.8-4.8c0.5-0.5,0.5-1.2,0-1.7c0,0,0,0,0,0
	l-2.7-2.6c-0.5-0.5-1.2-0.5-1.7,0c0,0,0,0,0,0l-4.8,4.8l-4.8-4.8c-0.5-0.5-1.2-0.5-1.7,0c0,0,0,0,0,0l-2.7,2.6
	c-0.5,0.5-0.5,1.2,0,1.7c0,0,0,0,0,0l4.8,4.8l-4.8,4.8c-0.5,0.5-0.5,1.2,0,1.7c0,0,0,0,0,0l2.7,2.6c0.4,0.5,1.2,0.5,1.6,0
	c0,0,0,0,0,0l4.8-4.8l4.8,4.8C925.9,187.9,926.7,187.9,927.1,187.5z"/>
<g class="st3">
	<path class="st4" d="M677.3,540.2c-11.6,0-21,9.4-21,21s9.4,21,21,21s21-9.4,21-21l0,0C698.3,549.6,688.9,540.2,677.3,540.2z
		 M677.3,578.2c-9.4,0-17-7.6-17-17s7.6-17,17-17s17,7.6,17,17l0,0C694.3,570.6,686.8,578.2,677.3,578.2
		C677.4,578.2,677.4,578.2,677.3,578.2L677.3,578.2z"/>
	<path class="st4" d="M683.8,570.3l2.6-2.6c0.5-0.5,0.5-1.2,0-1.7c0,0,0,0,0,0l-4.8-4.8l4.8-4.8c0.5-0.5,0.5-1.2,0-1.7c0,0,0,0,0,0
		l-2.6-2.7c-0.5-0.5-1.2-0.5-1.7,0c0,0,0,0,0,0l-4.8,4.8l-4.8-4.8c-0.5-0.5-1.2-0.5-1.7,0c0,0,0,0,0,0l-2.7,2.7
		c-0.5,0.5-0.5,1.2,0,1.7c0,0,0,0,0,0l4.8,4.8l-4.8,4.8c-0.5,0.5-0.5,1.2,0,1.7c0,0,0,0,0,0l2.7,2.6c0.4,0.5,1.2,0.5,1.6,0
		c0,0,0,0,0,0l4.8-4.8l4.8,4.8C682.6,570.8,683.3,570.8,683.8,570.3C683.8,570.3,683.8,570.3,683.8,570.3z"/>
</g>
<ellipse class="st0" cx="766.5" cy="809.3" rx="118.9" ry="5.8"/>
<linearGradient id="SVGID_1_" gradientUnits="userSpaceOnUse" x1="853.0325" y1="-32.5099" x2="853.0325" y2="605.8623" gradientTransform="matrix(1 0 0 -1 -59.31 782.57)">
	<stop  offset="0" style="stop-color:#808080;stop-opacity:0.25"/>
	<stop  offset="0.54" style="stop-color:#808080;stop-opacity:0.12"/>
	<stop  offset="1" style="stop-color:#808080;stop-opacity:0.1"/>
</linearGradient>
<path class="st9" d="M869.4,398.6c0,0-28.1-51.4-23.4-59.7s8.2-20.5,8.2-20.5s10.4-7.1,10.4-10s8.2-9.6,12.5-12.5s2.2-16.7,0-18.4
	s-5.6-7.5-5.6-7.5s3-8.4,0-10.9s0.4-5,0-7.5s0-11.7,0-11.7c-3.5-4.9-7.4-7.2-11.1-8l-0.3-1.3l-1.8-7.8c0,0,9-17.3-5.6-26.3
	c-1-0.6-2.1-1.2-3.2-1.7c0,0,0-0.4-0.1-1.1c-0.2-2.6-0.8-9-2.1-13.2c-0.8-2.4-1.8-4.1-3-3.7c-0.3,0.1-0.6,0.3-0.8,0.5
	c-0.6,0.5-1.1,1.2-1.5,1.8l0,0c0,0,0,0.1-0.1,0.1l0,0c-1.7,3-2.8,6.2-3.4,9.5c-0.4,2-0.8,4-1,6l0,0c-0.6,1.2-1.2,2.4-1.7,3.7
	c-1.8,4.6-3.8,12.5-0.1,18.4c3.2,5,7.5,11.9,10.6,16.9l0.1,0.2l0.2,0.3l-0.3,0.2l0,0.8l0.3,4.2l2.5,36.4c-0.7-0.2-1.5-0.4-2.2-0.5
	c-1.1-0.2-2.1-0.2-3.2-0.2c-2.1-8.3-7.9-16-9-24.7c-0.1-0.9-0.2-1.7-0.2-2.6c0.1-5.5,1.5-10.9,1.3-16.4c0-1,0-2-0.1-3l0,0
	c0-0.3,0-0.5-0.1-0.8c-1.1-8-6.1-15-13.4-18.6c-2.5-1.3-5.2-2.1-7.7-3.5c-5.6-3.2-9.3-8.9-14.4-12.8c-3.8-2.9-9.5-4.5-13.8-3
	c-2.3,0.3-4.5,0.8-6.7,1.4l0,0c-5.4,1.4-10.5,3.5-15.3,6.4c-0.7,0.4-1.3,0.8-1.9,1.3c-1.4,0.9-2.4,2.1-3.1,3.6
	c-0.4,1.2-0.6,2.6-0.5,3.9c0,1,0,1.9,0.1,2.9c-0.3,16-17.5,28.4-18.9,44c0,0.4-0.1,0.7-0.1,1.1c0,0.1,0,0.2,0,0.3c0,0.5,0,0.9,0,1.4
	l0,0c0,0.2,0,0.4,0,0.6s0,0.4,0,0.6c0.3,6.9,3.8,13.2,4.5,20c0.1,0.6,0.1,1.2,0.1,1.8c-0.1,3.1-0.7,6.2-1.8,9.2
	c-2.2,0.6-4.3,1.4-6.2,2.5c-5.2,3.4-14.7,9.2-18.2,20.3c-0.9,2.9-1.3,5.9-1.3,8.9c-0.1,10.7-1,21.3-2.9,31.9
	c-0.4,2.6-1.1,5.3-1.8,7.8c-0.1,0.2-0.1,0.5-0.1,0.8l-2.1,27l-0.4,4.8l-0.5,6.8c0,0,0.2,0.4,0.4,1.1c0.3,1,0.6,2.1,0.8,3.1
	c0.6,2.3,0.7,4.7,0.3,7c-0.2,1-0.7,1.9-1.5,2.6c-0.1,0.1-0.1,0.1-0.2,0.2c-0.6,0.8-1.1,3.3-1.6,6.9c-0.2,1.4-0.3,3-0.5,4.7
	c-1,10.6-1.6,26.6-2,39.8c-0.4,13-0.5,23.3-0.5,23.3c1.7,1.1,3.5,2,5.4,2.7c-0.1,0.3-0.3,0.7-0.4,1.1c-1.7,4.4-2.8,9-3.3,13.7
	c-0.8,9.8,1.9,20.8,15.6,26.4c0.9,0.4,1.8,0.7,2.7,0.9c3,0.8,5.2,0.6,6.8-0.4c0,0.6,0.1,1.2,0.1,1.7c0.1,2.4,0.3,4.7,0.3,6.5
	c0.4,11.7,3.3,32.2,3.3,32.2s1,8.4,0.1,10.9s0,12.5,0,12.5s3,5,0,7.5s-3.9,15-3,16.7c0,0.1,0,0.1,0,0.2c0.7,4.2-3.1,65.8-3.1,65.8
	s-3.5,9.4-6.3,19.2c-2.7,9.5-4.8,19.4-2.3,21.3c1.3,0.9,4.2,1.6,7.9,2.1c0,0.4-0.1,0.8-0.1,1.2c-0.4,4.4-0.9,9.2-1.8,10.4
	c-1.2,1.7-2.4,14.9-3,22l-0.1,0.8c-1.3,3-2.4,6.2-3.2,9.3c0,0-9.6,24-6.3,30.2c0.3,0.6,0.7,1.1,1.2,1.5l0,0c0.1,0.1,0.2,0.2,0.3,0.3
	c4.6,3.7,16.2,4.5,20.3,4.6l-0.2,5.9v0.2h5.5v-0.2c0-0.8,0.1-4.2,0.3-8.8c0-0.8,0.1-1.7,0.1-2.6c0-0.7,0.1-1.4,0.1-2.1
	c1.6-4.3,2.4-8.8,2.4-13.3c0-5.2,0.7-10.4,2.1-15.5c0.7-2.6,1.6-5.1,2.8-7.5c0,0,1.7-9-0.7-15.4c-0.5-1.3-1.1-2.4-2-3.5
	c0-0.2,0-0.4,0-0.6s0-0.5,0-0.7s0-0.4,0-0.6c-0.1-4.3,0.4-8.6,1.3-12.8c0-0.1,0-0.1,0-0.2c0.1-0.3,0.2-0.7,0.3-1l0.1-0.2l1.8,0.1
	c5.4,0.2,9.4,0.2,9.4,0.2s4.3-22.1,3.9-31.7c0-0.4,0-0.9,0-1.3c-0.2-9.5,2.6-22.5,2.6-22.5l3.5-33.8c0,0-1.7-5.9,0-10
	c1.1-2.6,3.3-7.4,4.8-10.7c0.7-1.5,1.3-2.7,1.5-3.3l0.1-0.3c-0.5-0.2-1.1-0.4-1.5-0.8l0,0c-1.4-0.9-2.7-2.8,1.5-5.5
	c6.5-4.2,4.3-14.6,4.3-14.6s-1.9-3.8,0.3-7.1s0-15.9,0-15.9c1.8-3.3,3.3-6.8,4.4-10.5c1.6-5,5.7-29.5,7.6-41.2c0.6-3.9,1-6.4,1-6.4
	l0.1,0.6l0.1,0.7l0,0l0.5,5.6l0.1,0.7l1,10.5c0,0,2,27.7,0.8,38.5c0,0.1,0,0.1,0,0.2c-0.1,1.1-0.3,2.2-0.7,3.3
	c-2.3,5.2-1.9,25.9-1.8,30.4c0,0.4,0,0.7,0,0.9s-1.6,4.1-1.2,7.1l0,0c0.1,0.8,0.4,1.5,0.8,2.1c0.6,1,0.9,2.1,0.8,3.3v0.1
	c0,0.5-0.1,1-0.1,1.4c-0.3,1.9-0.8,3.8-1.5,5.7c0,0-2.3,6.1-1.4,9.3l0,0c0.1,0.4,0.3,0.8,0.6,1.1c0.2,0.4,0.3,0.8,0.3,1.2
	c0,0,0,0.1,0,0.1c0.8,6.7-1.3,36.4-2.5,52.7c-0.5,6.4-0.9,10.7-0.9,10.7l-3.4,35.5l0.3,0.2c0.4,0.3,1.1,0.8,2.1,1.3c0,0,0,0,0,0.1
	l-0.2,1.1c-0.5,3.4-1.2,7.4-1.9,10.4c-0.1,0.2-0.1,0.5-0.2,0.7c-1.3,0.2-2.6,0.7-3.7,1.5c-7.3,12.9-4.1,23.2,0,26.2
	c1.2,0.8,1.9,3.2,2.5,6.1l1,12.9c0,0.5,0,1,0,1.5c0,0.4,0.1,0.8,0.2,1.2l0.3,3.9l0.4,5.4h3.3v-6.6h0.2c5.2,0.2,13.7,0.4,17.4,0.1
	h0.1c0.4,0,0.7-0.1,1-0.1c0.2,0,0.4-0.1,0.6-0.2c2-0.9,6.8-14.7,2.4-17.8s-5.3-12-5.3-12c-0.4-1.2-0.8-2.3-1.2-3.3
	c0-0.2,0-0.5,0-0.7c-0.1-4.3-0.1-8.9,0.5-11.5c0.7-2.8,1-8.6,1.1-13.7c0-0.4,0-0.8,0-1.2V742c0.8-0.2,1.5-0.4,2.2-0.7l0.2-0.1
	c1.3-0.6,2.6-1.3,3.7-2.2l12.1-54.3l1.3-6.3l7.3-35.8c0,0-2.6-12.5,0-14.6c1-0.8,1.2-4,1.2-7.8c-0.1-6.6-1.2-14.8-1.2-14.8
	s3.5-5.4,5.2-8.8s0-12.1,0-12.1l3.5-20c0,0,3.9-24,13.4-44c7-14.8,2.5-54.6-2-75.8c-0.1-0.5-0.2-1.1-0.4-1.6v-0.1
	c2.1-1.1,4.8-2.3,7.6-3.7l1.1-0.5c3.5-1.7,7.3-3.4,10.7-4.8l0.2-0.1c2.4-1.1,4.9-2,7.4-2.8c0.7-0.2,1.5-0.4,2.3-0.5
	C887.6,430.3,869.4,398.6,869.4,398.6z M734.1,466.6h1.8c-0.2,0.4-0.4,0.8-0.6,1.2c-0.1,0.2-0.2,0.5-0.3,0.7
	c-0.7,1.4-1.3,2.8-1.8,4.1c0.2-1.5,0.5-3.1,0.7-4.8C734,467.3,734,466.9,734.1,466.6z M729.2,492.6c0,0,0-0.1,0-0.1l-0.2-0.5
	c-0.1-0.3-0.2-0.6-0.3-1c0.6-0.2,1.3-0.4,1.9-0.6l0.1,0c0,0.1,0,0.2,0,0.3c0,0.5-0.1,0.9-0.2,1.4l0,0c0,0.1,0,0.1,0,0.2
	c0,0.4-0.1,0.7-0.1,1.1c-0.1,0.7-0.2,1.4-0.3,2.1c-0.2-0.6-0.4-1.3-0.6-1.9C729.4,493.3,729.3,492.9,729.2,492.6z"/>
<path class="st10" d="M859,238.3l-10.8,3.8l-3.9-6.5c-3-5-7.2-11.8-10.2-16.8c-5.4-8.8,1.7-22.1,1.7-22.1s1.2-13.3,5.8-17.5
	c4.6-4.2,5.8,17.5,5.8,17.5c18.3,8.3,8.5,27.9,8.5,27.9l1.8,7.8L859,238.3z"/>
<path class="st11" d="M859,238.3l-10.8,3.8l-3.9-6.5v-0.6c0,0,6.2-4.3,13.4-2.6L859,238.3z"/>
<path class="st12" d="M841.6,282.1l5.4-4.5l-2.7-41.2c0,0,14-9.6,24.4,5.4c0,0-0.4,9.2,0,11.7s-2.9,5,0,7.5s0,10.8,0,10.8
	s3.3,5.8,5.4,7.5s4.2,15.4,0,18.3s-12.1,9.6-12.1,12.5s-10,10-10,10l-8.8-11.7L841.6,282.1z"/>
<path class="st10" d="M724.6,532.3c-20.2-8.6-15.7-29.5-11.9-40c0.8-2.1,1.7-4.2,2.7-6.2l11.3-6.9c0,0,2.3,5.9,4.8,13.8
	C737.2,511.4,743.8,540.5,724.6,532.3z"/>
<path class="st10" d="M752.3,723.1c-1.4,2.7-2.4,5.5-3,8.4c-1,4.7-1.4,9.5-1.3,14.3c0.1,3.3,0.4,5.5,0.4,5.5L726,766.9
	c0,0,0.1-1.8,0.3-4.5c0.6-7.1,1.8-20.2,2.9-21.9c0.8-1.2,1.3-5.9,1.7-10.3s0.5-8.3,0.5-8.3S758.4,711.7,752.3,723.1z"/>
<path class="st10" d="M805.4,734.2c0,0,0,4.3-0.2,9.3s-0.5,10.9-1.1,13.7c-0.6,2.5-0.6,7.2-0.5,11.4c0.2,5,0.5,9.5,0.5,9.5
	s-23-21.7-20.6-23.4c0.6-0.5,1.3-2.3,1.8-4.8c0.7-3,1.3-7,1.8-10.4c0.6-4,0.9-7.3,0.9-7.3L805.4,734.2z"/>
<path class="st11" d="M752.3,723.1c-1.4,2.7-2.4,5.5-3,8.4c-6.2-0.2-12.3-0.6-18.4-1.4c0.3-4.3,0.5-8.3,0.5-8.3
	S758.4,711.7,752.3,723.1z"/>
<path class="st11" d="M805.4,734.2c0,0,0,4.3-0.2,9.3c-7.2,1.8-14.5-1.8-18.1-4c0.6-4,0.9-7.3,0.9-7.3L805.4,734.2z"/>
<path class="st13" d="M852.4,521.6c-9.2,20-12.9,43.7-12.9,43.7l-3.3,20c0,0,1.7,8.7,0,12.1s-5,8.7-5,8.7s2.5,20.4,0,22.5
	s0,14.6,0,14.6l-8.3,42l-11.7,54.1c-11.2,9.2-26.2-2.5-26.2-2.5l3.3-35.4c0,0,5-62,2.9-64.5s0.8-10.4,0.8-10.4s2.9-7.5,0.8-10.4
	s0.4-9.2,0.4-9.2s-0.8-25.4,1.7-31.2s0-41.9,0-41.9l-1-11.2l-0.6-6.2l-0.1-0.6c0,0-0.4,2.5-1,6.4c-1.8,11.8-5.8,36.1-7.3,41.1
	c-1.1,3.6-2.5,7.1-4.3,10.4c0,0,2.2,12.5,0,15.8s-0.3,7.1-0.3,7.1s2.1,10.4-4.2,14.6s0,6.2,0,6.2s-4.6,10-6.2,14.2s0,10,0,10
	l-3.3,33.7c0,0-2.9,14.2-2.5,23.7s-3.8,31.7-3.8,31.7s-32.1,0-37-3.8s8.3-40.4,8.3-40.4s3.8-64.1,2.9-65.8s0-14.2,2.9-16.7
	s0-7.5,0-7.5s-0.8-10,0-12.5s-0.1-10.8-0.1-10.8s-2.8-20.4-3.2-32.1s-2.5-37.9-2.5-37.9s2.2-16.2,2.5-23.9c0.1-2.8,1.4-6.4,3-9.7
	c1.8-3.8,3.9-7.4,6.2-10.9c0,0,98.7-29.1,102.8-26.2c1.1,0.8,2.7,6,4.3,13.6C854.8,467.1,859.1,506.8,852.4,521.6z"/>
<circle class="st10" cx="791.6" cy="238.3" r="28.7"/>
<path class="st11" d="M850.4,446c-3.3,1.7-5.5,2.9-5.5,2.9s-46.6,22.1-59.9,20.8c-10.3-1-36.5-0.4-47.9-0.1
	c1.8-3.8,3.9-7.4,6.2-10.9c0,0,98.7-29.1,102.8-26.2C847.3,433.2,848.9,438.4,850.4,446z"/>
<path class="st12" d="M771.6,284.2c0,0-26.7,4.2-32.9,8.3S720,304.6,720,321.7s-2.9,34.5-4.6,39.5s26.3,45.4,26.3,45.4l-10,61.2
	c0,0,40-1.2,53.3,0s59.9-20.8,59.9-20.8s27.5-14.6,33.3-15s-11.7-32.1-11.7-32.1s-27.1-51.2-22.5-59.5S852,320,852,320l-5-42.5
	c0,0-7.5-2.5-13.7,2.1s-27.5,2.1-27.5,2.1L771.6,284.2z"/>
<path class="st11" d="M726.5,358.3l-10.4,2.9l-2.9,39.1c0,0,3.8,10.4,0,13.7s-4.6,74.5-4.6,74.5s12.1,8.8,26.2,2.1
	c0,0-2.1-7.9,4.2-36.6s6.2-43.3,6.2-43.3s0-35.8,2.9-41.6s0-20.4,0-20.4s-5.8-7.9-5.4-10.8S726.5,358.3,726.5,358.3z"/>
<path class="st11" d="M731.5,493c-6.1,2.1-12.8,1.8-18.8-0.7c0.8-2.1,1.7-4.2,2.7-6.2l11.3-6.9C726.7,479.3,729,485.1,731.5,493z"/>
<path class="st12" d="M725.8,358.3l-10.4,2.9l-2.9,39.1c0,0,3.8,10.4,0,13.7s-4.6,74.5-4.6,74.5s12.1,8.8,26.2,2.1
	c0,0-2.1-7.9,4.2-36.6s6.3-43.3,6.3-43.3s0-35.8,2.9-41.6s0-20.4,0-20.4s-5.8-7.9-5.4-10.8S725.8,358.3,725.8,358.3z"/>
<path class="st11" d="M832.4,364.6c0,0-5.4,46.6-21.2,55.4C811.2,419.9,846.6,409.9,832.4,364.6z"/>
<path class="st11" d="M752.9,368.7c0,0,19.6,9.6,15,16.2S752.9,368.7,752.9,368.7z"/>
<path class="st11" d="M752.9,387.9c0,0,12.5,12.9,10,17.5S752.9,387.9,752.9,387.9z"/>
<path class="st11" d="M853.7,280.9c0,0,4.9,8.3,5.4,13.7S853.7,280.9,853.7,280.9z"/>
<path class="st11" d="M853.7,269.6c0,0,2.5-2.1,8.7,0S853.7,269.6,853.7,269.6z"/>
<path class="st11" d="M829.6,513c-10.3,1.5-20.8,0.1-30.5-3.9l-5.3,13.4l-0.6-6.2c0.8-5.2,2.5-10.8,5.8-12.2
	C799.2,504.1,810.7,513.3,829.6,513z"/>
<path class="st11" d="M744.2,530.5c0,0,25.6,5.3,32.8,4.4L744.2,530.5z"/>
<path class="st11" d="M746.9,537.2c0,0,10.9-0.5,16.4,1.7L746.9,537.2z"/>
<path class="st11" d="M748.1,541.7c5,1.1,10,1.7,15.1,2L748.1,541.7z"/>
<path class="st11" d="M747.5,599c0.5-0.3,21.9-5.3,24.5-1.7L747.5,599z"/>
<path class="st11" d="M747.5,605.6c0,0,18.6-2.2,19,0S747.5,605.6,747.5,605.6z"/>
<path class="st11" d="M747.5,611.5c0,0,19.8-4.1,22.2-3.1S747.5,611.5,747.5,611.5z"/>
<path class="st11" d="M748.4,751.4l-22.5,15.5c0,0,0.1-1.8,0.3-4.5c5-12.3,11.5-18.8,11.5-18.8c5.1-1.3,8.3-0.1,10.3,2.3
	C748.1,749.2,748.4,751.4,748.4,751.4z"/>
<path class="st12" d="M750.6,765.3c-3.2,7.2-4.8,15.1-4.7,23c0.1,6.5-1.5,12.9-4.8,18.5c-0.5,0.8-1,1.5-1.6,2.3
	c0,0-15.6-0.1-21.1-4.7c-0.6-0.5-1.1-1.1-1.5-1.7c-3.1-6.2,6.1-30.1,6.1-30.1c4.8-18.4,14.7-28.3,14.7-28.3
	C755.3,739.7,750.6,765.3,750.6,765.3z"/>
<path class="st11" d="M741.2,806.8c-0.5,0.8-1,1.5-1.6,2.3c0,0-15.6-0.1-21.1-4.7c2.7-8.9,11.3-35.8,15.3-31.3
	C737.6,777.4,740.2,798.1,741.2,806.8z"/>
<path class="st12" d="M739,774.8l-1.1,40.3h5.2c0,0,0.8-35.4,3.2-40.3S739,774.8,739,774.8z"/>
<path class="st11" d="M804.2,778.1c0,0-23-21.7-20.6-23.4c0.6-0.5,1.3-2.3,1.8-4.8c4.4-0.8,12,1.1,18.3,18.7
	C803.8,773.6,804.2,778.1,804.2,778.1z"/>
<path class="st12" d="M807.6,802.3c-0.2,0.1-0.4,0.1-0.5,0.2c-2.7,0.5-12.7,0.2-18.2,0c-2.1-0.1-3.8-1.8-3.8-3.9
	c0-1.5,0-3.3-0.1-5.3c-0.3-6.2-1-13.5-3.2-15.1c-3.9-3-7-13.2,0-26.1c0,0,13.4-10.2,23.1,20.6c0,0,0.9,8.8,5.2,11.9
	S809.5,801.4,807.6,802.3z"/>
<path class="st11" d="M807,802.4c-2.7,0.5-12.7,0.2-18.2,0c-2.1-0.1-3.8-1.8-3.8-3.9c0-1.5,0-3.3-0.1-5.3c1.7-7.5,4.1-15.1,7.3-16.9
	C792.1,776.3,801.6,775.3,807,802.4z"/>
<polygon class="st12" points="783.4,775.4 785.9,809 789.1,809 789.1,772.6 "/>
<path class="st11" d="M791.2,192.6c-9.1,0.7-17.9,3.5-25.6,8.2c-2,1.2-4,2.7-4.8,4.8c-0.7,1.9-0.4,4-0.4,6
	c0.3,17.2-18.9,30.3-18.3,47.5c0.2,6.8,3.7,13.2,4.3,20c1,11.4-5.7,21.8-12.1,31.2c6.6,0.4,13.2-1.8,18.3-6
	c6.8,22.7,7.7,46.7,2.6,69.8h9.2c0.9-0.1,1.8,0.1,2.7,0.3c0.8,0.4,1.5,0.9,2.1,1.6c8.6,8.6,14.4,21.2,11.1,32.9l19.6-7.4
	c4.7-1.8,9.5-3.5,13.5-6.5s7.5-7.1,8.4-12c0.5-3,0.4-6.6,2.8-8.3c1.2-0.7,2.5-1.1,3.9-1.4c5.4-1.9,7.8-8.1,8.9-13.7
	c1.3-6.9,1.8-13.9,1.3-20.9c-0.9-11.7-4.3-23.6-1.5-35c1.6-6.4,5.2-12.4,5.5-19c0.5-10.9-8.1-20.3-9.3-31.2
	c-0.9-7.6,1.8-15.2,1-22.8c-1-7.9-5.8-14.9-12.9-18.6c-2.4-1.2-5-2.1-7.4-3.4c-5.4-3.1-8.9-8.8-13.8-12.7s-13.1-5.4-16.8-0.3
	L791.2,192.6z"/>
<path class="st14" d="M791.2,191.3c-9.1,0.7-17.9,3.5-25.6,8.3c-2,1.2-4,2.7-4.8,4.9c-0.7,1.9-0.4,4-0.4,6
	c0.3,17.2-18.9,30.3-18.3,47.5c0.2,6.8,3.7,13.2,4.3,20c1,11.4-5.7,21.8-12.1,31.2c6.6,0.4,13.2-1.8,18.3-6
	c6.8,22.7,7.7,46.7,2.6,69.8h9.2c0.9-0.1,1.8,0.1,2.7,0.3c0.8,0.4,1.5,0.9,2.1,1.6c8.6,8.6,14.4,21.2,11.1,32.9l19.6-7.4
	c4.7-1.8,9.5-3.5,13.5-6.5s7.5-7.1,8.4-12c0.5-3,0.4-6.6,2.8-8.3c1.2-0.7,2.5-1.1,3.9-1.4c5.4-1.9,7.8-8.1,8.9-13.7
	c1.3-6.9,1.8-13.9,1.3-20.9c-0.9-11.7-4.3-23.6-1.5-35c1.6-6.4,5.2-12.4,5.5-19c0.5-10.9-8.1-20.3-9.3-31.2
	c-0.9-7.6,1.8-15.2,1-22.8c-1-7.9-5.8-14.9-12.9-18.6c-2.4-1.2-5-2.1-7.4-3.4c-5.4-3.1-8.9-8.8-13.8-12.7s-13.1-5.4-16.8-0.3
	L791.2,191.3z"/>
<g class="st15">
	<path d="M760.3,206.2c0,0.4-0.1,0.8-0.1,1.2C760.3,207,760.3,206.6,760.3,206.2z"/>
	<path d="M833.1,246.2c0.4-5.3,1.5-10.6,1.1-15.9C833.8,235.6,832.6,241,833.1,246.2z"/>
	<path d="M746.3,272.6c-0.6-6.2-3.5-12-4.2-18.2c-0.1,1.1-0.2,2.3-0.2,3.4c0.2,6.8,3.6,13.1,4.3,19.8
		C746.5,275.9,746.5,274.2,746.3,272.6z"/>
	<path d="M837,297.2c-0.9,4.1-1.3,8.3-1,12.4c0.1-2.4,0.4-4.8,1-7.2c1.6-6.4,5.2-12.4,5.5-19c0-1.2,0-2.4-0.2-3.5
		C841.6,285.9,838.5,291.4,837,297.2z"/>
	<path d="M752.5,297.8c-4.2,3.5-9.3,5.6-14.8,6c-1.1,1.8-2.3,3.5-3.5,5.2c6.6,0.4,13.2-1.8,18.3-6c3.6,12.1,5.6,24.7,5.8,37.4
		C758.6,325.9,756.6,311.6,752.5,297.8z"/>
	<path d="M837.2,353c-1.1,5.6-3.5,11.8-8.9,13.7c-1.3,0.3-2.6,0.8-3.9,1.4c-2.5,1.8-2.3,5.4-2.8,8.3c-0.9,4.9-4.3,9.1-8.4,12
		s-8.8,4.7-13.5,6.5l-18.7,7c-0.1,1.9-0.4,3.7-0.9,5.6l19.6-7.4c4.7-1.8,9.5-3.5,13.5-6.5s7.5-7.1,8.4-12c0.5-3,0.3-6.6,2.8-8.3
		c1.2-0.7,2.5-1.1,3.9-1.4c5.4-1.9,7.8-8.1,8.9-13.7c1.1-5.8,1.6-11.8,1.4-17.7C838.5,344.8,838,348.9,837.2,353z"/>
	<path d="M769.1,369.4c-0.6-0.7-1.3-1.2-2.1-1.6c-0.9-0.3-1.8-0.4-2.7-0.3h-8.2c-0.3,1.8-0.7,3.5-1,5.2h9.2c0.9-0.1,1.8,0.1,2.7,0.3
		c0.8,0.4,1.5,0.9,2.1,1.6c6.3,6.3,11.1,14.7,11.9,23.4C782,387.6,776.7,377,769.1,369.4z"/>
</g>
<path class="st11" d="M723.4,403.5c0,0,7.4-3.1,9.1,0S723.4,403.5,723.4,403.5z"/>
<path class="st11" d="M726,408.8c0,0,7.4-3.1,9.1,0S726,408.8,726,408.8z"/>
<path class="st16" d="M1002.9,747.5c0,0,5.5,7.2-2.5,18s-14.7,20-12,26.8c0,0,12.1-20.2,22-20.4S1013.7,759.6,1002.9,747.5z"/>
<path class="st11" d="M1002.9,747.5c0.5,0.7,0.9,1.5,1.1,2.3c9.6,11.3,14.8,21.8,5.5,22.1c-8.6,0.3-18.9,15.7-21.4,19.5
	c0.1,0.3,0.2,0.6,0.3,0.9c0,0,12.1-20.2,22-20.4S1013.7,759.6,1002.9,747.5z"/>
<path class="st17" d="M1013.1,756.6c0,2.5-0.3,4.6-0.6,4.6s-0.6-2-0.6-4.6s0.3-1.3,0.7-1.3S1013.1,754.1,1013.1,756.6z"/>
<path class="st17" d="M1016.6,759.7c-2.2,1.2-4.2,1.9-4.3,1.6s1.5-1.5,3.7-2.8s1.3-0.3,1.5,0S1018.8,758.5,1016.6,759.7z"/>
<path class="st16" d="M973.8,747.5c0,0-5.5,7.2,2.5,18s14.7,20,12,26.8c0,0-12.1-20.2-22-20.4S963,759.6,973.8,747.5z"/>
<path class="st11" d="M973.8,747.5c-0.5,0.7-0.9,1.5-1.1,2.3c-9.6,11.3-14.7,21.8-5.5,22.1c8.6,0.3,19,15.7,21.4,19.5
	c-0.1,0.3-0.2,0.6-0.3,0.9c0,0-12.1-20.2-22-20.4S963,759.6,973.8,747.5z"/>
<path class="st17" d="M963.6,756.6c0,2.5,0.3,4.6,0.6,4.6s0.6-2,0.6-4.6s-0.3-1.3-0.7-1.3S963.6,754.1,963.6,756.6z"/>
<path class="st17" d="M960.1,759.7c2.2,1.2,4.2,1.9,4.3,1.6s-1.5-1.5-3.7-2.8s-1.3-0.3-1.5,0S957.9,758.5,960.1,759.7z"/>
<path class="st18" d="M965.4,791.3c0,0,15.4-0.5,20-3.8s23.6-7.2,24.8-2s23.1,26.3,5.8,26.4c-17.3,0.1-40.3-2.7-44.9-5.5
	S965.4,791.3,965.4,791.3z"/>
<path class="st19" d="M1016.2,810.2c-17.3,0.1-40.3-2.7-44.9-5.5c-3.5-2.2-4.9-9.8-5.4-13.4h-0.5c0,0,1,12.4,5.6,15.2
	s27.6,5.7,44.9,5.5c5,0,6.7-1.8,6.6-4.5C1021.8,809.2,1019.9,810.2,1016.2,810.2z"/>
<rect x="118.6" y="16.7" class="st20" width="872" height="26.2"/>
<circle class="st2" cx="136.1" cy="29.8" r="5.6"/>
<circle class="st2" cx="153.1" cy="29.8" r="5.6"/>
<circle class="st2" cx="170.1" cy="29.8" r="5.6"/>
<path class="st6" d="M459.1,778.8c0,0-42.3-2.5-37.3,27.1c0,0-1,5.2,3.8,7.6c0,0,0.1-2.2,4.3-1.5c1.5,0.3,3.1,0.3,4.6,0.2
	c2.1-0.1,4-1,5.6-2.3l0,0c0,0,11.9-4.9,16.5-24.3c0,0,3.4-4.2,3.3-5.3l-7.1,3c0,0,2.4,5.1,0.5,9.4c0,0-0.2-9.2-1.6-9
	c-0.3,0-3.7,1.8-3.7,1.8s4.2,9,1,15.5c0,0,1.2-11-2.3-14.8l-5,2.9c0,0,4.9,9.3,1.6,16.8c0,0,0.9-11.6-2.6-16.1l-4.5,3.5
	c0,0,4.6,9.1,1.8,15.4c0,0-0.4-13.5-2.8-14.5c0,0-4,3.5-4.6,5c0,0,3.1,6.6,1.2,10.1c0,0-1.2-9-2.2-9c0,0-4,6-4.4,10
	c0,0,0.2-6.1,3.4-10.6c-2.3,0.4-4.4,1.5-6.1,3.1c0,0,0.6-4.2,7-4.6c0,0,3.3-4.5,4.1-4.8c0,0-6.4-0.5-10.3,1.2c0,0,3.4-4,11.5-2.2
	l4.5-3.7c0,0-8.4-1.2-12,0.1c0,0,4.1-3.5,13.2-1l4.9-2.9c0,0-7.2-1.5-11.5-1c0,0,4.5-2.4,12.9,0.2l3.5-1.6c0,0-5.3-1-6.8-1.2
	s-1.6-0.6-1.6-0.6c3.3-0.6,6.8-0.2,9.9,1.1C451.8,782,459.3,779.3,459.1,778.8z"/>
<ellipse class="st0" cx="430" cy="816.1" rx="29.9" ry="5.1"/>
<path class="st6" d="M385.1,780.4c0,0-23.8-1.4-21,15.3c-0.3,1.7,0.6,3.5,2.1,4.3c0,0,0-1.2,2.4-0.8c0.9,0.1,1.7,0.2,2.6,0.1
	c1.2-0.1,2.3-0.5,3.2-1.3l0,0c0,0,6.7-2.8,9.3-13.7c0,0,1.9-2.4,1.9-3l-4,1.7c0,0,1.4,2.9,0.3,5.3c0,0-0.1-5.2-0.9-5.1
	c-0.1,0-2.1,1-2.1,1s2.4,5.1,0.6,8.7c0,0,0.7-6.2-1.3-8.4l-2.8,1.7c0,0,2.8,5.2,0.9,9.5c0,0,0.5-6.5-1.5-9.1l-2.6,2
	c0,0,2.6,5.1,1,8.7c0,0-0.2-7.6-1.6-8.2c-1,0.8-1.8,1.8-2.6,2.8c0,0,1.8,3.7,0.7,5.7c0,0-0.7-5.1-1.2-5.1c0,0-2.2,3.4-2.5,5.7
	c0.1-2.1,0.8-4.2,1.9-6c-1.3,0.2-2.5,0.9-3.4,1.8c0,0,0.3-2.4,4-2.6c0,0,1.9-2.5,2.4-2.7c0,0-3.6-0.3-5.8,0.7c0,0,1.9-2.2,6.5-1.2
	l2.5-2.1c0,0-4.8-0.7-6.8,0.1c0,0,2.3-2,7.5-0.5l2.8-1.7c-2.1-0.5-4.3-0.7-6.5-0.6c0,0,2.5-1.4,7.3,0.1l2-0.9c0,0-3-0.6-3.8-0.7
	s-0.9-0.3-0.9-0.3c1.9-0.3,3.8-0.1,5.6,0.6C381,782.2,385.1,780.7,385.1,780.4z"/>
<ellipse class="st0" cx="368.6" cy="801.4" rx="16.9" ry="2.8"/>
<path class="st6" d="M430.4,745c0,0-28.8-1.7-25.4,18.4c-0.4,2.1,0.7,4.2,2.5,5.2c0,0,0-1.5,3-1c1,0.2,2.1,0.2,3.1,0.2
	c1.4-0.1,2.8-0.6,3.8-1.6l0,0c0,0,8.1-3.3,11.2-16.6c0,0,2.3-2.9,2.2-3.6l-4.9,2.1c0,0,1.7,3.5,0.4,6.4c0,0-0.2-6.3-1.1-6.1
	c-0.2,0-2.5,1.2-2.5,1.2s2.9,6.1,0.7,10.5c0,0,0.8-7.5-1.6-10.1l-3.4,2c0,0,3.3,6.3,1.1,11.5c0,0,0.6-7.9-1.8-11l-3.1,2.4
	c0,0,3.1,6.2,1.2,10.5c0,0-0.3-9.2-1.9-9.9c0,0-2.7,2.4-3.1,3.4c0,0,2.1,4.5,0.8,6.9c0,0-0.8-6.1-1.5-6.2c0,0-2.7,4.1-3,6.8
	c0.1-2.6,0.9-5.1,2.3-7.2c-1.6,0.3-3,1-4.1,2.2c0,0,0.4-2.9,4.8-3.1c0,0,2.2-3.1,2.8-3.3c0,0-4.4-0.4-7,0.8c0,0,2.3-2.7,7.8-1.5
	l3.1-2.5c0,0-5.7-0.8-8.2,0.1c0,0,2.8-2.4,9-0.6l3.3-2c0,0-4.9-1-7.8-0.7c0,0,3.1-1.7,8.8,0.1l2.4-1.1c0,0-3.6-0.7-4.6-0.8
	s-1.1-0.4-1.1-0.4c2.3-0.4,4.6-0.1,6.7,0.7C425.4,747.1,430.5,745.3,430.4,745z"/>
<ellipse class="st0" cx="410.6" cy="770.3" rx="20.4" ry="3.4"/>
<ellipse class="st0" cx="620.5" cy="771.8" rx="29.9" ry="5.1"/>
<path class="st18" d="M600.5,748.3c0,0,17.1-0.5,22.2-4.2s26.3-8,27.5-2.2s25.7,29.2,6.4,29.4s-44.8-3-49.9-6.1
	S600.5,748.3,600.5,748.3z"/>
<path class="st19" d="M656.9,769.2c-19.3,0.2-44.8-3-49.9-6.1c-3.9-2.4-5.5-10.9-6-14.9h-0.6c0,0,1.1,13.8,6.2,16.9
	s30.6,6.3,49.9,6.1c5.6,0,7.5-2,7.4-5C663.2,768.1,661.1,769.2,656.9,769.2z"/>
</svg>
