<?xml version="1.0" encoding="utf-8"?>
<!-- Generator: Adobe Illustrator 23.0.1, SVG Export Plug-In . SVG Version: 6.00 Build 0)  -->
<svg version="1.1" id="abd2d575-db47-4a01-ab9c-7ced98725eec"
	 xmlns="http://www.w3.org/2000/svg" xmlns:xlink="http://www.w3.org/1999/xlink" x="0px" y="0px" viewBox="0 0 1162 716.9"
	 style="enable-background:new 0 0 1162 716.9;" xml:space="preserve">
<style type="text/css">
	.st0{opacity:0.1;fill:#6C63FF;enable-background:new    ;}
	.st1{fill:#3F3D56;}
	.st2{fill:#41D6C3;}
	.st3{opacity:0.1;enable-background:new    ;}
	.st4{fill:#A1616A;}
	.st5{fill:#5596E6;}
	.st6{fill:#454B69;}
	.st7{fill:#FFFFFF;}
	.st8{opacity:0.1;}
	.st9{opacity:0.5;fill:#6C63FF;enable-background:new    ;}
</style>
<title>texting</title>
<path class="st0" d="M0,716.9h1123c0,0,98.4-127.4-17.4-258.4c-43-48.6-46.3-108.6-33.4-165C1107,141.1,967.7,6.3,816.5,45.9
	c-2.9,0.8-5.8,1.5-8.7,2.3C579.9,110.4,393.3,47.9,321.5,17C292.8,4.6,261.8-1.1,230.7,0.2c-80.6,3.6-202.7,34.6-89.3,205.6
	C301.3,446.9,0,716.9,0,716.9z"/>
<ellipse class="st1" cx="270.5" cy="666.4" rx="22.5" ry="29.5"/>
<ellipse class="st1" cx="270.5" cy="630.4" rx="22.5" ry="29.5"/>
<ellipse class="st1" cx="270.5" cy="594.4" rx="22.5" ry="29.5"/>
<ellipse class="st1" cx="270.5" cy="558.4" rx="22.5" ry="29.5"/>
<ellipse class="st1" cx="270.5" cy="522.4" rx="22.5" ry="29.5"/>
<ellipse class="st1" cx="270.5" cy="486.4" rx="22.5" ry="29.5"/>
<ellipse class="st1" cx="270.5" cy="450.4" rx="22.5" ry="29.5"/>
<ellipse class="st1" cx="457.5" cy="675.4" rx="12.5" ry="16.4"/>
<ellipse class="st1" cx="457.5" cy="655.4" rx="12.5" ry="16.4"/>
<ellipse class="st1" cx="457.5" cy="635.4" rx="12.5" ry="16.4"/>
<ellipse class="st1" cx="457.5" cy="615.4" rx="12.5" ry="16.4"/>
<ellipse class="st1" cx="457.5" cy="595.4" rx="12.5" ry="16.4"/>
<ellipse class="st1" cx="457.5" cy="575.4" rx="12.5" ry="16.4"/>
<ellipse class="st1" cx="457.5" cy="555.4" rx="12.5" ry="16.4"/>
<path class="st2" d="M354.7,204.1c3.1-3.9,5.9-8,8.4-12.3L304,182l63.9,0.5c12.4-27,13.1-57.9,2.1-85.4l-85.8,44.5l79.1-58.2
	C333.5,31.9,267.6,14.3,216,44.2s-69.1,95.8-39.3,147.3c2.6,4.4,5.4,8.6,8.6,12.6c-4.8,6.1-8.9,12.7-12.3,19.7l76.7,39.9l-81.8-27.5
	c-11.7,34.5-5.1,72.6,17.4,101.2c-36.8,46.8-28.7,114.5,18.1,151.3s114.5,28.7,151.3-18.1c30.7-39.1,30.7-94.2,0-133.2
	C385.5,298.2,385.5,243.2,354.7,204.1L354.7,204.1z"/>
<path class="st3" d="M162.2,270.7c0,24.2,8.1,47.7,23.1,66.6c-36.8,46.8-28.7,114.5,18.1,151.3s114.5,28.7,151.3-18.1
	c30.7-39.1,30.7-94.2,0-133.2C369.2,319,162.2,258.6,162.2,270.7z"/>
<path class="st2" d="M401.3,374c-2.1-2.6-3.9-5.4-5.6-8.2l39.4-6.5l-42.6,0.3c-8.3-18-8.8-38.6-1.4-56.9l57.2,29.7l-52.7-38.8
	c19.9-34.3,63.9-46,98.2-26.1c34.3,19.9,46,63.9,26.1,98.2c-1.7,2.9-3.6,5.7-5.6,8.3c3.2,4.1,5.9,8.5,8.2,13.1l-51.2,26.6l54.6-18.3
	c7.8,23,3.4,48.4-11.6,67.5c24.5,31.2,19.1,76.4-12.1,100.9c-31.2,24.5-76.4,19.1-100.9-12.1c-20.5-26.1-20.5-62.7,0-88.8
	C380.7,436.8,380.7,400.1,401.3,374L401.3,374z"/>
<path class="st3" d="M529.6,418.4c0,16.1-5.4,31.8-15.4,44.4c24.5,31.2,19.1,76.4-12.1,100.9c-31.2,24.5-76.4,19.1-100.9-12.1
	c-20.5-26.1-20.5-62.7,0-88.8C391.6,450.7,529.6,410.4,529.6,418.4z"/>
<path class="st1" d="M0,716.9c0,0,120.5-117,162.2-77.6s217.9,49.8,234.1,47.5s111.3-7,164.6-1.2s542.3-16.2,562,31.3H0z"/>
<path class="st0" d="M781.1,144.4h-54.2c1.3-1.6,2-3.7,2-5.8c0-1.2-0.2-2.4-0.7-3.5h25c5.1,0,9.3-4.2,9.3-9.3c0-5.1-4.1-9.3-9.3-9.3
	H603.8c-5.1,0-9.3,4.2-9.3,9.3c0,1.2,0.2,2.4,0.7,3.5h-25c-5.1,0.2-9.1,4.5-9,9.6c0.2,4.9,4.1,8.8,9,9h54.2c-1.3,1.6-2,3.7-2,5.8
	c0,5.1,4.2,9.3,9.3,9.3h149.4c5.1,0,9.3-4.2,9.3-9.3S786.2,144.4,781.1,144.4z"/>
<path class="st0" d="M1025.6,277.7h-54.2c1.3-1.6,2-3.7,2-5.8c0-1.2-0.2-2.4-0.7-3.5h25c5.1,0,9.3-4.2,9.3-9.3
	c0-5.1-4.2-9.3-9.3-9.3l0,0H848.3c-5.1,0-9.3,4.2-9.3,9.3c0,1.2,0.2,2.4,0.7,3.5h-25c-5.1,0.2-9.1,4.5-9,9.6c0.2,4.9,4.1,8.8,9,9
	h54.2c-1.3,1.6-2,3.7-2,5.8c0,5.1,4.2,9.3,9.3,9.3h149.4c5.1,0,9.3-4.2,9.3-9.3C1034.9,281.8,1030.7,277.7,1025.6,277.7
	L1025.6,277.7L1025.6,277.7z"/>
<path class="st0" d="M536.9,221.3h-31.8c0.8-1,1.2-2.2,1.2-3.4c0-0.7-0.1-1.4-0.4-2h14.7c3,0,5.4-2.4,5.4-5.4c0-3-2.4-5.4-5.4-5.4
	H433c-3,0-5.4,2.4-5.4,5.4c0,0.7,0.1,1.4,0.4,2h-14.6c-3,0-5.4,2.4-5.4,5.4s2.4,5.4,5.4,5.4c0,0,0,0,0,0h31.8
	c-0.8,1-1.2,2.2-1.2,3.4c0,3,2.4,5.4,5.4,5.4h87.6c3-0.1,5.3-2.7,5.2-5.7C542,223.7,539.7,221.4,536.9,221.3z"/>
<path class="st4" d="M689.5,664c-0.3,2.1-0.9,4.1-1.7,6c3.4,1.3,7,2.1,10.6,2.5c0.2,0,0.5,0,0.7-0.1c0.3-0.2,0.2-0.6,0.2-1
	c-0.1-2,0.3-3.9,1.1-5.8c2-5.6,4-11.1,5.9-16.7c-3.5-1.6-10.6-0.6-13.5,2C690,653.3,690.1,660.6,689.5,664z"/>
<path class="st4" d="M739.1,673.3c-0.1,0.2-0.2,0.5-0.2,0.7c0,0.9,1.2,1.2,2.1,1.3c4.3,0.4,8.5,1.3,12.6,2.6
	c0.5-1.5-0.2-3.1-0.2-4.6c0-2.2,1.3-4.1,2.1-6.1c1.4-3.5,1.3-7.5,1.2-11.3c-3.4,0.2-11.6-1.3-13.5,2.2c-1.1,2-1,5-1.5,7.2
	C741,668.1,740.1,670.7,739.1,673.3z"/>
<path class="st1" d="M718.8,519.6l-9,0.5c-0.6,0-1.2,0.1-1.6,0.5c-0.4,0.4-0.6,1-0.6,1.6c-1.2,9,0.9,18.2-0.2,27.2
	c-0.5,3.5-1.4,7-2.1,10.5c-1.2,5.8-1.9,11.7-2.6,17.6c-0.4,2.9-0.6,5.9-0.3,8.8c0.3,2.5,1,4.9,1.1,7.4c0,2.9-0.5,5.9-1.5,8.6
	c-1.5,4.8-3.4,9.4-5.6,13.9c-1.9,3.9-4.1,7.6-5.3,11.8c-1.9,6.6-1,13.8-3.2,20.3c-0.5,1.6-1.3,3.3-1,4.9c0.4,2.2,2.5,3.7,4.6,4.1
	c2.2,0.3,4.4,0.1,6.5-0.5c3.5-0.8,7.2-1.6,9.7-4.2c1.4-1.7,2.5-3.7,3.2-5.8c1.6-4,3.3-8.1,4.7-12.1c0.6-1.9,1.4-3.8,2.3-5.7
	c0.8-1.6,1.8-3,2.7-4.6c1.4-2.7,2.6-5.5,3.5-8.4c6.4-19.7,8.4-41,18.1-59.3c0.5-0.9,0.5-2,1-2.8c0.9,3,1.4,6.1,1.3,9.2
	c0.2,7.1,0,14.2-0.5,21.3c-0.4,5.2-1,10.3-1.1,15.5c0,2.4,0,4.7,0,7.1v1.9c0.1,3.4,0.2,6.7,0.5,10.1c1.4,13.8-3,27.3-1.4,41.1
	c0,0.5,0.2,1,0.5,1.4c0.7,0.7,1.9,0.3,2.8-0.1c3-1.3,6.2-2.1,9.5-2.4c1,0,2-0.2,2.9-0.6c1.4-0.9,1.8-2.7,2.1-4.4
	c2.2-13.5,4.4-26.9,6.5-40.4c0.6-3.2,1-6.5,1.2-9.7c0.3-4.2-0.1-8.5,0.3-12.7c0.6-6,3-11.7,4.8-17.4c0.9-3,1.9-6,2.8-9
	s1.7-6.1,2.3-9.2c1.2-5.4,2.1-10.9,1.3-16.3s-3.7-10.8-8.5-13.4c-3.5-1.9-7.7-2.2-11.7-2.7c-11.4-1.3-22.7-4-34.2-3
	C722.7,520.5,720.8,519.5,718.8,519.6z"/>
<path class="st1" d="M693.5,703.2c0.6-0.9,1.1-1.9,1.4-3l3.7-10c1.2-3,2.2-6,3-9.1c0.9-3.7,1.3-7.5,1.2-11.3
	c-3.8,0-7.5-0.5-11.1-1.6c-1.4-0.5-2.8-0.8-4.2-0.9c-4.1,0.1-7.2,3.5-7.1,7.5c0,0.1,0,0.2,0,0.2c0.1,0.6,0.2,1.2,0.2,1.8
	c-0.1,0.6-0.3,1.2-0.5,1.8l-3.9,9.6c-1.1,2.3-1.8,4.8-2,7.4C673.8,704.6,687.8,711.3,693.5,703.2z"/>
<path class="st1" d="M731.5,702.3c-0.2,1.5-0.2,3,0,4.5c0.8,4.2,4.9,7.4,9.2,7.7c4.4,0.1,8.6-1.9,11.1-5.5c0.8-1.1,1.4-2.3,1.8-3.5
	c0.3-1.2,0.5-2.5,0.6-3.8l1.6-16.8c0.2-2.4,1.2-5.8,0-8c-1-1.9-3.4-2.5-5.3-3.2c-3.1-1.3-6.5-1.8-9.8-1.5c-5.8,0.5-5.8,6.4-6.7,11.2
	C732.9,689.7,732.1,696,731.5,702.3z"/>
<path class="st1" d="M733.2,360.5c-2.7,3.8-6.6,6.5-9.3,10.4c-2.4,3.5-3.6,7.6-3.4,11.9c0.1,2.2,0.5,4.4,0,6.5
	c-0.5,1.6-1.4,3.1-2.6,4.3c-4.4,5.1-10,8.9-16.4,10.9c-0.8,0.2-1.7,0.8-1.5,1.5c0.1,0.3,0.4,0.6,0.7,0.8l13,9.3
	c7.6,5.5,15.3,11,23.7,15.1c15.1,7.3,31.9,10,48.5,7.6c-2.1-3.3-3.4-7.1-3.8-11c-0.5-4.7,0.3-9.4,0.3-14.2c-0.1-4.8-1.1-9.6-3-14
	c-1.1-2.6-2.5-5-3.4-7.7c-0.9-3.3-1.4-6.6-1.4-10l-0.7-11.2c0-2.1-0.3-4.1-0.9-6.1c-0.6-1.5-1.4-2.9-2.4-4.2
	c-4.8-6.2-12-8.9-19.6-9.5c-3.3-0.3-7.4-0.5-10.4,0.9C736.9,353.5,735.4,357.4,733.2,360.5z"/>
<path class="st4" d="M732,400.9c-0.8,2.1-2.5,3.7-4.7,4.4c-2.1,0.7-4.3,1-6.5,1l-4.8,0.2c-0.5,0-1.1,0.1-1.5,0.4
	c-0.3,0.3-0.4,0.7-0.4,1.1c-0.3,2.5,1.2,4.9,2.7,7c4.7,6.6,10.4,13,17.8,16.3c11.6,5.3,25.3,2.5,33.9-6.8c0.5-0.4,0.8-1,0.9-1.7
	c0-1-0.6-1.9-1.4-2.3c-1.6-1.2-3.4-1.9-5-3.1c-2.7-2-4.6-4.9-5.4-8.2c-0.8-3.3-1-6.6-0.5-10c-5.9-1.7-12.4-0.4-18.3-2
	c-1.4-0.4-4-1.8-5.5-1S732.5,399.4,732,400.9z"/>
<path class="st3" d="M732,400.9c-0.8,2.1-2.5,3.7-4.7,4.4c-2.1,0.7-4.3,1-6.5,1l-4.8,0.2c-0.5,0-1.1,0.1-1.5,0.4
	c-0.3,0.3-0.4,0.7-0.4,1.1c-0.3,2.5,1.2,4.9,2.7,7c4.7,6.6,10.4,13,17.8,16.3c11.6,5.3,25.3,2.5,33.9-6.8c0.5-0.4,0.8-1,0.9-1.7
	c0-1-0.6-1.9-1.4-2.3c-1.6-1.2-3.4-1.9-5-3.1c-2.7-2-4.6-4.9-5.4-8.2c-0.8-3.3-1-6.6-0.5-10c-5.9-1.7-12.4-0.4-18.3-2
	c-1.4-0.4-4-1.8-5.5-1S732.5,399.4,732,400.9z"/>
<circle class="st4" cx="747.1" cy="390.8" r="20"/>
<path class="st5" d="M761.6,411.1c-3.7,1.6-7.5,2.8-11.5,3.7c-4,0.9-8.1,0.7-11.9-0.6c-2.6-1.1-5.1-2.6-7.4-4.2
	c-4.1-2.6-8.7-5-13.6-5.5c-2.3-0.2-4.8,0-6.6,1.4c-1.7,1.6-2.7,3.7-2.9,6c-0.7,4.8,0.5,9.6,1.5,14.3c3.8,17.8,6,36.5,1.7,54.3
	c-2.3,9.4,0.2,19.2,0.5,28.9c0,3.3,0.4,6.6,1.3,9.8c1,3.2,3.2,6.1,6.2,7.4c2.8,1.2,6.1,0.8,9.2,0.6c3.7-0.3,7.5-0.3,10.8,1.2
	c2.4,1.1,4.6,3,7.2,2.8c1.3-0.1,2.5-0.8,3.8-1c2.6-0.4,5.2,1,7.5,2.2c5.9,2.9,12.4,4.6,19,4.8c3.4-7.9,1.6-16.8,2-25.5
	c0.2-3.2,0.6-6.4,0.8-9.6c0.2-3.9,0.1-7.8-0.2-11.7l-1.2-26.2c-0.3-7.1,3.3-14.1,3-21.2c-0.2-3.3-0.7-6.6-1.4-9.9
	c-0.2-1.1-0.5-2.2-0.8-3.3c-2.2-7.5-8.5-13-14.6-17.9C763.6,411.3,762.6,410.9,761.6,411.1z"/>
<path class="st6" d="M728.2,528.1c0.1,7-2.4,13.8-4.9,20.3c-0.8,2-1.7,4.2-3.6,5.2s-4.1,0.3-6-0.4c-1.8-0.7-3.5-1.5-5.1-2.4
	c-1.7-1-3.7-2.1-5.6-1.4c-2.3,0.8-3,3.6-3.3,6c-3.1,0-6.3-0.1-9.3-0.6c-0.3,0-0.6-0.1-0.8-0.3c-0.3-0.3-0.5-0.7-0.5-1.1
	c-0.3-1.7-0.7-3.3-1-5c-0.1-0.5-0.5-1.2-1-1c0.4-6.5-0.9-12.9-1.4-19.4c-0.3-3.3-0.2-6.6,0.1-9.8c0.5-3.3,1.1-6.5,1.9-9.7
	c1.5-6.9,4.5-13.8,4.7-20.8c0-1.4-0.1-2.8-0.3-4.2c-1.4-8.7-2.8-17.5-4.2-26.2c-0.4-2.2-0.7-4.4-1.2-6.5c-0.4-1.6-0.7-3.2-1.2-4.7
	c-0.3-0.9-0.5-1.9-0.8-2.8c2.7-7.3,5.3-14.7,8-22c0.6-1.8,1.3-3.6,2.2-5.3c2-3.8,5.1-6.8,9-8.7c1.1-0.4,2.2-1.1,3-2
	c0.4-0.5,0.6-1.1,1-1.7c1.4-2,4.3-2.2,6.7-1.7c2.2,0.4,4.5,1.2,5.8,3c0.5,0.8,1,1.7,1.3,2.6c1.6,3.9,3.2,7.8,4.8,11.6
	c1.4,0.7,2,2.5,2,4c0,2.9-0.4,5.8-0.3,8.6c0,0.2,0,0.4,0.1,0.6c0.4,2.6,2.2,4.8,2.8,7.4c2.4,10-1.1,20.2-3.1,30.3
	c-0.1,0.4-0.2,0.8-0.2,1.2c-1.1,5.8-1.6,11.8-1.6,17.7c0,2.5,0.2,4.9,0.5,7.4c0.3,2.2,0.9,4.3,1.1,6.4c0.2,3,0.2,6,0,9.1
	C727.3,517.2,728.2,522.6,728.2,528.1z"/>
<path class="st6" d="M736.5,442.4c0.7,1.2,1.1,2.6,1.1,4c0,0.6-0.2,1.2-0.6,1.7c-0.6,0.6-1.5,0.8-2.3,0.6c-0.8-0.2-1.6-0.5-2.2-1
	c-0.9-0.5-1.6-1.2-2.1-2.1c-0.2-0.4-0.3-0.9-0.3-1.3l-0.5-3.4c-0.2-0.7-0.2-1.3,0-2c0.5-1.4,2.5-3.8,4-2.7S735.7,440.8,736.5,442.4z
	"/>
<path class="st6" d="M795,447.9c-0.6-1.5-2.3-2.2-3.8-3c-3-1.7-5.1-4.6-6.7-7.6s-2.8-6.3-4.5-9.2c-0.3-0.5-0.7-1-1.1-1.4
	c-0.5-0.3-1.2-0.3-1.7,0.1c-0.2,0.3-0.3,0.6-0.4,1c-0.4,2.2,0.3,4.4,0.6,6.7c1.1,7.6-1.2,15.3-6.3,21c-2.1,2.3-4.6,4.3-5.8,7.2
	c-0.7,2.3-0.9,4.7-0.6,7l0.7,12.8c0.6,13-0.8,26-4.3,38.5c-2,7.2-5.4,14.5-4,21.8c0.5,2.8,1.7,5.6,1.2,8.4c-0.2,0.5-0.2,1.1,0,1.6
	c0.2,0.4,0.6,0.7,1,0.9l6.7,4.3l6-17.8c0.6-1.5,1-3.1,1.3-4.7c0.3-1.8,0.4-3.6,0.4-5.5c0.4-16,2.5-31.9,6.2-47.4
	c0.5-2.2,1.1-4.4,2-6.6c1.7-3.9,4.6-7.1,7.5-10.3c0.1-1.5-0.1-2.9,0-4.4c0-2.6,0.4-5.1,1.1-7.6C791.3,451.3,792.7,449,795,447.9z"/>
<path class="st6" d="M784.9,464.5c-0.2,4.2-0.2,8.4,0.2,12.6l1,16.7c0,2.2,0.4,4.5,1,6.6c0.8,2.3,2.3,4.3,3,6.6
	c0.3,0.8,0.4,1.6,0.7,2.4c0.3,1,0.8,1.9,1.2,2.8c2.7,6.1,3.4,12.9,3.6,19.6s-0.2,13.4,0.5,20c-1.7,0.5-3.5,0.6-5.3,0.3
	c-0.7-0.2-1.3-0.3-2-0.3c-0.6,0.1-1.1,0.2-1.7,0.5c-4.8,1.7-10.1,1.3-14.5-1.3c-1.3-0.8-2.5-1.7-3.7-2.7c-1-0.8-1.8-1.7-2.5-2.7
	c-0.8-1.5-1.2-3.2-1.2-4.9c-0.2-6.8,2-13.4,3.5-20c1.3-6.4,2.3-12.9,3-19.4c1.1-9.5,0.8-19.3,3-28.7c0.2-1.4,0.8-2.6,1.6-3.7
	c0.7-0.7,1.6-1.3,2.6-1.7C780.9,466.3,782.9,465.4,784.9,464.5z"/>
<path class="st3" d="M795,447.9c-0.6-1.5-2.3-2.2-3.8-3c-3-1.7-5.1-4.6-6.7-7.6s-2.8-6.3-4.5-9.2c-0.3-0.5-0.7-1-1.1-1.4
	c-0.5-0.3-1.2-0.3-1.7,0.1c-0.2,0.3-0.3,0.6-0.4,1c-0.4,2.2,0.3,4.4,0.6,6.7c1.1,7.6-1.2,15.3-6.3,21c-2.1,2.3-4.6,4.3-5.8,7.2
	c-0.7,2.3-0.9,4.7-0.6,7l0.7,12.8c0.6,13-0.8,26-4.3,38.5c-2,7.2-5.4,14.5-4,21.8c0.5,2.8,1.7,5.6,1.2,8.4c-0.2,0.5-0.2,1.1,0,1.6
	c0.2,0.4,0.6,0.7,1,0.9l6.7,4.3l6-17.8c0.6-1.5,1-3.1,1.3-4.7c0.3-1.8,0.4-3.6,0.4-5.5c0.4-16,2.5-31.9,6.2-47.4
	c0.5-2.2,1.1-4.4,2-6.6c1.7-3.9,4.6-7.1,7.5-10.3c0.1-1.5-0.1-2.9,0-4.4c0-2.6,0.4-5.1,1.1-7.6C791.3,451.3,792.7,449,795,447.9z"/>
<path class="st4" d="M787.6,553c-0.2,0.8-0.7,1.4-1.3,1.9c-0.7,0.4-1.8,0.1-1.8-0.7c-1.1-0.2-2,1.2-3.1,1.3s-2.1-1-3.1-0.8
	c-0.7,0.2-1.3,0.9-1.9,0.6c-0.3-0.1-0.4-0.4-0.7-0.5c-0.4-0.1-0.8,0.3-1.3,0.4c-0.9,0.2-1.6-0.9-1.6-1.9s0.3-2-0.2-2.8
	c-0.1-0.1-0.2-0.3-0.3-0.3c-0.3-0.1-0.6,0.1-0.8,0.4c-0.7,1-1,2.4-1.7,3.4s-2.5,1.5-3.2,0.5c-0.3-0.6-0.3-1.2-0.1-1.8
	c0.5-2.6,1.5-5.3,3.8-6.5c2-1,4.4-0.6,6.6-0.2c3.1,0.7,6.1,1.4,9.2,2.1c0.8,0.2,2.8,0.3,3.1,1.2S787.9,552.2,787.6,553z"/>
<path class="st1" d="M751.6,376.7c1,5.4,4.1,10.1,6.5,15s4.4,10.5,3.1,15.8c-0.6,1.8-1.2,3.6-2,5.4c-1,3.1-1.7,6.3-2.1,9.6
	c-0.7,4.4-1.3,8.9-0.8,13.3s2.4,8.9,6,11.6l-0.3-2c1.5,0.8,2.9,1.8,4.2,2.9c1.4-2.5,2.4-5.3,3-8.2l6.8,5.3c3,2.3,6.4,4.7,10.1,4.3
	l-3-6.9c-0.8-1.9-1.7-3.8-2.6-5.7c-0.7-1.1-1.2-2.3-1.6-3.5c-0.3-1-0.4-2.1-0.4-3.2c-1.2-17.7-4.5-35.1-9.8-52
	c-1.1-3.9-2.7-7.6-4.7-11c-1-1.6-2.4-3-3.9-4.1c-2.5-1.6-5.5-1.9-8.5-2.2c-2.1-0.3-4.1-0.3-6.2-0.1c-2.1,0.3-4.1,1-6,2.1
	c-5.9,3-10.8,7.8-13.8,13.7c-2.3,4.3-3.3,9.1-3.1,13.9c0.4,5.1,5.3,2.8,8.5,1.5C739,389.1,746.8,384.2,751.6,376.7z"/>
<path class="st3" d="M736.5,442.4c0.7,1.2,1.1,2.6,1.1,4c0,0.6-0.2,1.2-0.6,1.7c-0.6,0.6-1.5,0.8-2.3,0.6c-0.8-0.2-1.6-0.5-2.2-1
	c-0.9-0.5-1.6-1.2-2.1-2.1c-0.2-0.4-0.3-0.9-0.3-1.3l-0.5-3.4c-0.2-0.7-0.2-1.3,0-2c0.5-1.4,2.5-3.8,4-2.7S735.7,440.8,736.5,442.4z
	"/>
<polygon class="st6" points="742.7,407.4 739,435.5 755.4,434.5 760.8,407.4 "/>
<circle class="st7" cx="750.8" cy="415.8" r="1.3"/>
<g class="st8">
	<path d="M761.7,404.2c0.2-0.5,0.3-1,0.5-1.5c1.3-5.3-0.6-10.9-3.1-15.8s-5.5-9.6-6.5-15c-4.8,7.5-12.5,12.4-20.7,15.6
		c-3.3,1.3-8.2,3.6-8.5-1.5c-0.1-1.1-0.1-2.3,0-3.4c-0.8,2.6-1.1,5.4-0.9,8.1c0.4,5.1,5.3,2.8,8.5,1.5c8.1-3.1,15.9-8.1,20.7-15.5
		c1,5.4,4.1,10.1,6.5,15C760.1,395.5,761.7,399.9,761.7,404.2z"/>
	<path d="M777,440.6c-2.3-1.7-4.5-3.5-6.8-5.3c-0.5,2.9-1.6,5.6-3,8.2c-1.3-1.1-2.7-2.1-4.2-2.9l0.3,2c-3.6-2.7-5.5-7.2-6-11.6
		s0.1-8.9,0.8-13.4c0.1-0.5,0.2-1,0.2-1.4c-0.5,2-0.8,4.1-1.1,6.2c-0.7,4.4-1.3,8.9-0.8,13.3s2.4,8.9,6,11.6l-0.3-2
		c1.5,0.8,2.9,1.8,4.2,2.9c1.4-2.5,2.4-5.3,3-8.2c2.3,1.8,4.5,3.5,6.8,5.3c3,2.3,6.4,4.7,10.1,4.3l-2.2-5
		C781.5,444,779.1,442.3,777,440.6z"/>
</g>
<path class="st4" d="M733.7,422.3c1.6-2.1,3.4-3.9,5.6-5.3c0.3-0.2,0.7-0.4,1.2-0.3c0.3,0.1,0.6,0.3,0.9,0.4c0.4,0,0.8-0.1,1.1-0.3
	l4.6-2.2c0.7-0.4,1.4-0.6,2.2-0.6c0.8,0,1.5,0.6,1.6,1.4c0,0.9-0.8,1.4-1.6,1.9c-2.3,1.3-4.5,2.8-6.5,4.5c-1,0.9-2.1,2.4-1.4,3.5
	c0.7,0.7,1.6,1,2.5,0.8c1.7,0.1,3.4,0,5-0.4c1.3-0.3,2.6-0.9,3.9-1.2c1.2-0.2,2.5-0.4,3.7-0.4c0.7-0.1,1.5,0,2.1,0.5
	c0.5,0.5,0.5,1.6-0.2,1.7c1,1.3,0.1,3.3-1.2,4.3s-3,1.4-4.4,2.3c1.6-0.6,3.5-1.1,4.9-0.2c0.2,0.1,0.4,0.3,0.5,0.6
	c0.1,0.5-0.4,0.8-0.8,1c-6.6,3.1-14.3,2-21.2,4.3c-2.9,1-5.6,2.5-7.9,4.5c1.1-1-5.5-8-5-10c0.5-1.6,3.8-3.7,5-5
	C730.2,426.2,732,424.3,733.7,422.3z"/>
<path class="st3" d="M733.4,454.1c-0.1,0.9,0,1.8,0.3,2.7c0.5,2.3-0.3,4.6-1.3,6.7c-1.3,2.3-2.8,4.5-4.7,6.4
	c-2.2,2.3-4.6,4.4-7.1,6.3c-4.9,3.9-10.1,7.4-15.4,10.6c-1.3,0.9-2.9,1.6-4.5,2c-1.2,0.2-2.5,0.1-3.7-0.1c-1.7-0.1-3.3-0.5-4.9-1
	c0-1.4-0.1-2.8-0.3-4.2c-1.4-8.7-2.8-17.5-4.2-26.2c-0.4-2.2-0.7-4.4-1.2-6.5c-0.4-1.6-0.7-3.2-1.2-4.7c0,0,0-0.1,0-0.1
	c1-2.5,3.9-4.1,4.2-6.8c4.2-0.4,8.2-0.9,12.4-1.3c0.6,4,0.3,8-0.8,11.8c0.7,0.1,1.3-0.3,1.5-1c0.3-0.6,0.4-1.2,0.7-1.8
	c1-2.3,3.9-2.8,6-4.1c3.6-2.3,5.2-7.2,9.1-8.9c0.3-0.2,0.6-0.2,0.9-0.2c0.9,0.2,1,1.7,1.9,1.7c0.3-0.1,0.5-0.2,0.7-0.4
	c1.6-1.5,3.6-2.7,5.2-4.1c0.2,0.4,0.4,0.9,0.6,1.3c2.2,4.5,4.5,9,6.7,13.5c0.9,1.8,1.8,3.6,3.6,4.6
	C737.5,452.3,734,452.1,733.4,454.1z"/>
<path class="st6" d="M688.4,437c-0.3,2.7-3.2,4.3-4.2,6.8c-0.4,1.3-0.6,2.7-0.5,4.1c-0.1,4-1,7.8-1.5,11.7s-0.6,8,0.8,11.7
	c0.9,2.2,2.2,4.2,2.8,6.4c0.4,1.5,0.4,3.2,1.1,4.6c1.5,3,5.5,3.8,8.9,4.2c1.2,0.2,2.5,0.2,3.7,0.1c1.6-0.4,3.1-1,4.5-2
	c5.3-3.2,10.5-6.8,15.4-10.6c4.6-3.6,9-7.5,11.7-12.7c1.1-2.1,1.9-4.4,1.3-6.7c-0.4-0.8-0.5-1.8-0.3-2.7c0.6-2,4.1-1.8,4.9-3.8
	c-1.7-0.9-2.7-2.8-3.6-4.5l-7.3-14.8c-1.6,1.5-3.6,2.7-5.2,4.1c-0.2,0.2-0.5,0.4-0.8,0.4c-0.9,0.1-1.1-1.5-1.9-1.7
	c-0.3,0-0.6,0-0.9,0.2c-3.9,1.7-5.5,6.6-9.1,8.9c-2.1,1.3-5,1.9-6,4.1c-0.3,0.6-0.4,1.3-0.7,1.8c-0.2,0.6-0.9,1-1.5,1
	c1.1-3.8,1.4-7.9,0.8-11.8C696.6,436.2,692.6,436.7,688.4,437z"/>
<path class="st6" d="M787.2,552.3c0.3-0.1,0.5-0.2,0.8-0.3c1-0.9,1.4-2.3,0.9-3.6c-0.3-0.9-2.3-1-3.1-1.2c-3.1-0.7-6.1-1.4-9.2-2.1
	c-2.2-0.5-4.6-0.9-6.6,0.2c-0.7,0.4-1.3,1.7-1.8,2.3l0.8,0.7c0.8,0.7,1.7,1.4,2.6,2c0.2-0.2,0.4-0.3,0.7-0.2
	c0.1,0.1,0.2,0.2,0.3,0.3c0.1,0.2,0.2,0.4,0.2,0.6C777.1,553.6,782.4,554,787.2,552.3z"/>
<path class="st1" d="M1138,368.3v85.4c0,2.5-4.8,4.6-10.7,4.6H901.8c-5.9,0-10.7-2.1-10.7-4.6v-85.4c0-2.5,4.8-5.1,10.7-5.1h225.5
	C1133.3,363.1,1138,365.7,1138,368.3z"/>
<rect x="999.5" y="393.6" class="st5" width="117.5" height="4.1"/>
<rect x="999.5" y="403.8" class="st9" width="117.5" height="4.1"/>
<rect x="999.5" y="413.9" class="st9" width="117.5" height="4.1"/>
<rect x="999.5" y="424" class="st9" width="117.5" height="4.1"/>
<path class="st5" d="M940,384.5c-15.4,0-27.9,12.5-27.9,27.8c0,9.4,4.7,18.1,12.5,23.3v-4.7c0-3.2,2.4-5.9,5.6-6.3
	c2.9,5.4,9.5,7.4,14.9,4.5c1.9-1,3.5-2.6,4.5-4.5c3.2,0.4,5.6,3.1,5.6,6.3v4.8c12.9-8.4,16.6-25.6,8.2-38.5
	C958.3,389.3,949.5,384.5,940,384.5L940,384.5z M952.3,418.5c-0.1,0.2-0.2,0.3-0.4,0.5c-0.2,0.2-0.5,0.3-0.8,0.3c-0.2,0-0.4,0-0.6,0
	c-1.7,5.9-7.9,9.2-13.7,7.5c-4.7-1.4-7.9-5.7-7.9-10.6c0-1.9,0.5-3.8,1.4-5.4c0,0-0.1-0.1-0.1-0.1c-1.4-1.1-1-4.1,0.4-5.1
	c0.7-0.4,1.5-0.7,2.3-0.8c2.4-0.7,4.5-2.3,5.8-4.4c0,0.6,0,1.1-0.1,1.7c0.9-1,2.5-1.1,3.5-0.2c0,0,0,0,0,0c0.3,0.4,0.6,0.8,1,1.1
	c0.4,0.2,0.8,0.3,1.2,0.4l2.8,0.4c1.9-0.2,3.7,1.1,4.2,3c0.8,1.9,1.4,3.9,1.8,5.9C953.6,414.6,953.3,416.7,952.3,418.5L952.3,418.5z
	"/>
<path class="st1" d="M1138,128.6V214c0,2.5-4.8,4.6-10.7,4.6H901.8c-5.9,0-10.7-2.1-10.7-4.6v-85.5c0-2.5,4.8-5.1,10.7-5.1h225.5
	C1133.3,123.4,1138,126,1138,128.6z"/>
<rect x="999.5" y="154" class="st5" width="117.5" height="4.1"/>
<rect x="999.5" y="164.1" class="st9" width="117.5" height="4.1"/>
<rect x="999.5" y="174.2" class="st9" width="117.5" height="4.1"/>
<rect x="999.5" y="184.3" class="st9" width="117.5" height="4.1"/>
<path class="st5" d="M940,144.9c-15.4,0-27.9,12.5-27.9,27.8c0,9.4,4.7,18.1,12.5,23.3v-4.7c0-3.2,2.4-5.9,5.6-6.3
	c2.9,5.4,9.5,7.4,14.9,4.5c1.9-1,3.5-2.6,4.5-4.5c3.2,0.4,5.6,3.1,5.6,6.3v4.8c12.9-8.4,16.6-25.6,8.2-38.5
	C958.3,149.6,949.5,144.9,940,144.9L940,144.9z M952.3,178.9c-0.1,0.2-0.2,0.3-0.4,0.5c-0.2,0.2-0.5,0.3-0.8,0.3c-0.2,0-0.4,0-0.6,0
	c-1.7,5.9-7.9,9.2-13.7,7.5c-4.7-1.4-7.9-5.7-7.9-10.6c0-1.9,0.5-3.8,1.4-5.4l-0.1-0.1c-1.4-1.2-1-4.1,0.4-5.1
	c0.7-0.4,1.5-0.7,2.3-0.8c2.4-0.7,4.5-2.3,5.8-4.4c0,0.6,0,1.1-0.1,1.7c0.9-1,2.5-1.1,3.5-0.2c0,0,0,0,0,0c0.3,0.4,0.6,0.8,1,1.1
	c0.4,0.2,0.8,0.3,1.2,0.4l2.8,0.4c1.1,0,2.3,0.4,3.2,1.1c0.5,0.5,0.8,1.2,1,1.9c0.8,1.9,1.4,3.9,1.8,5.9
	C953.5,174.9,953.2,177,952.3,178.9L952.3,178.9z"/>
<path class="st1" d="M1026,247.9v85.4c0,2.5-4.8,4.6-10.7,4.6H789.8c-5.9,0-10.7-2.1-10.7-4.6v-85.4c0-2.5,4.8-5.1,10.7-5.1h225.6
	C1021.2,242.8,1026,245.4,1026,247.9z"/>
<rect x="887.4" y="273.3" class="st5" width="117.5" height="4.1"/>
<path class="st5" d="M828,264.2c-15.4,0-27.9,12.5-27.9,27.9c0,9.4,4.7,18.1,12.5,23.2v-1.9c0-3.2,2.4-5.9,5.6-6.3
	c2.9,5.4,9.7,7.3,15,4.4c1.8-1,3.4-2.5,4.4-4.4c3.2,0.4,5.6,3.1,5.6,6.3v2c12.9-8.3,16.6-25.6,8.3-38.5
	C846.3,269,837.5,264.2,828,264.2z M838.9,299.5c0,6.1-4.9,11-11,11s-11-4.9-11-11c-2.8-6.1-0.1-13.3,6-16c0.1-0.1,0.2-0.1,0.3-0.1
	c-1.1-1.7-0.6-4,1.1-5.1c0.6-0.4,1.3-0.6,2-0.6h0.3c-2,0.1-3.5,1.9-3.4,3.9c0,0.6,0.2,1.1,0.5,1.6h0.1c0-0.2-0.1-0.5-0.1-0.7
	c0-0.8,0.2-1.5,0.7-2.1c0.5-1.5,1.9-2.6,3.5-2.6h0.3c-1.1,0.1-2.2,0.7-2.8,1.6c1.7-1.1,4-0.7,5.1,1c0.4,0.6,0.6,1.3,0.6,2
	c0,0.1,0,0.3,0,0.4c6.5,1.7,10.3,8.4,8.6,14.8C839.5,298.3,839.3,298.9,838.9,299.5L838.9,299.5z"/>
<rect x="887.4" y="283.4" class="st9" width="117.5" height="4.1"/>
<rect x="887.4" y="293.5" class="st9" width="117.5" height="4.1"/>
<rect x="887.4" y="303.6" class="st9" width="117.5" height="4.1"/>
</svg>
