<?xml version="1.0" encoding="utf-8"?>
<!-- Generator: Adobe Illustrator 23.0.1, SVG Export Plug-In . SVG Version: 6.00 Build 0)  -->
<svg version="1.1" id="bf6b072d-b0c7-410f-9e86-e550d19ff3f5"
	 xmlns="http://www.w3.org/2000/svg" xmlns:xlink="http://www.w3.org/1999/xlink" x="0px" y="0px" viewBox="0 0 1002.5 516.2"
	 style="enable-background:new 0 0 1002.5 516.2;" xml:space="preserve">
<style type="text/css">
	.st0{fill:#D0CDE1;}
	.st1{fill:#3F3D56;}
	.st2{fill:#FFFFFF;}
	.st3{fill:#5596E6;}
</style>
<title>towing</title>
<path class="st0" d="M50.3,482.3L93.4,414l-43.1,75.8l0,7.8c-3.1,0-6.1-0.2-9.1-0.4l3.5-100.1l0-0.8l0.1-0.1l0.3-9.5L0,311.8
	l45.1,67.8l0.1,2l2.7-75.6L9.2,228.6l39,64.2L50,136.1l0-0.5l0,0.5l0.9,123.5l37-49.4l-37,60.1l-0.2,67.7L85,272.6l-34.3,75.3
	l-0.1,37.6l49.9-91L50.5,398.6L50.3,482.3z"/>
<rect x="642.9" y="193.8" class="st1" width="12.1" height="86"/>
<rect x="422.6" y="-134.5" transform="matrix(0.3761 -0.9266 0.9266 0.3761 167.9722 464.1364)" class="st1" width="12.1" height="483.7"/>
<path class="st0" d="M1002.5,493.7C983.7,525-1,522.4,0.5,493.7C19.3,462.4,1004,465,1002.5,493.7z"/>
<rect x="773.6" y="366.9" class="st1" width="105.4" height="41.2"/>
<rect x="349.8" y="403.3" class="st1" width="519.5" height="46"/>
<polygon class="st0" points="783.9,426.3 659.2,426.3 659.2,269.5 752.5,269.5 783.9,348.6 "/>
<rect x="678.6" y="279.1" class="st2" width="53.3" height="53.3"/>
<polygon class="st2" points="771.8,333 737.9,333 737.9,279.8 752.5,279.8 "/>
<rect x="681" y="362.7" class="st1" width="12.1" height="23"/>
<path class="st1" d="M748.2,313.7h0.6c6.4,0,11.5,5.2,11.5,11.5v0l0,0c0,6.4-5.2,11.5-11.5,11.5l0,0h-0.6l0,0V313.7L748.2,313.7z"/>
<path class="st1" d="M297.7,403.3h0.6c6.4,0,11.5,5.2,11.5,11.5v0l0,0c0,6.4-5.2,11.5-11.5,11.5h0h-0.6l0,0V403.3L297.7,403.3z"/>
<path class="st0" d="M832.4,403.1c18.5,0,35.1,8.9,46.6,23.2h23.7l-23-64.1l-107.2-21.1l3,85.2h10.3
	C797.3,412,813.9,403.1,832.4,403.1z"/>
<circle class="st1" cx="833.6" cy="441.4" r="52.7"/>
<circle class="st0" cx="833.6" cy="441.4" r="27.7"/>
<circle class="st1" cx="357.6" cy="447.5" r="46"/>
<circle class="st0" cx="357.6" cy="447.5" r="24.2"/>
<rect x="637.4" y="247.7" class="st1" width="25.4" height="183.5"/>
<rect x="297.1" y="397.8" class="st1" width="365.7" height="10.9"/>
<rect x="95.6" y="383.4" transform="matrix(0.9649 -0.2625 0.2625 0.9649 -91.4749 92.9787)" class="st1" width="413.4" height="10.9"/>
<rect x="486.3" y="338.2" transform="matrix(0.8058 -0.5922 0.5922 0.8058 -125.9693 363.0507)" class="st1" width="8.5" height="70.9"/>
<rect x="743.4" y="335.5" class="st1" width="12.1" height="4.8"/>
<path class="st1" d="M648.9,371.8H490.3c-0.7,0-1.2-0.5-1.2-1.2c0-0.5,0.4-1,0.9-1.2l155-46c0.6-0.2,1.3,0.2,1.5,0.8
	c0,0.1,0,0.2,0,0.2l3.6,46C650.2,371.2,649.7,371.7,648.9,371.8C649,371.8,648.9,371.8,648.9,371.8L648.9,371.8z M498.6,369.4h149
	l-3.4-43.2L498.6,369.4z"/>
<path class="st1" d="M219.3,318.5L219.3,318.5l-34.8-0.3c-0.7,0-1.2-0.6-1.2-1.2c0,0,0-0.1,0-0.1l18.1-157.6
	c0.1-0.6,0.6-1.1,1.2-1.1h0c0.6,0,1.1,0.5,1.2,1.1l16.7,157.9c0.1,0.7-0.4,1.3-1.1,1.3C219.4,318.5,219.3,318.5,219.3,318.5z
	 M185.9,315.8l32.1,0.3l-15.4-145.7L185.9,315.8z"/>
<path class="st1" d="M887.5,384.6l-0.6,0.2c-5.9,2.2-12.6-0.7-14.8-6.7l0,0l0,0c-2.2-5.9,0.7-12.6,6.7-14.8l0,0l0.6-0.2l0,0
	L887.5,384.6L887.5,384.6z"/>
<rect x="117.2" y="396.3" transform="matrix(0.963 -0.2695 0.2695 0.963 -102.5932 51.09)" class="st1" width="35.1" height="5.6"/>
<path class="st3" d="M395.5,324.7l-6.5,3.6l-264.9,74.1l-3.9-4.9c-6.8-8.4-11.2-18.5-12.6-29.1c-1-8-0.3-16.4,5.3-21.5l-10.1-81.6
	L249.3,224l69.5,29.9c0,0,26.6-8,46.2,6.1c6.2,4.4,11.7,11.1,15.4,20.9l3.2,9.3L395.5,324.7z"/>
<circle class="st1" cx="336.9" cy="339.6" r="34"/>
<circle class="st0" cx="336.9" cy="339.6" r="17.9"/>
<circle class="st1" cx="175.5" cy="384.8" r="34"/>
<circle class="st0" cx="175.5" cy="384.8" r="17.9"/>
<polygon class="st2" points="294.7,254.9 189.6,284.3 180.8,252.7 247.8,233.9 "/>
<rect x="129.7" y="261.5" transform="matrix(0.963 -0.2695 0.2695 0.963 -69.3124 51.0999)" class="st2" width="43.4" height="32.9"/>
<rect x="197.6" y="306.9" transform="matrix(0.963 -0.2695 0.2695 0.963 -76.7472 65.5555)" class="st1" width="5.6" height="10.6"/>
<rect x="276.4" y="268.5" transform="matrix(0.963 -0.2695 0.2695 0.963 -62.6908 85.9623)" class="st1" width="10.6" height="5.6"/>
<path class="st1" d="M274,248.9l0.6-0.2c6.2-1.7,12.6,1.9,14.3,8.1l0,0c1.7,6.2-1.9,12.6-8.1,14.3l-0.6,0.2l0,0L274,248.9L274,248.9
	z"/>
<path class="st1" d="M383.6,290.2c-9.2,3.7-19.7-0.8-23.4-10c-2.8-7-0.9-15.1,4.8-20.1c6.2,4.4,11.7,11.1,15.4,20.9L383.6,290.2z"/>
<rect x="196" y="10.9" class="st1" width="12.1" height="176.8"/>
<circle class="st1" cx="202" cy="17" r="17"/>
<circle class="st1" cx="648.9" cy="196.2" r="17"/>
</svg>
