<?xml version="1.0" encoding="utf-8"?>
<!-- Generator: Adobe Illustrator 23.0.1, SVG Export Plug-In . SVG Version: 6.00 Build 0)  -->
<svg version="1.1" id="Layer_1" xmlns="http://www.w3.org/2000/svg" xmlns:xlink="http://www.w3.org/1999/xlink" x="0px" y="0px"
	 viewBox="0 0 450 450" style="enable-background:new 0 0 450 450;" xml:space="preserve">
<style type="text/css">
	.st0{fill:#E0EBFC;}
	.st1{fill:#B3CEF4;}
	.st2{fill:#FFFFFF;stroke:#B3CEF4;stroke-width:2;stroke-miterlimit:10;}
	.st3{fill:none;stroke:#B3CEF4;stroke-width:2;stroke-miterlimit:10;}
	.st4{fill:none;stroke:#3D70B2;stroke-width:1.5;stroke-miterlimit:10;}
	.st5{fill:#83BEFF;}
	.st6{fill:#FFFFFF;}
	.st7{opacity:0.75;fill:#E0EBFC;}
	.st8{fill:none;stroke:#277EF1;stroke-width:1.5;stroke-miterlimit:10;}
	.st9{fill:#277EF1;}
	.st10{fill:none;stroke:#B3CEF4;stroke-width:1.5;stroke-miterlimit:10;}
	.st11{fill:#B8FFF1;}
	.st12{fill:#FFFFFF;stroke:#41D6C3;stroke-width:1.5;stroke-miterlimit:10;}
	.st13{fill:#FFFFFF;stroke:#B3CEF4;stroke-width:1.5;stroke-miterlimit:10;}
	.st14{fill:#41D6C3;}
	.st15{fill:#FF796D;}
	.st16{fill:#FFBEA1;}
	.st17{opacity:0.55;}
	.st18{fill:#EF9D7D;}
	.st19{fill:#24B3C6;}
	.st20{fill:none;stroke:#1B5889;stroke-miterlimit:10;}
	.st21{fill:#19202D;}
	.st22{fill:none;stroke:#1E6DC4;stroke-miterlimit:10;}
	.st23{fill:#68D7EC;}
	.st24{fill:none;stroke:#40B2C1;stroke-miterlimit:10;}
	.st25{clip-path:url(#SVGID_2_);}
	.st26{fill:url(#SVGID_3_);}
	.st27{fill:url(#SVGID_4_);}
	.st28{fill:#78869B;}
	.st29{fill:none;stroke:#9CE8F2;stroke-width:0.5;stroke-miterlimit:10;}
	.st30{fill:#40B2C1;}
	.st31{fill:none;stroke:#EF977F;stroke-width:0.75;stroke-miterlimit:10;}
	.st32{fill:#A1CEFF;}
	.st33{fill:none;stroke:#70B3EF;stroke-miterlimit:10;}
	.st34{fill:none;stroke:#3D70B2;stroke-width:2;stroke-miterlimit:10;}
	.st35{fill:none;stroke:#FFFFFF;stroke-width:3.5;stroke-linecap:round;stroke-linejoin:round;stroke-miterlimit:10;}
</style>
<g>
	<g>
		<g>
			<path class="st0" d="M269,302.2h-79c0,0,3.3,50.3-12.4,50.3c5,0,98.7,0,103.7,0C265.7,352.5,269,302.2,269,302.2z"/>
			<path class="st1" d="M189.2,332.5l79.6-16.1c-0.1-8,0.3-14.1,0.3-14.1h-79C190.1,302.2,191.1,318.5,189.2,332.5z"/>
			<path class="st0" d="M369.5,317.4h-280c-10.2,0-18.4-8.2-18.4-18.4V127.9c0-10.2,8.2-18.4,18.4-18.4h280
				c10.2,0,18.4,8.2,18.4,18.4V299C388,309.1,379.7,317.4,369.5,317.4z"/>
			<path class="st2" d="M364.3,310H94.8c-8.1,0-14.8-6.6-14.8-14.8V131.6c0-8.1,6.6-14.8,14.8-14.8h269.5c8.1,0,14.8,6.6,14.8,14.8
				v163.7C379.1,303.4,372.5,310,364.3,310z"/>
			<line class="st3" x1="80" y1="141.2" x2="379.1" y2="141.2"/>
			<path class="st0" d="M343.1,133.6h-206c-2.8,0-5.1-2.3-5.1-5.1l0,0c0-2.8,2.3-5.1,5.1-5.1h206c2.8,0,5.1,2.3,5.1,5.1l0,0
				C348.3,131.3,346,133.6,343.1,133.6z"/>
			<g>
				<path class="st4" d="M94.7,128.8c0,1.5-1.2,2.7-2.7,2.7c-1.5,0-2.7-1.2-2.7-2.7c0-1.5,1.2-2.7,2.7-2.7
					C93.5,126,94.7,127.3,94.7,128.8z"/>
				<path class="st4" d="M107.4,128.8c0,1.5-1.2,2.7-2.7,2.7c-1.5,0-2.7-1.2-2.7-2.7c0-1.5,1.2-2.7,2.7-2.7
					C106.2,126,107.4,127.3,107.4,128.8z"/>
				<path class="st4" d="M120.1,128.8c0,1.5-1.2,2.7-2.7,2.7c-1.5,0-2.7-1.2-2.7-2.7c0-1.5,1.2-2.7,2.7-2.7
					C118.9,126,120.1,127.3,120.1,128.8z"/>
			</g>
			<g>
				<g>
					<path class="st4" d="M313,211.2H146.1c-6.3,0-11.5-5.1-11.5-11.5l0,0c0-6.3,5.1-11.5,11.5-11.5H313c6.3,0,11.5,5.1,11.5,11.5
						l0,0C324.5,206.1,319.3,211.2,313,211.2z"/>
					<path class="st5" d="M312.6,189.1h-18.8v21.4h18.8c6.2,0,11.2-4.8,11.2-10.7l0,0C323.7,193.9,318.7,189.1,312.6,189.1z"/>
				</g>
				<path class="st6" d="M316.3,205.3l-3.8-3.8c0.8-1,1.2-2.3,1.2-3.6c0-3.3-2.7-6-6-6c-3.3,0-6,2.7-6,6s2.7,6,6,6
					c1,0,1.9-0.2,2.7-0.7l3.9,3.9c0.3,0.2,0.6,0.4,0.9,0.4s0.7-0.1,0.9-0.4c0.2-0.2,0.4-0.6,0.4-0.9
					C316.7,205.9,316.6,205.5,316.3,205.3z M312.1,197.9c0,2.4-1.9,4.3-4.3,4.3c-2.4,0-4.3-1.9-4.3-4.3c0-2.4,1.9-4.3,4.3-4.3
					C310.1,193.7,312.1,195.6,312.1,197.9z"/>
				<path class="st7" d="M194.1,204.7h-47.8c-2.7,0-4.9-2.2-4.9-4.9l0,0c0-2.7,2.2-4.9,4.9-4.9h47.8c2.7,0,4.9,2.2,4.9,4.9l0,0
					C199.1,202.5,196.8,204.7,194.1,204.7z"/>
			</g>
			<rect x="163.6" y="351.1" class="st0" width="131.9" height="7.3"/>
			<g>
				<g>
					<path class="st7" d="M207.1,236.5h-32.3c-3,0-5.5-2.5-5.5-5.5v0c0-3,2.5-5.5,5.5-5.5h32.3c3,0,5.5,2.5,5.5,5.5v0
						C212.6,234,210.2,236.5,207.1,236.5z"/>
					<line class="st4" x1="175.2" y1="232.4" x2="206.7" y2="232.4"/>
				</g>
				<g>
					<path class="st7" d="M284.3,236.5h-57.4c-3,0-5.5-2.5-5.5-5.5v0c0-3,2.5-5.5,5.5-5.5h57.4c3,0,5.5,2.5,5.5,5.5v0
						C289.8,234,287.3,236.5,284.3,236.5z"/>
					<line class="st4" x1="233.4" y1="232.4" x2="277.8" y2="232.4"/>
				</g>
			</g>
			<line class="st8" x1="320.5" y1="150.4" x2="332.6" y2="150.4"/>
			<line class="st8" x1="338.4" y1="150.4" x2="350.5" y2="150.4"/>
			<g>
				<rect x="354.9" y="147.2" class="st7" width="1.6" height="1.6"/>
				<rect x="357.2" y="147.2" class="st7" width="1.6" height="1.6"/>
				<rect x="359.4" y="147.2" class="st7" width="1.6" height="1.6"/>
				<rect x="354.9" y="149.6" class="st7" width="1.6" height="1.6"/>
				<rect x="357.2" y="149.6" class="st7" width="1.6" height="1.6"/>
				<rect x="359.4" y="149.6" class="st7" width="1.6" height="1.6"/>
				<rect x="354.9" y="152.1" class="st7" width="1.6" height="1.6"/>
				<rect x="357.2" y="152.1" class="st7" width="1.6" height="1.6"/>
				<rect x="359.4" y="152.1" class="st7" width="1.6" height="1.6"/>
			</g>
			<circle class="st7" cx="367.8" cy="150.4" r="4.1"/>
			<path class="st0" d="M154,159.9H71.1v31.2H154c1.8,0,3.3-1.5,3.3-3.4v-24.5C157.3,161.4,155.8,159.9,154,159.9z"/>
			<g>
				<circle class="st9" cx="370.8" cy="123.4" r="1.1"/>
				<circle class="st9" cx="370.8" cy="128.5" r="1.1"/>
				<circle class="st9" cx="370.8" cy="133.6" r="1.1"/>
			</g>
			<line class="st10" x1="277.8" y1="351.5" x2="210.3" y2="351.5"/>
			<line class="st10" x1="202.7" y1="351.5" x2="180.7" y2="351.5"/>
		</g>
		<g>
			<path class="st11" d="M361.8,297.9H224.1c-3.9,0-7.1-3.2-7.1-7.1v-33.2c0-3.9,3.2-7.1,7.1-7.1h137.8c3.9,0,7.1,3.2,7.1,7.1v33.2
				C369,294.7,365.8,297.9,361.8,297.9z"/>
			<path class="st12" d="M355.5,293.7H217.7c-3.9,0-7.1-3.2-7.1-7.1v-33.2c0-3.9,3.2-7.1,7.1-7.1h137.8c3.9,0,7.1,3.2,7.1,7.1v33.2
				C362.6,290.5,359.4,293.7,355.5,293.7z"/>
			<g>
				<path class="st11" d="M352.5,267.9h-89c-1.5,0-2.7-1.2-2.7-2.7l0,0c0-1.5,1.2-2.7,2.7-2.7h89c1.5,0,2.7,1.2,2.7,2.7l0,0
					C355.3,266.7,354,267.9,352.5,267.9z"/>
				<path class="st11" d="M352.5,277.4h-89c-1.5,0-2.7-1.2-2.7-2.7l0,0c0-1.5,1.2-2.7,2.7-2.7h89c1.5,0,2.7,1.2,2.7,2.7l0,0
					C355.3,276.2,354,277.4,352.5,277.4z"/>
				<path class="st11" d="M352.5,258.4h-89c-1.5,0-2.7-1.2-2.7-2.7l0,0c0-1.5,1.2-2.7,2.7-2.7h89c1.5,0,2.7,1.2,2.7,2.7l0,0
					C355.3,257.1,354,258.4,352.5,258.4z"/>
				<path class="st11" d="M283.2,287h-19.7c-1.5,0-2.7-1.2-2.7-2.7v0c0-1.5,1.2-2.7,2.7-2.7h19.7c1.5,0,2.7,1.2,2.7,2.7l0,0
					C286,285.7,284.7,287,283.2,287z"/>
			</g>
			<g>
				<path class="st11" d="M245,287h-23.3c-3,0-5.4-2.4-5.4-5.4v-23.3c0-3,2.4-5.4,5.4-5.4H245c3,0,5.4,2.4,5.4,5.4v23.3
					C250.4,284.6,248,287,245,287z"/>
				<polygon class="st6" points="229.5,259.7 220.1,277.8 238.9,277.8 				"/>
				<polygon class="st6" points="239.6,265.7 237.3,270 241.4,277.8 245.9,277.8 				"/>
				<path class="st6" d="M244.6,262.3c0,1.1-0.9,2-2,2c-1.1,0-2-0.9-2-2c0-1.1,0.9-2,2-2C243.7,260.3,244.6,261.2,244.6,262.3z"/>
			</g>
		</g>
		<g>
			<path class="st11" d="M354.7,156.6h-97.3c-3.8,0-6.9-3.1-6.9-6.9v-31.8c0-3.8,3.1-6.9,6.9-6.9h97.3c3.8,0,6.9,3.1,6.9,6.9v31.8
				C361.6,153.5,358.5,156.6,354.7,156.6z"/>
			<path class="st12" d="M347.2,151.8h-97.3c-3.8,0-6.9-3.1-6.9-6.9v-31.8c0-3.8,3.1-6.9,6.9-6.9h97.3c3.8,0,6.9,3.1,6.9,6.9v31.8
				C354,148.7,351,151.8,347.2,151.8z"/>
			<g>
				<path class="st11" d="M343.6,127h-50.5c-1.5,0-2.6-1.2-2.6-2.6l0,0c0-1.5,1.2-2.6,2.6-2.6h50.5c1.5,0,2.6,1.2,2.6,2.6l0,0
					C346.3,125.9,345.1,127,343.6,127z"/>
				<path class="st11" d="M343.6,136.2h-50.5c-1.5,0-2.6-1.2-2.6-2.6l0,0c0-1.5,1.2-2.6,2.6-2.6h50.5c1.5,0,2.6,1.2,2.6,2.6l0,0
					C346.3,135,345.1,136.2,343.6,136.2z"/>
				<path class="st11" d="M343.6,117.9h-50.5c-1.5,0-2.6-1.2-2.6-2.6l0,0c0-1.5,1.2-2.6,2.6-2.6h50.5c1.5,0,2.6,1.2,2.6,2.6l0,0
					C346.3,116.7,345.1,117.9,343.6,117.9z"/>
				<path class="st11" d="M312.1,145.4h-18.9c-1.5,0-2.6-1.2-2.6-2.6l0,0c0-1.5,1.2-2.6,2.6-2.6h18.9c1.5,0,2.6,1.2,2.6,2.6l0,0
					C314.7,144.2,313.5,145.4,312.1,145.4z"/>
			</g>
			<path class="st11" d="M281.7,128c-0.1-1.2-0.3-2.4-0.6-3.6c-0.4-1.2-0.9-2.3-1.5-3.3l-3,1.4c-0.6-0.9-1.3-1.8-2.1-2.5l2-2.7
				c-1.8-1.6-4-2.8-6.4-3.4l-1.1,3.1c-1.1-0.2-2.1-0.4-3.3-0.3l-0.5-3.3c-1.2,0.1-2.4,0.3-3.6,0.6c-1.2,0.4-2.3,0.9-3.3,1.5l1.4,3
				c-0.9,0.6-1.8,1.3-2.5,2.1l-2.7-2c-1.6,1.8-2.8,4-3.4,6.4l3.1,1.1c-0.2,1.1-0.4,2.1-0.3,3.3l-3.3,0.5c0.1,1.2,0.3,2.4,0.6,3.6
				c0.4,1.2,0.9,2.3,1.5,3.3l3-1.4c0.6,0.9,1.3,1.8,2.1,2.5l-2,2.7c1.8,1.6,4,2.8,6.4,3.4l1.1-3.1c1.1,0.2,2.1,0.4,3.3,0.3l0.5,3.3
				c1.2-0.1,2.4-0.3,3.6-0.6c1.2-0.4,2.3-0.9,3.3-1.5l-1.4-3c0.9-0.6,1.8-1.3,2.5-2.1l2.7,2c1.6-1.8,2.8-4,3.4-6.4l-3.1-1.1
				c0.2-1.1,0.4-2.1,0.3-3.3L281.7,128z M268.3,136.2c-4,1.2-8.2-1-9.4-5c-1.2-4,1-8.2,5-9.4c4-1.2,8.2,1,9.4,5
				C274.5,130.8,272.3,135,268.3,136.2z"/>
		</g>
		<g>
			<path class="st13" d="M150.9,183.9H55.7c-2.6,0-4.7-2.1-4.7-4.7v-21.6c0-2.6,2.1-4.7,4.7-4.7h95.2c2.6,0,4.7,2.1,4.7,4.7v21.6
				C155.6,181.8,153.5,183.9,150.9,183.9z"/>
			<g>
				<g>
					<path class="st0" d="M149,167.1H85.6c-1,0-1.8-0.8-1.8-1.8l0,0c0-1,0.8-1.8,1.8-1.8H149c1,0,1.8,0.8,1.8,1.8l0,0
						C150.8,166.3,150,167.1,149,167.1z"/>
					<path class="st0" d="M149,173.3H85.6c-1,0-1.8-0.8-1.8-1.8l0,0c0-1,0.8-1.8,1.8-1.8H149c1,0,1.8,0.8,1.8,1.8l0,0
						C150.8,172.5,150,173.3,149,173.3z"/>
					<path class="st0" d="M149,160.8H85.6c-1,0-1.8-0.8-1.8-1.8l0,0c0-1,0.8-1.8,1.8-1.8H149c1,0,1.8,0.8,1.8,1.8l0,0
						C150.8,160,150,160.8,149,160.8z"/>
					<path class="st0" d="M127.6,179.5H85.6c-1,0-1.8-0.8-1.8-1.8l0,0c0-1,0.8-1.8,1.8-1.8h41.9c1,0,1.8,0.8,1.8,1.8l0,0
						C129.3,178.7,128.5,179.5,127.6,179.5z"/>
				</g>
			</g>
			<g>
				<path class="st14" d="M75,178.3H61.3c-1.7,0-3.1-1.4-3.1-3.1v-13.6c0-1.7,1.4-3.1,3.1-3.1H75c1.7,0,3.1,1.4,3.1,3.1v13.6
					C78.1,176.9,76.7,178.3,75,178.3z"/>
				<path class="st6" d="M64.8,163.4v9.9c0,0.8,0.9,1.3,1.6,0.8l6.8-4.9c0.6-0.4,0.6-1.2,0-1.6l-6.8-4.9
					C65.8,162.1,64.8,162.6,64.8,163.4z"/>
			</g>
		</g>
	</g>
	<g id="XMLID_614_">
		<g id="XMLID_682_">
			<path class="st14" d="M62.7,325.6c-3-14.2-5.4-28.8-3.4-43.3c1.8-13.6,7.1-26.9,15.5-38.6c0.8-1.1,1.5-2.1,2.3-3.1
				c3.2-4.1,6.9-8.1,11-11.6c3-2.6,8.1,0,6.7,3.3c-12.6,29-17.4,60.4-13.9,91"/>
		</g>
		<g id="XMLID_681_">
			<path class="st14" d="M69,312.6c-0.1-13.3,5.6-26.5,15-36c6.8-6.9,15.4-12,24.7-15c3.2-1,5.7,2.6,3.5,5
				c-6.1,6.5-11.8,13.2-16.8,20.5c-7,10.1-12.7,21.3-15.5,33.3"/>
		</g>
		<g id="XMLID_680_">
			<path class="st14" d="M55.8,326.1c-4.7-34.7-13.7-59.2-30.3-86c-1.7-2.8,1.2-6.1,4.1-4.6c6.6,3.4,12.4,8.7,17.1,14.8
				c6.8,8.8,19.4,24.8,23.3,62.9"/>
		</g>
		<g id="XMLID_679_">
			<path class="st14" d="M40.3,316.9c0-8-7.3-31.5-27.3-42.1c-3-1.6-1.7-6.3,1.7-6.2c11.1,0.6,20.3,5.6,27.5,12.6
				c10.3,9.9,16.7,26,18.4,40.7"/>
		</g>
		<g id="XMLID_676_">
			<g>
				<path class="st6" d="M110.8,264.5c-21.1,11-35.1,32.6-36.1,56.4c0,0.2,0.3,0.2,0.3,0c1.5-23.7,15-44.9,35.9-56.2
					C111,264.7,110.9,264.4,110.8,264.5L110.8,264.5z"/>
			</g>
		</g>
		<g id="XMLID_640_">
			<g>
				<path class="st6" d="M87,236.4c-15.1,21.6-23,48.3-19.9,74.6c0,0.1,0.2,0.1,0.2,0c-2.4-26.5,4.9-52.6,19.8-74.5
					C87.3,236.4,87.1,236.3,87,236.4L87,236.4z"/>
			</g>
		</g>
		<g id="XMLID_639_">
			<g>
				<path class="st6" d="M34.1,242.7c17,18.5,23.9,43,28.1,67.2c0,0.1,0.2,0.1,0.2-0.1c-3.7-24.1-11.2-49.1-28.2-67.3
					C34.1,242.5,34,242.6,34.1,242.7L34.1,242.7z"/>
			</g>
		</g>
		<g id="XMLID_637_">
			<g>
				<path class="st6" d="M17.6,272.9c19.6,7.8,31.8,27.1,35.1,47.4c0,0.1,0.2,0.1,0.2,0c-2.3-20.4-16-40-35.3-47.5
					C17.6,272.8,17.6,272.9,17.6,272.9L17.6,272.9z"/>
			</g>
		</g>
		<path id="XMLID_615_" class="st15" d="M30.4,309.7v8c0,31.7,15.4,40.7,15.4,40.7h34c0,0,15.4-9,15.4-40.7v-8H30.4z"/>
	</g>
	<g>
		<g>
			<path class="st16" d="M383,231.9c0,0-9,10.7-4.9,13.1c4.1,2.4,8.2,2,9.6,0.6c1.6-1.5,5.9-5.1,5.1-7.8
				C391.6,234,386.8,230.2,383,231.9z"/>
			<polyline class="st16" points="383.3,245.4 382.9,252.9 392.1,250.9 389.2,241.9 			"/>
			<g class="st17">
				<path class="st15" d="M389.9,244.8c-0.9-0.1-1.8-0.5-2.5-1c-0.3-0.2-0.6-0.7-0.3-0.9c0.2-0.1,0.4,0,0.6,0c0.6,0,1.1-0.5,1.5-0.9
					c0.5-0.5,0.9-1.1,1.1-1.8c0.2-0.7-0.1-1.5-0.7-1.8c-0.6-0.2-1.3,0.1-1.8,0.6c-0.1,0.1-0.3,0.3-0.4,0.3c-0.3,0-0.5-0.3-0.5-0.6
					c0-0.3,0.2-0.6,0.3-0.9c0.3-0.8,0.4-1.6,0.2-2.4c-0.1-0.4-0.3-0.9,0.1-1.2c0.2-0.2,0.5-0.1,0.8,0c1,0.3,2,0.7,2.9,1.2
					c1.7,1,2.9,3.3,2.5,5.2C393.2,242.5,391.5,243.8,389.9,244.8"/>
			</g>
			<g>
				<path class="st15" d="M393.5,241c-0.3-1.6-1.2-3.1-2.6-4c-1.9-1.2-3.8-2.2-5.8-3.2c-0.9-0.4-1.9-0.9-2.3-1.8
					c-0.2-0.5-0.3-1.1-0.3-1.7c0-0.9,0-1.9,0.3-2.8s1-1.7,1.9-2c1.3-0.4,2.7,0.3,3.7,1.2c2.6,2.1,4.4,5.2,5,8.4
					c0.9-0.3,2,0.1,2.5,0.9C396.3,237,396.6,240.2,393.5,241"/>
			</g>
		</g>
		<g>
			<path class="st18" d="M361.6,265.7l-22.3-6.2c0,0-4.5-7.5-5.5-7.3c-1,0.2,1.7,3.7,0.3,4c-0.8,0.1-3.3,0-3.8-0.3
				c-0.5-0.4-1.8-3.7-2.1-3.6c-0.6,0.1-0.1,4.6,0.9,5.6c0.7,0.7,3.7,2.9,6.2,4.1c2.5,1.2,26.5,18.2,31.2,17.4"/>
			<polyline class="st6" points="352.6,263 349.7,262.4 348.7,271.4 356.7,274.4 			"/>
			<path class="st19" d="M398.5,257c0,0-2.6-8.2-11-6.8c-8.4,1.3-23.8,14.7-23.8,14.7l-11.6-2L351,278c0,0,9.4,5.3,15.3,5.3
				c12.1,0,28.8-21.9,28.8-21.9"/>
			<path class="st20" d="M381.7,275.5c8.2-6.1,10.1-11.6,13.3-11.6"/>
		</g>
		<g>
			<path class="st21" d="M406.1,320.4c0,0,8.9-1.6,12-2.1c5.9-1,12.1-1,9.7-3.4c-3.1-3.1-17.8-9.9-17.8-9.9l-7.5,6L406.1,320.4z"/>
			<g>
				<path class="st16" d="M362.2,348.1l3.5,14.6c-4.5,6.6-5.6-0.3-5.6-0.3l-8.4-15.7"/>
				<path class="st21" d="M366.5,365.4l-0.8-2.7c-3.8,2.3-5.6-0.3-5.6-0.3l-7.4,2.2c-2.2,0.7-2.5,3.1-1,3.1h13
					C365.9,367.8,366.8,366.6,366.5,365.4z"/>
			</g>
			<g>
				<path class="st16" d="M414.1,351.3H429c5,3.9-1.5,5.2-1.5,5.2l-14.7,3.9"/>
				<path class="st21" d="M431.8,351.3l-2.8-0.1c1.5,3.4-1.5,5.2-1.5,5.2s1.3,4.8,1.3,5.3c0,0.5-1.4,1.7-0.8,2.5
					c0.6,0.8,3.7,0.4,4.1-0.7c1.1-2.9,1.9-10.6,1.9-10.6C434,351.8,433,351.5,431.8,351.3z"/>
			</g>
			<path class="st9" d="M386.7,301.6c0,0-23.2,46.1-15.9,56.7c4.2,6,11.4,6.8,21.2,6.8c4.4,0,26.2,0,26.2,0l3.7-13.9l-32.7-1.6
				c0,0,23.7-22,24.9-31.5c1.6-12.2-4.3-22.8-4.3-22.8"/>
			<path class="st9" d="M376,301.2c0,0-1.5,2.6-3.1,2.6c-6.3,0-20.9,0-24.2,0c-9.4,0-16.3,5.4-13.1,20c3.2,14.6,10.2,34.1,10.2,34.1
				h19.4l-7.1-30.1c0,0,22.7,0,26.2,0c10.7,0,16.8-8.6,11.7-24"/>
			<g>
				<path class="st22" d="M404.4,312c0,0,0.9,6.5-2.4,13.8c-3,6.5-12.4,17.8-16.4,23.6c-0.7,1,0,2.4,1.2,2.5l34.5,1.7"/>
				<path class="st22" d="M362.8,357.9l-8.5-31.7c-0.2-0.8,0.4-1.6,1.2-1.6h21.1"/>
				<line class="st22" x1="375.4" y1="327.8" x2="381.9" y2="312"/>
			</g>
		</g>
		<path class="st15" d="M380.2,264c0,0-2.8,26.5-4.7,38c4.5,8.1,37.1,7.4,38.5,6c1.4-1.4-5.3-34.9-10.8-42.9
			C397.7,257,380.2,254.6,380.2,264z"/>
		<path class="st23" d="M390.2,250.3c0,0,14.3-0.8,20.6,23.4c6.5,24.6,16.9,41.2,16.9,41.2s-3.9-1.4-10.8-0.6
			c-11.4,1.2-25.5,7.2-25.5,7.2s-5.3-11.4-9-25c-6.9-25.7-2.3-41.2-2.3-41.2L390.2,250.3z"/>
		<path class="st24" d="M385.3,301.5c0,0,2.8-16.6,2-17.3c-0.8-0.7-4.5-0.5-4.5-1.1s5.4-1.6,4.5-2.5c-1-0.9-5.9-21.8-3.1-25.2"/>
		<g>
			<g>
				<defs>
					
						<ellipse id="SVGID_1_" transform="matrix(0.4496 -0.8932 0.8932 0.4496 -6.1713 390.1766)" cx="313.5" cy="200.1" rx="27.1" ry="27.1"/>
				</defs>
				<clipPath id="SVGID_2_">
					<use xlink:href="#SVGID_1_"  style="overflow:visible;"/>
				</clipPath>
				<g class="st25">
					<linearGradient id="SVGID_3_" gradientUnits="userSpaceOnUse" x1="310.1194" y1="230.4328" x2="310.1194" y2="163.4389">
						<stop  offset="0" style="stop-color:#FFFFFF;stop-opacity:0.2"/>
						<stop  offset="0.6741" style="stop-color:#FFFFFF;stop-opacity:0.6265"/>
						<stop  offset="0.7903" style="stop-color:#FFFFFF;stop-opacity:0.7"/>
					</linearGradient>
					<path class="st26" d="M320.8,163.4c0,0-38,66.5-38.2,67h16.8l38.2-67H320.8z"/>
					<linearGradient id="SVGID_4_" gradientUnits="userSpaceOnUse" x1="329.9716" y1="230.4328" x2="329.9716" y2="163.4389">
						<stop  offset="0" style="stop-color:#FFFFFF;stop-opacity:0.2"/>
						<stop  offset="0.6741" style="stop-color:#FFFFFF;stop-opacity:0.6265"/>
						<stop  offset="0.7903" style="stop-color:#FFFFFF;stop-opacity:0.7"/>
					</linearGradient>
					<path class="st27" d="M346.4,163.4c0,0-38,66.5-38.2,67h5.3l38.2-67H346.4z"/>
				</g>
			</g>
			
				<rect x="323.5" y="227.6" transform="matrix(0.9503 -0.3115 0.3115 0.9503 -58.3913 113.6069)" class="st15" width="5.9" height="24"/>
			<path class="st28" d="M304.2,171.7c-15.7,5.1-24.2,22-19.1,37.7c5.1,15.7,22,24.2,37.7,19.1c15.7-5.1,24.2-22,19.1-37.7
				C336.8,175.1,319.9,166.5,304.2,171.7z M321.5,224.5c-13.5,4.4-27.9-2.9-32.4-16.4c-4.4-13.5,2.9-27.9,16.4-32.4
				c13.5-4.4,27.9,2.9,32.4,16.4C342.3,205.6,335,220.1,321.5,224.5z"/>
			<path class="st28" d="M337.5,273.1L337.5,273.1c-2.3,0.8-4.8-0.5-5.5-2.8l-10.2-31.2l8.3-2.7l10.2,31.2
				C341,269.9,339.7,272.3,337.5,273.1z"/>
		</g>
		<path class="st29" d="M390.7,272.3c2.7,2.2,3.9,5.6,4.9,8.9c3.7,11.6,6.8,23.3,13.1,34.6"/>
		<g>
			<path class="st16" d="M359,271l-20.9-9c0,0-4.5-7.5-5.5-7.3c-1,0.2,1.7,3.7,0.3,4c-0.8,0.1-3.3,0-3.8-0.3
				c-0.5-0.4-1.8-3.7-2.1-3.6c-0.6,0.1-0.1,4.6,0.9,5.6c0.7,0.7,3.7,2.9,6.2,4.1c2.5,1.2,25.1,21.1,29.7,20.3"/>
			<polyline class="st6" points="355.9,269 349.5,266.5 346,275.8 354.7,281.9 			"/>
			<path class="st23" d="M396,252.9c0,0-2.6-3.9-11-2.3c-4.8,0.9-23.8,20.2-23.8,20.2l-9.4-3.4l-5.1,16.2c0,0,11.5,7.3,17.4,7.3
				c12.1,0,28.8-21.9,28.8-21.9"/>
			<path class="st24" d="M379.7,283c8.2-6.1,10.1-11.6,13.3-11.6"/>
		</g>
		<polygon class="st30" points="391.1,303.8 400.3,304.7 400.3,306.1 392,306.1 		"/>
		<path class="st16" d="M381.6,234.9c0,0-4.9,2.1-4.9,3c0,0.8,2.6,1.8,2.6,1.8"/>
		<path class="st21" d="M383.3,235.9c-0.1-0.1-0.3-0.2-0.4-0.2c-0.4,0.1-0.6,0.8-0.6,1.2c0.1,0.2,0.3,0.5,0.6,0.4
			c0.1,0,0.2-0.1,0.2-0.2c0.2-0.2,0.3-0.5,0.3-0.8C383.5,236.1,383.4,236,383.3,235.9z"/>
		<g>
			<g>
				<path class="st21" d="M382.8,233.9c0.5,0.3,1.1,0.7,1.5,1.1c0.2,0.2,0.4,0.5,0.6,0.8c0.1,0.2,0.2,0.4,0.4,0.6
					c0.1,0.1,0.3,0,0.3-0.1c0.2-0.6-0.6-1.3-1-1.7c-0.5-0.5-1.1-0.8-1.8-0.9C382.8,233.7,382.7,233.9,382.8,233.9L382.8,233.9z"/>
			</g>
		</g>
		<path class="st31" d="M377.3,241.5c0.9,0.4,2.4,0.8,3.9,0.3"/>
		<g>
			<path class="st0" d="M364.2,206.3c0-6.1,5-11.1,11.1-11.1h35.4c6.1,0,11.1,5,11.1,11.1c0,6.1-5,11.1-11.1,11.1h-35.4
				c-1.1,0-2.1-0.2-3.1-0.4l-4.2,2.9l1.2-4.2C366.2,213.7,364.2,210.2,364.2,206.3z"/>
			<g>
				<path class="st6" d="M394.8,207.4c0,1,0.8,1.8,1.8,1.8c1,0,1.8-0.8,1.8-1.8c0-1-0.8-1.8-1.8-1.8
					C395.6,205.6,394.8,206.4,394.8,207.4z"/>
				<path class="st6" d="M387.1,207.4c0,1,0.8,1.8,1.8,1.8c1,0,1.8-0.8,1.8-1.8c0-1-0.8-1.8-1.8-1.8
					C387.9,205.6,387.1,206.4,387.1,207.4z"/>
				<path class="st6" d="M402.6,207.4c0,1,0.8,1.8,1.8,1.8c1,0,1.8-0.8,1.8-1.8c0-1-0.8-1.8-1.8-1.8
					C403.4,205.6,402.6,206.4,402.6,207.4z"/>
				<path class="st6" d="M410.3,207.4c0,1,0.8,1.8,1.8,1.8c1,0,1.8-0.8,1.8-1.8c0-1-0.8-1.8-1.8-1.8
					C411.1,205.6,410.3,206.4,410.3,207.4z"/>
				<path class="st6" d="M379.3,207.4c0,1,0.8,1.8,1.8,1.8c1,0,1.8-0.8,1.8-1.8c0-1-0.8-1.8-1.8-1.8
					C380.1,205.6,379.3,206.4,379.3,207.4z"/>
				<path class="st6" d="M371.6,207.4c0,1,0.8,1.8,1.8,1.8c1,0,1.8-0.8,1.8-1.8c0-1-0.8-1.8-1.8-1.8
					C372.4,205.6,371.6,206.4,371.6,207.4z"/>
			</g>
		</g>
	</g>
	<g>
		<g>
			<path class="st16" d="M140.9,234.9h10c0,0,4-2.5,5.8-2.7c2.5-0.2,7.1,0,6.9,0.9c-0.3,0.9-7.2,2.2-7,3c0.2,0.8,3.8,0.4,3.8,1.1
				c0,1.5-9.6,1.5-9.6,1.5l-14.3,1.8"/>
			<path class="st32" d="M96.5,197.1c0,0,14.8,3.4,20.3,12.5c5.6,9.5,12.9,21.7,12.9,21.7l20.4,3.6v4.6c0,0-18.6,4.8-24.2,4.8
				c-10.2,0-22.9-26.5-22.9-26.5"/>
			<line class="st33" x1="148.1" y1="240" x2="148.1" y2="234.6"/>
		</g>
		<g>
			<path class="st21" d="M116.7,361.2c0,0-1.5,1.6-1.5,4.2c0,1.9,0.4,3.1,0.4,3.1h0.8l0.2-1.5c0,0,2.2,0.2,4.5,1.5
				c1.1,0.6,6.5,0.2,7.3-0.3c0.9-0.6,0.6-1.4,0.2-1.8c-0.3-0.3-6.3-2.5-6.3-2.5"/>
			<path class="st16" d="M106.7,300.2c-7.5,23,10.1,61,10.1,61l3.5,1.3c0,0,2.6-39.9,2.6-58.9c0-16,2.5-41.9-14-49.6"/>
			<path class="st16" d="M119.8,361.2c0,0,2.1,2.3,5.2,3.8c1,0.5-0.3,1.3-1.3,1.4c-3.3,0.3-7.6-4.2-7.6-4.2l1.1-2.1"/>
		</g>
		<g>
			<path class="st21" d="M75,365.7c-2.4,2.4-5.8,8.1-3.6,8.5c2.2,0.4,8.1-5.1,8.1-5.1l0,0.5l0.9,0c0,0,0.7-3.1-0.6-4.4"/>
			<path class="st16" d="M72.4,284.7c0,0,0.7,20,0.3,23.6c-0.4,3.6,2.2,56.6,2.2,57.3c-0.1,1-2.9,5-1.5,5c1.3,0,6.4-4.6,6.2-5.5
				c0.3-0.8,9-30.2,10.9-41.7c2.2-13.4-0.5-22-0.5-22l7.4-43.2"/>
		</g>
		<g>
			<path class="st9" d="M109.1,248.9c0,0,10.7,3.9,13.4,20.9c2.1,13.4,1.3,34.4,1.3,34.4s-4.2,4.8-20.1,7.5
				c-21.4,3.7-30.9-1.5-30.9-1.5s-3.9-26.7-1.1-43.8C74.5,249,88.4,243,88.4,243"/>
			<path class="st22" d="M75.4,311.4c0,0-7.8-50.4,7.9-63"/>
		</g>
		<g>
			<path class="st32" d="M110.8,209.6c0,0-0.1,2.5,0.7,3.9c1.6,2.8,3.7,5,3.7,11.2c0,3.9-3.4,7.6-3.4,8.8c0,1.2-2.6,14.8-2.6,14.8
				s-3.5,0-13.3,0c-11.1,0-14.8-4-14.8-4l-8.4-30.6L91.3,198l6.1-0.7L110.8,209.6z"/>
			<line class="st33" x1="103.7" y1="210.9" x2="109.1" y2="210.9"/>
			<path class="st33" d="M110.8,209.6c0,0-0.1,2.5,0.7,3.9c1.6,2.8,3.7,6.2,3.7,11.2c0,3.9-3.4,7.6-3.4,8.8c0,1.2-2.8,15.3-2.8,15.3
				"/>
		</g>
		<g>
			<path class="st28" d="M116.3,225.9l-5.1,22.8h32.5l5.2-23.1c0.1-0.5-0.2-0.9-0.6-0.9h-30.6C117,224.7,116.5,225.2,116.3,225.9z"
				/>
			<path class="st28" d="M120.2,248.7H94.9l0.1-1.3c0.1-0.8,0.8-1.5,1.6-1.5h23.7L120.2,248.7z"/>
			<path class="st21" d="M132.7,236.7c-0.3,1.5-1.7,2.7-2.9,2.7c-1.3,0-2.1-1.2-1.7-2.7c0.3-1.5,1.7-2.7,3-2.7
				S133.1,235.2,132.7,236.7z"/>
		</g>
		<g>
			<path class="st16" d="M85.9,251.8c3.8,0,26.2,0,26.2,0s4.4,0.5,7.9,0.4c3.5-0.1,5.6-2.8,5.6-3.4c0-0.5-2,0-4.9,0
				c-1.8,0-3,0.3-3.2-0.1c-0.3-0.9,3-1.5,2.4-2.1c-0.3-0.3-1.7-0.2-2.7,0c-2.5,0.5-5.1,2.1-5.1,2.1l-21.8-5.1"/>
			<path class="st32" d="M93.3,197.1c0,0-20.7,2-24.5,17.2c-4.2,16.8,6.5,35.9,12,37.4c2.3,0.6,28.3,0.7,28.3,0.7l1.2-4.5l-22-4.9
				L86,213.8"/>
			<line class="st33" x1="108" y1="247.4" x2="107.3" y2="252.4"/>
			<polyline class="st33" points="110.3,247.9 88.4,243 86,213.8 			"/>
		</g>
		<g>
			<g>
				<path class="st21" d="M90.7,177.5c-2.2,0.6-4.1,1.9-5.5,3.7c-1.5,1.9-2.3,4.2-3.5,6.4c-0.6,1.1-1.4,2.1-2.1,3.1
					c-0.6,0.8-1.8,1.6-1.5,2.6c0.3,1.1,1.9,1.6,2.9,1.7c1.2,0.2,2.5,0,3.7,0.2c1.1,0.2,2,0.6,3.1,1c2.2,0.8,4.6,1.4,7,1.2
					c1.5-0.2,2.7-0.9,4.1-1.2c1.4-0.3,3.1,0,4.6-0.1c0.6,0,1.2,0,1.6-0.4c0.4-0.4,0.5-0.9,0.5-1.4c0.2-2.1-0.3-4.2-1.4-6
					c-1-1.7-2.5-3-3.5-4.7c-1.2-1.9-1.9-3.9-3.8-5.3C95.2,176.9,92.6,176.9,90.7,177.5z"/>
			</g>
			<path class="st16" d="M98.4,193.1l-0.6,5.3c0,0-0.4,1.9-2.3,2c-4.1,0.3-4.2-2.5-4.2-2.5l3.2-6.7"/>
			<path class="st16" d="M94.8,192.7c0,0,6.1,2.8,9.1-0.4c1.7-1.8-2.7-10.9-4.6-12.2c-1.9-1.3-5.6,0.1-6.4,2.2
				C92.2,184.5,90.1,190.2,94.8,192.7"/>
			<path class="st21" d="M102.1,185.4c0,0.3-0.2,0.5-0.5,0.5s-0.5-0.2-0.5-0.5c0-0.3,0.2-0.5,0.5-0.5S102.1,185.1,102.1,185.4z"/>
			<path class="st21" d="M97,187.2c0,0.3,0.2,0.5,0.5,0.5c0.3,0,0.5-0.2,0.5-0.5s-0.2-0.5-0.5-0.5C97.2,186.8,97,187,97,187.2z"/>
			<g>
				<g>
					<path class="st21" d="M98.2,185.3c-1-0.5-2.7,0.1-2.7,1.4c0,0.1,0.2,0.2,0.2,0.1c0.3-0.4,0.5-0.7,0.9-1c0.5-0.3,1-0.3,1.5-0.2
						C98.2,185.6,98.3,185.4,98.2,185.3L98.2,185.3z"/>
				</g>
			</g>
			<g>
				<g>
					<path class="st21" d="M102.3,183.7c-0.4-0.5-1.1-0.5-1.7-0.3c-0.5,0.2-1,0.8-0.8,1.4c0,0.1,0.1,0.1,0.2,0
						c0.2-0.3,0.4-0.7,0.7-0.9c0.5-0.3,1-0.2,1.5,0C102.3,184,102.4,183.8,102.3,183.7L102.3,183.7z"/>
				</g>
			</g>
			<path class="st31" d="M100,186c0,0,1.8,1.9,1.6,2.3c-0.3,0.7-1.4,0.7-1.4,0.7"/>
			<path class="st6" d="M100.3,190.6l2.4-0.8c0,0,0.4,1.4-0.3,1.7C100.9,192,100.3,190.6,100.3,190.6z"/>
			<path class="st31" d="M98.3,193.8c0,0-1.6,0.1-3.6-1.1"/>
			<g>
				<path class="st21" d="M92.7,190.2c2.6-1.9,3.6-5.5,4.1-8.7c1.8,0.4,3.5,1,5.3,1.5c0.2-0.9,0-4.1-4-5.4c-2-0.6-4.2,0.3-5.6,1.9
					c-2,2.3-2.8,5.7-2,8.7"/>
			</g>
			<g>
				<path class="st16" d="M93.4,190c-1.4-1.4-2.4-0.6-2.7,0c-0.2,0.6,0,1.2,0.3,1.8c0.4,0.7,1,1.3,1.8,1.4c0.8,0.1,1.7-0.5,1.6-1.3"
					/>
			</g>
			<path class="st6" d="M92.4,195.9c0,0,1.2,3.8,3.2,4.6c-1.1,0.8-2.8,3.2-2.8,3.2c-2.5-2.5-2.6-6.3-2.6-6.3L92.4,195.9z"/>
			<path class="st6" d="M98,197.1c0,0-0.9,2.7-2.4,3.3c0.9,0.8,2.5,2.9,2.5,2.9s1.1-1,0.8-3.8C98.9,198.8,98,197.1,98,197.1z"/>
		</g>
		<g>
			<path class="st0" d="M65.5,185.5c0-6.1-5-11.1-11.1-11.1H35.1c-6.1,0-11.1,5-11.1,11.1c0,6.1,5,11.1,11.1,11.1h19.3
				c1.1,0,2.1-0.2,3.1-0.4l4.2,2.9l-1.2-4.2C63.5,192.8,65.5,189.4,65.5,185.5z"/>
			<g>
				<path class="st6" d="M34.9,186.6c0,1-0.8,1.8-1.8,1.8c-1,0-1.8-0.8-1.8-1.8c0-1,0.8-1.8,1.8-1.8
					C34.1,184.8,34.9,185.6,34.9,186.6z"/>
				<path class="st6" d="M42.7,186.6c0,1-0.8,1.8-1.8,1.8c-1,0-1.8-0.8-1.8-1.8c0-1,0.8-1.8,1.8-1.8
					C41.9,184.8,42.7,185.6,42.7,186.6z"/>
				<path class="st6" d="M50.4,186.6c0,1-0.8,1.8-1.8,1.8c-1,0-1.8-0.8-1.8-1.8c0-1,0.8-1.8,1.8-1.8
					C49.6,184.8,50.4,185.6,50.4,186.6z"/>
				<path class="st6" d="M58.2,186.6c0,1-0.8,1.8-1.8,1.8c-1,0-1.8-0.8-1.8-1.8c0-1,0.8-1.8,1.8-1.8
					C57.4,184.8,58.2,185.6,58.2,186.6z"/>
			</g>
		</g>
	</g>
	<g>
		<path class="st0" d="M59.2,234c0,2-1.6,3.6-3.6,3.6c-2,0-3.6-1.6-3.6-3.6c0-2,1.6-3.6,3.6-3.6C57.5,230.3,59.2,231.9,59.2,234z"/>
		<path class="st11" d="M441.2,164.2c0,2.6-2.1,4.8-4.8,4.8c-2.6,0-4.8-2.1-4.8-4.8c0-2.6,2.1-4.8,4.8-4.8
			C439.1,159.5,441.2,161.6,441.2,164.2z"/>
		<path class="st0" d="M195.7,79.4c0,2-1.6,3.6-3.6,3.6s-3.6-1.6-3.6-3.6c0-2,1.6-3.6,3.6-3.6S195.7,77.4,195.7,79.4z"/>
		<circle class="st34" cx="52.6" cy="231.7" r="2.3"/>
		<path class="st34" d="M172.9,89c0,1.3-1,2.3-2.3,2.3c-1.3,0-2.3-1-2.3-2.3c0-1.3,1-2.3,2.3-2.3C171.9,86.7,172.9,87.7,172.9,89z"
			/>
		<circle class="st34" cx="39.2" cy="151.3" r="2.3"/>
		<path class="st34" d="M405.6,176.7c0,1.3-1,2.3-2.3,2.3c-1.3,0-2.3-1-2.3-2.3c0-1.3,1-2.3,2.3-2.3
			C404.6,174.4,405.6,175.4,405.6,176.7z"/>
		<circle class="st34" cx="417.4" cy="255.6" r="2.3"/>
		<g>
			<circle class="st0" cx="42.7" cy="116.9" r="13.7"/>
			<path class="st6" d="M49.7,122.3l-3.8-3.8c0.8-1,1.2-2.3,1.2-3.5c0-3.3-2.7-5.9-5.9-5.9c-3.3,0-5.9,2.7-5.9,5.9
				c0,3.3,2.7,5.9,5.9,5.9c0.9,0,1.9-0.2,2.7-0.7l3.9,3.9c0.2,0.2,0.6,0.4,0.9,0.4c0.4,0,0.7-0.1,0.9-0.4c0.2-0.2,0.4-0.6,0.4-0.9
				C50.1,122.9,50,122.6,49.7,122.3z M45.5,115c0,2.3-1.9,4.2-4.2,4.2c-2.3,0-4.2-1.9-4.2-4.2c0-2.3,1.9-4.2,4.2-4.2
				C43.5,110.8,45.5,112.7,45.5,115z"/>
		</g>
		<path class="st34" d="M337.9,88.2l-1.4,5.7c-0.1,0.5,0.5,0.9,1,0.8L343,93c0.4-0.1,0.6-0.6,0.2-0.9l-4-4
			C338.8,87.6,338.1,87.8,337.9,88.2z"/>
		<path class="st34" d="M144.3,333l-5.7,1.4c-0.5,0.1-0.6,0.8-0.2,1.2l4,4c0.3,0.3,0.8,0.2,0.9-0.2l1.7-5.4
			C145.3,333.5,144.8,332.9,144.3,333z"/>
		<path class="st34" d="M8.9,220.5l2.5,5.3c0.2,0.4,0.9,0.4,1.3-0.1l3.1-4.7c0.3-0.4,0.1-0.8-0.4-0.9l-5.6-0.6
			C9.1,219.5,8.7,220.1,8.9,220.5z"/>
		<path class="st34" d="M435.3,233.5l5-3c0.4-0.3,0.3-1-0.2-1.3l-5-2.7c-0.4-0.2-0.8,0-0.8,0.5l0,5.7
			C434.3,233.3,434.9,233.7,435.3,233.5z"/>
		<g>
			<g>
				<circle class="st11" cx="165.6" cy="263" r="15.5"/>
			</g>
			<g>
				<path class="st6" d="M168.1,268.8h-10.3c-1,0-1.9-0.8-1.9-1.9v-7.2c0-1,0.8-1.9,1.9-1.9h10.3c1,0,1.9,0.8,1.9,1.9v7.2
					C169.9,268,169.1,268.8,168.1,268.8z"/>
				<path class="st6" d="M175.5,267.8l-4.1-1.9v-5l4.1-1.9c0.3-0.1,0.6,0.1,0.6,0.4v8.1C176.1,267.7,175.8,267.9,175.5,267.8z"/>
			</g>
		</g>
		<g>
			<g>
				
					<ellipse transform="matrix(0.2276 -0.9737 0.9737 0.2276 187.8801 518.4926)" class="st11" cx="420.8" cy="140.8" rx="15.5" ry="15.5"/>
			</g>
			<polyline class="st35" points="412.2,140.1 418.6,147.2 429.4,134.7 			"/>
		</g>
	</g>
</g>
</svg>
