<?xml version="1.0" encoding="utf-8"?>
<!-- Generator: Adobe Illustrator 23.0.1, SVG Export Plug-In . SVG Version: 6.00 Build 0)  -->
<svg version="1.1" id="Layer_1" xmlns="http://www.w3.org/2000/svg" xmlns:xlink="http://www.w3.org/1999/xlink" x="0px" y="0px"
	 viewBox="0 0 450 450" style="enable-background:new 0 0 450 450;" xml:space="preserve">
<style type="text/css">
	.st0{fill:#84EFDF;}
	.st1{fill:#D2FFF8;}
	.st2{fill:#41D6C3;}
	.st3{fill:#2BB29E;}
	.st4{fill:#58DBC2;}
	.st5{fill:#FFFFFF;stroke:#B3CEF4;stroke-miterlimit:10;}
	.st6{fill:none;stroke:#B3CEF4;stroke-miterlimit:10;stroke-dasharray:5,3.5;}
	.st7{fill:#E0EBFC;}
	.st8{clip-path:url(#SVGID_2_);}
	.st9{fill:#9AFCEE;}
	.st10{fill:#FFFFFF;}
	.st11{clip-path:url(#SVGID_2_);fill:#7798B7;}
	.st12{clip-path:url(#SVGID_4_);}
	.st13{fill:#6387A5;}
	.st14{fill:#FFD5C7;}
	.st15{clip-path:url(#SVGID_2_);fill:#FFD5C7;}
	.st16{fill:#01053F;}
	.st17{clip-path:url(#SVGID_2_);fill:#01053F;}
	.st18{clip-path:url(#SVGID_2_);fill:#FFD5C7;stroke:#EF927F;stroke-miterlimit:10;}
	.st19{fill:#00275C;}
	.st20{clip-path:url(#SVGID_2_);fill:#FFFFFF;}
	.st21{clip-path:url(#SVGID_2_);fill:none;stroke:#01053F;stroke-miterlimit:10;}
	.st22{fill:#FFFCFA;stroke:#B3CEF4;stroke-miterlimit:10;}
	.st23{fill:#B3CEF4;}
	.st24{fill:none;stroke:#B3CEF4;stroke-miterlimit:10;}
	.st25{fill:#FFECEE;}
	.st26{clip-path:url(#SVGID_6_);}
	.st27{fill:#9AE5D7;}
	.st28{fill:#B8FFF1;}
	.st29{fill:#D0E8C8;}
	.st30{fill:#300606;}
	.st31{fill:#FFC5AE;}
	.st32{fill:none;stroke:#EF927F;stroke-miterlimit:10;}
	.st33{fill:#277EF1;}
	.st34{fill:none;stroke:#AA311D;stroke-miterlimit:10;}
	.st35{fill:none;stroke:#FB5910;stroke-miterlimit:10;}
	.st36{fill:none;stroke:#FFAD76;stroke-width:2;stroke-linecap:round;stroke-linejoin:round;stroke-miterlimit:10;}
	.st37{fill:#F9AF95;}
	.st38{fill:none;stroke:#300606;stroke-linecap:round;stroke-linejoin:round;stroke-miterlimit:10;}
	.st39{fill:#F7633A;}
	.st40{fill:none;stroke:#FF796D;stroke-miterlimit:10;}
	.st41{clip-path:url(#SVGID_8_);}
	.st42{fill:#CDE0FC;}
	.st43{fill:#D7DFE5;}
	.st44{opacity:0.55;}
	.st45{clip-path:url(#SVGID_10_);}
	.st46{fill:#E8F3F9;}
	.st47{fill:#E28576;}
	.st48{fill:none;stroke:#C46762;stroke-miterlimit:10;}
	.st49{fill:#8FAAC8;}
	.st50{fill:none;stroke:#00275C;stroke-linejoin:round;stroke-miterlimit:10;}
	.st51{fill:#D86E66;}
	.st52{clip-path:url(#SVGID_12_);}
	.st53{opacity:0.35;}
	.st54{fill:#8E444A;}
	.st55{fill:none;stroke:#300606;stroke-miterlimit:10;}
	.st56{fill:#591906;}
	.st57{fill:none;stroke:#5B3005;stroke-linecap:round;stroke-linejoin:round;stroke-miterlimit:10;}
	.st58{fill:none;stroke:#63252C;stroke-miterlimit:10;}
</style>
<g>
	<g>
		<g>
			<path class="st0" d="M395.1,215.7c-1.3-1.7-1-4.2,0.1-6.1c1-1.9,2.6-3.4,3.8-5.2c1.8-2.7,2.5-6,3.2-9.1c0.7-3.2,1.4-6.4,3-9.2
				c1.7-2.8,4.6-5.1,7.8-5.1c4.4,0,8,4.3,8.4,8.7c0.4,4.4-1.7,8.7-4.3,12.3C412.3,208.6,407.6,215.1,395.1,215.7"/>
		</g>
		<g>
			<g>
				<path class="st1" d="M378,271.4c0.8-15,1.9-29.5,9.4-42.8c4.2-7.5,9.7-14.1,14.9-20.8c5-6.4,9.5-13.1,10.9-21.3
					c0.1-0.4-0.5-0.5-0.6-0.2c-1.8,9-7.5,16.4-13.1,23.4c-5.2,6.5-10.3,13.1-14.1,20.6c-6.5,12.9-7.5,26.9-7.9,41.1
					C377.5,271.7,378,271.6,378,271.4L378,271.4z"/>
			</g>
		</g>
		<g>
			<path class="st0" d="M372.7,220.7c-8.3-2.5-9.2-13.3-9.9-20c-1.1-10.7-2.4-21.5-1.5-32.3c1.1-14.5,8.1-29.5,23.3-34.5
				c4.4-1.5,9.2-2.5,13.8-1.8c4.6,0.7,9.2,3.6,10.4,7.7c0.3,1,0.4,2.1,0,3c-0.5,1.1-1.7,1.8-2.7,2.6c-10.5,6.9-17.6,18.1-19,29.9
				c-1,8.4,0.7,16.9-0.2,25.3C385.9,209,381.3,218,372.7,220.7"/>
		</g>
		<g>
			<path class="st2" d="M387.6,205.2c4.9-0.4,8.9-4.5,10.9-9.1c4.7-10.5,3.8-22.5,10.5-32.2c3.5-5.1,8.2-9.1,11.9-14
				c5.3-6.9,7.9-16.6,3.8-24.6c-6.1-12.1-19-6.6-26.8,0.4c-10.9,9.8-19.8,24-22.3,37.9C374,172.8,371.4,195.6,387.6,205.2"/>
		</g>
		<g>
			<path class="st3" d="M375.6,238c-14.6-2.2-12.2-15.4-15-20.5c-4.9-9-3.7-20.1-8-29.3c-3-6.5-7.8-11-14.7-11.6
				c3.4-1.7,28.8,0.1,33.6,4.2c5.4,4.6,7.8,9.4,9.6,16.1C383.1,204.5,390.3,233,375.6,238"/>
		</g>
		<g>
			<g>
				<path class="st4" d="M344.3,176.5c33.7,4.1,31.4,50.5,30.6,75.1c-0.3,10-1,20-0.8,30c0,0.4,0.7,0.4,0.7,0
					c0.7-19.1,2.1-38.5,0.9-57.6c-0.9-13.6-3.2-29-13-39.3c-4.9-5.1-11.3-8-18.3-8.6C344,176.1,344,176.5,344.3,176.5L344.3,176.5z"
					/>
			</g>
		</g>
		<g>
			<g>
				<path class="st1" d="M416.3,128.9c-6.3,0.2-11.3,6.6-14.5,11.3c-5,7.4-7.4,16.3-9.4,24.9c-4.7,20.1-5.7,41.1-6.8,61.6
					c-0.7,12.5-1,25-1,37.5c0,0.5,0.7,0.5,0.8,0c0.4-20.4,1.1-40.8,2.8-61.1c0.8-9.9,1.7-19.8,3.5-29.5c1.6-9.1,3.7-18.8,7.7-27.2
					c1.8-3.8,4.2-7.4,6.9-10.5c2.6-2.9,6-6.1,10.1-6.3C416.7,129.4,416.7,128.9,416.3,128.9L416.3,128.9z"/>
			</g>
		</g>
		<g>
			<path class="st3" d="M417.1,226.8c4.8-0.3,13,0.8,17.4,2.5c1.9,1.4,5.3,4.4,7,9c1.8,4.6,0.9,10.3-2.7,13.6
				c-2.8,2.5-6.7,3.3-10.4,3c-1.8-0.1-3.6-0.5-5.2-1.4c-4-2.4-4.9-7.8-7.1-11.9c-3.1-5.6-9.3-9.4-15.5-9.3"/>
		</g>
		<g>
			<g>
				<path class="st4" d="M432.1,245.7c-0.1-5.3-0.8-10.7-4.4-14.9c-3.9-4.5-10.6-7.6-16.6-6.3c-0.2,0-0.1,0.3,0,0.3
					c6.2,0.5,12,1.8,16.2,6.8c3.4,4,4,9.1,4.2,14.1C431.6,246.1,432.1,246.1,432.1,245.7L432.1,245.7z"/>
			</g>
		</g>
		<g>
			<path class="st0" d="M434.5,229.3c-8.8-1.6-18.1,2-24.3,8.5c-2.9,3.1-5.8,7-9.9,7.4c-4.3,0.4-9.8,0.8-9.9-8.3
				c-0.1-6.9,4-8.6,7.7-11c3.6-2.4,8.1-3.3,12.4-3.6C415.4,221.9,427.7,222.3,434.5,229.3"/>
		</g>
		<g>
			<g>
				<path class="st1" d="M424.3,223.2c-10,0-19.6,4.7-25.8,12.5c-2.8,3.5-4.2,7.2-5.1,11.5c-1.5,6.6-2.1,13.8-1.7,20.6
					c0,0.4,0.6,0.4,0.6,0c0.8-10.5-0.1-22.5,6.7-31.3c6-7.8,15.5-12.5,25.3-12.8C424.6,223.6,424.6,223.2,424.3,223.2L424.3,223.2z"
					/>
			</g>
		</g>
		<g>
			<path class="st0" d="M348.4,193.6c-11.7,2.6-18.7-10.4-26.4-18.3c-8.6-8.8-19.1-9.2-28.5-15.7c-2.6-1.8-5.1-5.3-4-8.6
				c1-2.9,4.1-3.8,6.7-4.2c8.6-1.1,17.3-1.1,25.7,1.2c11.6,3.2,24.7,6.7,30.5,19.5C354.9,173.1,357,190.6,348.4,193.6"/>
		</g>
		<g>
			<g>
				<path class="st1" d="M294.9,150.7c17.4,1.6,32.2,10.8,42.3,24.9c11.2,15.5,15.8,34.6,19,53.1c2.2,12.7,3.1,25.5,4.5,38.3
					c0,0.4,0.6,0.4,0.6,0c-0.3-11.6-1.7-23.3-3.5-34.8c-1.8-11.3-4.2-22.7-7.9-33.6c-5.3-15.4-14.4-30.2-28.2-39.3
					c-8-5.3-17.2-8.3-26.7-8.9C294.7,150.4,294.7,150.7,294.9,150.7L294.9,150.7z"/>
			</g>
		</g>
		<path class="st5" d="M407.5,262.8h-63.9c0,0-1.9,75,16.4,96.7h31.1C409.5,337.8,407.5,262.8,407.5,262.8z"/>
	</g>
	<g>
		<path class="st6" d="M266.7,158.1h14c5.1,0,9.2,4.1,9.2,9.2v24.8"/>
		<path class="st6" d="M121.5,248.3h21.8c3,0,5.5,2.4,5.5,5.5v22.7c0,3,2.4,5.5,5.5,5.5h228.6c3.6,0,6.4,2.9,6.4,6.4v15.9
			c0,3.6-2.9,6.4-6.4,6.4h-61"/>
		<path class="st6" d="M80.4,161.7v-26.8c0-7.3,5.9-13.2,13.2-13.2h272.6c3,0,5.4,2.4,5.4,5.4v22.6c0,3-2.4,5.4-5.4,5.4h-32"/>
		<path class="st5" d="M152.8,335.5c0,1.1-0.9,2-2,2s-2-0.9-2-2c0-1.1,0.9-2,2-2S152.8,334.4,152.8,335.5z"/>
		<path class="st5" d="M64.7,133.5c0,1.1-0.9,2-2,2c-1.1,0-2-0.9-2-2c0-1.1,0.9-2,2-2C63.8,131.5,64.7,132.4,64.7,133.5z"/>
		<path class="st5" d="M291.2,102c0,1.1-0.9,2-2,2c-1.1,0-2-0.9-2-2c0-1.1,0.9-2,2-2C290.3,100,291.2,100.9,291.2,102z"/>
		<path class="st5" d="M394,271.4c0,1.1-0.9,2-2,2c-1.1,0-2-0.9-2-2c0-1.1,0.9-2,2-2C393.1,269.4,394,270.3,394,271.4z"/>
		<path class="st5" d="M11.6,246.7c0,1.1-0.9,2-2,2c-1.1,0-2-0.9-2-2s0.9-2,2-2C10.7,244.7,11.6,245.6,11.6,246.7z"/>
		<path class="st5" d="M430.8,209.8c0,1.1-0.9,2-2,2s-2-0.9-2-2c0-1.1,0.9-2,2-2S430.8,208.7,430.8,209.8z"/>
		
			<ellipse transform="matrix(0.1602 -0.9871 0.9871 0.1602 -48.5036 169.4562)" class="st7" cx="75.3" cy="113.2" rx="5.5" ry="5.5"/>
		<path class="st7" d="M376.2,108.6c0,2.5-2.1,4.6-4.6,4.6c-2.5,0-4.6-2.1-4.6-4.6c0-2.5,2.1-4.6,4.6-4.6
			C374.2,104,376.2,106.1,376.2,108.6z"/>
		<circle class="st7" cx="426.7" cy="274.2" r="4.6"/>
		<circle class="st7" cx="180.6" cy="343.4" r="4.6"/>
	</g>
	<g>
		<path class="st7" d="M38.1,304.4h91.2c5.8,0,10.4-4.7,10.4-10.4V153.8c0-5.8-4.7-10.4-10.4-10.4H38.1c-5.8,0-10.4,4.7-10.4,10.4
			V294C27.7,299.8,32.3,304.4,38.1,304.4z"/>
		<rect x="33.2" y="150.6" class="st2" width="100.9" height="146.7"/>
		<g>
			<defs>
				<rect id="SVGID_1_" x="33.2" y="150.6" width="100.9" height="146.7"/>
			</defs>
			<clipPath id="SVGID_2_">
				<use xlink:href="#SVGID_1_"  style="overflow:visible;"/>
			</clipPath>
			<g class="st8">
				<g>
					<path class="st9" d="M39.5,191.7c-0.2,0-0.4-0.1-0.5-0.2c-0.3-0.3-0.3-0.7,0-1l5.6-5.6c0.3-0.3,0.7-0.3,1,0
						c0.3,0.3,0.3,0.7,0,1l-5.6,5.6C39.9,191.6,39.7,191.7,39.5,191.7z"/>
				</g>
				<g>
					<path class="st9" d="M65.7,180c-0.1,0-0.2,0-0.2,0l-7.5-2.6c-0.4-0.1-0.6-0.5-0.4-0.9c0.1-0.4,0.5-0.6,0.9-0.4l7.5,2.6
						c0.4,0.1,0.6,0.5,0.4,0.9C66.2,179.8,66,180,65.7,180z"/>
				</g>
				<g>
					<path class="st9" d="M59.1,160.1c-0.3,0-0.5-0.1-0.6-0.4c-0.2-0.3,0-0.8,0.3-0.9l4.5-2.1c0.3-0.2,0.8,0,0.9,0.3
						c0.2,0.3,0,0.8-0.3,0.9l-4.5,2.1C59.3,160.1,59.2,160.1,59.1,160.1z"/>
				</g>
				<g>
					<path class="st9" d="M131.9,195.7c-0.3,0-0.5-0.1-0.6-0.4c-0.2-0.3,0-0.8,0.3-0.9l4.5-2.1c0.3-0.2,0.8,0,0.9,0.3
						c0.2,0.3,0,0.8-0.3,0.9l-4.5,2.1C132.1,195.7,132,195.7,131.9,195.7z"/>
				</g>
				<g>
					<path class="st9" d="M56.7,227.2c-0.1,0-0.3,0-0.4-0.1l-4.7-3.4c-0.3-0.2-0.4-0.7-0.1-1c0.2-0.3,0.7-0.4,1-0.1l4.7,3.4
						c0.3,0.2,0.4,0.7,0.1,1C57.2,227.1,56.9,227.2,56.7,227.2z"/>
				</g>
				<g>
					<path class="st9" d="M124.2,209.6c-0.1,0-0.2,0-0.3-0.1l-6.9-4c-0.3-0.2-0.4-0.6-0.2-0.9c0.2-0.3,0.6-0.4,0.9-0.2l6.9,4
						c0.3,0.2,0.4,0.6,0.2,0.9C124.7,209.5,124.4,209.6,124.2,209.6z"/>
				</g>
				<g>
					<path class="st9" d="M109.5,254.5c-0.2,0-0.4-0.1-0.6-0.3c-0.2-0.3-0.2-0.7,0.1-1l6.4-4.8c0.3-0.2,0.7-0.2,1,0.1
						c0.2,0.3,0.2,0.7-0.1,1l-6.4,4.8C109.8,254.4,109.7,254.5,109.5,254.5z"/>
				</g>
				<g>
					<path class="st9" d="M40.3,245.3c-0.2,0-0.4-0.1-0.5-0.2c-0.3-0.3-0.2-0.7,0.1-1l4.1-3.6c0.3-0.3,0.7-0.2,1,0.1
						c0.3,0.3,0.2,0.7-0.1,1l-4.1,3.6C40.6,245.2,40.5,245.3,40.3,245.3z"/>
				</g>
				<g>
					<polygon class="st9" points="42,205.7 42.7,208.1 44.5,206.3 					"/>
				</g>
				<g>
					<polygon class="st9" points="123.8,172.5 122.7,174.8 125.3,174.7 					"/>
				</g>
				<g>
					<polygon class="st9" points="94.1,162 95.8,163.8 96.6,161.4 					"/>
				</g>
				<g>
					<polygon class="st9" points="44.8,166.4 43.1,168.3 45.6,168.9 					"/>
				</g>
				<g>
					<polygon class="st9" points="81.4,173.7 82.6,175.9 84,173.8 					"/>
				</g>
				<g>
					<polygon class="st10" points="42.3,221.3 39.9,222 41.7,223.8 					"/>
				</g>
				<g>
					<polygon class="st10" points="127.1,226.2 125.3,228 127.7,228.8 					"/>
				</g>
				<g>
					<polygon class="st10" points="111.4,160.1 112.2,162.6 114,160.7 					"/>
				</g>
				<g>
					<path class="st10" d="M58.5,196.6c0,0.5-0.4,0.8-0.8,0.8c-0.5,0-0.8-0.4-0.8-0.8c0-0.5,0.4-0.8,0.8-0.8
						C58.1,195.8,58.5,196.1,58.5,196.6z"/>
				</g>
				<g>
					<path class="st10" d="M72.4,164.1c0,0.5-0.4,0.8-0.8,0.8c-0.5,0-0.8-0.4-0.8-0.8c0-0.5,0.4-0.8,0.8-0.8
						C72,163.2,72.4,163.6,72.4,164.1z"/>
				</g>
				<g>
					<path class="st10" d="M106.1,178c0,0.5-0.4,0.8-0.8,0.8c-0.5,0-0.8-0.4-0.8-0.8c0-0.5,0.4-0.8,0.8-0.8
						C105.7,177.2,106.1,177.5,106.1,178z"/>
				</g>
				<g>
					<path class="st10" d="M127.4,248.4c0,0.5-0.4,0.8-0.8,0.8c-0.5,0-0.8-0.4-0.8-0.8c0-0.5,0.4-0.8,0.8-0.8
						C127,247.5,127.4,247.9,127.4,248.4z"/>
				</g>
			</g>
			<polyline class="st11" points="68.2,245.5 22,260.4 22,315 144.1,315 144.1,260.4 103.7,248.1 			"/>
			<g class="st8">
				<defs>
					<polyline id="SVGID_3_" points="68.2,245.5 22,260.4 22,315 144.1,315 144.1,260.4 103.7,248.1 					"/>
				</defs>
				<clipPath id="SVGID_4_">
					<use xlink:href="#SVGID_3_"  style="overflow:visible;"/>
				</clipPath>
				<g class="st12">
					<g>
						<path class="st13" d="M26.9,274.7c33.3,1.4,66.8,1.2,100.1,0.6c9.5-0.2,19-0.2,28.4-0.8c0.8,0,0.8-1.2,0-1.2
							c-16.6,0.1-33.2,0.9-49.8,1.1c-16.8,0.2-33.5,0.2-50.3,0.1c-9.5-0.1-18.9-0.1-28.4-0.2C26.6,274.3,26.6,274.7,26.9,274.7
							L26.9,274.7z"/>
					</g>
				</g>
				<g class="st12">
					<g>
						<path class="st13" d="M151.8,270.5c-21.1-0.9-42.3-0.9-63.4-0.9c-10.5,0-21,0-31.4,0c-10.6,0-21.4-0.3-31.9,0.4
							c-0.7,0-0.7,1.1,0,1.1c10.6,0.5,21.3-0.1,31.9-0.1c10.5,0,21-0.1,31.4-0.1c21.1,0,42.3,0.4,63.4,0.1
							C152.1,270.9,152,270.5,151.8,270.5L151.8,270.5z"/>
					</g>
				</g>
				<g class="st12">
					<g>
						<path class="st13" d="M151.9,284.5c-21.1-0.9-42.3-0.9-63.4-0.9c-10.5,0-21,0-31.4,0c-10.6,0-21.4-0.3-31.9,0.4
							c-0.7,0-0.7,1.1,0,1.1c10.6,0.5,21.3-0.1,31.9-0.1c10.5,0,21-0.1,31.4-0.1c21.1,0,42.3,0.4,63.4,0.1
							C152.2,284.9,152.2,284.5,151.9,284.5L151.9,284.5z"/>
					</g>
				</g>
				<g class="st12">
					<g>
						<path class="st13" d="M22.5,266c33.7-0.8,67.5,1.3,101.2,0.4c4.8-0.1,9.5-0.3,14.3-0.6c4.5-0.3,9.4-0.2,13.8-1.4
							c0.3-0.1,0.2-0.4-0.1-0.4c-4.2-0.3-8.6,0.4-12.8,0.6c-4.1,0.2-8.2,0.4-12.3,0.6c-8.4,0.3-16.8,0.4-25.1,0.4
							c-16.8,0-33.6-0.5-50.4-0.6c-9.6,0-19.1,0.1-28.6,0.6C22.3,265.6,22.2,266,22.5,266L22.5,266z"/>
					</g>
				</g>
				<g class="st12">
					<g>
						<path class="st13" d="M21,290.8c33.7-0.8,67.5,1.3,101.2,0.4c4.8-0.1,9.5-0.3,14.3-0.6c4.5-0.3,9.4-0.2,13.8-1.4
							c0.3-0.1,0.2-0.4-0.1-0.4c-4.2-0.3-8.6,0.4-12.8,0.6c-4.1,0.2-8.2,0.4-12.3,0.6c-8.4,0.3-16.8,0.4-25.1,0.4
							c-16.8,0-33.6-0.5-50.4-0.6c-9.6,0-19.1,0.1-28.6,0.6C20.7,290.4,20.7,290.8,21,290.8L21,290.8z"/>
					</g>
				</g>
				<g class="st12">
					<g>
						<path class="st13" d="M21.8,280.5c33.7-0.8,67.5,1.3,101.2,0.4c4.8-0.1,9.5-0.3,14.3-0.6c4.5-0.3,9.4-0.2,13.8-1.4
							c0.3-0.1,0.2-0.4-0.1-0.4c-4.2-0.3-8.6,0.4-12.8,0.6c-4.1,0.2-8.2,0.4-12.3,0.6c-8.4,0.3-16.8,0.4-25.1,0.4
							c-16.8,0-33.6-0.5-50.4-0.6c-9.6,0-19.1,0.1-28.6,0.6C21.6,280.1,21.6,280.5,21.8,280.5L21.8,280.5z"/>
					</g>
				</g>
				<g class="st12">
					<g>
						<path class="st13" d="M20.5,260.8c10.2,0.7,20.6,0.2,30.8,0.2c9.9,0,19.9-0.1,29.8-0.1c9.9-0.1,19.9-0.1,29.8-0.2
							c5,0,9.9-0.1,14.9-0.1c5.3,0,10.7,0.2,15.9-0.3c0.7-0.1,0.7-1,0-1c-5.2-0.5-10.6-0.1-15.9-0.1c-5,0-9.9,0.1-14.9,0.1
							c-9.9,0.1-19.9,0.1-29.8,0.2c-9.9,0.1-19.9,0.1-29.8,0.2c-10.2,0.1-20.6-0.2-30.8,0.5C20,260.2,20,260.8,20.5,260.8
							L20.5,260.8z"/>
					</g>
				</g>
				<g class="st12">
					<g>
						<path class="st13" d="M138.6,255.3c-19.5-2.6-39.4-1.2-59-0.8c-9.9,0.2-19.8,0.4-29.8,0.7c-9.9,0.2-19.9,0-29.8,0.9
							c-0.7,0.1-0.7,1,0,1c9.9,0.4,19.9-0.3,29.8-0.6c9.9-0.2,19.8-0.5,29.8-0.8c19.6-0.5,39.5-2.1,59,0.1
							C139,256,139,255.4,138.6,255.3L138.6,255.3z"/>
					</g>
				</g>
				<g class="st12">
					<g>
						<path class="st13" d="M138,296.5c-19.5-2.6-39.4-1.2-59-0.8c-9.9,0.2-19.8,0.4-29.8,0.7c-9.9,0.2-19.9,0-29.8,0.9
							c-0.7,0.1-0.7,1,0,1c9.9,0.4,19.9-0.3,29.8-0.6c9.9-0.2,19.8-0.5,29.8-0.8c19.6-0.5,39.5-2.1,59,0.1
							C138.4,297.1,138.4,296.5,138,296.5L138,296.5z"/>
					</g>
				</g>
				<g class="st12">
					<g>
						<path class="st13" d="M130.3,251.5c-17-0.9-34.1-1.2-51.2-1.3c-8.4-0.1-16.7-0.1-25.1-0.1c-7.5,0.1-15.6,0.1-22.7,2.8
							c-0.5,0.2-0.3,1,0.2,0.9c15.9-3.4,32.4-2.5,48.6-2.4c16.7,0.1,33.5,0.6,50.2,0.8C130.7,252.2,130.7,251.5,130.3,251.5
							L130.3,251.5z"/>
					</g>
				</g>
			</g>
			<g class="st8">
				<path class="st14" d="M106.4,211.8c-0.5-1,0.3-2.3,1.4-2.6c1.1-0.3,2.3,0.2,3,1c0.7,0.8,1.1,2,1.3,3.1c0.3,1.8,0.1,3.8-0.9,5.3
					c-1,1.5-2.9,2.5-4.7,2.1"/>
			</g>
			<path class="st15" d="M101.3,192.8c0,0,13.6,35.7,9.5,39.8c-4.1,4.1-24.7,7.3-27.2,4.8c-2.5-2.5-7.7-9.1-9.5-12.6
				c-2.7-5.1-6.5-17.4-3.1-23C74.3,196.2,96.3,187.8,101.3,192.8z"/>
			<g class="st8">
				<path class="st16" d="M89.9,206.8c-3.6-0.8-7.5,0.1-10.5,2.4l0.6,1.4c3.3-1.3,6.7-1.9,10.2-1.9C90.1,208.1,90,207.4,89.9,206.8z
					"/>
			</g>
			<g class="st8">
				<path class="st16" d="M104.7,202.9c-2.3-0.4-4.7,0.5-6,3l0.9,1.2c1.9-2.3,4.9-2.6,4.9-2.6L104.7,202.9z"/>
			</g>
			<path class="st17" d="M93.2,213.3c0,0.7-0.5,1.2-1.1,1.2c-0.6,0-1.1-0.5-1.1-1.2s0.5-1.2,1.1-1.2
				C92.8,212.1,93.2,212.7,93.2,213.3z"/>
			<ellipse class="st17" cx="103.6" cy="209.4" rx="1.1" ry="1.2"/>
			<line class="st18" x1="108.9" y1="216.8" x2="107.2" y2="209.8"/>
			<path class="st15" d="M103.2,233.5l-1.1,19.6c0,0-7.2,7.3-11.4,7.3c-8.1,0-19.2-13.8-19.2-13.8l5.6-21.3"/>
			<g class="st8">
				<path class="st19" d="M95.3,220.9c2.9-1,5.5-2,8.5-2.3c0.8-0.1,1.5-0.2,2.2-0.5c1.4-0.6,2.3-2,2.4-3.4c3.2,1.9,5.4,6.3,6.8,9.6
					c1.6,3.7,2.5,8.5-0.3,11.9c-3.7,4.5-11.7,4.3-16.9,5.5c-4.6,1-9.5,1.8-13.8,0c-4.7-2-5.3-5.6-8.5-8.9c0.2,1.2-1.3,2.1-2.5,1.8
					c-1.2-0.3-2-1.4-2.7-2.4c-1.3-1.8-2.7-3.7-3.8-5.7c-3-5.2-4.3-11.2-4.7-17.2c-0.1-1.2-0.1-2.5,0.5-3.6c0.5-0.9,1.3-1.5,1.7-2.4
					c0.4-1,0.2-2.1,0.2-3.1c0.1-2,1-3.8,2-5.4c6.2-9.6,16.8-13.2,27.8-12.3c6.8,0.6,13.6,3.8,16.9,9.8c0.6,1.1,1.1,2.4,1,3.7
					c-0.4,3.2-4.2,4.5-7.4,5.1c-5.5,1.1-11,2.1-16.6,2.2c-4.9,0.1-9.8-0.4-13.8,3.2c-0.1,0.1-0.3,0.3-0.4,0.4
					c-0.1,0.2-0.1,0.4-0.1,0.6c-0.1,3.1,1.2,6.1,2.4,9c0.6,1.3,1.1,2.7,2,3.8c1.8,2.2,4.6,2.6,7.3,2.7
					C88.9,223,92.2,221.9,95.3,220.9z"/>
			</g>
			<g class="st8">
				<g>
					<path class="st19" d="M73.7,206.9c5.8-3.9,14.4-1.7,21-2.7c4-0.6,9.9-2.3,11.4-6.6c0.1-0.3-0.4-0.5-0.5-0.2
						c-2.8,5.8-11.5,6.3-17.1,6.5c-4.9,0.1-11-0.4-15,2.8C73.5,206.8,73.6,207,73.7,206.9L73.7,206.9z"/>
				</g>
			</g>
			<g class="st8">
				<g>
					<path class="st19" d="M109.9,216.1c3.2,2.1,5.3,5.1,6.2,8.9c0.8,3.3,0.9,7.4-1.9,9.9c-0.3,0.3,0.1,0.7,0.4,0.5
						c3.1-1.9,2.9-6.2,2.4-9.3c-0.8-4.3-3.1-8.2-7-10.2C109.9,215.7,109.8,216,109.9,216.1L109.9,216.1z"/>
				</g>
			</g>
			<path class="st20" d="M94.4,226.1l12.8-2.4c0.2,0,0.4,0.1,0.5,0.3c0.4,1.5,1.7,7.3-4.2,8.3c-6.5,1.1-8.9-3.8-9.5-5.6
				C93.9,226.5,94.1,226.1,94.4,226.1z"/>
			<g class="st8">
				<path class="st14" d="M79.4,227.1c-2.1-3.9-5.8-9.7-8.9-7c-0.5,0.5-0.8,1.2-1,1.9c-0.9,3.7,1.3,7.8,4.8,9.1
					c2.3,0.8,5.2,0.5,5.3-2.5C79.6,228.1,79.5,227.6,79.4,227.1z"/>
			</g>
			<path class="st18" d="M71.5,224.3c0,0-0.5-2.5,0.7-2.5s2.1,1,2.5,2c0.1,0.4-1.1,1.7-0.1,2.2c1,0.5,1.6,0.4,2.3,1.1
				c0.7,0.7,1,2.5-0.5,2.5"/>
			<path class="st18" d="M97.7,207.4c0,0,7,6.8,6.7,10.2c-0.2,2.8-6.7,1.9-6.7,1.9"/>
			<path class="st21" d="M92.3,296c0,0,1.4-21.2-1.6-35.6"/>
			<path class="st20" d="M73.6,238.8c0,0,10.9,19.6,17.1,21.7c-3.8,5.5-8.7,13.9-11.1,13.9c-4.2,0-14.3-28-14.3-28L73.6,238.8z"/>
			<path class="st20" d="M90.7,260.4c8.7-4.6,12.1-17,12.1-17l4.2,6c0,0-2.8,22.5-6.3,22.5C98.7,271.9,90.7,260.4,90.7,260.4z"/>
			<path class="st17" d="M90.6,264.5c0,0.5-0.4,0.8-0.8,0.8s-0.8-0.4-0.8-0.8c0-0.5,0.4-0.8,0.8-0.8S90.6,264.1,90.6,264.5z"/>
			<path class="st17" d="M90.7,278.7c0,0.5-0.4,0.8-0.8,0.8c-0.5,0-0.8-0.4-0.8-0.8s0.4-0.8,0.8-0.8
				C90.3,277.8,90.7,278.2,90.7,278.7z"/>
			<line class="st21" x1="128.4" y1="279.4" x2="126.3" y2="306.5"/>
			<g class="st8">
				<g>
					<path class="st19" d="M62.7,208c-0.9,6.7-0.3,13.7,2.8,19.8c1.6,3.1,5.2,8.7,9.4,6.4c0.3-0.2,0.1-0.7-0.2-0.6
						c-4.5,1.5-7.5-4.1-9.1-7.5c-2.6-5.6-3-12-2.5-18.1C63.1,207.9,62.7,207.8,62.7,208L62.7,208z"/>
				</g>
			</g>
		</g>
		<g>
			<path class="st22" d="M103.6,339.8h24.1c3.9,0,7.1-3.2,7.1-7.1v-8.2c0-3.9-3.2-7.1-7.1-7.1h-27.1l-4.1-3.9v19.3
				C96.5,336.6,99.7,339.8,103.6,339.8z"/>
			<g>
				<path class="st23" d="M105,329c0-0.9,0.6-1.5,1.4-1.5s1.4,0.6,1.4,1.5c0,0.9-0.6,1.5-1.5,1.5C105.5,330.5,105,329.8,105,329z"/>
				<path class="st23" d="M114.2,329c0-0.9,0.6-1.5,1.4-1.5s1.4,0.6,1.4,1.5c0,0.9-0.6,1.5-1.5,1.5
					C114.8,330.5,114.2,329.8,114.2,329z"/>
				<path class="st23" d="M123.5,329c0-0.9,0.6-1.5,1.4-1.5c0.8,0,1.4,0.6,1.4,1.5c0,0.9-0.6,1.5-1.5,1.5
					C124,330.5,123.5,329.8,123.5,329z"/>
			</g>
		</g>
	</g>
	<g>
		<g>
			<g>
				<polygon class="st7" points="296.3,354.7 233.8,354.7 240,324.5 290.1,324.5 				"/>
				<polygon class="st23" points="237.1,338.8 240,324.5 290.1,328.4 				"/>
				<path class="st7" d="M311,359.5h-91.9v-0.6c0-3.2,2.6-5.7,5.7-5.7h80.5c3.2,0,5.7,2.6,5.7,5.7V359.5z"/>
				<line class="st24" x1="234.2" y1="353.2" x2="296" y2="353.2"/>
			</g>
			<path class="st7" d="M361.6,182.9H168.5c-4.4,0-8,3.6-8,8v129.6c0,4.4,3.6,8,8,8h193.2c4.4,0,8-3.6,8-8V190.9
				C369.6,186.5,366,182.9,361.6,182.9z"/>
			<rect x="166.9" y="189.2" class="st5" width="196.4" height="132.9"/>
			<g>
				<path class="st25" d="M361.6,182.9h-26.2c-2.2,1.5-4.2,3.2-5.8,5.3c-1.8,2.3-3.2,5-3,7.9c0.3,4.9,5.5,8.4,10.4,8.3
					c4.9-0.1,9.3-2.9,13-6.1c3.6-3.2,5.9-7.8,9.6-10.8c2-1.6,4.1-2.7,7.2-2.7C365.4,183.6,363.6,182.9,361.6,182.9z"/>
			</g>
		</g>
		<g>
			<defs>
				<rect id="SVGID_5_" x="166.9" y="189.2" width="196.4" height="132.9"/>
			</defs>
			<clipPath id="SVGID_6_">
				<use xlink:href="#SVGID_5_"  style="overflow:visible;"/>
			</clipPath>
			<g class="st26">
				<path class="st27" d="M185.5,339.8c-4.3-4.8-6.1-11.2-7.8-17.4c-1.9-7.1-3.9-14.3-3.5-21.7c0.2-3,0.7-5.9,0.7-8.9
					c0.1-6.5-2.3-13-2-19.4c0-0.7,0.9-0.9,1.2-0.4c7.3,10.3,12.3,22.1,14.6,34.5c2.2,11.8,2.2,24.5,8.2,35"/>
			</g>
			<g class="st26">
				<path class="st27" d="M214.9,331.5c-4.3-10-8.3-20.1-10-30.8c-1.2-7.8-1-15.8-0.8-23.7c0.3-7.4,0.6-14.5,2.2-21.8
					c2.2-9.9,5.6-19.5,9.2-29c0.4-1.1,2.1-0.9,2.2,0.3c1.1,10.7,2.4,21.4,4.4,31.9c2.1,10.7,5,21.4,5.2,32.4
					c0.3,15.2-4.6,30.3-2.7,45.3"/>
			</g>
			<g class="st26">
				<g>
					<path class="st10" d="M217.3,224.7c-4,16.2-3.3,33.1-1.9,49.6c0.7,8.7,1.7,17.3,2.4,26c0.7,8.9,0.6,17.7,1.1,26.5
						c0,0.3,0.4,0.3,0.4,0c0.9-8.4,0-17.2-0.7-25.6c-0.7-8.7-1.7-17.3-2.4-26c-1.5-16.9-1.9-33.8,1.4-50.5
						C217.6,224.6,217.4,224.6,217.3,224.7L217.3,224.7z"/>
				</g>
			</g>
			<g class="st26">
				<g>
					<path class="st10" d="M217.7,228.1c-0.3,16.5,2.3,33,3.4,49.5c0.6,8,0.9,16.1,0.5,24.2c-0.4,8.4-2.4,17.1-1.6,25.5
						c0,0.3,0.4,0.3,0.4,0c0.4-8.5,1.5-17,1.9-25.5c0.4-8.1,0-16.1-0.6-24.2c-1.2-16.5-3.2-32.9-3.8-49.5
						C217.9,227.9,217.7,227.9,217.7,228.1L217.7,228.1z"/>
				</g>
			</g>
			<g class="st26">
				<g>
					<path class="st10" d="M224.2,268.8c0.3,10.1,1.1,20.2,0.5,30.3c-0.4,5.2-1.3,10.3-2.1,15.4c-0.7,4.3-1.3,8.8-0.6,13.1
						c0.1,0.3,0.6,0.3,0.6-0.1c-0.5-9.8,2.3-19.2,2.8-29c0.6-9.9,0.1-20-0.9-29.8C224.5,268.6,224.2,268.5,224.2,268.8L224.2,268.8z
						"/>
				</g>
			</g>
			<g class="st26">
				<g>
					<path class="st10" d="M211.7,235.1c-3.9,14.4-5.6,30-2.8,44.7c1.5,7.8,3.8,15.4,5.7,23.1c2,8.1,3.1,16.1,3,24.5
						c0,0.4,0.5,0.4,0.6,0c1.6-15.3-4.8-30.5-7.9-45.2c-1.6-7.7-2.3-15.4-1.7-23.3c0.6-8,2.2-15.8,3.5-23.7
						C212,235,211.7,234.9,211.7,235.1L211.7,235.1z"/>
				</g>
			</g>
			<g class="st26">
				<g>
					<path class="st10" d="M204.4,275.9c1,8.9,3.2,17.8,5,26.6c0.9,4.5,1.8,9,2.8,13.4c0.9,4.1,1.8,8.4,3.8,12.1
						c0.1,0.3,0.6,0.1,0.5-0.2c-2.8-8.2-4.5-16.6-6.3-25.1c-1.9-8.9-4.2-17.8-5.4-26.9C204.8,275.6,204.4,275.6,204.4,275.9
						L204.4,275.9z"/>
				</g>
			</g>
			<g class="st26">
				<path class="st28" d="M199.7,316.7c-8.8-27.8-12-57.4-9.2-86.5c0.9-8.9,2.2-17.7,4-26.4c0.2-1.1,1.7-1,1.9,0.1
					c1.2,11.1,5.9,21.9,9.6,32.6c11.1,32,14.2,66.8,8.9,100.2"/>
			</g>
			<g class="st26">
				<path class="st28" d="M228,333.5c-0.8-21.7-11.8-43.1-7.1-64.3c1.2-5.3,3.3-10.4,4.1-15.8c0.6-4.1,0.5-8.2,0.7-12.4
					c0.4-8.2,2.4-16.3,5.7-23.8c1.7-3.8,4-7.2,6-10.9c0.6-1.1,2.6-4.2,3.8-6.7c0.4-0.7,1.5-0.6,1.6,0.2c2.4,13.5,3.8,28.6,2.3,42.2
					c-0.6,5.5-1.8,10.9-1.2,16.4c0.3,3.5,1.4,7,2,10.5c3.2,17.8-4.8,36.1-2.4,54.1"/>
			</g>
			<g class="st26">
				<path class="st28" d="M299.6,324.6c-5.5-16.9-5.6-35.5-0.3-52.5c0.8-2.6,1.8-5.3,2.1-8c0.7-4.9-0.6-9.8-1-14.7
					c-1-13.4,4.3-26.2,10.1-38.4c0.4-0.9,1.8-0.7,1.9,0.3c1.5,14,7.4,27.2,8.4,41.3c0.5,6.9,0.4,13.8-0.7,20.6
					c-1.2,7.4-3.2,14.8-3.8,22.3c-0.5,5.7-0.6,12.4-2.5,17.9"/>
			</g>
			<g class="st26">
				<path class="st27" d="M330.9,331.5c0.6,0.8,1.5-0.6,1.5-1.6c-0.2-7.6-2.3-15.1-6-21.7c-1.9-3.3-4.1-6.4-5.2-10
					c-0.9-3.1-0.9-6.5-0.6-9.7c0.2-3.2,0.6-6.5,1.8-9.4c2-4.9,6.2-8.6,8.9-13.1c6.3-10.3,2.9-23.6,7.8-34.7c0.6-1.3,3.1-1.3,3.5,0.1
					c1.7,6.2,4.8,13.2,5.5,19.5c0.9,7.8-3.1,15.5-2.3,23.4c0.6,6.5,3.9,12.8,3.3,19.3c-0.5,4.9-3.2,9.4-3.5,14.3
					c-0.2,4,1.2,7.9,2,11.8c0.8,3.9,0.9,8.4-1.6,11.5"/>
			</g>
			<g class="st26">
				<path class="st29" d="M263.7,324.5c-6.4-17.2,0.4-28,1.4-34.7c2.4-17-0.6-21.9-1-34.3c-0.3-8.3-1.2-16.6,0.3-24.7
					c2.3-12.5,10.2-23.8,12.8-36c0.4-1.7,2.7-1.8,3.2-0.1c2.7,9.6,5.3,19.3,8,28.9c2.4,8.8,4.9,17.8,4.6,26.9
					c-0.2,5.7-1.4,11.3-2.1,17c-0.7,6.2-1.5,16.5-1.6,22.8c-0.1,9.6,5,15.9-1.3,35.7"/>
			</g>
			<g class="st26">
				<g>
					<path class="st10" d="M172.8,272.4c2.8,9.5,5.6,19,7.4,28.8c1.9,9.9,2.1,20.8,7.2,29.8c0.1,0.2,0.4,0.1,0.3-0.1
						c-1.8-4.9-3.6-9.5-4.5-14.7c-0.9-5.2-1.5-10.4-2.5-15.5c-1.8-9.6-4.4-19.1-7.5-28.3C173.1,272.1,172.7,272.2,172.8,272.4
						L172.8,272.4z"/>
				</g>
			</g>
			<g class="st26">
				<g>
					<path class="st10" d="M173.8,281.3c1.5,8.1,2.4,16.4,3.7,24.5c1.3,7.6,2.9,15.8,6.9,22.5c0.2,0.3,0.6,0,0.4-0.3
						c-3.3-7.6-5.5-15.1-6.8-23.3c-1.3-7.9-2.1-15.8-4-23.5C174,281.1,173.8,281.2,173.8,281.3L173.8,281.3z"/>
				</g>
			</g>
			<g class="st26">
				<g>
					<path class="st10" d="M174.3,297.8c-0.1,5.5,0.6,11,2,16.3c1.3,5.1,3.2,10.8,6.2,15.2c0.1,0.2,0.4,0,0.3-0.2
						c-2.1-5.1-4.5-9.8-5.9-15.2c-1.4-5.3-2-10.7-2.2-16.1C174.7,297.5,174.3,297.5,174.3,297.8L174.3,297.8z"/>
				</g>
			</g>
			<g class="st26">
				<g>
					<path class="st10" d="M176.2,274.8c6.8,16.6,7,35.1,11.2,52.5c0,0.1,0.2,0.1,0.2,0c-1-9.2-3.1-18.4-4.6-27.6
						C181.5,291.4,180.7,282,176.2,274.8C176.2,274.7,176.2,274.7,176.2,274.8L176.2,274.8z"/>
				</g>
			</g>
			<g class="st26">
				<g>
					<path class="st10" d="M184.2,291.2c1.5,6.5,2.1,13,2.7,19.6c0.5,5.6,1,11.8,3.5,16.8c0.1,0.2,0.4,0.1,0.3-0.1
						c-0.8-3-1.7-5.9-2.2-8.9c-0.6-3.3-0.9-6.7-1.2-10c-0.6-5.9-1.1-11.8-3-17.4C184.3,291.1,184.2,291.1,184.2,291.2L184.2,291.2z"
						/>
				</g>
			</g>
			<g class="st26">
				<g>
					<path class="st10" d="M195.3,202.8c-1.2,15.7-1.7,31.9,0.4,47.6c1.1,7.9,3.1,15.4,5.4,23c2.3,7.6,4.1,15.2,5.5,23
						c1.8,9.5,3.2,19,4.2,28.6c0,0.4,0.7,0.5,0.7,0c-1.5-15.7-4.1-31.4-8.3-46.6c-2.2-7.9-4.9-15.7-6.3-23.8
						c-1.4-8.1-1.9-16.3-2-24.5c-0.1-9.1,0.5-18.1,0.7-27.2C195.7,202.6,195.3,202.6,195.3,202.8L195.3,202.8z"/>
				</g>
			</g>
			<g class="st26">
				<g>
					<path class="st10" d="M192,221c-2.4,16.9-0.6,34.7,2.4,51.5c3.2,17.7,8.3,35,14,52c0.2,0.5,0.9,0.3,0.8-0.2
						c-5.6-16.6-10.6-33.4-13.8-50.6c-1.6-8.7-2.8-17.4-3.4-26.2c-0.6-8.8-0.3-17.6,0.1-26.5C192.2,220.9,192,220.9,192,221L192,221
						z"/>
				</g>
			</g>
			<g class="st26">
				<g>
					<path class="st10" d="M190,259c0.5,10.8,2.2,21.5,4.7,32c2.5,10.2,5.7,21.1,11.3,30.1c0.2,0.3,0.6,0,0.5-0.3
						c-2.2-5-4.7-9.9-6.6-15c-1.8-4.9-3.3-9.9-4.5-15c-2.6-10.5-3.9-21.1-5-31.8C190.4,258.8,190,258.8,190,259L190,259z"/>
				</g>
			</g>
			<g class="st26">
				<g>
					<path class="st10" d="M198.5,214.8c-0.4,18.1,3.6,36.1,7.1,53.8c3.6,18.4,6.5,36.6,6.5,55.4c0,0.4,0.6,0.4,0.6,0
						c1-18-2.5-36.1-5.9-53.8c-3.6-18.4-6.9-36.6-7.8-55.4C198.9,214.5,198.5,214.5,198.5,214.8L198.5,214.8z"/>
				</g>
			</g>
			<g class="st26">
				<g>
					<path class="st10" d="M208.2,245c0.9,14,3,27.9,4.8,41.8c0.9,6.8,1.1,13.5,0.7,20.3c-0.4,6.7-1.5,13.6-0.5,20.3
						c0,0.2,0.3,0.1,0.3,0c0.5-13.7,2-27.4,0.2-41.1c-1.8-13.8-3.5-27.5-5.2-41.3C208.5,244.8,208.2,244.8,208.2,245L208.2,245z"/>
				</g>
			</g>
			<g class="st26">
				<g>
					<path class="st10" d="M242.6,199.9c-2.7,6.4-2.9,12.6-3.5,19.4c-0.7,9.1-1.4,18.1-2.1,27.2c-1.3,17.9-2.8,35.8-2.9,53.8
						c-0.1,9.6,0.3,19.3,2.2,28.8c0.1,0.5,0.9,0.3,0.8-0.2c-2.6-17.4-2.1-34.7-1.1-52.2c1-17.5,2.3-34.9,3.5-52.4
						c0.6-8.2,0.6-16.4,3.4-24.2C243,199.7,242.7,199.7,242.6,199.9L242.6,199.9z"/>
				</g>
			</g>
			<g class="st26">
				<g>
					<path class="st10" d="M237,206c-2.3,7.4-3,15.1-3.5,22.8c-0.5,8.1-1.1,16.2-2.2,24.3c-2.2,16.3-2.9,32.5-1.4,48.9
						c0.8,9,2,18.1,4.3,26.9c0.1,0.4,0.7,0.2,0.6-0.2c-2.9-16-5.1-31.8-4.9-48.1c0.2-16,3.2-31.7,4-47.6c0.5-9.1,1-18.1,3.4-26.9
						C237.4,205.8,237.1,205.7,237,206L237,206z"/>
				</g>
			</g>
			<g class="st26">
				<g>
					<path class="st10" d="M228.6,225.2c-0.1,9.4,0,18.8-1.9,28.1c-0.9,4.5-2.5,8.8-3.6,13.2c-1,4.2-1.2,8.6-1,12.9
						c0.5,8.9,2.5,17.8,4.1,26.6c1.5,8.7,2.8,17.8,6.2,26c0.2,0.4,0.8,0.1,0.7-0.3c-2.8-8.7-4.6-17.4-6.1-26.4
						c-1.6-9-3.7-18.1-4-27.3c-0.2-4.7,0.4-9.3,1.7-13.9c1.2-4.1,2.5-8.2,3.2-12.4c1.5-8.7,1.4-17.6,1.1-26.4
						C228.9,225,228.6,225,228.6,225.2L228.6,225.2z"/>
				</g>
			</g>
			<g class="st26">
				<g>
					<path class="st10" d="M244.8,218.6c-1.7,8.6-3,17.5-3.9,26.2c-0.9,9.5-0.1,19.1,0.6,28.6c0.7,9.4,0.9,18.6,0,27.9
						c-0.9,8.6-2.4,17.9,0.3,26.3c0.1,0.4,0.7,0.3,0.7-0.2c-1.8-9.3-0.9-18.2,0-27.6c0.9-9,0.5-18-0.1-27c-0.7-9-1.4-18.1-0.7-27.2
						c0.7-9.1,2.6-18,3.6-27.1C245.2,218.5,244.9,218.4,244.8,218.6L244.8,218.6z"/>
				</g>
			</g>
			<g class="st26">
				<g>
					<path class="st10" d="M268.9,219.5c-6.6,16.9-2.9,35.3-1.7,52.8c0.3,4.8,0.4,9.7,0.1,14.5c-0.3,4.5-1.3,8.8-1.9,13.3
						c-1.2,9.3,1.2,19,2.9,28c0.1,0.5,0.9,0.3,0.8-0.2c-1.7-9.7-4.2-19.7-2.6-29.6c1.4-8.7,2-17.1,1.5-26
						c-1.1-17.6-4.6-35.6,1.3-52.7C269.4,219.3,269,219.2,268.9,219.5L268.9,219.5z"/>
				</g>
			</g>
			<g class="st26">
				<g>
					<path class="st10" d="M274.3,203.1c-0.7,15.6-6.2,30.7-5.2,46.4c0.5,8.2,1.4,16.4,1.6,24.7c0.2,8.2,0,16.3-0.3,24.5
						c-0.4,8.4-1.5,17.7,1,25.9c0.1,0.4,0.7,0.2,0.7-0.2c-0.7-5.3-1.3-10.4-1.1-15.7c0.1-5.1,0.4-10.2,0.6-15.3
						c0.3-10.3,0.3-20.6-0.4-30.9c-0.3-4.9-1-9.9-1.2-14.8c-0.2-5.3,0.3-10.5,1.1-15.7c1.5-9.5,4.3-19.1,3.6-28.7
						C274.6,202.9,274.3,202.9,274.3,203.1L274.3,203.1z"/>
				</g>
			</g>
			<g class="st26">
				<g>
					<path class="st10" d="M278.4,194.1c-2,18.5-2.3,37.4-2.4,56c0,9.1,0.2,18.2,0.2,27.2c0,9.3-1,18.4-2.5,27.6
						c-1.4,9.2-2.7,18.8,0.2,27.9c0.2,0.5,0.9,0.3,0.8-0.2c-2.4-8.9-1.5-18-0.1-27c1.3-8.5,2.4-16.8,2.6-25.4
						c0.2-18.2-0.3-36.5,0.2-54.7c0.3-10.5,1.1-21,1.5-31.4C278.8,193.8,278.4,193.9,278.4,194.1L278.4,194.1z"/>
				</g>
			</g>
			<g class="st26">
				<g>
					<path class="st10" d="M282.4,204.6c1.3,8.6,1.8,16.9,1.6,25.6c-0.2,8.3-0.7,16.7-0.4,25c0.3,8.6,0.8,17.1-0.5,25.6
						c-1.2,8-3.3,15.8-5,23.6c-1.9,8.3-3.5,17-2.7,25.6c0,0.5,0.8,0.5,0.7,0c-0.5-16.6,5.2-31.9,7.7-48.1c1.3-8.1,1.1-16.1,0.7-24.3
						c-0.4-8.5,0-17,0.2-25.5c0.3-9.1,0.5-18.7-2.1-27.6C282.6,204.4,282.4,204.4,282.4,204.6L282.4,204.6z"/>
				</g>
			</g>
			<g class="st26">
				<g>
					<path class="st10" d="M289.8,230.6c2.5,16.5-0.5,32.8-1.7,49.2c-0.6,7.8-0.3,15.6-0.4,23.4c-0.1,8.5-2.4,16.1-5.4,24
						c-0.2,0.5,0.6,0.7,0.8,0.2c2.8-7.5,5.2-14.8,5.3-22.8c0.2-8.3-0.3-16.5,0.4-24.8c1.3-16.4,4.6-33,1.3-49.3
						C290,230.3,289.8,230.4,289.8,230.6L289.8,230.6z"/>
				</g>
			</g>
			<g class="st26">
				<g>
					<path class="st10" d="M311.4,210.4c-3.4,7-6.3,14.4-7.9,22.1c-1.6,7.8-1.1,15.4-0.2,23.2c0.4,4,0.8,8.1,0.5,12.2
						c-0.4,4.4-1.9,8.5-2.7,12.8c-1.4,7.6-1.6,15.6-1.7,23.4c-0.1,8.3,0.6,16.7,3.8,24.4c0.2,0.4,0.8,0.1,0.6-0.3
						c-2.7-7.2-3.6-14.7-3.6-22.4c0-7.9,0.1-16.1,1.5-24c0.6-3.7,1.9-7.4,2.5-11.1c0.6-3.7,0.6-7.6,0.3-11.3c-0.7-8.1-2-16-0.8-24.1
						c1.3-8.7,4.8-16.7,7.9-24.9C311.6,210.3,311.4,210.3,311.4,210.4L311.4,210.4z"/>
				</g>
			</g>
			<g class="st26">
				<g>
					<path class="st10" d="M312.2,210.3c-6.9,18.9-3.8,39.9-3,59.5c0.4,10.4-0.3,20.6-1.5,30.9c-1.2,9.6-2.6,19.7-0.8,29.4
						c0.1,0.3,0.6,0.2,0.5-0.1c-0.9-9.9-0.1-19.5,1.1-29.3c1.2-10.2,1.9-20.2,1.5-30.4c-0.8-20.2-3.1-40.1,2.5-59.9
						C312.6,210.2,312.3,210.1,312.2,210.3L312.2,210.3z"/>
				</g>
			</g>
			<g class="st26">
				<g>
					<path class="st10" d="M312.5,215.7c-1,9.5-0.7,19.1,0,28.6c0.7,9.1,2.3,18.4,2.1,27.6c-0.1,4.9-1.1,9.7-1.9,14.5
						c-0.7,4.2-1.1,8.4-1.5,12.6c-0.4,4.6-0.9,9.1-1.3,13.7c-0.4,4.4-0.5,9,0.7,13.3c0.1,0.4,0.7,0.2,0.6-0.2
						c-1.7-9.1,0-18.7,0.9-27.8c0.9-9,3.2-18.1,3.3-27.2c0.1-9-1.5-18.1-2.2-27.1c-0.7-9.4-0.9-18.7-0.4-28.1
						C312.8,215.5,312.5,215.5,312.5,215.7L312.5,215.7z"/>
				</g>
			</g>
			<g class="st26">
				<g>
					<path class="st10" d="M315.7,229.5c0.8,15.9,3,31.5,1.4,47.4c-0.8,7.9-2.8,15.5-3.9,23.3c-1.1,7.4-1.4,14.9-1.4,22.4
						c0,0.5,0.8,0.5,0.8,0c0.3-8.1,0.4-16.1,1.7-24.1c1.2-7.4,3-14.7,3.7-22.1c1.5-15.5,0.4-31.6-2-47
						C316,229.3,315.7,229.3,315.7,229.5L315.7,229.5z"/>
				</g>
			</g>
			<g class="st26">
				<g>
					<path class="st10" d="M341.9,229.6c-1.2,3.7-1.9,7.6-2.1,11.5c-0.2,4.4,0.1,8.7-0.3,13c-1,8.7-4.2,17-6.4,25.5
						c-2.1,8.1-2.5,15.7-0.7,23.8c1,4.5,2.1,9,3.2,13.5c0.9,3.8,1.3,8.2,3.6,11.5c0.2,0.3,0.7,0,0.5-0.3c-2.1-3.7-2.6-8.3-3.6-12.4
						c-1-4.2-2-8.3-2.9-12.5c-2-9-1-17.4,1.4-26.2c2.1-7.5,4.7-15,5.6-22.8c0.4-4,0.2-8.1,0.3-12.1c0.1-4.2,0.8-8.3,1.9-12.3
						C342.4,229.5,342,229.4,341.9,229.6L341.9,229.6z"/>
				</g>
			</g>
			<g class="st26">
				<g>
					<path class="st10" d="M342.6,231.7c-0.5,4.2-0.3,8.4-0.4,12.6c-0.2,4.2-0.7,8.5-1.5,12.7c-1.3,7.4-3.1,14.8-4,22.2
						c-0.9,7.6-0.2,14.8,1.1,22.3c1.5,8.4,1.9,16.9,2.6,25.5c0,0.4,0.6,0.4,0.6,0c-0.3-8-0.8-16-2.1-23.9c-0.7-4.2-1.6-8.3-1.9-12.5
						c-0.2-3.8,0-7.6,0.4-11.3c0.9-8,2.9-15.9,4.2-23.9c1.2-7.9,0.9-15.6,1.1-23.6C342.7,231.6,342.6,231.6,342.6,231.7L342.6,231.7
						z"/>
				</g>
			</g>
			<g class="st26">
				<g>
					<path class="st10" d="M344.2,235.3c1.1,15.3-4.6,30-3.3,45.3c0.6,7.7,2,15.3,2.6,22.9c0.6,8.1,0.6,16.3,0.8,24.4
						c0,0.3,0.5,0.3,0.5,0c0.5-8,0.2-16-0.4-23.9c-0.6-7.8-2-15.6-2.6-23.4c-1.3-15.2,4.6-30.1,2.8-45.3
						C344.5,235.1,344.2,235.1,344.2,235.3L344.2,235.3z"/>
				</g>
			</g>
			<g class="st26">
				<g>
					<path class="st10" d="M337.4,238c1.2,15.3-7.4,29.1-10.5,43.7c-0.7,3.2-1.1,6.6-1,9.9c0.1,3.9,1.1,7.7,2,11.5
						c2.2,9.1,4.1,18.3,6.7,27.3c0.1,0.4,0.7,0.2,0.6-0.2c-1.7-8.9-4.1-17.6-6.2-26.4c-1-4.3-2.2-8.5-2.2-13c0-3.8,0.6-7.5,1.5-11.2
						c3.3-13.7,11.2-27.1,9.5-41.6C337.7,237.7,337.4,237.7,337.4,238L337.4,238z"/>
				</g>
			</g>
			<g class="st26">
				<path class="st28" d="M351,334.9c-2.7-3.4-5.4-6.9-6.3-11c-0.7-3.2-0.3-6.5-0.5-9.7c-0.4-4.8-2.1-9.4-2.1-14.2
					c0-10,7-17.9,10.5-26.8c1.8-4.4,1.4-8.2,2.3-12.7c1-5.4,2.1-10.8,3.8-16.1c0.4-1.2,2.1-1,2.2,0.3c1.4,20.4,8.4,40.6,5.5,60.9
					c-1.8,12.6-7.3,24.3-12.7,35.7"/>
			</g>
			<g class="st26">
				<g>
					<path class="st10" d="M359.1,243.8c-1.5,6.7-0.9,13.6-0.9,20.5c0,3.7-0.1,7.4-0.7,11c-0.6,3.4-1.6,6.8-2.3,10.2
						c-1.3,6.8-1.5,13.8-1.7,20.8c-0.2,7.6-0.5,15.3-0.5,22.9c0,0.4,0.6,0.4,0.6,0c0.3-7.3,0.4-14.6,0.6-21.9
						c0.2-7.5,0.3-15.1,1.9-22.5c1.4-6.4,2.8-12.4,2.8-19c0-7.3-0.7-14.5,0.5-21.8C359.4,243.7,359.2,243.6,359.1,243.8L359.1,243.8
						z"/>
				</g>
			</g>
			<g class="st26">
				<g>
					<path class="st10" d="M356.6,258.2c-0.2,12.3-3.9,23.9-6.4,35.8c-2.4,11.4-0.1,23.4,1,34.9c0,0.4,0.7,0.4,0.7,0
						c-1.2-12.2-3.4-24.4-0.6-36.5c2.6-11.3,5.9-22.4,5.7-34.1C356.9,258,356.6,258,356.6,258.2L356.6,258.2z"/>
				</g>
			</g>
			<g class="st26">
				<g>
					<path class="st10" d="M350.8,277.8c-4,7.7-6.3,15.5-5.7,24.2c0.7,8.8,1.4,18.4,4.3,26.8c0.1,0.3,0.6,0.2,0.5-0.2
						c-2-8.6-3.4-17.3-4.1-26.2c-0.4-4.3-0.3-8.5,0.8-12.8c1.1-4.1,2.8-7.9,4.3-11.9C351.1,277.8,350.9,277.7,350.8,277.8
						L350.8,277.8z"/>
				</g>
			</g>
			<g class="st26">
				<g>
					<path class="st10" d="M361.8,263.2c-0.2,11.4-0.4,22.9-1.8,34.3c-0.7,5.3-1.8,10.5-2.5,15.8c-0.6,5-1.1,11.1,0.4,16
						c0.1,0.3,0.5,0.2,0.5-0.1c0-2.6-0.5-5.3-0.5-7.9c0-2.7,0.1-5.3,0.4-7.9c0.6-5.5,1.9-10.8,2.5-16.3c1.4-11.2,1.4-22.5,1.4-33.8
						C362.2,262.9,361.8,262.9,361.8,263.2L361.8,263.2z"/>
				</g>
			</g>
			<g class="st26">
				<g>
					<path class="st10" d="M364.7,299.4c-2.5,9.3-4.3,19.4-4,29c0,0.5,0.7,0.5,0.7,0c0.6-9.8,1.4-19.3,3.7-28.9
						C365.2,299.2,364.7,299.1,364.7,299.4L364.7,299.4z"/>
				</g>
			</g>
		</g>
		<g>
			<g>
				<g>
					<path class="st30" d="M292.1,211.5c3,1.8,5.4,4.7,6.6,8c1.2,3.3,1.3,7.6,3.4,10.5c1.6,2.2,4.1,3.5,6.4,4.9
						c2.4,1.4,4.9,2.8,5.4,5.5c0.8,4.2-3,8.2-2.3,12.4c0.8,4.5,6,6.3,9.4,9.3c3.2,2.8,5.1,7.1,4.9,11.4c-0.2,4.3-2.5,8.4-6,10.8
						c-2.9,2-6.4,2.9-9.9,3.7c-11.7,2.7-23.6,5.1-35.6,5.8c-12,0.8-24.2-0.1-35.7-3.9c-1.7-0.5-3.3-1.2-4.7-2.3
						c-1.3-1.1-2.2-2.5-3.1-4c-2.3-3.6-4.6-7.3-5.4-11.5c-0.8-4.2,0.1-9,3.4-11.7c2-1.7,5.2-2.8,6.7-5.2c2.4-3.7-1-7.1-1.8-10.7
						c-0.9-3.9,2.5-6.6,5-8.8c2.9-2.5,3.9-5,4.8-8.7c1.8-7.1,6.4-13.4,12.6-17.2c6.2-3.9,13.9-5.2,21-3.7"/>
				</g>
				<g>
					<g>
						<path class="st30" d="M298.5,219.6c0.8,3,1.2,6.2,2.8,9c1.5,2.6,4,4,6.6,5.3c3.4,1.8,7.2,4.1,7,8.5c-0.2,3.4-2.2,6.4-1.9,9.8
							c0.7,5.7,7,6.9,10.5,10.3c2,1.9,2.9,4.9,3,7.6c0.1,3.6-1.3,6-3.2,8.9c-0.1,0.2,0.2,0.5,0.4,0.4c4.1-3,4.5-9.5,2.7-13.9
							c-2.3-5.6-9.6-6-12-11.3c-1.7-3.7,0.9-7.5,1.3-11.3c0.3-2.9-0.9-5.3-3.2-7.1c-2.7-2.2-6.3-3.1-8.8-5.5
							C300.6,227.3,300.4,223,298.5,219.6C298.5,219.5,298.4,219.5,298.5,219.6L298.5,219.6z"/>
					</g>
				</g>
				<g>
					<g>
						<path class="st30" d="M244.8,224.7c-1,3.2-2.5,6.2-4.7,8.7c-1.6,1.8-3.7,3.1-5.3,4.9c-1.5,1.6-2.7,3.5-2.7,5.7
							c0,3.5,2.7,6.3,1.7,9.9c-1,3.3-4.3,4.5-6.5,6.8c-1.5,1.7-2.3,3.9-2.2,6.2c0.1,5.2,4,8.9,8.3,11.2c0.2,0.1,0.4-0.2,0.2-0.3
							c-5.1-3.1-10.7-10.1-6.2-16c2.9-3.8,8.1-5.2,7.3-10.9c-0.4-2.9-2.6-5.4-1.6-8.5c0.8-2.8,3.1-4.4,5.2-6.2
							c3.4-3,5.9-6.9,6.8-11.4C245,224.7,244.9,224.6,244.8,224.7L244.8,224.7z"/>
					</g>
				</g>
			</g>
			<g>
				<path class="st31" d="M222.3,289.7l-16,17.2l-15.9-34.4l-6.6,1.6c0,0-2.7,52.6,17.8,57.1c17.3,3.8,44.8-23.3,44.8-23.3"/>
				<path class="st31" d="M189.4,275.5c0,0,2.1-3.1,2.4-5.5c0.2-2.4,0.4-9.3-0.3-9.6c-0.9-0.4-2,2.9-2.1,3c-0.2,0.3-2.1-10.1-3-10
					c-1,0.1-0.3,7.2-0.3,7.2s-2.2-7.4-3.2-7.1c-1,0.3,0.5,7.8,0.5,7.8s-2-6.9-3-6.3c-0.9,0.6,1,7.8,1,7.8s-2.4-6.2-3.2-5.5
					c-1,0.8,2.2,15.9,5.6,17.3l0.9,3.5"/>
				<path class="st32" d="M188.9,264.2c0,0-4.1,3.7-2.6,7.2"/>
			</g>
			<polyline class="st31" points="327.9,294 346.6,322.1 315,322.1 303.2,310.8 			"/>
			<path class="st33" d="M251.6,274.2c0,0-11.9,2.3-21.8,9c-11,7.4-16.4,15.7-16.4,15.7l19.9,23.2h83.1l22-14.3c0,0-13.1-20.4-24-26
				c-8.7-4.5-18.7-7-18.7-7l-28.9,6.7L251.6,274.2z"/>
			<path class="st31" d="M252.2,214.3c-4.7,11.6-9.3,38.2,7.3,42.1c23.6,5.5,30.1-20.8,31.4-30.8
				C292.8,209.7,256.9,202.7,252.2,214.3z"/>
			<path class="st31" d="M264.1,251.3l-1.2,19l-11.3,3.8c0,0-0.2,13.7,4.3,16.3c5.6,3.2,29.5,3.8,33.6-0.3
				c4.1-4.1,6.2-15.5,6.2-15.5l-14.1-5.4l-3.9-21"/>
			<g>
				<path class="st30" d="M273.4,218.3c-5.3,6.3-19,9.2-25.1,7.3c-6.5-2-7.7-9.1-4.5-13.8c2.1-3.1,5.3-5.3,8.6-6.8
					c7.9-3.7,17.3-4.3,25.6-1.5c6.4,2.2,12.4,6.5,15,12.7c1,2.4,1.5,4.9,1.7,7.5c0.4,4.8-0.1,9.7-1.6,14.3c-0.5,1.7-1.4,3.6-3,4.3
					c-1.5,0.7-3.3,0.3-4.9-0.4C279,239.4,275.8,228.9,273.4,218.3"/>
			</g>
			<g>
				<path class="st30" d="M281.2,207.2c-1.1-2.8-0.6-6.2,1.3-8.6c8.6-10.8,26.5,4.7,14.7,14.2c-3.2,2.6-7.6,3.2-11.7,2.5"/>
			</g>
			<g>
				<g>
					<path class="st30" d="M298.9,200.1c3,3.4,3.3,8.4,0.1,11.8c-2.6,2.8-6.2,3.7-9.8,4.2c-0.3,0-0.2,0.4,0.1,0.4
						c4.3,0.3,9.3-1.9,11.5-5.7c2.2-3.7,1.3-8.1-1.8-10.9C299,199.9,298.9,200,298.9,200.1L298.9,200.1z"/>
				</g>
			</g>
			<path class="st32" d="M263.7,257.3c0,0,6.7,0.5,11.7-2.9"/>
			<line class="st32" x1="208.1" y1="313.4" x2="206.3" y2="306.9"/>
			<path class="st34" d="M233.2,320.9c0,0,0.8-11.7,8.2-23.3"/>
			<line class="st34" x1="300.9" y1="306.9" x2="308.6" y2="322.2"/>
			<path class="st35" d="M280.6,204.6c0,0,10.1,2.9,15.6,10.4"/>
			<g>
				<line class="st36" x1="277.8" y1="316.2" x2="280" y2="318.6"/>
				<line class="st36" x1="296.4" y1="297.9" x2="298.6" y2="298.1"/>
				<line class="st36" x1="246.5" y1="301.8" x2="248.3" y2="299.2"/>
				<line class="st36" x1="237.9" y1="283.8" x2="240.6" y2="282.8"/>
				<line class="st36" x1="233.6" y1="292.5" x2="235.4" y2="294.9"/>
				<line class="st36" x1="299.2" y1="282.2" x2="299.6" y2="285.3"/>
				<line class="st36" x1="222.6" y1="298.7" x2="225.4" y2="299.6"/>
				<line class="st36" x1="283.9" y1="303" x2="286.2" y2="304.6"/>
				<line class="st36" x1="307.5" y1="291.8" x2="309.8" y2="293.4"/>
				<line class="st36" x1="316.9" y1="289.4" x2="319.2" y2="287.9"/>
				<line class="st36" x1="274.1" y1="296.2" x2="274.9" y2="298.8"/>
				<line class="st36" x1="326" y1="302.4" x2="329" y2="302.5"/>
				<line class="st36" x1="261" y1="297" x2="258" y2="298"/>
				<line class="st36" x1="309.5" y1="315.3" x2="312.3" y2="314.4"/>
				<line class="st36" x1="267.3" y1="310.5" x2="270.2" y2="309.1"/>
				<line class="st36" x1="290.3" y1="316.6" x2="291.5" y2="313.9"/>
				<line class="st36" x1="310.3" y1="303.8" x2="311.5" y2="301.1"/>
				<line class="st36" x1="258.8" y1="309.8" x2="261.4" y2="311.3"/>
				<line class="st36" x1="244.3" y1="313.7" x2="245.5" y2="316.9"/>
				<line class="st36" x1="233.7" y1="306.4" x2="230.5" y2="307.5"/>
			</g>
			<path class="st30" d="M252.5,231.8c0,0.6,0.5,1,1,1c0.6,0,1-0.5,1-1c0-0.6-0.5-1-1-1C253,230.7,252.5,231.2,252.5,231.8z"/>
			<path class="st30" d="M272,235.1c0,0.6-0.5,1-1,1c-0.6,0-1-0.5-1-1c0-0.6,0.5-1,1-1C271.5,234.1,272,234.5,272,235.1z"/>
			<g>
				<path class="st37" d="M268.8,238.5c2.2-1.6,6.4,0.9,6,4c-0.4,2.8-4,3.3-5.9,2.4c-1.1-0.5-1.8-1.8-1.7-3.1
					C267.1,240.5,267.8,239.2,268.8,238.5z"/>
			</g>
			<g>
				<path class="st37" d="M250.7,236.7c2.7-1.7,5.4,0.8,5,3.4c-0.3,2.3-3.4,2.8-5,2c-0.9-0.4-1.5-1.5-1.5-2.6
					C249.3,238.3,249.8,237.2,250.7,236.7z"/>
			</g>
			<path class="st32" d="M260.5,236.1c0,0-3.8,5.9-2.8,6.9c1,1,3.8,1.5,3.8,1.5"/>
			<path class="st38" d="M268.8,231.2c0,0,5.2-3.3,8.1,2.9"/>
			<path class="st38" d="M250.4,228.2c0,0,4.1-2.6,6.3,2.3"/>
			<path class="st10" d="M257.1,246.8l8.2-0.1c0.2,0,0.4,0.2,0.4,0.4c0.1,1.3-0.1,5-3.5,5.4c-4.4,0.5-5.4-3.6-5.6-5.1
				C256.6,247.1,256.8,246.8,257.1,246.8z"/>
			<g>
				<path class="st31" d="M279.5,248.3c0,0,0.3,3.1,3.3,3.1c4.8,0,9.1-5.5,7.8-9.4c-1.9-5.8-7.7-2-8.5-0.3"/>
				<g>
					<path class="st39" d="M283.1,249.7c0,0,0-0.1,0-0.1c-0.1-0.3-0.4-0.5-0.7-0.4c-0.2,0.1-0.3,0.2-0.4,0.4
						c-0.1,0.3,0.1,0.6,0.4,0.7c0,0,0.1,0,0.1,0C282.8,250.5,283.2,250.1,283.1,249.7L283.1,249.7z"/>
				</g>
				<path class="st32" d="M284.1,248.3c-1.1,0.3-2.9,0.2-2.8-1.3c0.1-1.4,1.6-1,2.3-1.9c0.3-0.4,0.4-0.9,0.5-1.3
					c0.2-0.7,0.6-1.4,1.2-1.9c0.6-0.4,1.5-0.4,2.1,0.1c0.5,0.5,0.6,1.3,0.6,2c0,0.3-0.1,0.7-0.4,0.7"/>
			</g>
			<g>
				<path class="st10" d="M308.9,268.8c0,0.5-0.4,0.9-0.9,0.9c-0.5,0-0.9-0.4-0.9-0.9c0-0.5,0.4-0.9,0.9-0.9
					C308.5,267.9,308.9,268.3,308.9,268.8z"/>
				<path class="st27" d="M255.5,198.3c0,0.5-0.4,0.9-0.9,0.9c-0.5,0-0.9-0.4-0.9-0.9c0-0.5,0.4-0.9,0.9-0.9
					C255.1,197.4,255.5,197.8,255.5,198.3z"/>
				<path class="st27" d="M314.5,227.5c0,0.5-0.4,0.9-0.9,0.9c-0.5,0-0.9-0.4-0.9-0.9s0.4-0.9,0.9-0.9
					C314.1,226.6,314.5,227,314.5,227.5z"/>
				<path class="st27" d="M187.1,238c0,0.5-0.4,0.9-0.9,0.9s-0.9-0.4-0.9-0.9s0.4-0.9,0.9-0.9S187.1,237.5,187.1,238z"/>
				<path class="st10" d="M234.9,268.8c0,0.5-0.4,0.9-0.9,0.9c-0.5,0-0.9-0.4-0.9-0.9c0-0.5,0.4-0.9,0.9-0.9
					C234.4,267.9,234.9,268.3,234.9,268.8z"/>
				<path class="st10" d="M206.4,255.2c0,0.5-0.4,0.9-0.9,0.9c-0.5,0-0.9-0.4-0.9-0.9c0-0.5,0.4-0.9,0.9-0.9
					C206,254.2,206.4,254.7,206.4,255.2z"/>
				<path class="st10" d="M219.2,264.1c0,0.5-0.4,0.9-0.9,0.9s-0.9-0.4-0.9-0.9c0-0.5,0.4-0.9,0.9-0.9S219.2,263.6,219.2,264.1z"/>
				<path class="st28" d="M224.9,217.8c0,0.5-0.4,0.9-0.9,0.9s-0.9-0.4-0.9-0.9c0-0.5,0.4-0.9,0.9-0.9S224.9,217.3,224.9,217.8z"/>
				<path class="st28" d="M328.9,249.2c0,0.5-0.4,0.9-0.9,0.9c-0.5,0-0.9-0.4-0.9-0.9c0-0.5,0.4-0.9,0.9-0.9
					C328.5,248.3,328.9,248.7,328.9,249.2z"/>
				<path class="st28" d="M339.3,218.7c0,0.5-0.4,0.9-0.9,0.9c-0.5,0-0.9-0.4-0.9-0.9s0.4-0.9,0.9-0.9
					C338.9,217.8,339.3,218.2,339.3,218.7z"/>
				<path class="st28" d="M351.5,215.6c0,0.5-0.4,0.9-0.9,0.9c-0.5,0-0.9-0.4-0.9-0.9s0.4-0.9,0.9-0.9
					C351,214.7,351.5,215.1,351.5,215.6z"/>
				<path class="st28" d="M175.3,249.2c0,0.5-0.4,0.9-0.9,0.9c-0.5,0-0.9-0.4-0.9-0.9c0-0.5,0.4-0.9,0.9-0.9
					C174.9,248.3,175.3,248.7,175.3,249.2z"/>
				<path class="st10" d="M243.5,256.6c0,0.4-0.3,0.7-0.7,0.7s-0.7-0.3-0.7-0.7s0.3-0.7,0.7-0.7S243.5,256.2,243.5,256.6z"/>
				<path class="st10" d="M292.8,224.8c0,0.4-0.3,0.7-0.7,0.7c-0.4,0-0.7-0.3-0.7-0.7s0.3-0.7,0.7-0.7
					C292.5,224.1,292.8,224.4,292.8,224.8z"/>
				<path class="st10" d="M356.4,299.6c0,0.4-0.3,0.7-0.7,0.7c-0.4,0-0.7-0.3-0.7-0.7c0-0.4,0.3-0.7,0.7-0.7
					C356.1,298.9,356.4,299.2,356.4,299.6z"/>
				<circle class="st27" cx="349.8" cy="270.7" r="0.7"/>
				<path class="st10" d="M180.6,308c0,0.4-0.3,0.7-0.7,0.7c-0.4,0-0.7-0.3-0.7-0.7c0-0.4,0.3-0.7,0.7-0.7
					C180.3,307.4,180.6,307.7,180.6,308z"/>
				<path class="st10" d="M346.6,254.4c0,0.5-0.4,0.9-0.9,0.9c-0.5,0-0.9-0.4-0.9-0.9s0.4-0.9,0.9-0.9
					C346.2,253.5,346.6,253.9,346.6,254.4z"/>
				<path class="st10" d="M199.6,283.8c0,0.5-0.4,0.9-0.9,0.9s-0.9-0.4-0.9-0.9c0-0.5,0.4-0.9,0.9-0.9S199.6,283.2,199.6,283.8z"/>
			</g>
		</g>
		<g>
			<path class="st5" d="M188.6,196.8h-25.8c-5.5,0-9.9,4.4-9.9,9.9v11.4c0,5.5,4.4,9.9,9.9,9.9h42.1c0.5,0,0.7-0.7,0.3-1l-6.7-4.9
				v-15.5C198.5,201.3,194,196.8,188.6,196.8z"/>
			<path class="st28" d="M166.6,221.4l-2-2.4c-0.8-0.9-0.6-2.3,0.3-3l2.3-1.9c0.9-0.8,2.3-0.6,3,0.3c0,0,1,1.6,2.3,1.3
				c1.4-0.3,4.4-2.5,6.1-4.2c1.1-1.2-0.8-3.3-0.8-3.3c-0.8-0.9-0.6-2.3,0.3-3l2.3-1.9c0.9-0.8,2.3-0.6,3,0.3l2,2.4
				C189.7,211.1,170.5,226,166.6,221.4z"/>
		</g>
		<g>
			<g>
				<path class="st2" d="M325.4,182.3c-1.9,2.2-3.5,4.8-3.5,7.7c0,4.9,5,8.7,9.9,8.9c4.9,0.2,9.5-2.3,13.3-5.3c3.8-3,7.4-6.2,11.3-9
					c4.3-3,8-5.2,14.8-3.8c-0.8-0.8-3.8-2.8-4.6-3.3c-1.8-1-3.7-1.9-5.6-2.6c-4-1.4-8.4-2.1-12.6-2.1
					C340.2,172.9,331,176,325.4,182.3z"/>
			</g>
			<g>
				<g>
					<path class="st1" d="M331.7,192.2c2.2-6,6.6-11,12.5-13.6c6.2-2.8,12.5-2.4,19.1-2.8c0.2,0,0.3-0.3,0-0.4
						c-6.3-1.2-13.9,0.1-19.6,2.8c-5.9,2.7-10.2,7.8-12.3,13.9C331.3,192.3,331.6,192.4,331.7,192.2L331.7,192.2z"/>
				</g>
			</g>
		</g>
	</g>
	<g>
		<g>
			<g>
				<path class="st3" d="M77.3,308.8c1.9-0.3,3.8,0.4,5.4,1.7c1.6,1.5,2.3,3.8,3.7,5.5c0.9,1.1,2.1,1.7,3.4,1.8
					c3.1,0.1,3.2-4.4,2.5-6.8c-1.1-3.9-3.6-5.6-6.5-7.8"/>
			</g>
			<g>
				<path class="st2" d="M59.6,320.1c0.3-24.8,27.3-24,30.7-13c-4.2-1-8.9,0.6-12,4c-1.8,1.9-3.2,4.4-5,6.3
					c-3.3,3.3-7.8,4.4-12.1,5.1c-0.7,0.1-1.5,0.2-2.2,0c-0.7-0.3-1.4-1-1.3-1.9"/>
			</g>
			<g>
				<path class="st3" d="M30.4,299.1c-2.4-0.1-6.6,0.4-8.9,1.3c-1,0.7-2.7,2.3-3.6,4.6c-0.9,2.3-0.5,5.3,1.4,6.9
					c1.4,1.3,3.4,1.7,5.3,1.6c0.9-0.1,1.9-0.2,2.7-0.7c2-1.2,2.5-4,3.6-6.1c1.6-2.9,4.7-4.8,7.9-4.7"/>
			</g>
			<g>
				<g>
					<path class="st4" d="M23.1,308.7c0.1-2.6,0.5-5.3,2.3-7.3c2.2-2.4,5-2.7,8-3.3c0.2,0,0.1-0.3,0-0.3c-3-0.9-6.5,0.8-8.5,3.1
						c-2,2.2-2.3,5-2.3,7.8C22.6,309,23.1,309,23.1,308.7L23.1,308.7z"/>
				</g>
			</g>
			<g>
				<path class="st0" d="M21.5,300.3c4.5-0.8,9.2,1,12.4,4.3c1.5,1.6,2.9,3.6,5.1,3.8c2.2,0.2,5,0.4,5.1-4.2
					c0.1-3.5-2.1-4.4-3.9-5.6c-1.9-1.2-4.1-1.7-6.3-1.8C31.2,296.6,24.9,296.8,21.5,300.3"/>
			</g>
			<g>
				<g>
					<path class="st1" d="M34.4,297.9c7.9,4.6,7.6,14,8.5,22c0,0.4,0.6,0.4,0.6,0c0.7-7.7-1.1-18.6-8.9-22.4
						C34.3,297.4,34.1,297.8,34.4,297.9L34.4,297.9z"/>
				</g>
			</g>
			<g>
				<path class="st3" d="M46,269c-2.1-2.2-5.4-2.7-8.4-3c-1.7-0.2-3.4-0.4-4.9,0.3c-0.8,0.4-1.6,1-2.2,1.7c-1.2,1.3-2.1,3-2.4,4.8
					c-0.2,1.8,0.3,3.8,1.7,4.9c1.1,1,2.7,1.3,4.2,1.3c1,0,2,0,3-0.4c2.4-1,3.6-3.6,5.5-5.5c2.1-2.2,5.2-3.3,8.2-2.9"/>
			</g>
			<g>
				<path class="st2" d="M51.4,281c-6.9-1.2-6.9-6.3-8.8-9.2c-2.5-3.9-5.9-4.7-9.4-5.6c2.3-1.9,5.3-2.4,9.2-2.1
					c2.8-0.7,6.6-1.4,9.2-0.2s4.8,3.7,5.3,6.6S58.3,279.1,51.4,281"/>
			</g>
			<g>
				<path class="st2" d="M45.9,309.2c2.7-5,1.8-13.5,0.4-19c-1.4-5.5-4.5-10.4-8.6-14.3c-2.8-2.8-6.2-5.1-10-6.2
					c-3.8-1.1-8-0.7-11.3,1.5c-3.3,2.2-5.4,6.4-4.7,10.3c0.9,5.1,5.6,8.8,10.4,10.5C35.9,296.8,38.6,309.2,45.9,309.2"/>
			</g>
			<g>
				<path class="st3" d="M73.2,292.8c2.2-0.5,4.6,0.2,6.3,1.8c1.5,1.4,2.7,2.9,4.9,3.1c3.3,0.4,7.7-2.9,5.6-6.5
					c-0.6-1.1-1.7-1.9-2.9-2.5c-1.2-0.5-2.4-0.8-3.7-1c-1.3-0.3-2.7-0.5-4.1-0.2"/>
			</g>
			<g>
				<g>
					<path class="st1" d="M12.9,278.8c4.9-2.9,10.8-0.1,15.1,2.8c4.2,2.8,7.7,6.6,10.5,10.9c6,9.3,7.5,19.8,9.1,30.5
						c0,0.3,0.6,0.2,0.6-0.1c-0.2-11.7-3.8-24.3-11-33.7c-4.8-6.1-16.1-16.3-24.4-10.7C12.6,278.7,12.8,278.9,12.9,278.8L12.9,278.8
						z"/>
				</g>
			</g>
			<g>
				<path class="st2" d="M85,288c-4.1-0.2-7.5,3.8-9.3,7.9c-1.6,3.7-4.5,6.7-7.8,8.6c-3.2,1.8-7.9,3.2-11.2,0.9
					c-0.1,0-0.1-0.1-0.2-0.2c-1.6-1.3-2.2-3.7-1.8-5.9c0.4-2.1,1.6-4,2.9-5.6C64.1,285.7,75.7,284.4,85,288"/>
			</g>
			<g>
				<g>
					<path class="st1" d="M56,327c0.1-9.2,2-19.6,6.3-27.8c2-3.7,4.7-7.2,8.3-9.4c4.6-2.8,9.2-2.7,14.3-1.5c0.4,0.1,0.7-0.5,0.3-0.7
						c-8.5-3.9-17.6,1.4-22.2,8.6c-2.7,4.1-4.2,8.9-5.3,13.6c-1.3,5.6-2.4,11.3-2.1,17.1C55.5,327.3,56,327.3,56,327L56,327z"/>
				</g>
			</g>
			<g>
				<g>
					<path class="st1" d="M42.6,264.4c4.7,1.5,6.3,6.7,7.3,11.1c1.2,5.1,1.7,10.3,1.9,15.5c0.4,10.4-0.8,20.7-0.7,31
						c0,0.4,0.6,0.4,0.6,0c0.8-6,0.9-12.1,1.1-18c0.2-5.9,0.2-11.8-0.3-17.6c-0.4-5-1.1-10.2-2.9-14.9c-1.2-3.3-3.3-6.5-6.9-7.4
						C42.5,264,42.4,264.3,42.6,264.4L42.6,264.4z"/>
				</g>
			</g>
			<g>
				<g>
					<path class="st1" d="M85.9,301.7c-5.1-2.3-10.6,1.8-14,5.3c-4,4.1-6.6,9.4-7.3,15.2c0,0.2,0.3,0.2,0.3,0
						c1.1-5,3.1-9.7,6.4-13.6c3.6-4.2,8.7-7.9,14.4-6.6C86,302.1,86.1,301.8,85.9,301.7L85.9,301.7z"/>
				</g>
			</g>
		</g>
		<polygon class="st5" points="32.3,320.1 41.4,359.5 70.8,359.5 79.8,320.1 		"/>
		<polygon class="st23" points="75.8,335.8 36.3,335.8 37.6,341.3 75.5,337.2 		"/>
		<line class="st40" x1="35.6" y1="335.7" x2="76.7" y2="335.7"/>
		<g>
			<polygon class="st10" points="33.6,336.2 30.4,318.8 81.7,318.8 78.5,336.2 			"/>
			<path class="st23" d="M81.1,319.3l-3,16.4H34l-3-16.4H81.1 M82.3,318.3h-1.2H31h-1.2l0.2,1.2l3,16.4l0.2,0.8H34h44.1h0.8l0.2-0.8
				l3-16.4L82.3,318.3L82.3,318.3z"/>
		</g>
	</g>
	<g>
		<path class="st7" d="M148.8,98.1v65.8c0,4.2,4,7.5,8.9,7.5h113.8c4.9,0,8.9-3.4,8.9-7.5V98.1c0-4.2-4-7.5-8.9-7.5H157.7
			C152.8,90.5,148.8,93.9,148.8,98.1z"/>
		
			<rect x="178.2" y="71.3" transform="matrix(-1.836970e-16 1 -1 -1.836970e-16 345.5327 -83.6085)" class="st5" width="72.8" height="119.3"/>
		<g>
			<defs>
				
					<rect id="SVGID_7_" x="178.2" y="71.3" transform="matrix(-1.836970e-16 1 -1 -1.836970e-16 345.5327 -83.6085)" width="72.8" height="119.3"/>
			</defs>
			<clipPath id="SVGID_8_">
				<use xlink:href="#SVGID_7_"  style="overflow:visible;"/>
			</clipPath>
			<g class="st41">
				<g>
					<g>
						<path class="st42" d="M207.2,175.5c-0.6-8.6-0.2-17.2,0.3-25.8c0.5-8.1,0.6-16.3,0.8-24.4c0.2-8,0.3-16,0-24
							c-0.2-4-0.4-8-0.9-11.9c-0.5-3.9-0.6-8.8-3.1-11.9c-1.4-1.8-4.5-0.7-5,1.3c-0.9,3.6,0.8,7.9,1.2,11.5c0.5,4,0.8,7.9,0.9,11.9
							c0.3,8.2,0.1,16.3,0.2,24.5c0,16.4-0.4,33.1,2.3,49.3C204.2,177.8,207.3,177.4,207.2,175.5L207.2,175.5z"/>
					</g>
				</g>
				<g>
					<g>
						<path class="st42" d="M230.6,78.2c-3.9,16.1-3.4,32.9-2.7,49.3c0.3,8.1,0.7,16.3,0.9,24.4c0.1,4.5,0.1,9,0.3,13.4
							c0.2,4.7,0,9.9,1.3,14.4c1.2,4.1,7.3,3.3,7.4-1c0.1-4.6-0.8-9.3-0.9-13.9c-0.1-4.6-0.2-9.3-0.3-13.9
							c-0.2-7.8-0.8-15.6-1.3-23.5c-1.1-16.3-2.2-32.6-1.6-48.9C233.8,76.8,231,76.4,230.6,78.2L230.6,78.2z"/>
					</g>
				</g>
				<g>
					<g>
						<path class="st42" d="M261,171.3c0.8-16.8-0.3-33.6-0.2-50.4c0.1-8.4,0.3-16.9,0.7-25.3c0.2-4.2,0.6-8.4,0.6-12.5
							c0.1-4.1,0-8-2.6-11.3c-1.3-1.7-3.6-0.4-4.3,1.1c-1.5,3.8-0.7,8.1-0.9,12.1c-0.1,4-0.5,8.1-0.7,12.1
							c-0.4,8.4-0.6,16.9-0.3,25.3c0.5,16.5,1.6,33.1,4.6,49.4C258.3,173.5,260.9,172.9,261,171.3L261,171.3z"/>
					</g>
				</g>
				<g>
					<g>
						<path class="st42" d="M173.5,83.1c-1.5,3.2-1.6,7-1.9,10.5c-0.4,3.9-0.7,7.9-0.9,11.9c-0.4,7.9-0.8,15.8-1.1,23.7
							c-0.3,7.9-0.5,15.8-0.7,23.7c-0.1,3.8-0.2,7.6-0.3,11.4c-0.1,3.9-0.7,8.1,0.9,11.8c0.8,1.8,3.9,1.7,4.7,0
							c1.7-3.4,1.3-7.5,1.4-11.3c0.1-4,0.2-7.9,0.3-11.9c0.2-7.7,0.4-15.5,0.6-23.2c0.2-7.7,0.3-15.5,0.4-23.2c0-4,0-7.9-0.1-11.9
							c-0.1-3.6,0.2-7.7-1.1-11.2C175.3,82.6,173.9,82.1,173.5,83.1L173.5,83.1z"/>
					</g>
				</g>
				<g>
					<g>
						<path class="st42" d="M147,114.6c35.8,1.8,71.7,1.7,107.5,2.1c10.3,0.1,20.6,0.3,30.9,0.4c4.3,0,4.3-6.6,0-6.6
							c-35.8-0.6-71.7-0.8-107.5,0c-10.3,0.2-20.6,0.5-30.9,1C145.1,111.6,145.1,114.5,147,114.6L147,114.6z"/>
					</g>
				</g>
				<g>
					<g>
						<path class="st42" d="M144.7,152.7c19.7-0.4,39.4,1.9,59.1,1.9c19.5,0,38.9-1.6,58.4-1.7c11-0.1,22,0.1,33,1.4
							c4.4,0.5,4.3-6.4,0-6.8c-19.4-2.1-38.9-1-58.3,0.2c-19.6,1.3-39,2.1-58.6,1.4c-11.3-0.4-22.4-0.3-33.6,0.7
							C142.8,149.9,142.7,152.8,144.7,152.7L144.7,152.7z"/>
					</g>
				</g>
				<g>
					<g>
						<path class="st42" d="M149.4,146c17.8,0.5,35.6,0.1,53.4,0.1c17.6-0.1,35.3-0.1,52.9-0.1c10.2,0,20.3,0,30.5,0
							c0.7,0,0.7-1.1,0-1.1c-35.5,0-70.9,0-106.4,0.3c-10.2,0.1-20.3,0.1-30.5,0.5C149.2,145.7,149.2,146,149.4,146L149.4,146z"/>
					</g>
				</g>
				<g>
					<g>
						<path class="st42" d="M152.2,107.9c17,1.3,34.3,1,51.3,1c16.9,0,33.9-0.4,50.8-1c9.8-0.3,19.6-0.8,29.4-1.3
							c0.7,0,0.7-1.1,0-1.1c-34,1.8-68,2.4-102.1,2.2c-9.8-0.1-19.6-0.5-29.4-0.3C151.9,107.4,151.9,107.9,152.2,107.9L152.2,107.9z
							"/>
					</g>
				</g>
				<g>
					<g>
						<path class="st42" d="M168.1,87c0.2,15.6,0.5,31.1-0.3,46.6c-0.7,14.5-3.4,29.5-0.3,43.9c0.1,0.6,1,0.3,0.9-0.2
							c-2.7-14.8-0.2-29.8,0.5-44.7c0.7-15.2,0.6-30.5-0.2-45.6C168.6,86.7,168.1,86.6,168.1,87L168.1,87z"/>
					</g>
				</g>
				<g>
					<g>
						<path class="st42" d="M197.8,90.7c-2.2,14.4-1.8,29.1-1.8,43.6c0,7.3,0,14.6,0,21.9c0,3.6,0,7.3,0.1,10.9
							c0,3.8-0.2,7.7,0.2,11.4c0.5,4.2,6.1,4.2,6.6,0c0.4-3.6,0.1-7.3,0.1-10.9c0-3.6,0-7.3,0-10.9c-0.1-7.5-0.1-14.9-0.2-22.4
							c-0.1-14.5,0.1-29.2-2.3-43.6C200.3,89.4,198,89.3,197.8,90.7L197.8,90.7z"/>
					</g>
				</g>
				<g>
					<g>
						<path class="st42" d="M225.1,88.3c1.4,29.7-1.2,59.5-0.3,89.2c0,0.6,1,0.6,1,0c-0.3-29.7,2.2-59.6-0.3-89.2
							C225.5,88,225.1,87.9,225.1,88.3L225.1,88.3z"/>
					</g>
				</g>
				<g>
					<g>
						<path class="st42" d="M251.5,88.6c-0.9,3.4-0.7,6.9-0.3,10.4c0.4,3.8,0.6,7.7,0.6,11.5c0.1,7.9-0.3,15.9-0.1,23.8
							c0.2,7.6,1.6,15.1,1.8,22.7c0.2,7.4-0.7,14.9,1.1,22.2c0.1,0.6,1,0.4,1-0.1c0-0.3,0-0.7,0-1c0-0.3-0.5-0.5-0.6-0.2
							c-0.2,0.4-0.3,0.7-0.4,1.1c0.3,0,0.7,0,1,0c-1.8-7.4-0.8-14.9-1.1-22.4c-0.3-7.4-1.6-14.8-1.8-22.2c-0.2-7.5,0.2-14.9,0-22.4
							c-0.1-3.9-0.2-7.8-0.6-11.6c-0.4-3.9-1-7.7-0.1-11.6C252,88.5,251.6,88.3,251.5,88.6L251.5,88.6z"/>
					</g>
				</g>
			</g>
			<g class="st41">
				<g>
					<g>
						<path class="st30" d="M208.8,139.3c4.2,1.3,8.8,2.7,12.7-0.3c3.7-2.9,2.5-9.6,1-13.4c-0.1-0.3-0.5-0.2-0.4,0.1
							c0.9,4.1,2.5,10.9-2,13.4c-3.7,2-7.4,0.7-11.1-0.2C208.6,138.8,208.5,139.2,208.8,139.3L208.8,139.3z"/>
					</g>
				</g>
				<path class="st43" d="M202.6,146c0,0-13.3-3.6-27.6-1.4c-14.2,2.2-24.2,14.3-24.2,14.3v11.6h81.5C226,151.6,202.6,146,202.6,146
					z"/>
				<g class="st44">
					<defs>
						<path id="SVGID_9_" class="st44" d="M202.6,146c0,0-13.3-3.6-27.6-1.4c-14.2,2.2-24.2,14.3-24.2,14.3v11.6h81.5
							C226,151.6,202.6,146,202.6,146z"/>
					</defs>
					<clipPath id="SVGID_10_">
						<use xlink:href="#SVGID_9_"  style="overflow:visible;"/>
					</clipPath>
					<g class="st45">
						<g>
							<g>
								<path class="st46" d="M184.6,157.8c1.9,3.2,4.1,6.2,7.6,7.7c2.6,1.1,5.5,1.5,7.1,4.1c1.3,2.1,1.3,4.6,1.9,6.9
									c0.1,0.3,0.5,0.2,0.5-0.1c0.1-3.5-1.2-7.7-4.4-9.5c-2.1-1.2-4.6-1.5-6.6-2.8c-2.5-1.6-4.2-4.1-5.8-6.5
									C184.7,157.5,184.5,157.6,184.6,157.8L184.6,157.8z"/>
							</g>
						</g>
						<g>
							<g>
								<path class="st46" d="M184.2,153.8c1.8,4.7,5.7,7.8,10.1,10.1c2.7,1.5,5.8,2.6,8,4.9c2.3,2.5,2.9,5.8,3.9,8.9
									c0.1,0.3,0.6,0.2,0.5-0.1c-0.8-5.1-3.1-9.3-7.7-11.9c-5.7-3.1-11.8-5.6-14.5-12C184.4,153.6,184.1,153.7,184.2,153.8
									L184.2,153.8z"/>
							</g>
						</g>
						<g>
							<g>
								<path class="st46" d="M181.6,147.8c3.7,5.7,8.7,11.1,15.8,12.1c3.3,0.4,5.9-0.4,8.9-1.7c4.6-1.9,8.8-1.6,13.3,0.5
									c0.4,0.2,0.7-0.3,0.3-0.6c-2.5-1.6-5.5-2.2-8.4-2c-3.4,0.2-6,2.1-9.2,2.9c-8.7,2-15.7-5-20.4-11.4
									C181.7,147.5,181.5,147.6,181.6,147.8L181.6,147.8z"/>
							</g>
						</g>
						<g>
							<g>
								<path class="st46" d="M182.8,148c3.7,4.2,9.1,9.7,15.2,9.8c7.7,0.1,14.2-6.9,21.8-2.4c0.3,0.2,0.6-0.2,0.4-0.5
									c-4.6-4.3-11.6-0.7-16.4,1c-4.4,1.5-8.2,1.4-12.2-1c-3.1-2-6-4.4-8.5-7.1C182.9,147.6,182.6,147.8,182.8,148L182.8,148z"/>
							</g>
						</g>
						<g>
							<g>
								<path class="st46" d="M183.2,142.1c-0.2,5.8,8.1,8.9,12.7,8.7c3.7-0.1,7.1-1.7,10.7-2.3c4.7-0.7,8.5,0.8,12.5,3.1
									c0.3,0.2,0.6-0.2,0.4-0.5c-4.2-4-10.7-4.1-16-2.7c-3.6,1-7.1,2.1-10.9,1.4c-3.5-0.7-9.1-3.5-9.2-7.7
									C183.5,141.9,183.2,141.9,183.2,142.1L183.2,142.1z"/>
							</g>
						</g>
						<g>
							<g>
								<path class="st46" d="M217.4,161.1c-3.1-0.9-9.7-1.5-11.4,2.3c-0.8,1.8,0.5,3.9,1.1,5.6c1.2,3.2,1.4,6.2,1,9.5
									c0,0.3,0.5,0.4,0.6,0.1c1-3.2,0.2-6.7-1-9.8c-0.3-0.8-1.1-2-1.2-2.8c0.4-1.2,0.8-2.4,1.2-3.6c0.6-0.4,1.3-0.6,2-0.8
									c2.5-0.7,5-0.6,7.5,0C217.6,161.6,217.7,161.2,217.4,161.1L217.4,161.1z"/>
							</g>
						</g>
						<g>
							<g>
								<path class="st46" d="M213.4,177.4c-0.7-1.9-1.3-3.8-1.8-5.7c-0.3-1.1-0.6-2.3-0.6-3.5c0-2.4,2.2-5.5,4.6-3.1
									c0.2,0.2,0.5-0.1,0.4-0.3c-1.1-2.2-4-1.3-5,0.6c-1.8,3.5,0.7,8.9,2,12.2C213.1,177.7,213.5,177.6,213.4,177.4L213.4,177.4z"
									/>
							</g>
						</g>
					</g>
				</g>
				<g>
					<path class="st30" d="M221.9,116.8c0.4,3.5,0.8,7.1,1.2,10.6c0.4,3.3,0.7,6.9-1.4,9.5c-3.8,4.8-11.9,2.6-15.5-2.2"/>
				</g>
				<path class="st47" d="M207.5,135l-1.3,15.9c0,0-1.3,4.1-7.9,2.6c-5.1-1.1-6.6-7.1-6.6-7.1l3.8-14.1L207.5,135z"/>
				<path class="st47" d="M219.4,111.2c3.4,9-0.2,21.6-7,26.5c-4,2.9-8.4,2.4-12.5,0c-4.6-2.6-8.4-9.6-8.4-18.9
					C191.6,106.5,212.4,92.6,219.4,111.2z"/>
				<g>
					<path class="st30" d="M212.7,98.7c-1.5-0.6-3.1-1.1-4.7-1.3c-5.5-0.8-11,1.5-15.3,4.9c-4.2,3.4-6.7,7.4-8.8,12.4
						c-0.9,2.2-2,4.4-2.6,6.7c-1,3.9-1.4,8.2,1.2,11.7c1.3,1.7,2.3,2.6,4.2,3.5c2.1,1,4.4,1.7,6.7,2.1c0.5,0.1,1.1,0.2,1.6,0
						c0.9-0.3,1.4-1.3,1.4-2.2c0-0.9-0.3-1.8-0.5-2.7c-1.7-5.8-2.5-12.3-0.6-18.1c0.5-1.7,1.9-3.1,3.2-4.2c0.1-0.1,0.3-0.2,0.5-0.3
						c0.4,0,0.6,0.4,0.8,0.7c0.9,1.3,2.8,1.8,4.4,1.5c1.3-0.2,2.4-0.8,3.6-1.4c0.5-0.3,1-0.1,1.3,0.4c0.5,0.9,1.4,1.5,2.4,1.6
						c0.8,0.1,1.6-0.1,2.3-0.6c0.5-0.3,1.1-0.1,1.4,0.4c0.2,0.5,0.7,0.8,1.2,0.8c0.4,0,0.7-0.3,1.1-0.3c0.8-0.1,1.4,0.6,1.8,1.3
						c1,1.8,2.1,5.4,1.9,7.5c0-0.4,0.8-1.1,1-1.5c0.4-0.6,0.7-1.3,0.9-2c0.4-1.3,0.6-2.7,0.7-4.1
						C223.7,108.9,219.1,101.2,212.7,98.7z"/>
				</g>
				<g>
					<path class="st47" d="M196.7,130.1c0,0-1.2,2-3.3,0.9c-3.2-1.6-4.2-6.8-2.1-9c3.3-3.3,5.8,1.3,5.8,2.7"/>
					<path class="st48" d="M193.6,128.6c0.6,0.5,1.9,1.1,2.3,0.1c0.4-1-0.7-1.2-0.9-2c-0.1-0.3,0-0.7,0.1-1c0.1-0.6,0.1-1.2-0.2-1.7
						c-0.3-0.5-0.9-0.8-1.4-0.7c-0.5,0.1-0.8,0.6-1.1,1.1c-0.1,0.2-0.2,0.5,0,0.6"/>
				</g>
				<g>
					<path class="st49" d="M189.8,174.8c0.5-10-1.5-22.5-5.1-30.9c-12.6-0.3-27.6,4.8-35.2,15.3v15.3L189.8,174.8z"/>
				</g>
				<path class="st49" d="M213.2,173.7c0,0,1.8-17.9-3.1-25c13.3,3.5,23.3,17.7,23.9,23.2C234.5,177.4,213.2,173.7,213.2,173.7z"/>
				<path class="st50" d="M179.2,144.4c0,0-1.5,12.1-0.4,13.5c1.1,1.4,6.9,4.9,6.9,4.9s-6.4-0.7-6.4,1.3c0,2,3.2,7.3,3.2,7.3"/>
				<path class="st50" d="M214,150.6c0,0,7.2,10.1,6.7,12.2l-4.6,1.4c0,0,4.8,0.8,4.6,2.2c-0.6,3.3-2.5,6.4-2.5,6.4"/>
				<path class="st30" d="M217.1,123.7c-0.1,0.5-0.6,0.7-1.1,0.6c-0.5-0.1-0.7-0.6-0.6-1.1c0.1-0.5,0.6-0.7,1.1-0.6
					C216.9,122.8,217.2,123.2,217.1,123.7z"/>
				<path class="st30" d="M203.1,120.7c-0.1,0.5,0.1,0.9,0.6,1.1c0.5,0.1,0.9-0.1,1.1-0.6c0.1-0.5-0.1-0.9-0.6-1.1
					C203.7,120,203.2,120.2,203.1,120.7z"/>
				<g>
					<path class="st51" d="M204.1,122.9c-1.4-1.8-5.4-0.6-5.7,1.9c-0.3,2.3,2.5,3.5,4.3,3.2c1-0.2,1.8-1.1,2.1-2.2
						C205,124.8,204.8,123.7,204.1,122.9z"/>
				</g>
				<g>
					<path class="st51" d="M217.9,126c-1.9-1.9-4.5-0.5-4.8,1.6c-0.3,2,2.1,3,3.6,2.7c0.8-0.1,1.5-0.9,1.8-1.8
						C218.7,127.6,218.5,126.6,217.9,126z"/>
				</g>
				<path class="st48" d="M211.2,123.8c0,0,0.7,5.2-0.3,5.8c-1.1,0.6-3.1-0.4-3.1-0.4"/>
				<path class="st38" d="M206.9,118.6c-0.9-1.7-4.2-2.9-6.8-0.8"/>
				<path class="st38" d="M218.6,121.5c0,0-1.7-3-4.5-1.7"/>
				<path class="st10" d="M210.5,132.8l-6.6-1.9c-0.2-0.1-0.4,0.1-0.4,0.2c-0.3,1-1,4,1.7,5.1c3.4,1.4,5.1-1.7,5.6-2.9
					C210.8,133.1,210.7,132.9,210.5,132.8z"/>
				<path class="st32" d="M207.1,139.7c0,0-5.4,0.3-8.7-3.1"/>
				<g>
					<g>
						<path class="st30" d="M196.9,99.8c-7.6,2.4-13.1,10.9-16,17.8c-1.6,3.7-2.9,8.7-1.5,12.7c1.2,3.3,4.4,6,7.9,6.6
							c0.3,0,0.6-0.4,0.2-0.5c-3.3-1.4-6.4-3.3-7.4-7c-1.2-4.3,0.6-9.5,2.5-13.4c3-6.2,7.7-13.2,14.5-15.8
							C197.2,100.1,197.1,99.7,196.9,99.8L196.9,99.8z"/>
					</g>
				</g>
			</g>
		</g>
		<path class="st48" d="M207.1,139.6c0,0-5,0.6-9.1-3.4"/>
		<g>
			<path class="st5" d="M132.7,95.9h-15.2c-3.3,0-6.1,2.7-6.1,6.1v7c0,3.3,2.7,6.1,6.1,6.1h25.2c0.3,0,0.4-0.4,0.2-0.6l-4.1-3V102
				C138.7,98.6,136,95.9,132.7,95.9z"/>
			<g>
				<path class="st2" d="M117,105.5c0-0.9,0.6-1.5,1.4-1.5c0.8,0,1.4,0.6,1.4,1.5c0,0.9-0.6,1.5-1.5,1.5
					C117.6,107,117,106.3,117,105.5z"/>
				<path class="st2" d="M124.2,105.5c0-0.9,0.6-1.5,1.4-1.5c0.8,0,1.4,0.6,1.4,1.5c0,0.9-0.6,1.5-1.5,1.5
					C124.8,107,124.2,106.3,124.2,105.5z"/>
				<path class="st2" d="M131.4,105.5c0-0.9,0.6-1.5,1.4-1.5c0.8,0,1.4,0.6,1.4,1.5c0,0.9-0.6,1.5-1.5,1.5
					C131.9,107,131.4,106.3,131.4,105.5z"/>
			</g>
		</g>
	</g>
	<g>
		<path class="st5" d="M304.4,171.4h45.5c2.9,0,5.2-2.3,5.2-5.2V96.2c0-2.9-2.3-5.2-5.2-5.2h-45.5c-2.9,0-5.2,2.3-5.2,5.2v69.9
			C299.2,169,301.5,171.4,304.4,171.4z"/>
		<rect x="301.9" y="94.8" class="st2" width="50.4" height="72.8"/>
		<g>
			<defs>
				<rect id="SVGID_11_" x="301.9" y="94.8" width="50.4" height="72.8"/>
			</defs>
			<clipPath id="SVGID_12_">
				<use xlink:href="#SVGID_11_"  style="overflow:visible;"/>
			</clipPath>
			<g class="st52">
				<g class="st53">
					<g>
						<g>
							<path class="st28" d="M298.4,98.4c5.4,0.9,11.1,0.6,16.6,0.5c5.8,0,11.6-0.1,17.5-0.2c11.6-0.2,23.3-0.5,34.9-1
								c1.8-0.1,1.8-2.9,0-2.9c-11.6,0.5-23.3,0.9-34.9,1.2c-5.6,0.2-11.3,0.3-17,0.4c-5.6,0.1-11.5-0.1-17.1,0.8
								C297.9,97.5,297.9,98.4,298.4,98.4L298.4,98.4z"/>
						</g>
					</g>
					<g>
						<g>
							<path class="st28" d="M297.6,102.3c11.9,2.1,23.9,0,35.9,0.3c11.7,0.4,24,3,35.7,0.6c1.4-0.3,1.1-2.8-0.4-2.6
								c-5.9,0.6-11.7,0.9-17.6,0.6c-5.9-0.3-11.8-0.8-17.7-0.9c-5.9-0.1-11.7,0.6-17.6,0.9c-6.1,0.3-12.1,0-18.1-0.2
								C297.1,101.1,296.9,102.2,297.6,102.3L297.6,102.3z"/>
						</g>
					</g>
					<g>
						<g>
							<path class="st28" d="M361.9,107.8c-11.3,0.6-22.4,0.5-33.8,0c-11.2-0.5-22.6-1.3-33.8-0.3c-1.7,0.1-1.8,2.8,0,2.7
								c11.5-0.4,22.8-0.3,34.3,0c11,0.3,22.5,0.5,33.4-1.2C362.8,108.9,362.6,107.7,361.9,107.8L361.9,107.8z"/>
						</g>
					</g>
					<g>
						<g>
							<path class="st28" d="M296.2,115.7c12.2,0.8,24.6,0.8,36.8,1c6,0.1,12,0.2,17.9,0.3c6.3,0.1,12.7,0.5,18.9,0.2
								c1.7-0.1,1.6-2.4,0-2.6c-6.1-0.4-12.3-0.2-18.4-0.2c-6.1-0.1-12.3-0.1-18.4-0.1c-12.3-0.1-24.6-0.4-36.8,0.2
								C295.4,114.5,295.4,115.7,296.2,115.7L296.2,115.7z"/>
						</g>
					</g>
					<g>
						<g>
							<path class="st28" d="M298.4,121c5.4,1.3,11.4,1.1,17,1.2c5.9,0.2,11.9,0.2,17.8,0.1c11.9-0.1,23.8-0.3,35.7-1.2
								c1.8-0.1,1.9-2.9,0-2.9c-11.9,0.4-23.8,1.1-35.7,1.3c-5.8,0.1-11.6,0.1-17.3,0.1c-5.7,0-11.8-0.5-17.5,0.5
								C298,120.3,298.1,120.9,298.4,121L298.4,121z"/>
						</g>
					</g>
					<g>
						<g>
							<path class="st28" d="M361.3,127c-5.1-1.1-10.8-0.5-16-0.5c-5.8-0.1-11.5-0.2-17.3-0.3c-5.6-0.1-11.2-0.1-16.8-0.2
								c-2.8,0-5.6,0-8.4,0c-2.7,0-5.6-0.4-8.2,0.3c-1,0.3-1,1.8,0,2.1c2.4,0.7,5.2,0.4,7.7,0.4c2.8,0,5.6,0,8.4,0
								c5.8,0,11.5,0,17.3-0.1c5.6,0,11.2-0.1,16.8-0.1c5.3,0,11.2,0.6,16.5-0.4C361.8,128,361.8,127.1,361.3,127L361.3,127z"/>
						</g>
					</g>
					<g>
						<g>
							<path class="st28" d="M299.2,134.4c11.3,1.5,22.6-0.7,33.9-0.9c11.6-0.2,23.1,1.8,34.6-0.3c1.8-0.3,1-3.1-0.8-2.7
								c-11.4,2.1-22.9,0.1-34.3,0.6c-5.4,0.2-10.7,1-16.1,1.4c-5.7,0.5-11.5,0.1-17.2,0.8C298.7,133.3,298.4,134.3,299.2,134.4
								L299.2,134.4z"/>
						</g>
					</g>
					<g>
						<g>
							<path class="st28" d="M295.7,139.9c12.1,0.7,24.3,0.7,36.4,0.7c6,0,12-0.1,18-0.1c3,0,6-0.1,9-0.1c2.8-0.1,6.1,0.3,8.8-0.5
								c1-0.3,1.1-1.8,0-2.1c-2.6-0.7-5.6-0.2-8.3-0.2c-3,0.1-6,0.1-9,0.2c-6.2,0.1-12.3,0.2-18.5,0.3c-12.1,0.2-24.3,0.1-36.4,0.7
								C295,138.8,295,139.8,295.7,139.9L295.7,139.9z"/>
						</g>
					</g>
					<g>
						<g>
							<path class="st28" d="M360.6,143.6c-12-0.3-24-0.6-36-0.8c-5.9-0.1-11.8-0.1-17.8-0.1c-3,0-5.9,0-8.9,0c-2.3,0-5.2-0.7-7,0.9
								c-0.3,0.3-0.3,0.9,0,1.2c1.7,1.5,4.3,0.9,6.5,0.9c3,0,5.9,0,8.9-0.1c6.1,0,12.2,0,18.2-0.2c12-0.2,24-0.6,36-0.9
								C361.2,144.5,361.2,143.7,360.6,143.6L360.6,143.6z"/>
						</g>
					</g>
					<g>
						<g>
							<path class="st28" d="M293.4,150c12.9,0.2,25.8-0.1,38.6-0.5c6.3-0.2,12.5-0.4,18.8-0.7c6.4-0.3,12.9-0.3,19.2-1.2
								c1.7-0.2,1.2-2.9-0.4-2.9c-6.2-0.1-12.6,0.7-18.8,1c-6.4,0.3-12.9,0.6-19.3,0.9c-12.7,0.6-25.4,0.9-38.1,1.5
								C292.2,148.1,292.1,149.9,293.4,150L293.4,150z"/>
						</g>
					</g>
					<g>
						<g>
							<path class="st28" d="M291.3,155c13.3,0.7,26.6,0.1,39.9-0.1c6.5-0.1,13-0.2,19.5-0.3c3.3-0.1,6.7-0.1,10-0.2
								c2.8-0.1,6.3,0.4,8.8-1c0.4-0.2,0.4-0.9,0-1.1c-2.4-1.3-5.6-0.7-8.3-0.7c-3.3,0.1-6.7,0.1-10,0.2c-6.7,0.2-13.3,0.3-20,0.5
								c-13.3,0.3-26.7,0.3-39.9,1.5C290.6,153.9,290.5,155,291.3,155L291.3,155z"/>
						</g>
					</g>
				</g>
				<path class="st54" d="M290.3,175.3c0,0,8.6-14.5,17.4-19.4c9.1-5.1,48.2-11,57.4,3.7c9.1,14.6,8,21.3,8,21.3L290.3,175.3z"/>
				<path class="st14" d="M323.3,144.1l0.5,11.2c0,0,2,2.6,7.8,1.7c7.4-1.1,8.7-4.7,8.7-4.7l-5.1-15.2"/>
				<line class="st55" x1="317.3" y1="125.3" x2="312.6" y2="121.3"/>
				<g>
					<path class="st14" d="M339.6,120.8c-0.3-1.2-0.8-2.4-1.4-3.5c-2.1-3.8-5.8-6.7-10.1-7.4c-2.1-0.3-4.5,0-6.2,1.2
						c-2.6,1.8-3.9,5.3-5.1,8.1c-2.2,5.1-4.7,11.1-4.4,16.7c0.1,2,0.7,3.9,1.9,5.5c1.2,1.5,3,2.4,4.8,3c2.6,0.8,5.4,1.1,8.1,0.5
						c3.4-0.7,6.5-2.8,8.7-5.5s3.6-6.1,4.2-9.5C340.5,126.9,340.4,123.8,339.6,120.8z"/>
				</g>
				<g>
					<path class="st56" d="M346.1,134.5c-1.7,2.9-7.9,7.9-10.8,5.4c-0.6-0.5,0.7-3.6,0.9-4.2c0.6-2,1.8-3.9,0.3-5.8
						c-3.1-4.1-6.2-8.7-6.3-13.8c-2.1,0.3-4.2,0.8-6.4,0.9c-2.1,0-4.4-0.4-6-1.8c-1.6-1.4-2.5-3.8-1.6-5.8c0.4-0.9,1.1-1.6,1.8-2.2
						c0.2-0.2,0.5-0.4,0.8-0.4c1-0.3,2,0.7,3,1c-0.6-1.4,0.2-3.2,1.7-3.7c0.7-0.2,1.4-0.1,2.1-0.1c2.4,0.3,4.8,0.5,7.1,1.1
						c4.6,1.1,8.9,3.4,12,6.9C350.4,118.2,350.4,127.4,346.1,134.5z"/>
				</g>
				<path class="st30" d="M327.5,127.5c-0.3,0.2-0.3,0.7,0,0.9c0.2,0.3,0.7,0.3,0.9,0c0.3-0.2,0.3-0.7,0-0.9
					C328.1,127.2,327.7,127.2,327.5,127.5z"/>
				<path class="st30" d="M317.5,123.9c-0.3,0.2-0.3,0.7,0,0.9c0.2,0.3,0.7,0.3,0.9,0c0.3-0.2,0.3-0.7,0-0.9
					C318.2,123.6,317.8,123.6,317.5,123.9z"/>
				<g>
					<path class="st37" d="M330.3,133.3c-0.2-1.7-3.2-2.6-4.4-1c-1.1,1.4,0.2,3.3,1.5,3.8c0.7,0.3,1.6,0,2.2-0.6
						C330.2,134.9,330.4,134,330.3,133.3z"/>
				</g>
				<g>
					<path class="st37" d="M317.1,127.5c-0.2-1.5-2.3-2.3-3.4-0.9c-1,1.2-0.3,2.9,0.8,3.4c0.6,0.2,1.4,0,1.9-0.5
						C316.9,128.9,317.2,128.2,317.1,127.5z"/>
				</g>
				<path class="st32" d="M320.7,126c-1.4,1.7-2.3,3.8-2.6,5.9c-0.1,0.6-0.1,1.3,0.3,1.8c0.3,0.4,0.8,0.6,1.3,0.6
					c0.5,0,1-0.1,1.4-0.3"/>
				<path class="st57" d="M319.6,122.8c0.1-0.6-0.4-1.5-0.9-1.9c-0.4-0.4-1.2-0.5-1.6,0"/>
				<path class="st57" d="M327.2,124.4c1.2-0.4,3.7-0.7,4.6,2"/>
				<g>
					<g>
						<path class="st55" d="M312.1,122.9c-0.3,2.5,1.4,4.7,3.9,5c2.5,0.3,4.7-1.4,5-3.9c0.3-2.5-1.4-4.7-3.9-5
							C314.6,118.7,312.4,120.4,312.1,122.9z"/>
						<path class="st55" d="M324.5,126c-0.2-1.2-2.1-2.4-3.6-1.2"/>
						<line class="st55" x1="339.1" y1="133.5" x2="334.5" y2="128.7"/>
						
							<ellipse transform="matrix(0.926 -0.3775 0.3775 0.926 -23.6697 133.7979)" class="st55" cx="329.5" cy="127.3" rx="5.2" ry="5.2"/>
					</g>
				</g>
				<g>
					<path class="st10" d="M318,135.9c1.6,0.8,4.5,1.1,6.5,0.7c0.3-0.1,0.6,0.1,0.7,0.2c0.8,1.6-0.5,4.3-4,4
						c-3.1-0.3-5.2-2.2-3.8-4.8C317.4,135.8,317.7,135.7,318,135.9z"/>
				</g>
				<g>
					<g>
						<path class="st14" d="M336.1,132.3c1.3-0.6,3,0.1,3.5,1.5c0.2,0.5,0.2,1.1,0.1,1.6c-0.3,2.3-2.2,4.6-4.4,4.9
							c-2.2,0.3-3.7-1.1-3.5-2.8"/>
					</g>
					<g>
						<path class="st37" d="M333.7,136.7c0.4-0.5,1.1-0.5,1.6-0.5c0.2,0,0.5-0.1,0.6-0.3c0.1-0.2,0.1-0.3,0.1-0.5
							c0-0.4,0.1-0.9,0.2-1.2c0.2-0.4,0.5-0.7,0.9-0.7c1.7-0.1,0.7,3,0.2,3.8c-0.8,1.3-3.9,2.8-3.9,0.2
							C333.5,137.1,333.6,136.9,333.7,136.7z"/>
					</g>
				</g>
				<path class="st32" d="M323.3,145.5c0,0,5.6,0,10.5-4.1"/>
				<path class="st58" d="M320.9,152.4c0,0-0.9,7.4,8,7.4c7.6,0,14.7-2.5,14.5-9.3"/>
				<line class="st58" x1="311.6" y1="162.2" x2="309.2" y2="176.6"/>
				<g>
					<g>
						<path class="st56" d="M337.9,107.3c5.4,3.5,10.6,8.2,11.5,14.9c0.9,6.4-2.7,11.9-7.4,15.9c-0.2,0.2,0.1,0.5,0.3,0.4
							c5.2-3.6,8.7-10,7.8-16.3c-1-6.9-6.3-11.9-12.2-15.1C337.8,107,337.7,107.2,337.9,107.3L337.9,107.3z"/>
					</g>
				</g>
				<g>
					<g>
						<path class="st56" d="M318.1,107.8c-4.1,1.6-4.5,7.2-0.6,9.3c3.7,2,9.4,0.8,12.9-0.9c0.3-0.1,0.1-0.6-0.2-0.5
							c-2.9,0.7-5.8,1.7-8.8,1.5c-1.7-0.1-3.6-0.5-4.8-1.8c-2.2-2.3-1-6,1.7-7.3C318.5,108.1,318.3,107.8,318.1,107.8L318.1,107.8z"
							/>
					</g>
				</g>
			</g>
		</g>
		<g>
			<path class="st5" d="M272.7,131.5h-18.3c-4,0-7.3-3.3-7.3-7.3v-8.4c0-4,3.3-7.3,7.3-7.3h30.3c0.4,0,0.5,0.5,0.2,0.7l-4.9,3.6
				v11.4C279.9,128.3,276.7,131.5,272.7,131.5z"/>
			<path class="st28" d="M256.2,116.8c0.3-1.8,1.7-3.2,3.5-3.5c2-0.3,3.8,0.7,4.6,2.4c0.8-1.6,2.6-2.7,4.6-2.4
				c1.8,0.3,3.2,1.7,3.5,3.5c0.2,1.4-0.3,2.8-1.2,3.7l-6.1,6.1c-0.4,0.4-1.1,0.4-1.6,0l-6.1-6.1C256.5,119.6,256,118.2,256.2,116.8z
				"/>
		</g>
	</g>
	<g>
		<line class="st24" x1="132.4" y1="359.5" x2="409.2" y2="359.5"/>
		<line class="st24" x1="22.8" y1="359.5" x2="99.2" y2="359.5"/>
		<line class="st24" x1="104.3" y1="359.5" x2="116.8" y2="359.5"/>
	</g>
</g>
</svg>
